<?xml version="1.0" encoding="utf-8" standalone="no"?>
<!DOCTYPE svg PUBLIC "-//W3C//DTD SVG 1.1//EN"
  "http://www.w3.org/Graphics/SVG/1.1/DTD/svg11.dtd">
<svg height="576pt" version="1.1" viewBox="0 0 1440 576" width="1440pt" xmlns="http://www.w3.org/2000/svg" xmlns:xlink="http://www.w3.org/1999/xlink">
 <metadata>
  <rdf:RDF xmlns:cc="http://creativecommons.org/ns#" xmlns:dc="http://purl.org/dc/elements/1.1/" xmlns:rdf="http://www.w3.org/1999/02/22-rdf-syntax-ns#">
   <cc:Work>
    <dc:type rdf:resource="http://purl.org/dc/dcmitype/StillImage"/>
    <dc:date>2021-06-07T12:40:45.049023</dc:date>
    <dc:format>image/svg+xml</dc:format>
    <dc:creator>
     <cc:Agent>
      <dc:title>Matplotlib v3.4.1, https://matplotlib.org/</dc:title>
     </cc:Agent>
    </dc:creator>
   </cc:Work>
  </rdf:RDF>
 </metadata>
 <defs>
  <style type="text/css">*{stroke-linecap:butt;stroke-linejoin:round;}</style>
 </defs>
 <g id="figure_1">
  <g id="patch_1">
   <path d="M 0 576 
L 1440 576 
L 1440 0 
L 0 0 
z
" style="fill:#ffffff;"/>
  </g>
  <g id="axes_1">
   <g id="patch_2">
    <path d="M 180 512.64 
L 1296 512.64 
L 1296 69.12 
L 180 69.12 
z
" style="fill:#eaeaf2;"/>
   </g>
   <g id="matplotlib.axis_1">
    <g id="xtick_1">
     <g id="line2d_1">
      <path clip-path="url(#p551b685c7e)" d="M 259.016246 512.64 
L 259.016246 69.12 
" style="fill:none;stroke:#ffffff;stroke-linecap:round;"/>
     </g>
     <g id="text_1">
      <!-- 2021-01 -->
      <g style="fill:#262626;" transform="translate(238.833824 530.013594)scale(0.11 -0.11)">
       <defs>
        <path d="M 3222 541 
L 3222 0 
L 194 0 
Q 188 203 259 391 
Q 375 700 629 1000 
Q 884 1300 1366 1694 
Q 2113 2306 2375 2664 
Q 2638 3022 2638 3341 
Q 2638 3675 2398 3904 
Q 2159 4134 1775 4134 
Q 1369 4134 1125 3890 
Q 881 3647 878 3216 
L 300 3275 
Q 359 3922 746 4261 
Q 1134 4600 1788 4600 
Q 2447 4600 2831 4234 
Q 3216 3869 3216 3328 
Q 3216 3053 3103 2787 
Q 2991 2522 2730 2228 
Q 2469 1934 1863 1422 
Q 1356 997 1212 845 
Q 1069 694 975 541 
L 3222 541 
z
" id="ArialMT-32" transform="scale(0.015625)"/>
        <path d="M 266 2259 
Q 266 3072 433 3567 
Q 600 4063 929 4331 
Q 1259 4600 1759 4600 
Q 2128 4600 2406 4451 
Q 2684 4303 2865 4023 
Q 3047 3744 3150 3342 
Q 3253 2941 3253 2259 
Q 3253 1453 3087 958 
Q 2922 463 2592 192 
Q 2263 -78 1759 -78 
Q 1097 -78 719 397 
Q 266 969 266 2259 
z
M 844 2259 
Q 844 1131 1108 757 
Q 1372 384 1759 384 
Q 2147 384 2411 759 
Q 2675 1134 2675 2259 
Q 2675 3391 2411 3762 
Q 2147 4134 1753 4134 
Q 1366 4134 1134 3806 
Q 844 3388 844 2259 
z
" id="ArialMT-30" transform="scale(0.015625)"/>
        <path d="M 2384 0 
L 1822 0 
L 1822 3584 
Q 1619 3391 1289 3197 
Q 959 3003 697 2906 
L 697 3450 
Q 1169 3672 1522 3987 
Q 1875 4303 2022 4600 
L 2384 4600 
L 2384 0 
z
" id="ArialMT-31" transform="scale(0.015625)"/>
        <path d="M 203 1375 
L 203 1941 
L 1931 1941 
L 1931 1375 
L 203 1375 
z
" id="ArialMT-2d" transform="scale(0.015625)"/>
       </defs>
       <use xlink:href="#ArialMT-32"/>
       <use x="55.615234" xlink:href="#ArialMT-30"/>
       <use x="111.230469" xlink:href="#ArialMT-32"/>
       <use x="166.845703" xlink:href="#ArialMT-31"/>
       <use x="222.460938" xlink:href="#ArialMT-2d"/>
       <use x="255.761719" xlink:href="#ArialMT-30"/>
       <use x="311.376953" xlink:href="#ArialMT-31"/>
      </g>
     </g>
    </g>
    <g id="xtick_2">
     <g id="line2d_2">
      <path clip-path="url(#p551b685c7e)" d="M 458.324922 512.64 
L 458.324922 69.12 
" style="fill:none;stroke:#ffffff;stroke-linecap:round;"/>
     </g>
     <g id="text_2">
      <!-- 2021-02 -->
      <g style="fill:#262626;" transform="translate(438.1425 530.013594)scale(0.11 -0.11)">
       <use xlink:href="#ArialMT-32"/>
       <use x="55.615234" xlink:href="#ArialMT-30"/>
       <use x="111.230469" xlink:href="#ArialMT-32"/>
       <use x="166.845703" xlink:href="#ArialMT-31"/>
       <use x="222.460938" xlink:href="#ArialMT-2d"/>
       <use x="255.761719" xlink:href="#ArialMT-30"/>
       <use x="311.376953" xlink:href="#ArialMT-32"/>
      </g>
     </g>
    </g>
    <g id="xtick_3">
     <g id="line2d_3">
      <path clip-path="url(#p551b685c7e)" d="M 638.345662 512.64 
L 638.345662 69.12 
" style="fill:none;stroke:#ffffff;stroke-linecap:round;"/>
     </g>
     <g id="text_3">
      <!-- 2021-03 -->
      <g style="fill:#262626;" transform="translate(618.16324 530.013594)scale(0.11 -0.11)">
       <defs>
        <path d="M 269 1209 
L 831 1284 
Q 928 806 1161 595 
Q 1394 384 1728 384 
Q 2125 384 2398 659 
Q 2672 934 2672 1341 
Q 2672 1728 2419 1979 
Q 2166 2231 1775 2231 
Q 1616 2231 1378 2169 
L 1441 2663 
Q 1497 2656 1531 2656 
Q 1891 2656 2178 2843 
Q 2466 3031 2466 3422 
Q 2466 3731 2256 3934 
Q 2047 4138 1716 4138 
Q 1388 4138 1169 3931 
Q 950 3725 888 3313 
L 325 3413 
Q 428 3978 793 4289 
Q 1159 4600 1703 4600 
Q 2078 4600 2393 4439 
Q 2709 4278 2876 4000 
Q 3044 3722 3044 3409 
Q 3044 3113 2884 2869 
Q 2725 2625 2413 2481 
Q 2819 2388 3044 2092 
Q 3269 1797 3269 1353 
Q 3269 753 2831 336 
Q 2394 -81 1725 -81 
Q 1122 -81 723 278 
Q 325 638 269 1209 
z
" id="ArialMT-33" transform="scale(0.015625)"/>
       </defs>
       <use xlink:href="#ArialMT-32"/>
       <use x="55.615234" xlink:href="#ArialMT-30"/>
       <use x="111.230469" xlink:href="#ArialMT-32"/>
       <use x="166.845703" xlink:href="#ArialMT-31"/>
       <use x="222.460938" xlink:href="#ArialMT-2d"/>
       <use x="255.761719" xlink:href="#ArialMT-30"/>
       <use x="311.376953" xlink:href="#ArialMT-33"/>
      </g>
     </g>
    </g>
    <g id="xtick_4">
     <g id="line2d_4">
      <path clip-path="url(#p551b685c7e)" d="M 837.654338 512.64 
L 837.654338 69.12 
" style="fill:none;stroke:#ffffff;stroke-linecap:round;"/>
     </g>
     <g id="text_4">
      <!-- 2021-04 -->
      <g style="fill:#262626;" transform="translate(817.471916 530.013594)scale(0.11 -0.11)">
       <defs>
        <path d="M 2069 0 
L 2069 1097 
L 81 1097 
L 81 1613 
L 2172 4581 
L 2631 4581 
L 2631 1613 
L 3250 1613 
L 3250 1097 
L 2631 1097 
L 2631 0 
L 2069 0 
z
M 2069 1613 
L 2069 3678 
L 634 1613 
L 2069 1613 
z
" id="ArialMT-34" transform="scale(0.015625)"/>
       </defs>
       <use xlink:href="#ArialMT-32"/>
       <use x="55.615234" xlink:href="#ArialMT-30"/>
       <use x="111.230469" xlink:href="#ArialMT-32"/>
       <use x="166.845703" xlink:href="#ArialMT-31"/>
       <use x="222.460938" xlink:href="#ArialMT-2d"/>
       <use x="255.761719" xlink:href="#ArialMT-30"/>
       <use x="311.376953" xlink:href="#ArialMT-34"/>
      </g>
     </g>
    </g>
    <g id="xtick_5">
     <g id="line2d_5">
      <path clip-path="url(#p551b685c7e)" d="M 1030.533702 512.64 
L 1030.533702 69.12 
" style="fill:none;stroke:#ffffff;stroke-linecap:round;"/>
     </g>
     <g id="text_5">
      <!-- 2021-05 -->
      <g style="fill:#262626;" transform="translate(1010.35128 530.013594)scale(0.11 -0.11)">
       <defs>
        <path d="M 266 1200 
L 856 1250 
Q 922 819 1161 601 
Q 1400 384 1738 384 
Q 2144 384 2425 690 
Q 2706 997 2706 1503 
Q 2706 1984 2436 2262 
Q 2166 2541 1728 2541 
Q 1456 2541 1237 2417 
Q 1019 2294 894 2097 
L 366 2166 
L 809 4519 
L 3088 4519 
L 3088 3981 
L 1259 3981 
L 1013 2750 
Q 1425 3038 1878 3038 
Q 2478 3038 2890 2622 
Q 3303 2206 3303 1553 
Q 3303 931 2941 478 
Q 2500 -78 1738 -78 
Q 1113 -78 717 272 
Q 322 622 266 1200 
z
" id="ArialMT-35" transform="scale(0.015625)"/>
       </defs>
       <use xlink:href="#ArialMT-32"/>
       <use x="55.615234" xlink:href="#ArialMT-30"/>
       <use x="111.230469" xlink:href="#ArialMT-32"/>
       <use x="166.845703" xlink:href="#ArialMT-31"/>
       <use x="222.460938" xlink:href="#ArialMT-2d"/>
       <use x="255.761719" xlink:href="#ArialMT-30"/>
       <use x="311.376953" xlink:href="#ArialMT-35"/>
      </g>
     </g>
    </g>
    <g id="xtick_6">
     <g id="line2d_6">
      <path clip-path="url(#p551b685c7e)" d="M 1229.842378 512.64 
L 1229.842378 69.12 
" style="fill:none;stroke:#ffffff;stroke-linecap:round;"/>
     </g>
     <g id="text_6">
      <!-- 2021-06 -->
      <g style="fill:#262626;" transform="translate(1209.659956 530.013594)scale(0.11 -0.11)">
       <defs>
        <path d="M 3184 3459 
L 2625 3416 
Q 2550 3747 2413 3897 
Q 2184 4138 1850 4138 
Q 1581 4138 1378 3988 
Q 1113 3794 959 3422 
Q 806 3050 800 2363 
Q 1003 2672 1297 2822 
Q 1591 2972 1913 2972 
Q 2475 2972 2870 2558 
Q 3266 2144 3266 1488 
Q 3266 1056 3080 686 
Q 2894 316 2569 119 
Q 2244 -78 1831 -78 
Q 1128 -78 684 439 
Q 241 956 241 2144 
Q 241 3472 731 4075 
Q 1159 4600 1884 4600 
Q 2425 4600 2770 4297 
Q 3116 3994 3184 3459 
z
M 888 1484 
Q 888 1194 1011 928 
Q 1134 663 1356 523 
Q 1578 384 1822 384 
Q 2178 384 2434 671 
Q 2691 959 2691 1453 
Q 2691 1928 2437 2201 
Q 2184 2475 1800 2475 
Q 1419 2475 1153 2201 
Q 888 1928 888 1484 
z
" id="ArialMT-36" transform="scale(0.015625)"/>
       </defs>
       <use xlink:href="#ArialMT-32"/>
       <use x="55.615234" xlink:href="#ArialMT-30"/>
       <use x="111.230469" xlink:href="#ArialMT-32"/>
       <use x="166.845703" xlink:href="#ArialMT-31"/>
       <use x="222.460938" xlink:href="#ArialMT-2d"/>
       <use x="255.761719" xlink:href="#ArialMT-30"/>
       <use x="311.376953" xlink:href="#ArialMT-36"/>
      </g>
     </g>
    </g>
   </g>
   <g id="matplotlib.axis_2">
    <g id="ytick_1">
     <g id="line2d_7">
      <path clip-path="url(#p551b685c7e)" d="M 180 489.836407 
L 1296 489.836407 
" style="fill:none;stroke:#ffffff;stroke-linecap:round;"/>
     </g>
     <g id="line2d_8">
      <defs>
       <path d="M 0 0 
L -6 0 
" id="m34b7c257cb" style="stroke:#262626;stroke-width:1.25;"/>
      </defs>
      <g>
       <use style="fill:#262626;stroke:#262626;stroke-width:1.25;" x="180" xlink:href="#m34b7c257cb" y="489.836407"/>
      </g>
     </g>
     <g id="text_7">
      <!-- 0 -->
      <g style="fill:#262626;" transform="translate(164.382969 493.773204)scale(0.11 -0.11)">
       <use xlink:href="#ArialMT-30"/>
      </g>
     </g>
    </g>
    <g id="ytick_2">
     <g id="line2d_9">
      <path clip-path="url(#p551b685c7e)" d="M 180 427.102829 
L 1296 427.102829 
" style="fill:none;stroke:#ffffff;stroke-linecap:round;"/>
     </g>
     <g id="line2d_10">
      <g>
       <use style="fill:#262626;stroke:#262626;stroke-width:1.25;" x="180" xlink:href="#m34b7c257cb" y="427.102829"/>
      </g>
     </g>
     <g id="text_8">
      <!-- 100000 -->
      <g style="fill:#262626;" transform="translate(133.797812 431.039626)scale(0.11 -0.11)">
       <use xlink:href="#ArialMT-31"/>
       <use x="55.615234" xlink:href="#ArialMT-30"/>
       <use x="111.230469" xlink:href="#ArialMT-30"/>
       <use x="166.845703" xlink:href="#ArialMT-30"/>
       <use x="222.460938" xlink:href="#ArialMT-30"/>
       <use x="278.076172" xlink:href="#ArialMT-30"/>
      </g>
     </g>
    </g>
    <g id="ytick_3">
     <g id="line2d_11">
      <path clip-path="url(#p551b685c7e)" d="M 180 364.36925 
L 1296 364.36925 
" style="fill:none;stroke:#ffffff;stroke-linecap:round;"/>
     </g>
     <g id="line2d_12">
      <g>
       <use style="fill:#262626;stroke:#262626;stroke-width:1.25;" x="180" xlink:href="#m34b7c257cb" y="364.36925"/>
      </g>
     </g>
     <g id="text_9">
      <!-- 200000 -->
      <g style="fill:#262626;" transform="translate(133.797812 368.306047)scale(0.11 -0.11)">
       <use xlink:href="#ArialMT-32"/>
       <use x="55.615234" xlink:href="#ArialMT-30"/>
       <use x="111.230469" xlink:href="#ArialMT-30"/>
       <use x="166.845703" xlink:href="#ArialMT-30"/>
       <use x="222.460938" xlink:href="#ArialMT-30"/>
       <use x="278.076172" xlink:href="#ArialMT-30"/>
      </g>
     </g>
    </g>
    <g id="ytick_4">
     <g id="line2d_13">
      <path clip-path="url(#p551b685c7e)" d="M 180 301.635672 
L 1296 301.635672 
" style="fill:none;stroke:#ffffff;stroke-linecap:round;"/>
     </g>
     <g id="line2d_14">
      <g>
       <use style="fill:#262626;stroke:#262626;stroke-width:1.25;" x="180" xlink:href="#m34b7c257cb" y="301.635672"/>
      </g>
     </g>
     <g id="text_10">
      <!-- 300000 -->
      <g style="fill:#262626;" transform="translate(133.797812 305.572469)scale(0.11 -0.11)">
       <use xlink:href="#ArialMT-33"/>
       <use x="55.615234" xlink:href="#ArialMT-30"/>
       <use x="111.230469" xlink:href="#ArialMT-30"/>
       <use x="166.845703" xlink:href="#ArialMT-30"/>
       <use x="222.460938" xlink:href="#ArialMT-30"/>
       <use x="278.076172" xlink:href="#ArialMT-30"/>
      </g>
     </g>
    </g>
    <g id="ytick_5">
     <g id="line2d_15">
      <path clip-path="url(#p551b685c7e)" d="M 180 238.902094 
L 1296 238.902094 
" style="fill:none;stroke:#ffffff;stroke-linecap:round;"/>
     </g>
     <g id="line2d_16">
      <g>
       <use style="fill:#262626;stroke:#262626;stroke-width:1.25;" x="180" xlink:href="#m34b7c257cb" y="238.902094"/>
      </g>
     </g>
     <g id="text_11">
      <!-- 400000 -->
      <g style="fill:#262626;" transform="translate(133.797812 242.838891)scale(0.11 -0.11)">
       <use xlink:href="#ArialMT-34"/>
       <use x="55.615234" xlink:href="#ArialMT-30"/>
       <use x="111.230469" xlink:href="#ArialMT-30"/>
       <use x="166.845703" xlink:href="#ArialMT-30"/>
       <use x="222.460938" xlink:href="#ArialMT-30"/>
       <use x="278.076172" xlink:href="#ArialMT-30"/>
      </g>
     </g>
    </g>
    <g id="ytick_6">
     <g id="line2d_17">
      <path clip-path="url(#p551b685c7e)" d="M 180 176.168515 
L 1296 176.168515 
" style="fill:none;stroke:#ffffff;stroke-linecap:round;"/>
     </g>
     <g id="line2d_18">
      <g>
       <use style="fill:#262626;stroke:#262626;stroke-width:1.25;" x="180" xlink:href="#m34b7c257cb" y="176.168515"/>
      </g>
     </g>
     <g id="text_12">
      <!-- 500000 -->
      <g style="fill:#262626;" transform="translate(133.797812 180.105312)scale(0.11 -0.11)">
       <use xlink:href="#ArialMT-35"/>
       <use x="55.615234" xlink:href="#ArialMT-30"/>
       <use x="111.230469" xlink:href="#ArialMT-30"/>
       <use x="166.845703" xlink:href="#ArialMT-30"/>
       <use x="222.460938" xlink:href="#ArialMT-30"/>
       <use x="278.076172" xlink:href="#ArialMT-30"/>
      </g>
     </g>
    </g>
    <g id="ytick_7">
     <g id="line2d_19">
      <path clip-path="url(#p551b685c7e)" d="M 180 113.434937 
L 1296 113.434937 
" style="fill:none;stroke:#ffffff;stroke-linecap:round;"/>
     </g>
     <g id="line2d_20">
      <g>
       <use style="fill:#262626;stroke:#262626;stroke-width:1.25;" x="180" xlink:href="#m34b7c257cb" y="113.434937"/>
      </g>
     </g>
     <g id="text_13">
      <!-- 600000 -->
      <g style="fill:#262626;" transform="translate(133.797812 117.371734)scale(0.11 -0.11)">
       <use xlink:href="#ArialMT-36"/>
       <use x="55.615234" xlink:href="#ArialMT-30"/>
       <use x="111.230469" xlink:href="#ArialMT-30"/>
       <use x="166.845703" xlink:href="#ArialMT-30"/>
       <use x="222.460938" xlink:href="#ArialMT-30"/>
       <use x="278.076172" xlink:href="#ArialMT-30"/>
      </g>
     </g>
    </g>
    <g id="text_14">
     <!-- Liczba szczepień -->
     <g style="fill:#262626;" transform="translate(126.816562 347.991328)rotate(-90)scale(0.15 -0.15)">
      <defs>
       <path d="M 469 0 
L 469 4581 
L 1075 4581 
L 1075 541 
L 3331 541 
L 3331 0 
L 469 0 
z
" id="ArialMT-4c" transform="scale(0.015625)"/>
       <path d="M 425 3934 
L 425 4581 
L 988 4581 
L 988 3934 
L 425 3934 
z
M 425 0 
L 425 3319 
L 988 3319 
L 988 0 
L 425 0 
z
" id="ArialMT-69" transform="scale(0.015625)"/>
       <path d="M 2588 1216 
L 3141 1144 
Q 3050 572 2676 248 
Q 2303 -75 1759 -75 
Q 1078 -75 664 370 
Q 250 816 250 1647 
Q 250 2184 428 2587 
Q 606 2991 970 3192 
Q 1334 3394 1763 3394 
Q 2303 3394 2647 3120 
Q 2991 2847 3088 2344 
L 2541 2259 
Q 2463 2594 2264 2762 
Q 2066 2931 1784 2931 
Q 1359 2931 1093 2626 
Q 828 2322 828 1663 
Q 828 994 1084 691 
Q 1341 388 1753 388 
Q 2084 388 2306 591 
Q 2528 794 2588 1216 
z
" id="ArialMT-63" transform="scale(0.015625)"/>
       <path d="M 125 0 
L 125 456 
L 2238 2881 
Q 1878 2863 1603 2863 
L 250 2863 
L 250 3319 
L 2963 3319 
L 2963 2947 
L 1166 841 
L 819 456 
Q 1197 484 1528 484 
L 3063 484 
L 3063 0 
L 125 0 
z
" id="ArialMT-7a" transform="scale(0.015625)"/>
       <path d="M 941 0 
L 419 0 
L 419 4581 
L 981 4581 
L 981 2947 
Q 1338 3394 1891 3394 
Q 2197 3394 2470 3270 
Q 2744 3147 2920 2923 
Q 3097 2700 3197 2384 
Q 3297 2069 3297 1709 
Q 3297 856 2875 390 
Q 2453 -75 1863 -75 
Q 1275 -75 941 416 
L 941 0 
z
M 934 1684 
Q 934 1088 1097 822 
Q 1363 388 1816 388 
Q 2184 388 2453 708 
Q 2722 1028 2722 1663 
Q 2722 2313 2464 2622 
Q 2206 2931 1841 2931 
Q 1472 2931 1203 2611 
Q 934 2291 934 1684 
z
" id="ArialMT-62" transform="scale(0.015625)"/>
       <path d="M 2588 409 
Q 2275 144 1986 34 
Q 1697 -75 1366 -75 
Q 819 -75 525 192 
Q 231 459 231 875 
Q 231 1119 342 1320 
Q 453 1522 633 1644 
Q 813 1766 1038 1828 
Q 1203 1872 1538 1913 
Q 2219 1994 2541 2106 
Q 2544 2222 2544 2253 
Q 2544 2597 2384 2738 
Q 2169 2928 1744 2928 
Q 1347 2928 1158 2789 
Q 969 2650 878 2297 
L 328 2372 
Q 403 2725 575 2942 
Q 747 3159 1072 3276 
Q 1397 3394 1825 3394 
Q 2250 3394 2515 3294 
Q 2781 3194 2906 3042 
Q 3031 2891 3081 2659 
Q 3109 2516 3109 2141 
L 3109 1391 
Q 3109 606 3145 398 
Q 3181 191 3288 0 
L 2700 0 
Q 2613 175 2588 409 
z
M 2541 1666 
Q 2234 1541 1622 1453 
Q 1275 1403 1131 1340 
Q 988 1278 909 1158 
Q 831 1038 831 891 
Q 831 666 1001 516 
Q 1172 366 1500 366 
Q 1825 366 2078 508 
Q 2331 650 2450 897 
Q 2541 1088 2541 1459 
L 2541 1666 
z
" id="ArialMT-61" transform="scale(0.015625)"/>
       <path id="ArialMT-20" transform="scale(0.015625)"/>
       <path d="M 197 991 
L 753 1078 
Q 800 744 1014 566 
Q 1228 388 1613 388 
Q 2000 388 2187 545 
Q 2375 703 2375 916 
Q 2375 1106 2209 1216 
Q 2094 1291 1634 1406 
Q 1016 1563 777 1677 
Q 538 1791 414 1992 
Q 291 2194 291 2438 
Q 291 2659 392 2848 
Q 494 3038 669 3163 
Q 800 3259 1026 3326 
Q 1253 3394 1513 3394 
Q 1903 3394 2198 3281 
Q 2494 3169 2634 2976 
Q 2775 2784 2828 2463 
L 2278 2388 
Q 2241 2644 2061 2787 
Q 1881 2931 1553 2931 
Q 1166 2931 1000 2803 
Q 834 2675 834 2503 
Q 834 2394 903 2306 
Q 972 2216 1119 2156 
Q 1203 2125 1616 2013 
Q 2213 1853 2448 1751 
Q 2684 1650 2818 1456 
Q 2953 1263 2953 975 
Q 2953 694 2789 445 
Q 2625 197 2315 61 
Q 2006 -75 1616 -75 
Q 969 -75 630 194 
Q 291 463 197 991 
z
" id="ArialMT-73" transform="scale(0.015625)"/>
       <path d="M 2694 1069 
L 3275 997 
Q 3138 488 2766 206 
Q 2394 -75 1816 -75 
Q 1088 -75 661 373 
Q 234 822 234 1631 
Q 234 2469 665 2931 
Q 1097 3394 1784 3394 
Q 2450 3394 2872 2941 
Q 3294 2488 3294 1666 
Q 3294 1616 3291 1516 
L 816 1516 
Q 847 969 1125 678 
Q 1403 388 1819 388 
Q 2128 388 2347 550 
Q 2566 713 2694 1069 
z
M 847 1978 
L 2700 1978 
Q 2663 2397 2488 2606 
Q 2219 2931 1791 2931 
Q 1403 2931 1139 2672 
Q 875 2413 847 1978 
z
" id="ArialMT-65" transform="scale(0.015625)"/>
       <path d="M 422 -1272 
L 422 3319 
L 934 3319 
L 934 2888 
Q 1116 3141 1344 3267 
Q 1572 3394 1897 3394 
Q 2322 3394 2647 3175 
Q 2972 2956 3137 2557 
Q 3303 2159 3303 1684 
Q 3303 1175 3120 767 
Q 2938 359 2589 142 
Q 2241 -75 1856 -75 
Q 1575 -75 1351 44 
Q 1128 163 984 344 
L 984 -1272 
L 422 -1272 
z
M 931 1641 
Q 931 1000 1190 694 
Q 1450 388 1819 388 
Q 2194 388 2461 705 
Q 2728 1022 2728 1688 
Q 2728 2322 2467 2637 
Q 2206 2953 1844 2953 
Q 1484 2953 1207 2617 
Q 931 2281 931 1641 
z
" id="ArialMT-70" transform="scale(0.015625)"/>
       <path d="M 422 0 
L 422 3319 
L 928 3319 
L 928 2847 
Q 1294 3394 1984 3394 
Q 2284 3394 2536 3286 
Q 2788 3178 2913 3003 
Q 3038 2828 3088 2588 
Q 3119 2431 3119 2041 
L 3119 0 
L 2556 0 
L 2556 2019 
Q 2556 2363 2490 2533 
Q 2425 2703 2258 2804 
Q 2091 2906 1866 2906 
Q 1506 2906 1245 2678 
Q 984 2450 984 1813 
L 984 0 
L 422 0 
z
M 1398 3731 
L 1813 4606 
L 2551 4606 
L 1863 3731 
L 1398 3731 
z
" id="ArialMT-144" transform="scale(0.015625)"/>
      </defs>
      <use xlink:href="#ArialMT-4c"/>
      <use x="55.615234" xlink:href="#ArialMT-69"/>
      <use x="77.832031" xlink:href="#ArialMT-63"/>
      <use x="127.832031" xlink:href="#ArialMT-7a"/>
      <use x="177.832031" xlink:href="#ArialMT-62"/>
      <use x="233.447266" xlink:href="#ArialMT-61"/>
      <use x="289.0625" xlink:href="#ArialMT-20"/>
      <use x="316.845703" xlink:href="#ArialMT-73"/>
      <use x="366.845703" xlink:href="#ArialMT-7a"/>
      <use x="416.845703" xlink:href="#ArialMT-63"/>
      <use x="466.845703" xlink:href="#ArialMT-7a"/>
      <use x="516.845703" xlink:href="#ArialMT-65"/>
      <use x="572.460938" xlink:href="#ArialMT-70"/>
      <use x="628.076172" xlink:href="#ArialMT-69"/>
      <use x="650.292969" xlink:href="#ArialMT-65"/>
      <use x="705.908203" xlink:href="#ArialMT-144"/>
     </g>
    </g>
   </g>
   <g id="patch_3">
    <path clip-path="url(#p551b685c7e)" d="M 230.727273 489.836407 
L 235.870722 489.836407 
L 235.870722 487.419282 
L 230.727273 487.419282 
z
" style="fill:#ccb974;stroke:#ffffff;stroke-linejoin:miter;"/>
   </g>
   <g id="patch_4">
    <path clip-path="url(#p551b685c7e)" d="M 237.156585 489.836407 
L 242.300035 489.836407 
L 242.300035 487.158938 
L 237.156585 487.158938 
z
" style="fill:#ccb974;stroke:#ffffff;stroke-linejoin:miter;"/>
   </g>
   <g id="patch_5">
    <path clip-path="url(#p551b685c7e)" d="M 243.585897 489.836407 
L 248.729347 489.836407 
L 248.729347 483.640211 
L 243.585897 483.640211 
z
" style="fill:#ccb974;stroke:#ffffff;stroke-linejoin:miter;"/>
   </g>
   <g id="patch_6">
    <path clip-path="url(#p551b685c7e)" d="M 250.015209 489.836407 
L 255.158659 489.836407 
L 255.158659 477.274635 
L 250.015209 477.274635 
z
" style="fill:#ccb974;stroke:#ffffff;stroke-linejoin:miter;"/>
   </g>
   <g id="patch_7">
    <path clip-path="url(#p551b685c7e)" d="M 256.444521 489.836407 
L 261.587971 489.836407 
L 261.587971 483.627665 
L 256.444521 483.627665 
z
" style="fill:#ccb974;stroke:#ffffff;stroke-linejoin:miter;"/>
   </g>
   <g id="patch_8">
    <path clip-path="url(#p551b685c7e)" d="M 262.873833 489.836407 
L 268.017283 489.836407 
L 268.017283 489.335793 
L 262.873833 489.335793 
z
" style="fill:#ccb974;stroke:#ffffff;stroke-linejoin:miter;"/>
   </g>
   <g id="patch_9">
    <path clip-path="url(#p551b685c7e)" d="M 269.303146 489.836407 
L 274.446595 489.836407 
L 274.446595 488.751743 
L 269.303146 488.751743 
z
" style="fill:#ccb974;stroke:#ffffff;stroke-linejoin:miter;"/>
   </g>
   <g id="patch_10">
    <path clip-path="url(#p551b685c7e)" d="M 275.732458 489.836407 
L 280.875907 489.836407 
L 280.875907 489.593628 
L 275.732458 489.593628 
z
" style="fill:#ccb974;stroke:#ffffff;stroke-linejoin:miter;"/>
   </g>
   <g id="patch_11">
    <path clip-path="url(#p551b685c7e)" d="M 282.16177 489.836407 
L 287.305219 489.836407 
L 287.305219 463.885408 
L 282.16177 463.885408 
z
" style="fill:#ccb974;stroke:#ffffff;stroke-linejoin:miter;"/>
   </g>
   <g id="patch_12">
    <path clip-path="url(#p551b685c7e)" d="M 288.591082 489.836407 
L 293.734532 489.836407 
L 293.734532 459.707979 
L 288.591082 459.707979 
z
" style="fill:#ccb974;stroke:#ffffff;stroke-linejoin:miter;"/>
   </g>
   <g id="patch_13">
    <path clip-path="url(#p551b685c7e)" d="M 295.020394 489.836407 
L 300.163844 489.836407 
L 300.163844 477.206256 
L 295.020394 477.206256 
z
" style="fill:#ccb974;stroke:#ffffff;stroke-linejoin:miter;"/>
   </g>
   <g id="patch_14">
    <path clip-path="url(#p551b685c7e)" d="M 301.449706 489.836407 
L 306.593156 489.836407 
L 306.593156 471.896486 
L 301.449706 471.896486 
z
" style="fill:#ccb974;stroke:#ffffff;stroke-linejoin:miter;"/>
   </g>
   <g id="patch_15">
    <path clip-path="url(#p551b685c7e)" d="M 307.879018 489.836407 
L 313.022468 489.836407 
L 313.022468 483.669069 
L 307.879018 483.669069 
z
" style="fill:#ccb974;stroke:#ffffff;stroke-linejoin:miter;"/>
   </g>
   <g id="patch_16">
    <path clip-path="url(#p551b685c7e)" d="M 314.30833 489.836407 
L 319.45178 489.836407 
L 319.45178 489.061647 
L 314.30833 489.061647 
z
" style="fill:#ccb974;stroke:#ffffff;stroke-linejoin:miter;"/>
   </g>
   <g id="patch_17">
    <path clip-path="url(#p551b685c7e)" d="M 320.737643 489.836407 
L 325.881092 489.836407 
L 325.881092 487.934952 
L 320.737643 487.934952 
z
" style="fill:#ccb974;stroke:#ffffff;stroke-linejoin:miter;"/>
   </g>
   <g id="patch_18">
    <path clip-path="url(#p551b685c7e)" d="M 327.166955 489.836407 
L 332.310404 489.836407 
L 332.310404 455.470325 
L 327.166955 455.470325 
z
" style="fill:#ccb974;stroke:#ffffff;stroke-linejoin:miter;"/>
   </g>
   <g id="patch_19">
    <path clip-path="url(#p551b685c7e)" d="M 333.596267 489.836407 
L 338.739717 489.836407 
L 338.739717 457.360488 
L 333.596267 457.360488 
z
" style="fill:#ccb974;stroke:#ffffff;stroke-linejoin:miter;"/>
   </g>
   <g id="patch_20">
    <path clip-path="url(#p551b685c7e)" d="M 340.025579 489.836407 
L 345.169029 489.836407 
L 345.169029 452.440921 
L 340.025579 452.440921 
z
" style="fill:#ccb974;stroke:#ffffff;stroke-linejoin:miter;"/>
   </g>
   <g id="patch_21">
    <path clip-path="url(#p551b685c7e)" d="M 346.454891 489.836407 
L 351.598341 489.836407 
L 351.598341 463.947514 
L 346.454891 463.947514 
z
" style="fill:#ccb974;stroke:#ffffff;stroke-linejoin:miter;"/>
   </g>
   <g id="patch_22">
    <path clip-path="url(#p551b685c7e)" d="M 352.884203 489.836407 
L 358.027653 489.836407 
L 358.027653 473.222673 
L 352.884203 473.222673 
z
" style="fill:#ccb974;stroke:#ffffff;stroke-linejoin:miter;"/>
   </g>
   <g id="patch_23">
    <path clip-path="url(#p551b685c7e)" d="M 359.313515 489.836407 
L 364.456965 489.836407 
L 364.456965 477.076397 
L 359.313515 477.076397 
z
" style="fill:#ccb974;stroke:#ffffff;stroke-linejoin:miter;"/>
   </g>
   <g id="patch_24">
    <path clip-path="url(#p551b685c7e)" d="M 365.742828 489.836407 
L 370.886277 489.836407 
L 370.886277 482.206122 
L 365.742828 482.206122 
z
" style="fill:#ccb974;stroke:#ffffff;stroke-linejoin:miter;"/>
   </g>
   <g id="patch_25">
    <path clip-path="url(#p551b685c7e)" d="M 372.17214 489.836407 
L 377.315589 489.836407 
L 377.315589 473.715132 
L 372.17214 473.715132 
z
" style="fill:#ccb974;stroke:#ffffff;stroke-linejoin:miter;"/>
   </g>
   <g id="patch_26">
    <path clip-path="url(#p551b685c7e)" d="M 378.601452 489.836407 
L 383.744901 489.836407 
L 383.744901 460.938184 
L 378.601452 460.938184 
z
" style="fill:#ccb974;stroke:#ffffff;stroke-linejoin:miter;"/>
   </g>
   <g id="patch_27">
    <path clip-path="url(#p551b685c7e)" d="M 385.030764 489.836407 
L 390.174214 489.836407 
L 390.174214 458.120192 
L 385.030764 458.120192 
z
" style="fill:#ccb974;stroke:#ffffff;stroke-linejoin:miter;"/>
   </g>
   <g id="patch_28">
    <path clip-path="url(#p551b685c7e)" d="M 391.460076 489.836407 
L 396.603526 489.836407 
L 396.603526 456.453988 
L 391.460076 456.453988 
z
" style="fill:#ccb974;stroke:#ffffff;stroke-linejoin:miter;"/>
   </g>
   <g id="patch_29">
    <path clip-path="url(#p551b685c7e)" d="M 397.889388 489.836407 
L 403.032838 489.836407 
L 403.032838 465.195912 
L 397.889388 465.195912 
z
" style="fill:#ccb974;stroke:#ffffff;stroke-linejoin:miter;"/>
   </g>
   <g id="patch_30">
    <path clip-path="url(#p551b685c7e)" d="M 404.3187 489.836407 
L 409.46215 489.836407 
L 409.46215 479.242588 
L 404.3187 479.242588 
z
" style="fill:#ccb974;stroke:#ffffff;stroke-linejoin:miter;"/>
   </g>
   <g id="patch_31">
    <path clip-path="url(#p551b685c7e)" d="M 410.748012 489.836407 
L 415.891462 489.836407 
L 415.891462 485.877918 
L 410.748012 485.877918 
z
" style="fill:#ccb974;stroke:#ffffff;stroke-linejoin:miter;"/>
   </g>
   <g id="patch_32">
    <path clip-path="url(#p551b685c7e)" d="M 417.177325 489.836407 
L 422.320774 489.836407 
L 422.320774 446.228415 
L 417.177325 446.228415 
z
" style="fill:#ccb974;stroke:#ffffff;stroke-linejoin:miter;"/>
   </g>
   <g id="patch_33">
    <path clip-path="url(#p551b685c7e)" d="M 423.606637 489.836407 
L 428.750086 489.836407 
L 428.750086 409.242579 
L 423.606637 409.242579 
z
" style="fill:#ccb974;stroke:#ffffff;stroke-linejoin:miter;"/>
   </g>
   <g id="patch_34">
    <path clip-path="url(#p551b685c7e)" d="M 430.035949 489.836407 
L 435.179399 489.836407 
L 435.179399 425.348798 
L 430.035949 425.348798 
z
" style="fill:#ccb974;stroke:#ffffff;stroke-linejoin:miter;"/>
   </g>
   <g id="patch_35">
    <path clip-path="url(#p551b685c7e)" d="M 436.465261 489.836407 
L 441.608711 489.836407 
L 441.608711 434.139654 
L 436.465261 434.139654 
z
" style="fill:#ccb974;stroke:#ffffff;stroke-linejoin:miter;"/>
   </g>
   <g id="patch_36">
    <path clip-path="url(#p551b685c7e)" d="M 442.894573 489.836407 
L 448.038023 489.836407 
L 448.038023 462.205402 
L 442.894573 462.205402 
z
" style="fill:#ccb974;stroke:#ffffff;stroke-linejoin:miter;"/>
   </g>
   <g id="patch_37">
    <path clip-path="url(#p551b685c7e)" d="M 449.323885 489.836407 
L 454.467335 489.836407 
L 454.467335 479.893135 
L 449.323885 479.893135 
z
" style="fill:#ccb974;stroke:#ffffff;stroke-linejoin:miter;"/>
   </g>
   <g id="patch_38">
    <path clip-path="url(#p551b685c7e)" d="M 455.753197 489.836407 
L 460.896647 489.836407 
L 460.896647 477.306629 
L 455.753197 477.306629 
z
" style="fill:#ccb974;stroke:#ffffff;stroke-linejoin:miter;"/>
   </g>
   <g id="patch_39">
    <path clip-path="url(#p551b685c7e)" d="M 462.18251 489.836407 
L 467.325959 489.836407 
L 467.325959 455.450878 
L 462.18251 455.450878 
z
" style="fill:#ccb974;stroke:#ffffff;stroke-linejoin:miter;"/>
   </g>
   <g id="patch_40">
    <path clip-path="url(#p551b685c7e)" d="M 468.611822 489.836407 
L 473.755271 489.836407 
L 473.755271 420.378416 
L 468.611822 420.378416 
z
" style="fill:#ccb974;stroke:#ffffff;stroke-linejoin:miter;"/>
   </g>
   <g id="patch_41">
    <path clip-path="url(#p551b685c7e)" d="M 475.041134 489.836407 
L 480.184583 489.836407 
L 480.184583 415.09374 
L 475.041134 415.09374 
z
" style="fill:#ccb974;stroke:#ffffff;stroke-linejoin:miter;"/>
   </g>
   <g id="patch_42">
    <path clip-path="url(#p551b685c7e)" d="M 481.470446 489.836407 
L 486.613896 489.836407 
L 486.613896 423.949839 
L 481.470446 423.949839 
z
" style="fill:#ccb974;stroke:#ffffff;stroke-linejoin:miter;"/>
   </g>
   <g id="patch_43">
    <path clip-path="url(#p551b685c7e)" d="M 487.899758 489.836407 
L 493.043208 489.836407 
L 493.043208 457.741908 
L 487.899758 457.741908 
z
" style="fill:#ccb974;stroke:#ffffff;stroke-linejoin:miter;"/>
   </g>
   <g id="patch_44">
    <path clip-path="url(#p551b685c7e)" d="M 494.32907 489.836407 
L 499.47252 489.836407 
L 499.47252 475.160514 
L 494.32907 475.160514 
z
" style="fill:#ccb974;stroke:#ffffff;stroke-linejoin:miter;"/>
   </g>
   <g id="patch_45">
    <path clip-path="url(#p551b685c7e)" d="M 500.758382 489.836407 
L 505.901832 489.836407 
L 505.901832 480.081336 
L 500.758382 480.081336 
z
" style="fill:#ccb974;stroke:#ffffff;stroke-linejoin:miter;"/>
   </g>
   <g id="patch_46">
    <path clip-path="url(#p551b685c7e)" d="M 507.187694 489.836407 
L 512.331144 489.836407 
L 512.331144 469.914105 
L 507.187694 469.914105 
z
" style="fill:#ccb974;stroke:#ffffff;stroke-linejoin:miter;"/>
   </g>
   <g id="patch_47">
    <path clip-path="url(#p551b685c7e)" d="M 513.617007 489.836407 
L 518.760456 489.836407 
L 518.760456 436.356031 
L 513.617007 436.356031 
z
" style="fill:#ccb974;stroke:#ffffff;stroke-linejoin:miter;"/>
   </g>
   <g id="patch_48">
    <path clip-path="url(#p551b685c7e)" d="M 520.046319 489.836407 
L 525.189768 489.836407 
L 525.189768 420.579791 
L 520.046319 420.579791 
z
" style="fill:#ccb974;stroke:#ffffff;stroke-linejoin:miter;"/>
   </g>
   <g id="patch_49">
    <path clip-path="url(#p551b685c7e)" d="M 526.475631 489.836407 
L 531.619081 489.836407 
L 531.619081 421.064094 
L 526.475631 421.064094 
z
" style="fill:#ccb974;stroke:#ffffff;stroke-linejoin:miter;"/>
   </g>
   <g id="patch_50">
    <path clip-path="url(#p551b685c7e)" d="M 532.904943 489.836407 
L 538.048393 489.836407 
L 538.048393 441.362171 
L 532.904943 441.362171 
z
" style="fill:#ccb974;stroke:#ffffff;stroke-linejoin:miter;"/>
   </g>
   <g id="patch_51">
    <path clip-path="url(#p551b685c7e)" d="M 539.334255 489.836407 
L 544.477705 489.836407 
L 544.477705 467.202132 
L 539.334255 467.202132 
z
" style="fill:#ccb974;stroke:#ffffff;stroke-linejoin:miter;"/>
   </g>
   <g id="patch_52">
    <path clip-path="url(#p551b685c7e)" d="M 545.763567 489.836407 
L 550.907017 489.836407 
L 550.907017 480.328506 
L 545.763567 480.328506 
z
" style="fill:#ccb974;stroke:#ffffff;stroke-linejoin:miter;"/>
   </g>
   <g id="patch_53">
    <path clip-path="url(#p551b685c7e)" d="M 552.192879 489.836407 
L 557.336329 489.836407 
L 557.336329 466.687089 
L 552.192879 466.687089 
z
" style="fill:#ccb974;stroke:#ffffff;stroke-linejoin:miter;"/>
   </g>
   <g id="patch_54">
    <path clip-path="url(#p551b685c7e)" d="M 558.622191 489.836407 
L 563.765641 489.836407 
L 563.765641 445.313759 
L 558.622191 445.313759 
z
" style="fill:#ccb974;stroke:#ffffff;stroke-linejoin:miter;"/>
   </g>
   <g id="patch_55">
    <path clip-path="url(#p551b685c7e)" d="M 565.051504 489.836407 
L 570.194953 489.836407 
L 570.194953 392.80199 
L 565.051504 392.80199 
z
" style="fill:#ccb974;stroke:#ffffff;stroke-linejoin:miter;"/>
   </g>
   <g id="patch_56">
    <path clip-path="url(#p551b685c7e)" d="M 571.480816 489.836407 
L 576.624265 489.836407 
L 576.624265 381.806048 
L 571.480816 381.806048 
z
" style="fill:#ccb974;stroke:#ffffff;stroke-linejoin:miter;"/>
   </g>
   <g id="patch_57">
    <path clip-path="url(#p551b685c7e)" d="M 577.910128 489.836407 
L 583.053578 489.836407 
L 583.053578 424.733381 
L 577.910128 424.733381 
z
" style="fill:#ccb974;stroke:#ffffff;stroke-linejoin:miter;"/>
   </g>
   <g id="patch_58">
    <path clip-path="url(#p551b685c7e)" d="M 584.33944 489.836407 
L 589.48289 489.836407 
L 589.48289 466.600517 
L 584.33944 466.600517 
z
" style="fill:#ccb974;stroke:#ffffff;stroke-linejoin:miter;"/>
   </g>
   <g id="patch_59">
    <path clip-path="url(#p551b685c7e)" d="M 590.768752 489.836407 
L 595.912202 489.836407 
L 595.912202 478.955895 
L 590.768752 478.955895 
z
" style="fill:#ccb974;stroke:#ffffff;stroke-linejoin:miter;"/>
   </g>
   <g id="patch_60">
    <path clip-path="url(#p551b685c7e)" d="M 597.198064 489.836407 
L 602.341514 489.836407 
L 602.341514 462.059861 
L 597.198064 462.059861 
z
" style="fill:#ccb974;stroke:#ffffff;stroke-linejoin:miter;"/>
   </g>
   <g id="patch_61">
    <path clip-path="url(#p551b685c7e)" d="M 603.627376 489.836407 
L 608.770826 489.836407 
L 608.770826 443.900999 
L 603.627376 443.900999 
z
" style="fill:#ccb974;stroke:#ffffff;stroke-linejoin:miter;"/>
   </g>
   <g id="patch_62">
    <path clip-path="url(#p551b685c7e)" d="M 610.056689 489.836407 
L 615.200138 489.836407 
L 615.200138 390.702297 
L 610.056689 390.702297 
z
" style="fill:#ccb974;stroke:#ffffff;stroke-linejoin:miter;"/>
   </g>
   <g id="patch_63">
    <path clip-path="url(#p551b685c7e)" d="M 616.486001 489.836407 
L 621.62945 489.836407 
L 621.62945 381.198787 
L 616.486001 381.198787 
z
" style="fill:#ccb974;stroke:#ffffff;stroke-linejoin:miter;"/>
   </g>
   <g id="patch_64">
    <path clip-path="url(#p551b685c7e)" d="M 622.915313 489.836407 
L 628.058763 489.836407 
L 628.058763 423.366417 
L 622.915313 423.366417 
z
" style="fill:#ccb974;stroke:#ffffff;stroke-linejoin:miter;"/>
   </g>
   <g id="patch_65">
    <path clip-path="url(#p551b685c7e)" d="M 629.344625 489.836407 
L 634.488075 489.836407 
L 634.488075 460.815226 
L 629.344625 460.815226 
z
" style="fill:#ccb974;stroke:#ffffff;stroke-linejoin:miter;"/>
   </g>
   <g id="patch_66">
    <path clip-path="url(#p551b685c7e)" d="M 635.773937 489.836407 
L 640.917387 489.836407 
L 640.917387 477.11341 
L 635.773937 477.11341 
z
" style="fill:#ccb974;stroke:#ffffff;stroke-linejoin:miter;"/>
   </g>
   <g id="patch_67">
    <path clip-path="url(#p551b685c7e)" d="M 642.203249 489.836407 
L 647.346699 489.836407 
L 647.346699 460.306457 
L 642.203249 460.306457 
z
" style="fill:#ccb974;stroke:#ffffff;stroke-linejoin:miter;"/>
   </g>
   <g id="patch_68">
    <path clip-path="url(#p551b685c7e)" d="M 648.632561 489.836407 
L 653.776011 489.836407 
L 653.776011 438.300772 
L 648.632561 438.300772 
z
" style="fill:#ccb974;stroke:#ffffff;stroke-linejoin:miter;"/>
   </g>
   <g id="patch_69">
    <path clip-path="url(#p551b685c7e)" d="M 655.061873 489.836407 
L 660.205323 489.836407 
L 660.205323 393.389804 
L 655.061873 393.389804 
z
" style="fill:#ccb974;stroke:#ffffff;stroke-linejoin:miter;"/>
   </g>
   <g id="patch_70">
    <path clip-path="url(#p551b685c7e)" d="M 661.491186 489.836407 
L 666.634635 489.836407 
L 666.634635 381.748334 
L 661.491186 381.748334 
z
" style="fill:#ccb974;stroke:#ffffff;stroke-linejoin:miter;"/>
   </g>
   <g id="patch_71">
    <path clip-path="url(#p551b685c7e)" d="M 667.920498 489.836407 
L 673.063947 489.836407 
L 673.063947 421.424185 
L 667.920498 421.424185 
z
" style="fill:#ccb974;stroke:#ffffff;stroke-linejoin:miter;"/>
   </g>
   <g id="patch_72">
    <path clip-path="url(#p551b685c7e)" d="M 674.34981 489.836407 
L 679.49326 489.836407 
L 679.49326 458.194217 
L 674.34981 458.194217 
z
" style="fill:#ccb974;stroke:#ffffff;stroke-linejoin:miter;"/>
   </g>
   <g id="patch_73">
    <path clip-path="url(#p551b685c7e)" d="M 680.779122 489.836407 
L 685.922572 489.836407 
L 685.922572 478.298447 
L 680.779122 478.298447 
z
" style="fill:#ccb974;stroke:#ffffff;stroke-linejoin:miter;"/>
   </g>
   <g id="patch_74">
    <path clip-path="url(#p551b685c7e)" d="M 687.208434 489.836407 
L 692.351884 489.836407 
L 692.351884 455.621513 
L 687.208434 455.621513 
z
" style="fill:#ccb974;stroke:#ffffff;stroke-linejoin:miter;"/>
   </g>
   <g id="patch_75">
    <path clip-path="url(#p551b685c7e)" d="M 693.637746 489.836407 
L 698.781196 489.836407 
L 698.781196 450.422782 
L 693.637746 450.422782 
z
" style="fill:#ccb974;stroke:#ffffff;stroke-linejoin:miter;"/>
   </g>
   <g id="patch_76">
    <path clip-path="url(#p551b685c7e)" d="M 700.067058 489.836407 
L 705.210508 489.836407 
L 705.210508 400.594755 
L 700.067058 400.594755 
z
" style="fill:#ccb974;stroke:#ffffff;stroke-linejoin:miter;"/>
   </g>
   <g id="patch_77">
    <path clip-path="url(#p551b685c7e)" d="M 706.496371 489.836407 
L 711.63982 489.836407 
L 711.63982 388.121438 
L 706.496371 388.121438 
z
" style="fill:#ccb974;stroke:#ffffff;stroke-linejoin:miter;"/>
   </g>
   <g id="patch_78">
    <path clip-path="url(#p551b685c7e)" d="M 712.925683 489.836407 
L 718.069132 489.836407 
L 718.069132 429.601507 
L 712.925683 429.601507 
z
" style="fill:#ccb974;stroke:#ffffff;stroke-linejoin:miter;"/>
   </g>
   <g id="patch_79">
    <path clip-path="url(#p551b685c7e)" d="M 719.354995 489.836407 
L 724.498445 489.836407 
L 724.498445 470.850717 
L 719.354995 470.850717 
z
" style="fill:#ccb974;stroke:#ffffff;stroke-linejoin:miter;"/>
   </g>
   <g id="patch_80">
    <path clip-path="url(#p551b685c7e)" d="M 725.784307 489.836407 
L 730.927757 489.836407 
L 730.927757 481.526717 
L 725.784307 481.526717 
z
" style="fill:#ccb974;stroke:#ffffff;stroke-linejoin:miter;"/>
   </g>
   <g id="patch_81">
    <path clip-path="url(#p551b685c7e)" d="M 732.213619 489.836407 
L 737.357069 489.836407 
L 737.357069 473.351905 
L 732.213619 473.351905 
z
" style="fill:#ccb974;stroke:#ffffff;stroke-linejoin:miter;"/>
   </g>
   <g id="patch_82">
    <path clip-path="url(#p551b685c7e)" d="M 738.642931 489.836407 
L 743.786381 489.836407 
L 743.786381 459.179135 
L 738.642931 459.179135 
z
" style="fill:#ccb974;stroke:#ffffff;stroke-linejoin:miter;"/>
   </g>
   <g id="patch_83">
    <path clip-path="url(#p551b685c7e)" d="M 745.072243 489.836407 
L 750.215693 489.836407 
L 750.215693 406.417686 
L 745.072243 406.417686 
z
" style="fill:#ccb974;stroke:#ffffff;stroke-linejoin:miter;"/>
   </g>
   <g id="patch_84">
    <path clip-path="url(#p551b685c7e)" d="M 751.501555 489.836407 
L 756.645005 489.836407 
L 756.645005 392.96447 
L 751.501555 392.96447 
z
" style="fill:#ccb974;stroke:#ffffff;stroke-linejoin:miter;"/>
   </g>
   <g id="patch_85">
    <path clip-path="url(#p551b685c7e)" d="M 757.930868 489.836407 
L 763.074317 489.836407 
L 763.074317 433.26703 
L 757.930868 433.26703 
z
" style="fill:#ccb974;stroke:#ffffff;stroke-linejoin:miter;"/>
   </g>
   <g id="patch_86">
    <path clip-path="url(#p551b685c7e)" d="M 764.36018 489.836407 
L 769.503629 489.836407 
L 769.503629 470.594137 
L 764.36018 470.594137 
z
" style="fill:#ccb974;stroke:#ffffff;stroke-linejoin:miter;"/>
   </g>
   <g id="patch_87">
    <path clip-path="url(#p551b685c7e)" d="M 770.789492 489.836407 
L 775.932942 489.836407 
L 775.932942 482.298968 
L 770.789492 482.298968 
z
" style="fill:#ccb974;stroke:#ffffff;stroke-linejoin:miter;"/>
   </g>
   <g id="patch_88">
    <path clip-path="url(#p551b685c7e)" d="M 777.218804 489.836407 
L 782.362254 489.836407 
L 782.362254 457.37429 
L 777.218804 457.37429 
z
" style="fill:#ccb974;stroke:#ffffff;stroke-linejoin:miter;"/>
   </g>
   <g id="patch_89">
    <path clip-path="url(#p551b685c7e)" d="M 783.648116 489.836407 
L 788.791566 489.836407 
L 788.791566 417.123798 
L 783.648116 417.123798 
z
" style="fill:#ccb974;stroke:#ffffff;stroke-linejoin:miter;"/>
   </g>
   <g id="patch_90">
    <path clip-path="url(#p551b685c7e)" d="M 790.077428 489.836407 
L 795.220878 489.836407 
L 795.220878 371.965659 
L 790.077428 371.965659 
z
" style="fill:#ccb974;stroke:#ffffff;stroke-linejoin:miter;"/>
   </g>
   <g id="patch_91">
    <path clip-path="url(#p551b685c7e)" d="M 796.50674 489.836407 
L 801.65019 489.836407 
L 801.65019 356.173736 
L 796.50674 356.173736 
z
" style="fill:#ccb974;stroke:#ffffff;stroke-linejoin:miter;"/>
   </g>
   <g id="patch_92">
    <path clip-path="url(#p551b685c7e)" d="M 802.936053 489.836407 
L 808.079502 489.836407 
L 808.079502 388.985279 
L 802.936053 388.985279 
z
" style="fill:#ccb974;stroke:#ffffff;stroke-linejoin:miter;"/>
   </g>
   <g id="patch_93">
    <path clip-path="url(#p551b685c7e)" d="M 809.365365 489.836407 
L 814.508814 489.836407 
L 814.508814 433.213079 
L 809.365365 433.213079 
z
" style="fill:#ccb974;stroke:#ffffff;stroke-linejoin:miter;"/>
   </g>
   <g id="patch_94">
    <path clip-path="url(#p551b685c7e)" d="M 815.794677 489.836407 
L 820.938127 489.836407 
L 820.938127 466.76927 
L 815.794677 466.76927 
z
" style="fill:#ccb974;stroke:#ffffff;stroke-linejoin:miter;"/>
   </g>
   <g id="patch_95">
    <path clip-path="url(#p551b685c7e)" d="M 822.223989 489.836407 
L 827.367439 489.836407 
L 827.367439 438.801386 
L 822.223989 438.801386 
z
" style="fill:#ccb974;stroke:#ffffff;stroke-linejoin:miter;"/>
   </g>
   <g id="patch_96">
    <path clip-path="url(#p551b685c7e)" d="M 828.653301 489.836407 
L 833.796751 489.836407 
L 833.796751 415.879164 
L 828.653301 415.879164 
z
" style="fill:#ccb974;stroke:#ffffff;stroke-linejoin:miter;"/>
   </g>
   <g id="patch_97">
    <path clip-path="url(#p551b685c7e)" d="M 835.082613 489.836407 
L 840.226063 489.836407 
L 840.226063 371.174589 
L 835.082613 371.174589 
z
" style="fill:#ccb974;stroke:#ffffff;stroke-linejoin:miter;"/>
   </g>
   <g id="patch_98">
    <path clip-path="url(#p551b685c7e)" d="M 841.511925 489.836407 
L 846.655375 489.836407 
L 846.655375 369.517795 
L 841.511925 369.517795 
z
" style="fill:#ccb974;stroke:#ffffff;stroke-linejoin:miter;"/>
   </g>
   <g id="patch_99">
    <path clip-path="url(#p551b685c7e)" d="M 847.941237 489.836407 
L 853.084687 489.836407 
L 853.084687 394.450001 
L 847.941237 394.450001 
z
" style="fill:#ccb974;stroke:#ffffff;stroke-linejoin:miter;"/>
   </g>
   <g id="patch_100">
    <path clip-path="url(#p551b685c7e)" d="M 854.37055 489.836407 
L 859.513999 489.836407 
L 859.513999 465.611208 
L 854.37055 465.611208 
z
" style="fill:#ccb974;stroke:#ffffff;stroke-linejoin:miter;"/>
   </g>
   <g id="patch_101">
    <path clip-path="url(#p551b685c7e)" d="M 860.799862 489.836407 
L 865.943311 489.836407 
L 865.943311 486.402371 
L 860.799862 486.402371 
z
" style="fill:#ccb974;stroke:#ffffff;stroke-linejoin:miter;"/>
   </g>
   <g id="patch_102">
    <path clip-path="url(#p551b685c7e)" d="M 867.229174 489.836407 
L 872.372624 489.836407 
L 872.372624 485.774408 
L 867.229174 485.774408 
z
" style="fill:#ccb974;stroke:#ffffff;stroke-linejoin:miter;"/>
   </g>
   <g id="patch_103">
    <path clip-path="url(#p551b685c7e)" d="M 873.658486 489.836407 
L 878.801936 489.836407 
L 878.801936 411.067499 
L 873.658486 411.067499 
z
" style="fill:#ccb974;stroke:#ffffff;stroke-linejoin:miter;"/>
   </g>
   <g id="patch_104">
    <path clip-path="url(#p551b685c7e)" d="M 880.087798 489.836407 
L 885.231248 489.836407 
L 885.231248 358.907038 
L 880.087798 358.907038 
z
" style="fill:#ccb974;stroke:#ffffff;stroke-linejoin:miter;"/>
   </g>
   <g id="patch_105">
    <path clip-path="url(#p551b685c7e)" d="M 886.51711 489.836407 
L 891.66056 489.836407 
L 891.66056 324.361538 
L 886.51711 324.361538 
z
" style="fill:#ccb974;stroke:#ffffff;stroke-linejoin:miter;"/>
   </g>
   <g id="patch_106">
    <path clip-path="url(#p551b685c7e)" d="M 892.946422 489.836407 
L 898.089872 489.836407 
L 898.089872 350.732225 
L 892.946422 350.732225 
z
" style="fill:#ccb974;stroke:#ffffff;stroke-linejoin:miter;"/>
   </g>
   <g id="patch_107">
    <path clip-path="url(#p551b685c7e)" d="M 899.375735 489.836407 
L 904.519184 489.836407 
L 904.519184 395.673306 
L 899.375735 395.673306 
z
" style="fill:#ccb974;stroke:#ffffff;stroke-linejoin:miter;"/>
   </g>
   <g id="patch_108">
    <path clip-path="url(#p551b685c7e)" d="M 905.805047 489.836407 
L 910.948496 489.836407 
L 910.948496 456.993497 
L 905.805047 456.993497 
z
" style="fill:#ccb974;stroke:#ffffff;stroke-linejoin:miter;"/>
   </g>
   <g id="patch_109">
    <path clip-path="url(#p551b685c7e)" d="M 912.234359 489.836407 
L 917.377809 489.836407 
L 917.377809 429.131005 
L 912.234359 429.131005 
z
" style="fill:#ccb974;stroke:#ffffff;stroke-linejoin:miter;"/>
   </g>
   <g id="patch_110">
    <path clip-path="url(#p551b685c7e)" d="M 918.663671 489.836407 
L 923.807121 489.836407 
L 923.807121 373.289965 
L 918.663671 373.289965 
z
" style="fill:#ccb974;stroke:#ffffff;stroke-linejoin:miter;"/>
   </g>
   <g id="patch_111">
    <path clip-path="url(#p551b685c7e)" d="M 925.092983 489.836407 
L 930.236433 489.836407 
L 930.236433 330.991223 
L 925.092983 330.991223 
z
" style="fill:#ccb974;stroke:#ffffff;stroke-linejoin:miter;"/>
   </g>
   <g id="patch_112">
    <path clip-path="url(#p551b685c7e)" d="M 931.522295 489.836407 
L 936.665745 489.836407 
L 936.665745 325.822603 
L 931.522295 325.822603 
z
" style="fill:#ccb974;stroke:#ffffff;stroke-linejoin:miter;"/>
   </g>
   <g id="patch_113">
    <path clip-path="url(#p551b685c7e)" d="M 937.951607 489.836407 
L 943.095057 489.836407 
L 943.095057 353.163779 
L 937.951607 353.163779 
z
" style="fill:#ccb974;stroke:#ffffff;stroke-linejoin:miter;"/>
   </g>
   <g id="patch_114">
    <path clip-path="url(#p551b685c7e)" d="M 944.380919 489.836407 
L 949.524369 489.836407 
L 949.524369 400.091005 
L 944.380919 400.091005 
z
" style="fill:#ccb974;stroke:#ffffff;stroke-linejoin:miter;"/>
   </g>
   <g id="patch_115">
    <path clip-path="url(#p551b685c7e)" d="M 950.810232 489.836407 
L 955.953681 489.836407 
L 955.953681 460.137704 
L 950.810232 460.137704 
z
" style="fill:#ccb974;stroke:#ffffff;stroke-linejoin:miter;"/>
   </g>
   <g id="patch_116">
    <path clip-path="url(#p551b685c7e)" d="M 957.239544 489.836407 
L 962.382993 489.836407 
L 962.382993 418.657007 
L 957.239544 418.657007 
z
" style="fill:#ccb974;stroke:#ffffff;stroke-linejoin:miter;"/>
   </g>
   <g id="patch_117">
    <path clip-path="url(#p551b685c7e)" d="M 963.668856 489.836407 
L 968.812306 489.836407 
L 968.812306 361.935188 
L 963.668856 361.935188 
z
" style="fill:#ccb974;stroke:#ffffff;stroke-linejoin:miter;"/>
   </g>
   <g id="patch_118">
    <path clip-path="url(#p551b685c7e)" d="M 970.098168 489.836407 
L 975.241618 489.836407 
L 975.241618 311.109697 
L 970.098168 311.109697 
z
" style="fill:#ccb974;stroke:#ffffff;stroke-linejoin:miter;"/>
   </g>
   <g id="patch_119">
    <path clip-path="url(#p551b685c7e)" d="M 976.52748 489.836407 
L 981.67093 489.836407 
L 981.67093 294.327837 
L 976.52748 294.327837 
z
" style="fill:#ccb974;stroke:#ffffff;stroke-linejoin:miter;"/>
   </g>
   <g id="patch_120">
    <path clip-path="url(#p551b685c7e)" d="M 982.956792 489.836407 
L 988.100242 489.836407 
L 988.100242 325.007694 
L 982.956792 325.007694 
z
" style="fill:#ccb974;stroke:#ffffff;stroke-linejoin:miter;"/>
   </g>
   <g id="patch_121">
    <path clip-path="url(#p551b685c7e)" d="M 989.386104 489.836407 
L 994.529554 489.836407 
L 994.529554 353.180717 
L 989.386104 353.180717 
z
" style="fill:#ccb974;stroke:#ffffff;stroke-linejoin:miter;"/>
   </g>
   <g id="patch_122">
    <path clip-path="url(#p551b685c7e)" d="M 995.815417 489.836407 
L 1000.958866 489.836407 
L 1000.958866 454.440867 
L 995.815417 454.440867 
z
" style="fill:#ccb974;stroke:#ffffff;stroke-linejoin:miter;"/>
   </g>
   <g id="patch_123">
    <path clip-path="url(#p551b685c7e)" d="M 1002.244729 489.836407 
L 1007.388178 489.836407 
L 1007.388178 400.024507 
L 1002.244729 400.024507 
z
" style="fill:#ccb974;stroke:#ffffff;stroke-linejoin:miter;"/>
   </g>
   <g id="patch_124">
    <path clip-path="url(#p551b685c7e)" d="M 1008.674041 489.836407 
L 1013.81749 489.836407 
L 1013.81749 331.096615 
L 1008.674041 331.096615 
z
" style="fill:#ccb974;stroke:#ffffff;stroke-linejoin:miter;"/>
   </g>
   <g id="patch_125">
    <path clip-path="url(#p551b685c7e)" d="M 1015.103353 489.836407 
L 1020.246803 489.836407 
L 1020.246803 275.789438 
L 1015.103353 275.789438 
z
" style="fill:#ccb974;stroke:#ffffff;stroke-linejoin:miter;"/>
   </g>
   <g id="patch_126">
    <path clip-path="url(#p551b685c7e)" d="M 1021.532665 489.836407 
L 1026.676115 489.836407 
L 1026.676115 245.532406 
L 1021.532665 245.532406 
z
" style="fill:#ccb974;stroke:#ffffff;stroke-linejoin:miter;"/>
   </g>
   <g id="patch_127">
    <path clip-path="url(#p551b685c7e)" d="M 1027.961977 489.836407 
L 1033.105427 489.836407 
L 1033.105427 313.916397 
L 1027.961977 313.916397 
z
" style="fill:#ccb974;stroke:#ffffff;stroke-linejoin:miter;"/>
   </g>
   <g id="patch_128">
    <path clip-path="url(#p551b685c7e)" d="M 1034.391289 489.836407 
L 1039.534739 489.836407 
L 1039.534739 410.894981 
L 1034.391289 410.894981 
z
" style="fill:#ccb974;stroke:#ffffff;stroke-linejoin:miter;"/>
   </g>
   <g id="patch_129">
    <path clip-path="url(#p551b685c7e)" d="M 1040.820601 489.836407 
L 1045.964051 489.836407 
L 1045.964051 412.711746 
L 1040.820601 412.711746 
z
" style="fill:#ccb974;stroke:#ffffff;stroke-linejoin:miter;"/>
   </g>
   <g id="patch_130">
    <path clip-path="url(#p551b685c7e)" d="M 1047.249914 489.836407 
L 1052.393363 489.836407 
L 1052.393363 492.48 
L 1047.249914 492.48 
z
" style="fill:#ccb974;stroke:#ffffff;stroke-linejoin:miter;"/>
   </g>
   <g id="patch_131">
    <path clip-path="url(#p551b685c7e)" d="M 1053.679226 489.836407 
L 1058.822675 489.836407 
L 1058.822675 345.502127 
L 1053.679226 345.502127 
z
" style="fill:#ccb974;stroke:#ffffff;stroke-linejoin:miter;"/>
   </g>
   <g id="patch_132">
    <path clip-path="url(#p551b685c7e)" d="M 1060.108538 489.836407 
L 1065.251988 489.836407 
L 1065.251988 245.824117 
L 1060.108538 245.824117 
z
" style="fill:#ccb974;stroke:#ffffff;stroke-linejoin:miter;"/>
   </g>
   <g id="patch_133">
    <path clip-path="url(#p551b685c7e)" d="M 1066.53785 489.836407 
L 1071.6813 489.836407 
L 1071.6813 226.655872 
L 1066.53785 226.655872 
z
" style="fill:#ccb974;stroke:#ffffff;stroke-linejoin:miter;"/>
   </g>
   <g id="patch_134">
    <path clip-path="url(#p551b685c7e)" d="M 1072.967162 489.836407 
L 1078.110612 489.836407 
L 1078.110612 254.513345 
L 1072.967162 254.513345 
z
" style="fill:#ccb974;stroke:#ffffff;stroke-linejoin:miter;"/>
   </g>
   <g id="patch_135">
    <path clip-path="url(#p551b685c7e)" d="M 1079.396474 489.836407 
L 1084.539924 489.836407 
L 1084.539924 325.4255 
L 1079.396474 325.4255 
z
" style="fill:#ccb974;stroke:#ffffff;stroke-linejoin:miter;"/>
   </g>
   <g id="patch_136">
    <path clip-path="url(#p551b685c7e)" d="M 1085.825786 489.836407 
L 1090.969236 489.836407 
L 1090.969236 431.684262 
L 1085.825786 431.684262 
z
" style="fill:#ccb974;stroke:#ffffff;stroke-linejoin:miter;"/>
   </g>
   <g id="patch_137">
    <path clip-path="url(#p551b685c7e)" d="M 1092.255099 489.836407 
L 1097.398548 489.836407 
L 1097.398548 368.516567 
L 1092.255099 368.516567 
z
" style="fill:#ccb974;stroke:#ffffff;stroke-linejoin:miter;"/>
   </g>
   <g id="patch_138">
    <path clip-path="url(#p551b685c7e)" d="M 1098.684411 489.836407 
L 1103.82786 489.836407 
L 1103.82786 291.181749 
L 1098.684411 291.181749 
z
" style="fill:#ccb974;stroke:#ffffff;stroke-linejoin:miter;"/>
   </g>
   <g id="patch_139">
    <path clip-path="url(#p551b685c7e)" d="M 1105.113723 489.836407 
L 1110.257172 489.836407 
L 1110.257172 219.316043 
L 1105.113723 219.316043 
z
" style="fill:#ccb974;stroke:#ffffff;stroke-linejoin:miter;"/>
   </g>
   <g id="patch_140">
    <path clip-path="url(#p551b685c7e)" d="M 1111.543035 489.836407 
L 1116.686485 489.836407 
L 1116.686485 214.273518 
L 1111.543035 214.273518 
z
" style="fill:#ccb974;stroke:#ffffff;stroke-linejoin:miter;"/>
   </g>
   <g id="patch_141">
    <path clip-path="url(#p551b685c7e)" d="M 1117.972347 489.836407 
L 1123.115797 489.836407 
L 1123.115797 261.334367 
L 1117.972347 261.334367 
z
" style="fill:#ccb974;stroke:#ffffff;stroke-linejoin:miter;"/>
   </g>
   <g id="patch_142">
    <path clip-path="url(#p551b685c7e)" d="M 1124.401659 489.836407 
L 1129.545109 489.836407 
L 1129.545109 322.327088 
L 1124.401659 322.327088 
z
" style="fill:#ccb974;stroke:#ffffff;stroke-linejoin:miter;"/>
   </g>
   <g id="patch_143">
    <path clip-path="url(#p551b685c7e)" d="M 1130.830971 489.836407 
L 1135.974421 489.836407 
L 1135.974421 424.946676 
L 1130.830971 424.946676 
z
" style="fill:#ccb974;stroke:#ffffff;stroke-linejoin:miter;"/>
   </g>
   <g id="patch_144">
    <path clip-path="url(#p551b685c7e)" d="M 1137.260283 489.836407 
L 1142.403733 489.836407 
L 1142.403733 386.903152 
L 1137.260283 386.903152 
z
" style="fill:#ccb974;stroke:#ffffff;stroke-linejoin:miter;"/>
   </g>
   <g id="patch_145">
    <path clip-path="url(#p551b685c7e)" d="M 1143.689596 489.836407 
L 1148.833045 489.836407 
L 1148.833045 283.512569 
L 1143.689596 283.512569 
z
" style="fill:#ccb974;stroke:#ffffff;stroke-linejoin:miter;"/>
   </g>
   <g id="patch_146">
    <path clip-path="url(#p551b685c7e)" d="M 1150.118908 489.836407 
L 1155.262357 489.836407 
L 1155.262357 213.996863 
L 1150.118908 213.996863 
z
" style="fill:#ccb974;stroke:#ffffff;stroke-linejoin:miter;"/>
   </g>
   <g id="patch_147">
    <path clip-path="url(#p551b685c7e)" d="M 1156.54822 489.836407 
L 1161.69167 489.836407 
L 1161.69167 212.073452 
L 1156.54822 212.073452 
z
" style="fill:#ccb974;stroke:#ffffff;stroke-linejoin:miter;"/>
   </g>
   <g id="patch_148">
    <path clip-path="url(#p551b685c7e)" d="M 1162.977532 489.836407 
L 1168.120982 489.836407 
L 1168.120982 260.585328 
L 1162.977532 260.585328 
z
" style="fill:#ccb974;stroke:#ffffff;stroke-linejoin:miter;"/>
   </g>
   <g id="patch_149">
    <path clip-path="url(#p551b685c7e)" d="M 1169.406844 489.836407 
L 1174.550294 489.836407 
L 1174.550294 335.356225 
L 1169.406844 335.356225 
z
" style="fill:#ccb974;stroke:#ffffff;stroke-linejoin:miter;"/>
   </g>
   <g id="patch_150">
    <path clip-path="url(#p551b685c7e)" d="M 1175.836156 489.836407 
L 1180.979606 489.836407 
L 1180.979606 443.08358 
L 1175.836156 443.08358 
z
" style="fill:#ccb974;stroke:#ffffff;stroke-linejoin:miter;"/>
   </g>
   <g id="patch_151">
    <path clip-path="url(#p551b685c7e)" d="M 1182.265468 489.836407 
L 1187.408918 489.836407 
L 1187.408918 399.061546 
L 1182.265468 399.061546 
z
" style="fill:#ccb974;stroke:#ffffff;stroke-linejoin:miter;"/>
   </g>
   <g id="patch_152">
    <path clip-path="url(#p551b685c7e)" d="M 1188.694781 489.836407 
L 1193.83823 489.836407 
L 1193.83823 299.128838 
L 1188.694781 299.128838 
z
" style="fill:#ccb974;stroke:#ffffff;stroke-linejoin:miter;"/>
   </g>
   <g id="patch_153">
    <path clip-path="url(#p551b685c7e)" d="M 1195.124093 489.836407 
L 1200.267542 489.836407 
L 1200.267542 241.767136 
L 1195.124093 241.767136 
z
" style="fill:#ccb974;stroke:#ffffff;stroke-linejoin:miter;"/>
   </g>
   <g id="patch_154">
    <path clip-path="url(#p551b685c7e)" d="M 1201.553405 489.836407 
L 1206.696854 489.836407 
L 1206.696854 245.218738 
L 1201.553405 245.218738 
z
" style="fill:#ccb974;stroke:#ffffff;stroke-linejoin:miter;"/>
   </g>
   <g id="patch_155">
    <path clip-path="url(#p551b685c7e)" d="M 1207.982717 489.836407 
L 1213.126167 489.836407 
L 1213.126167 270.356083 
L 1207.982717 270.356083 
z
" style="fill:#ccb974;stroke:#ffffff;stroke-linejoin:miter;"/>
   </g>
   <g id="patch_156">
    <path clip-path="url(#p551b685c7e)" d="M 1214.412029 489.836407 
L 1219.555479 489.836407 
L 1219.555479 312.348685 
L 1214.412029 312.348685 
z
" style="fill:#ccb974;stroke:#ffffff;stroke-linejoin:miter;"/>
   </g>
   <g id="patch_157">
    <path clip-path="url(#p551b685c7e)" d="M 1220.841341 489.836407 
L 1225.984791 489.836407 
L 1225.984791 426.414641 
L 1220.841341 426.414641 
z
" style="fill:#ccb974;stroke:#ffffff;stroke-linejoin:miter;"/>
   </g>
   <g id="patch_158">
    <path clip-path="url(#p551b685c7e)" d="M 1227.270653 489.836407 
L 1232.414103 489.836407 
L 1232.414103 379.696946 
L 1227.270653 379.696946 
z
" style="fill:#ccb974;stroke:#ffffff;stroke-linejoin:miter;"/>
   </g>
   <g id="patch_159">
    <path clip-path="url(#p551b685c7e)" d="M 1233.699965 489.836407 
L 1238.843415 489.836407 
L 1238.843415 206.642606 
L 1233.699965 206.642606 
z
" style="fill:#ccb974;stroke:#ffffff;stroke-linejoin:miter;"/>
   </g>
   <g id="patch_160">
    <path clip-path="url(#p551b685c7e)" d="M 1240.129278 489.836407 
L 1245.272727 489.836407 
L 1245.272727 89.28 
L 1240.129278 89.28 
z
" style="fill:#ccb974;stroke:#ffffff;stroke-linejoin:miter;"/>
   </g>
   <g id="patch_161">
    <path d="M 180 512.64 
L 180 69.12 
" style="fill:none;stroke:#ffffff;stroke-linecap:square;stroke-linejoin:miter;stroke-width:1.25;"/>
   </g>
   <g id="patch_162">
    <path d="M 1296 512.64 
L 1296 69.12 
" style="fill:none;stroke:#ffffff;stroke-linecap:square;stroke-linejoin:miter;stroke-width:1.25;"/>
   </g>
   <g id="patch_163">
    <path d="M 180 512.64 
L 1296 512.64 
" style="fill:none;stroke:#ffffff;stroke-linecap:square;stroke-linejoin:miter;stroke-width:1.25;"/>
   </g>
   <g id="patch_164">
    <path d="M 180 69.12 
L 1296 69.12 
" style="fill:none;stroke:#ffffff;stroke-linecap:square;stroke-linejoin:miter;stroke-width:1.25;"/>
   </g>
  </g>
  <g id="axes_2">
   <g id="matplotlib.axis_3">
    <g id="ytick_8">
     <g id="line2d_21">
      <path clip-path="url(#p551b685c7e)" d="M 180 492.48 
L 1296 492.48 
" style="fill:none;stroke:#ffffff;stroke-linecap:round;"/>
     </g>
     <g id="line2d_22">
      <defs>
       <path d="M 0 0 
L 6 0 
" id="mcb8467abfc" style="stroke:#262626;stroke-width:1.25;"/>
      </defs>
      <g>
       <use style="fill:#262626;stroke:#262626;stroke-width:1.25;" x="1296" xlink:href="#mcb8467abfc" y="492.48"/>
      </g>
     </g>
     <g id="text_15">
      <!-- 0 -->
      <g style="fill:#262626;" transform="translate(1305.5 496.416797)scale(0.11 -0.11)">
       <use xlink:href="#ArialMT-30"/>
      </g>
     </g>
    </g>
    <g id="ytick_9">
     <g id="line2d_23">
      <path clip-path="url(#p551b685c7e)" d="M 180 437.973795 
L 1296 437.973795 
" style="fill:none;stroke:#ffffff;stroke-linecap:round;"/>
     </g>
     <g id="line2d_24">
      <g>
       <use style="fill:#262626;stroke:#262626;stroke-width:1.25;" x="1296" xlink:href="#mcb8467abfc" y="437.973795"/>
      </g>
     </g>
     <g id="text_16">
      <!-- 5 -->
      <g style="fill:#262626;" transform="translate(1305.5 441.910592)scale(0.11 -0.11)">
       <use xlink:href="#ArialMT-35"/>
      </g>
     </g>
    </g>
    <g id="ytick_10">
     <g id="line2d_25">
      <path clip-path="url(#p551b685c7e)" d="M 180 383.467591 
L 1296 383.467591 
" style="fill:none;stroke:#ffffff;stroke-linecap:round;"/>
     </g>
     <g id="line2d_26">
      <g>
       <use style="fill:#262626;stroke:#262626;stroke-width:1.25;" x="1296" xlink:href="#mcb8467abfc" y="383.467591"/>
      </g>
     </g>
     <g id="text_17">
      <!-- 10 -->
      <g style="fill:#262626;" transform="translate(1305.5 387.404388)scale(0.11 -0.11)">
       <use xlink:href="#ArialMT-31"/>
       <use x="55.615234" xlink:href="#ArialMT-30"/>
      </g>
     </g>
    </g>
    <g id="ytick_11">
     <g id="line2d_27">
      <path clip-path="url(#p551b685c7e)" d="M 180 328.961386 
L 1296 328.961386 
" style="fill:none;stroke:#ffffff;stroke-linecap:round;"/>
     </g>
     <g id="line2d_28">
      <g>
       <use style="fill:#262626;stroke:#262626;stroke-width:1.25;" x="1296" xlink:href="#mcb8467abfc" y="328.961386"/>
      </g>
     </g>
     <g id="text_18">
      <!-- 15 -->
      <g style="fill:#262626;" transform="translate(1305.5 332.898183)scale(0.11 -0.11)">
       <use xlink:href="#ArialMT-31"/>
       <use x="55.615234" xlink:href="#ArialMT-35"/>
      </g>
     </g>
    </g>
    <g id="ytick_12">
     <g id="line2d_29">
      <path clip-path="url(#p551b685c7e)" d="M 180 274.455181 
L 1296 274.455181 
" style="fill:none;stroke:#ffffff;stroke-linecap:round;"/>
     </g>
     <g id="line2d_30">
      <g>
       <use style="fill:#262626;stroke:#262626;stroke-width:1.25;" x="1296" xlink:href="#mcb8467abfc" y="274.455181"/>
      </g>
     </g>
     <g id="text_19">
      <!-- 20 -->
      <g style="fill:#262626;" transform="translate(1305.5 278.391978)scale(0.11 -0.11)">
       <use xlink:href="#ArialMT-32"/>
       <use x="55.615234" xlink:href="#ArialMT-30"/>
      </g>
     </g>
    </g>
    <g id="ytick_13">
     <g id="line2d_31">
      <path clip-path="url(#p551b685c7e)" d="M 180 219.948977 
L 1296 219.948977 
" style="fill:none;stroke:#ffffff;stroke-linecap:round;"/>
     </g>
     <g id="line2d_32">
      <g>
       <use style="fill:#262626;stroke:#262626;stroke-width:1.25;" x="1296" xlink:href="#mcb8467abfc" y="219.948977"/>
      </g>
     </g>
     <g id="text_20">
      <!-- 25 -->
      <g style="fill:#262626;" transform="translate(1305.5 223.885774)scale(0.11 -0.11)">
       <use xlink:href="#ArialMT-32"/>
       <use x="55.615234" xlink:href="#ArialMT-35"/>
      </g>
     </g>
    </g>
    <g id="ytick_14">
     <g id="line2d_33">
      <path clip-path="url(#p551b685c7e)" d="M 180 165.442772 
L 1296 165.442772 
" style="fill:none;stroke:#ffffff;stroke-linecap:round;"/>
     </g>
     <g id="line2d_34">
      <g>
       <use style="fill:#262626;stroke:#262626;stroke-width:1.25;" x="1296" xlink:href="#mcb8467abfc" y="165.442772"/>
      </g>
     </g>
     <g id="text_21">
      <!-- 30 -->
      <g style="fill:#262626;" transform="translate(1305.5 169.379569)scale(0.11 -0.11)">
       <use xlink:href="#ArialMT-33"/>
       <use x="55.615234" xlink:href="#ArialMT-30"/>
      </g>
     </g>
    </g>
    <g id="ytick_15">
     <g id="line2d_35">
      <path clip-path="url(#p551b685c7e)" d="M 180 110.936568 
L 1296 110.936568 
" style="fill:none;stroke:#ffffff;stroke-linecap:round;"/>
     </g>
     <g id="line2d_36">
      <g>
       <use style="fill:#262626;stroke:#262626;stroke-width:1.25;" x="1296" xlink:href="#mcb8467abfc" y="110.936568"/>
      </g>
     </g>
     <g id="text_22">
      <!-- 35 -->
      <g style="fill:#262626;" transform="translate(1305.5 114.873364)scale(0.11 -0.11)">
       <use xlink:href="#ArialMT-33"/>
       <use x="55.615234" xlink:href="#ArialMT-35"/>
      </g>
     </g>
    </g>
    <g id="text_23">
     <!-- Populacja zaszczepiona [%] -->
     <g style="fill:#262626;" transform="translate(1332.653594 384.263203)rotate(-90)scale(0.15 -0.15)">
      <defs>
       <path d="M 494 0 
L 494 4581 
L 2222 4581 
Q 2678 4581 2919 4538 
Q 3256 4481 3484 4323 
Q 3713 4166 3852 3881 
Q 3991 3597 3991 3256 
Q 3991 2672 3619 2267 
Q 3247 1863 2275 1863 
L 1100 1863 
L 1100 0 
L 494 0 
z
M 1100 2403 
L 2284 2403 
Q 2872 2403 3119 2622 
Q 3366 2841 3366 3238 
Q 3366 3525 3220 3729 
Q 3075 3934 2838 4000 
Q 2684 4041 2272 4041 
L 1100 4041 
L 1100 2403 
z
" id="ArialMT-50" transform="scale(0.015625)"/>
       <path d="M 213 1659 
Q 213 2581 725 3025 
Q 1153 3394 1769 3394 
Q 2453 3394 2887 2945 
Q 3322 2497 3322 1706 
Q 3322 1066 3130 698 
Q 2938 331 2570 128 
Q 2203 -75 1769 -75 
Q 1072 -75 642 372 
Q 213 819 213 1659 
z
M 791 1659 
Q 791 1022 1069 705 
Q 1347 388 1769 388 
Q 2188 388 2466 706 
Q 2744 1025 2744 1678 
Q 2744 2294 2464 2611 
Q 2184 2928 1769 2928 
Q 1347 2928 1069 2612 
Q 791 2297 791 1659 
z
" id="ArialMT-6f" transform="scale(0.015625)"/>
       <path d="M 2597 0 
L 2597 488 
Q 2209 -75 1544 -75 
Q 1250 -75 995 37 
Q 741 150 617 320 
Q 494 491 444 738 
Q 409 903 409 1263 
L 409 3319 
L 972 3319 
L 972 1478 
Q 972 1038 1006 884 
Q 1059 663 1231 536 
Q 1403 409 1656 409 
Q 1909 409 2131 539 
Q 2353 669 2445 892 
Q 2538 1116 2538 1541 
L 2538 3319 
L 3100 3319 
L 3100 0 
L 2597 0 
z
" id="ArialMT-75" transform="scale(0.015625)"/>
       <path d="M 409 0 
L 409 4581 
L 972 4581 
L 972 0 
L 409 0 
z
" id="ArialMT-6c" transform="scale(0.015625)"/>
       <path d="M 419 3928 
L 419 4581 
L 981 4581 
L 981 3928 
L 419 3928 
z
M -294 -1288 
L -188 -809 
Q -19 -853 78 -853 
Q 250 -853 334 -739 
Q 419 -625 419 -169 
L 419 3319 
L 981 3319 
L 981 -181 
Q 981 -794 822 -1034 
Q 619 -1347 147 -1347 
Q -81 -1347 -294 -1288 
z
" id="ArialMT-6a" transform="scale(0.015625)"/>
       <path d="M 422 0 
L 422 3319 
L 928 3319 
L 928 2847 
Q 1294 3394 1984 3394 
Q 2284 3394 2536 3286 
Q 2788 3178 2913 3003 
Q 3038 2828 3088 2588 
Q 3119 2431 3119 2041 
L 3119 0 
L 2556 0 
L 2556 2019 
Q 2556 2363 2490 2533 
Q 2425 2703 2258 2804 
Q 2091 2906 1866 2906 
Q 1506 2906 1245 2678 
Q 984 2450 984 1813 
L 984 0 
L 422 0 
z
" id="ArialMT-6e" transform="scale(0.015625)"/>
       <path d="M 434 -1272 
L 434 4581 
L 1675 4581 
L 1675 4116 
L 997 4116 
L 997 -806 
L 1675 -806 
L 1675 -1272 
L 434 -1272 
z
" id="ArialMT-5b" transform="scale(0.015625)"/>
       <path d="M 372 3481 
Q 372 3972 619 4315 
Q 866 4659 1334 4659 
Q 1766 4659 2048 4351 
Q 2331 4044 2331 3447 
Q 2331 2866 2045 2552 
Q 1759 2238 1341 2238 
Q 925 2238 648 2547 
Q 372 2856 372 3481 
z
M 1350 4272 
Q 1141 4272 1002 4090 
Q 863 3909 863 3425 
Q 863 2984 1003 2804 
Q 1144 2625 1350 2625 
Q 1563 2625 1702 2806 
Q 1841 2988 1841 3469 
Q 1841 3913 1700 4092 
Q 1559 4272 1350 4272 
z
M 1353 -169 
L 3859 4659 
L 4316 4659 
L 1819 -169 
L 1353 -169 
z
M 3334 1075 
Q 3334 1569 3581 1911 
Q 3828 2253 4300 2253 
Q 4731 2253 5014 1945 
Q 5297 1638 5297 1041 
Q 5297 459 5011 145 
Q 4725 -169 4303 -169 
Q 3888 -169 3611 142 
Q 3334 453 3334 1075 
z
M 4316 1866 
Q 4103 1866 3964 1684 
Q 3825 1503 3825 1019 
Q 3825 581 3965 400 
Q 4106 219 4313 219 
Q 4528 219 4667 400 
Q 4806 581 4806 1063 
Q 4806 1506 4665 1686 
Q 4525 1866 4316 1866 
z
" id="ArialMT-25" transform="scale(0.015625)"/>
       <path d="M 1363 -1272 
L 122 -1272 
L 122 -806 
L 800 -806 
L 800 4116 
L 122 4116 
L 122 4581 
L 1363 4581 
L 1363 -1272 
z
" id="ArialMT-5d" transform="scale(0.015625)"/>
      </defs>
      <use xlink:href="#ArialMT-50"/>
      <use x="66.699219" xlink:href="#ArialMT-6f"/>
      <use x="122.314453" xlink:href="#ArialMT-70"/>
      <use x="177.929688" xlink:href="#ArialMT-75"/>
      <use x="233.544922" xlink:href="#ArialMT-6c"/>
      <use x="255.761719" xlink:href="#ArialMT-61"/>
      <use x="311.376953" xlink:href="#ArialMT-63"/>
      <use x="361.376953" xlink:href="#ArialMT-6a"/>
      <use x="383.59375" xlink:href="#ArialMT-61"/>
      <use x="439.208984" xlink:href="#ArialMT-20"/>
      <use x="466.992188" xlink:href="#ArialMT-7a"/>
      <use x="516.992188" xlink:href="#ArialMT-61"/>
      <use x="572.607422" xlink:href="#ArialMT-73"/>
      <use x="622.607422" xlink:href="#ArialMT-7a"/>
      <use x="672.607422" xlink:href="#ArialMT-63"/>
      <use x="722.607422" xlink:href="#ArialMT-7a"/>
      <use x="772.607422" xlink:href="#ArialMT-65"/>
      <use x="828.222656" xlink:href="#ArialMT-70"/>
      <use x="883.837891" xlink:href="#ArialMT-69"/>
      <use x="906.054688" xlink:href="#ArialMT-6f"/>
      <use x="961.669922" xlink:href="#ArialMT-6e"/>
      <use x="1017.285156" xlink:href="#ArialMT-61"/>
      <use x="1072.900391" xlink:href="#ArialMT-20"/>
      <use x="1100.683594" xlink:href="#ArialMT-5b"/>
      <use x="1128.466797" xlink:href="#ArialMT-25"/>
      <use x="1217.382812" xlink:href="#ArialMT-5d"/>
     </g>
    </g>
   </g>
   <g id="line2d_37">
    <path clip-path="url(#p551b685c7e)" d="M 233.298998 492.370172 
L 239.72831 492.248515 
L 246.157622 491.966977 
L 252.586934 491.396204 
L 259.016246 491.114095 
L 278.304183 491.031033 
L 284.733495 489.85189 
L 291.162807 488.482935 
L 297.592119 487.909055 
L 304.021431 487.093914 
L 310.450743 486.813686 
L 323.309367 486.692086 
L 342.597304 481.955816 
L 349.026616 480.779494 
L 355.455928 480.024611 
L 361.88524 479.444831 
L 368.314552 479.098131 
L 374.743865 478.466244 
L 394.031801 475.225859 
L 400.461113 474.271387 
L 406.890425 473.832818 
L 413.319737 473.674077 
L 419.749049 472.492026 
L 426.178362 470.177721 
L 432.607674 468.009644 
L 439.036986 466.315511 
L 445.466298 465.526166 
L 451.89561 465.159798 
L 458.324922 464.64917 
L 464.754234 464.015801 
L 471.183546 462.457805 
L 477.612859 460.636342 
L 484.042171 459.094736 
L 490.471483 458.473196 
L 503.330107 458.097565 
L 509.759419 457.529842 
L 522.618044 453.70845 
L 529.047356 452.199425 
L 535.476668 451.259633 
L 541.90598 450.679938 
L 548.335292 450.399597 
L 554.764604 449.697333 
L 561.193916 448.619123 
L 567.623228 446.564779 
L 574.052541 444.270855 
L 580.481853 442.765935 
L 586.911165 441.959458 
L 593.340477 441.587162 
L 599.769789 440.462376 
L 606.199101 438.973703 
L 619.057726 434.250943 
L 625.487038 432.570663 
L 631.91635 431.588856 
L 638.345662 431.20664 
L 644.774974 430.040266 
L 651.204286 428.321192 
L 664.06291 423.358738 
L 670.492223 421.542435 
L 676.921535 420.448149 
L 683.350847 420.08657 
L 689.780159 418.707126 
L 696.209471 417.18 
L 702.638783 414.309717 
L 709.068095 411.645491 
L 715.497408 410.052178 
L 721.92672 409.395464 
L 728.356032 409.115066 
L 734.785344 408.484035 
L 741.214656 407.404429 
L 754.07328 402.321259 
L 760.502592 400.874573 
L 766.931905 400.266231 
L 773.361217 400.055412 
L 779.790529 398.715133 
L 786.219841 395.968872 
L 799.078465 387.982467 
L 805.507777 384.572252 
L 811.93709 382.410617 
L 818.366402 381.598554 
L 824.795714 379.558519 
L 831.225026 376.672587 
L 844.08365 366.930308 
L 850.512962 362.932531 
L 856.942274 361.91495 
L 869.800899 361.606076 
L 876.230211 358.274277 
L 882.659523 352.534735 
L 889.088835 345.19065 
L 895.518147 339.01194 
L 901.947459 334.858557 
L 908.376772 333.39474 
L 914.806084 330.837862 
L 921.235396 326.217548 
L 934.09402 314.706625 
L 940.523332 309.321594 
L 946.952644 305.582722 
L 953.381956 304.370685 
L 959.811269 301.521437 
L 966.240581 296.691416 
L 972.669893 290.68778 
L 979.099205 284.080335 
L 985.528517 277.938482 
L 991.957829 272.486693 
L 998.387141 271.122356 
L 1004.816454 267.912157 
L 1011.245766 262.366445 
L 1017.675078 255.417118 
L 1024.10439 247.402323 
L 1030.533702 241.37959 
L 1036.963014 238.296207 
L 1043.392326 235.939972 
L 1049.821638 235.415148 
L 1056.250951 230.636976 
L 1062.680263 222.977147 
L 1069.109575 214.972043 
L 1075.538887 207.779887 
L 1081.968199 202.150999 
L 1088.397511 199.997545 
L 1094.826823 196.005611 
L 1101.256135 190.049094 
L 1107.685448 182.795567 
L 1114.11476 175.73664 
L 1120.544072 169.542966 
L 1126.973384 164.960648 
L 1133.402696 163.059173 
L 1139.832008 159.98685 
L 1146.26132 154.167011 
L 1152.690633 146.84496 
L 1159.119945 139.901704 
L 1165.549257 133.952598 
L 1171.978569 130.177013 
L 1178.407881 129.082157 
L 1184.837193 127.203201 
L 1191.266505 123.059737 
L 1197.695817 117.782709 
L 1204.12513 113.286332 
L 1210.554442 109.054162 
L 1216.983754 105.382904 
L 1223.413066 103.855293 
L 1229.842378 101.759561 
L 1236.27169 96.35945 
L 1242.701002 89.28 
L 1242.701002 89.28 
" style="fill:none;stroke:#4c72b0;stroke-linecap:round;stroke-width:1.5;"/>
   </g>
   <g id="line2d_38">
    <path clip-path="url(#p551b685c7e)" d="M 233.298998 492.48 
L 374.743865 492.379379 
L 381.173177 492.16152 
L 394.031801 491.348801 
L 400.461113 491.183675 
L 413.319737 491.119768 
L 419.749049 490.320389 
L 426.178362 488.972727 
L 439.036986 487.374084 
L 445.466298 486.907951 
L 458.324922 486.763832 
L 464.754234 485.834815 
L 477.612859 482.662185 
L 484.042171 481.210083 
L 490.471483 480.373334 
L 496.900795 479.927667 
L 509.759419 479.301396 
L 516.188731 478.736723 
L 522.618044 477.54595 
L 529.047356 475.930147 
L 535.476668 474.6674 
L 541.90598 474.218654 
L 548.335292 474.066982 
L 554.764604 473.717403 
L 561.193916 472.772624 
L 567.623228 470.417985 
L 574.052541 467.803301 
L 580.481853 466.350115 
L 586.911165 466.100816 
L 599.769789 465.841425 
L 606.199101 465.242917 
L 612.628413 463.077149 
L 619.057726 460.525089 
L 625.487038 459.185152 
L 631.91635 458.848315 
L 644.774974 458.477045 
L 651.204286 457.854479 
L 657.633598 455.9607 
L 664.06291 453.523428 
L 670.492223 452.231264 
L 676.921535 451.887814 
L 689.780159 451.549951 
L 696.209471 451.286228 
L 702.638783 450.101611 
L 709.068095 448.144182 
L 715.497408 447.000584 
L 728.356032 446.697468 
L 734.785344 446.579488 
L 741.214656 446.26611 
L 747.643968 445.033663 
L 754.07328 443.157358 
L 760.502592 442.033684 
L 766.931905 441.767709 
L 779.790529 441.501335 
L 786.219841 440.943731 
L 792.649153 439.532504 
L 799.078465 437.501135 
L 805.507777 436.328946 
L 811.93709 435.91777 
L 824.795714 435.402865 
L 837.654338 434.375422 
L 844.08365 433.812032 
L 850.512962 433.475708 
L 863.371587 433.38076 
L 869.800899 433.360835 
L 889.088835 432.729405 
L 901.947459 432.46246 
L 908.376772 432.433984 
L 914.806084 432.232572 
L 921.235396 431.55733 
L 927.664708 430.046851 
L 934.09402 428.39841 
L 940.523332 427.573406 
L 946.952644 427.234488 
L 953.381956 427.097097 
L 959.811269 426.712144 
L 966.240581 425.730679 
L 972.669893 423.613454 
L 979.099205 421.337517 
L 985.528517 419.989997 
L 991.957829 417.106744 
L 998.387141 418.988579 
L 1004.816454 418.117968 
L 1011.245766 414.183299 
L 1017.675078 411.175938 
L 1024.10439 410.58886 
L 1030.533702 408.618262 
L 1036.963014 408.114759 
L 1043.392326 406.966657 
L 1049.821638 403.671173 
L 1056.250951 401.717506 
L 1062.680263 398.161947 
L 1069.109575 394.092595 
L 1075.538887 390.436643 
L 1081.968199 388.435374 
L 1088.397511 387.821047 
L 1094.826823 386.195552 
L 1101.256135 383.040309 
L 1107.685448 377.578714 
L 1114.11476 371.565388 
L 1120.544072 373.341186 
L 1126.973384 370.312332 
L 1133.402696 369.265392 
L 1139.832008 360.162069 
L 1146.26132 355.820158 
L 1152.690633 350.094384 
L 1159.119945 343.617518 
L 1165.549257 338.253865 
L 1171.978569 334.175477 
L 1178.407881 332.935904 
L 1184.837193 330.296991 
L 1191.266505 325.566506 
L 1197.695817 319.427589 
L 1204.12513 312.662457 
L 1210.554442 305.408247 
L 1216.983754 299.032828 
L 1223.413066 296.68808 
L 1229.842378 292.403035 
L 1236.27169 284.388896 
L 1242.701002 272.986575 
L 1242.701002 272.986575 
" style="fill:none;stroke:#c44e52;stroke-linecap:round;stroke-width:1.5;"/>
   </g>
   <g id="patch_165">
    <path d="M 180 512.64 
L 180 69.12 
" style="fill:none;stroke:#ffffff;stroke-linecap:square;stroke-linejoin:miter;stroke-width:1.25;"/>
   </g>
   <g id="patch_166">
    <path d="M 1296 512.64 
L 1296 69.12 
" style="fill:none;stroke:#ffffff;stroke-linecap:square;stroke-linejoin:miter;stroke-width:1.25;"/>
   </g>
   <g id="patch_167">
    <path d="M 180 512.64 
L 1296 512.64 
" style="fill:none;stroke:#ffffff;stroke-linecap:square;stroke-linejoin:miter;stroke-width:1.25;"/>
   </g>
   <g id="patch_168">
    <path d="M 180 69.12 
L 1296 69.12 
" style="fill:none;stroke:#ffffff;stroke-linecap:square;stroke-linejoin:miter;stroke-width:1.25;"/>
   </g>
   <g id="text_24">
    <!-- Szczepienia -->
    <g style="fill:#262626;" transform="translate(684.08125 63.12)scale(0.2 -0.2)">
     <defs>
      <path d="M 288 1472 
L 859 1522 
Q 900 1178 1048 958 
Q 1197 738 1509 602 
Q 1822 466 2213 466 
Q 2559 466 2825 569 
Q 3091 672 3220 851 
Q 3350 1031 3350 1244 
Q 3350 1459 3225 1620 
Q 3100 1781 2813 1891 
Q 2628 1963 1997 2114 
Q 1366 2266 1113 2400 
Q 784 2572 623 2826 
Q 463 3081 463 3397 
Q 463 3744 659 4045 
Q 856 4347 1234 4503 
Q 1613 4659 2075 4659 
Q 2584 4659 2973 4495 
Q 3363 4331 3572 4012 
Q 3781 3694 3797 3291 
L 3216 3247 
Q 3169 3681 2898 3903 
Q 2628 4125 2100 4125 
Q 1550 4125 1298 3923 
Q 1047 3722 1047 3438 
Q 1047 3191 1225 3031 
Q 1400 2872 2139 2705 
Q 2878 2538 3153 2413 
Q 3553 2228 3743 1945 
Q 3934 1663 3934 1294 
Q 3934 928 3725 604 
Q 3516 281 3123 101 
Q 2731 -78 2241 -78 
Q 1619 -78 1198 103 
Q 778 284 539 648 
Q 300 1013 288 1472 
z
" id="ArialMT-53" transform="scale(0.015625)"/>
     </defs>
     <use xlink:href="#ArialMT-53"/>
     <use x="66.699219" xlink:href="#ArialMT-7a"/>
     <use x="116.699219" xlink:href="#ArialMT-63"/>
     <use x="166.699219" xlink:href="#ArialMT-7a"/>
     <use x="216.699219" xlink:href="#ArialMT-65"/>
     <use x="272.314453" xlink:href="#ArialMT-70"/>
     <use x="327.929688" xlink:href="#ArialMT-69"/>
     <use x="350.146484" xlink:href="#ArialMT-65"/>
     <use x="405.761719" xlink:href="#ArialMT-6e"/>
     <use x="461.376953" xlink:href="#ArialMT-69"/>
     <use x="483.59375" xlink:href="#ArialMT-61"/>
    </g>
   </g>
  </g>
  <g id="legend_1">
   <g id="patch_169">
    <path d="M 464.968437 570.5 
L 975.031562 570.5 
Q 977.231562 570.5 977.231562 568.3 
L 977.231562 553.582344 
Q 977.231562 551.382344 975.031562 551.382344 
L 464.968437 551.382344 
Q 462.768438 551.382344 462.768438 553.582344 
L 462.768438 568.3 
Q 462.768438 570.5 464.968437 570.5 
z
" style="fill:#eaeaf2;opacity:0.8;stroke:#cccccc;stroke-linejoin:miter;"/>
   </g>
   <g id="patch_170">
    <path d="M 467.168437 563.79 
L 489.168437 563.79 
L 489.168437 556.09 
L 467.168437 556.09 
z
" style="fill:#ccb974;stroke:#ffffff;stroke-linejoin:miter;"/>
   </g>
   <g id="text_25">
    <!-- Dzienna liczba szczepień -->
    <g style="fill:#262626;" transform="translate(497.968437 563.79)scale(0.11 -0.11)">
     <defs>
      <path d="M 494 0 
L 494 4581 
L 2072 4581 
Q 2606 4581 2888 4516 
Q 3281 4425 3559 4188 
Q 3922 3881 4101 3404 
Q 4281 2928 4281 2316 
Q 4281 1794 4159 1391 
Q 4038 988 3847 723 
Q 3656 459 3429 307 
Q 3203 156 2883 78 
Q 2563 0 2147 0 
L 494 0 
z
M 1100 541 
L 2078 541 
Q 2531 541 2789 625 
Q 3047 709 3200 863 
Q 3416 1078 3536 1442 
Q 3656 1806 3656 2325 
Q 3656 3044 3420 3430 
Q 3184 3816 2847 3947 
Q 2603 4041 2063 4041 
L 1100 4041 
L 1100 541 
z
" id="ArialMT-44" transform="scale(0.015625)"/>
     </defs>
     <use xlink:href="#ArialMT-44"/>
     <use x="72.216797" xlink:href="#ArialMT-7a"/>
     <use x="122.216797" xlink:href="#ArialMT-69"/>
     <use x="144.433594" xlink:href="#ArialMT-65"/>
     <use x="200.048828" xlink:href="#ArialMT-6e"/>
     <use x="255.664062" xlink:href="#ArialMT-6e"/>
     <use x="311.279297" xlink:href="#ArialMT-61"/>
     <use x="366.894531" xlink:href="#ArialMT-20"/>
     <use x="394.677734" xlink:href="#ArialMT-6c"/>
     <use x="416.894531" xlink:href="#ArialMT-69"/>
     <use x="439.111328" xlink:href="#ArialMT-63"/>
     <use x="489.111328" xlink:href="#ArialMT-7a"/>
     <use x="539.111328" xlink:href="#ArialMT-62"/>
     <use x="594.726562" xlink:href="#ArialMT-61"/>
     <use x="650.341797" xlink:href="#ArialMT-20"/>
     <use x="678.125" xlink:href="#ArialMT-73"/>
     <use x="728.125" xlink:href="#ArialMT-7a"/>
     <use x="778.125" xlink:href="#ArialMT-63"/>
     <use x="828.125" xlink:href="#ArialMT-7a"/>
     <use x="878.125" xlink:href="#ArialMT-65"/>
     <use x="933.740234" xlink:href="#ArialMT-70"/>
     <use x="989.355469" xlink:href="#ArialMT-69"/>
     <use x="1011.572266" xlink:href="#ArialMT-65"/>
     <use x="1067.1875" xlink:href="#ArialMT-144"/>
    </g>
   </g>
   <g id="line2d_39">
    <path d="M 643.470937 559.94 
L 665.470937 559.94 
" style="fill:none;stroke:#4c72b0;stroke-linecap:round;stroke-width:1.5;"/>
   </g>
   <g id="line2d_40"/>
   <g id="text_26">
    <!-- Zaszczepieni I dawką [%] -->
    <g style="fill:#262626;" transform="translate(674.270937 563.79)scale(0.11 -0.11)">
     <defs>
      <path d="M 128 0 
L 128 563 
L 2475 3497 
Q 2725 3809 2950 4041 
L 394 4041 
L 394 4581 
L 3675 4581 
L 3675 4041 
L 1103 863 
L 825 541 
L 3750 541 
L 3750 0 
L 128 0 
z
" id="ArialMT-5a" transform="scale(0.015625)"/>
      <path d="M 597 0 
L 597 4581 
L 1203 4581 
L 1203 0 
L 597 0 
z
" id="ArialMT-49" transform="scale(0.015625)"/>
      <path d="M 2575 0 
L 2575 419 
Q 2259 -75 1647 -75 
Q 1250 -75 917 144 
Q 584 363 401 755 
Q 219 1147 219 1656 
Q 219 2153 384 2558 
Q 550 2963 881 3178 
Q 1213 3394 1622 3394 
Q 1922 3394 2156 3267 
Q 2391 3141 2538 2938 
L 2538 4581 
L 3097 4581 
L 3097 0 
L 2575 0 
z
M 797 1656 
Q 797 1019 1065 703 
Q 1334 388 1700 388 
Q 2069 388 2326 689 
Q 2584 991 2584 1609 
Q 2584 2291 2321 2609 
Q 2059 2928 1675 2928 
Q 1300 2928 1048 2622 
Q 797 2316 797 1656 
z
" id="ArialMT-64" transform="scale(0.015625)"/>
      <path d="M 1034 0 
L 19 3319 
L 600 3319 
L 1128 1403 
L 1325 691 
Q 1338 744 1497 1375 
L 2025 3319 
L 2603 3319 
L 3100 1394 
L 3266 759 
L 3456 1400 
L 4025 3319 
L 4572 3319 
L 3534 0 
L 2950 0 
L 2422 1988 
L 2294 2553 
L 1622 0 
L 1034 0 
z
" id="ArialMT-77" transform="scale(0.015625)"/>
      <path d="M 425 0 
L 425 4581 
L 988 4581 
L 988 1969 
L 2319 3319 
L 3047 3319 
L 1778 2088 
L 3175 0 
L 2481 0 
L 1384 1697 
L 988 1316 
L 988 0 
L 425 0 
z
" id="ArialMT-6b" transform="scale(0.015625)"/>
      <path d="M 2588 409 
Q 2275 144 1986 34 
Q 1697 -75 1366 -75 
Q 819 -75 525 192 
Q 231 459 231 875 
Q 231 1119 342 1320 
Q 453 1522 633 1644 
Q 813 1766 1038 1828 
Q 1203 1872 1538 1913 
Q 2219 1994 2541 2106 
Q 2544 2222 2544 2253 
Q 2544 2597 2384 2738 
Q 2169 2928 1744 2928 
Q 1347 2928 1158 2789 
Q 969 2650 878 2297 
L 328 2372 
Q 403 2725 575 2942 
Q 747 3159 1072 3276 
Q 1397 3394 1825 3394 
Q 2250 3394 2515 3294 
Q 2781 3194 2906 3042 
Q 3031 2891 3081 2659 
Q 3109 2516 3109 2141 
L 3109 1391 
Q 3109 606 3145 398 
Q 3181 191 3288 0 
L 2700 0 
Q 2613 175 2588 409 
z
M 2541 1666 
Q 2234 1541 1622 1453 
Q 1275 1403 1131 1340 
Q 988 1278 909 1158 
Q 831 1038 831 891 
Q 831 666 1001 516 
Q 1172 366 1500 366 
Q 1825 366 2078 508 
Q 2331 650 2450 897 
Q 2541 1088 2541 1459 
L 2541 1666 
z
M 3174 0 
Q 2996 -109 2897 -270 
Q 2799 -431 2799 -597 
Q 2799 -728 2871 -818 
Q 2943 -909 3105 -909 
Q 3177 -909 3252 -889 
Q 3327 -869 3390 -834 
L 3390 -1234 
Q 3162 -1344 2965 -1344 
Q 2805 -1344 2686 -1298 
Q 2568 -1253 2488 -1173 
Q 2409 -1094 2369 -991 
Q 2330 -888 2330 -769 
Q 2330 -569 2442 -367 
Q 2555 -166 2762 0 
L 3174 0 
z
" id="ArialMT-105" transform="scale(0.015625)"/>
     </defs>
     <use xlink:href="#ArialMT-5a"/>
     <use x="61.083984" xlink:href="#ArialMT-61"/>
     <use x="116.699219" xlink:href="#ArialMT-73"/>
     <use x="166.699219" xlink:href="#ArialMT-7a"/>
     <use x="216.699219" xlink:href="#ArialMT-63"/>
     <use x="266.699219" xlink:href="#ArialMT-7a"/>
     <use x="316.699219" xlink:href="#ArialMT-65"/>
     <use x="372.314453" xlink:href="#ArialMT-70"/>
     <use x="427.929688" xlink:href="#ArialMT-69"/>
     <use x="450.146484" xlink:href="#ArialMT-65"/>
     <use x="505.761719" xlink:href="#ArialMT-6e"/>
     <use x="561.376953" xlink:href="#ArialMT-69"/>
     <use x="583.59375" xlink:href="#ArialMT-20"/>
     <use x="611.376953" xlink:href="#ArialMT-49"/>
     <use x="639.160156" xlink:href="#ArialMT-20"/>
     <use x="666.943359" xlink:href="#ArialMT-64"/>
     <use x="722.558594" xlink:href="#ArialMT-61"/>
     <use x="778.173828" xlink:href="#ArialMT-77"/>
     <use x="850.390625" xlink:href="#ArialMT-6b"/>
     <use x="900.390625" xlink:href="#ArialMT-105"/>
     <use x="956.005859" xlink:href="#ArialMT-20"/>
     <use x="983.789062" xlink:href="#ArialMT-5b"/>
     <use x="1011.572266" xlink:href="#ArialMT-25"/>
     <use x="1100.488281" xlink:href="#ArialMT-5d"/>
    </g>
   </g>
   <g id="line2d_41">
    <path d="M 820.375 559.94 
L 842.375 559.94 
" style="fill:none;stroke:#c44e52;stroke-linecap:round;stroke-width:1.5;"/>
   </g>
   <g id="line2d_42"/>
   <g id="text_27">
    <!-- W pełni zaszczepieni [%] -->
    <g style="fill:#262626;" transform="translate(851.175 563.79)scale(0.11 -0.11)">
     <defs>
      <path d="M 1294 0 
L 78 4581 
L 700 4581 
L 1397 1578 
Q 1509 1106 1591 641 
Q 1766 1375 1797 1488 
L 2669 4581 
L 3400 4581 
L 4056 2263 
Q 4303 1400 4413 641 
Q 4500 1075 4641 1638 
L 5359 4581 
L 5969 4581 
L 4713 0 
L 4128 0 
L 3163 3491 
Q 3041 3928 3019 4028 
Q 2947 3713 2884 3491 
L 1913 0 
L 1294 0 
z
" id="ArialMT-57" transform="scale(0.015625)"/>
      <path d="M 416 1794 
L 9 1450 
L 9 1944 
L 416 2288 
L 416 4581 
L 975 4581 
L 975 2763 
L 1397 3122 
L 1397 2631 
L 975 2272 
L 975 0 
L 416 0 
L 416 1794 
z
" id="ArialMT-142" transform="scale(0.015625)"/>
     </defs>
     <use xlink:href="#ArialMT-57"/>
     <use x="94.384766" xlink:href="#ArialMT-20"/>
     <use x="122.167969" xlink:href="#ArialMT-70"/>
     <use x="177.783203" xlink:href="#ArialMT-65"/>
     <use x="233.398438" xlink:href="#ArialMT-142"/>
     <use x="255.615234" xlink:href="#ArialMT-6e"/>
     <use x="311.230469" xlink:href="#ArialMT-69"/>
     <use x="333.447266" xlink:href="#ArialMT-20"/>
     <use x="361.230469" xlink:href="#ArialMT-7a"/>
     <use x="411.230469" xlink:href="#ArialMT-61"/>
     <use x="466.845703" xlink:href="#ArialMT-73"/>
     <use x="516.845703" xlink:href="#ArialMT-7a"/>
     <use x="566.845703" xlink:href="#ArialMT-63"/>
     <use x="616.845703" xlink:href="#ArialMT-7a"/>
     <use x="666.845703" xlink:href="#ArialMT-65"/>
     <use x="722.460938" xlink:href="#ArialMT-70"/>
     <use x="778.076172" xlink:href="#ArialMT-69"/>
     <use x="800.292969" xlink:href="#ArialMT-65"/>
     <use x="855.908203" xlink:href="#ArialMT-6e"/>
     <use x="911.523438" xlink:href="#ArialMT-69"/>
     <use x="933.740234" xlink:href="#ArialMT-20"/>
     <use x="961.523438" xlink:href="#ArialMT-5b"/>
     <use x="989.306641" xlink:href="#ArialMT-25"/>
     <use x="1078.222656" xlink:href="#ArialMT-5d"/>
    </g>
   </g>
  </g>
 </g>
 <defs>
  <clipPath id="p551b685c7e">
   <rect height="443.52" width="1116" x="180" y="69.12"/>
  </clipPath>
 </defs>
</svg>
