<?xml version="1.0" encoding="utf-8" standalone="no"?>
<!DOCTYPE svg PUBLIC "-//W3C//DTD SVG 1.1//EN"
  "http://www.w3.org/Graphics/SVG/1.1/DTD/svg11.dtd">
<svg height="576pt" version="1.1" viewBox="0 0 1440 576" width="1440pt" xmlns="http://www.w3.org/2000/svg" xmlns:xlink="http://www.w3.org/1999/xlink">
 <metadata>
  <rdf:RDF xmlns:cc="http://creativecommons.org/ns#" xmlns:dc="http://purl.org/dc/elements/1.1/" xmlns:rdf="http://www.w3.org/1999/02/22-rdf-syntax-ns#">
   <cc:Work>
    <dc:type rdf:resource="http://purl.org/dc/dcmitype/StillImage"/>
    <dc:date>2021-06-07T12:40:45.919694</dc:date>
    <dc:format>image/svg+xml</dc:format>
    <dc:creator>
     <cc:Agent>
      <dc:title>Matplotlib v3.4.1, https://matplotlib.org/</dc:title>
     </cc:Agent>
    </dc:creator>
   </cc:Work>
  </rdf:RDF>
 </metadata>
 <defs>
  <style type="text/css">*{stroke-linecap:butt;stroke-linejoin:round;}</style>
 </defs>
 <g id="figure_1">
  <g id="patch_1">
   <path d="M 0 576 
L 1440 576 
L 1440 0 
L 0 0 
z
" style="fill:#ffffff;"/>
  </g>
  <g id="axes_1">
   <g id="patch_2">
    <path d="M 180 512.64 
L 1296 512.64 
L 1296 69.12 
L 180 69.12 
z
" style="fill:#eaeaf2;"/>
   </g>
   <g id="matplotlib.axis_1">
    <g id="xtick_1">
     <g id="line2d_1">
      <path clip-path="url(#pa82bfeb701)" d="M 256.509876 512.64 
L 256.509876 69.12 
" style="fill:none;stroke:#ffffff;stroke-linecap:round;"/>
     </g>
     <g id="text_1">
      <!-- 2021-01 -->
      <g style="fill:#262626;" transform="translate(236.327455 530.013594)scale(0.11 -0.11)">
       <defs>
        <path d="M 3222 541 
L 3222 0 
L 194 0 
Q 188 203 259 391 
Q 375 700 629 1000 
Q 884 1300 1366 1694 
Q 2113 2306 2375 2664 
Q 2638 3022 2638 3341 
Q 2638 3675 2398 3904 
Q 2159 4134 1775 4134 
Q 1369 4134 1125 3890 
Q 881 3647 878 3216 
L 300 3275 
Q 359 3922 746 4261 
Q 1134 4600 1788 4600 
Q 2447 4600 2831 4234 
Q 3216 3869 3216 3328 
Q 3216 3053 3103 2787 
Q 2991 2522 2730 2228 
Q 2469 1934 1863 1422 
Q 1356 997 1212 845 
Q 1069 694 975 541 
L 3222 541 
z
" id="ArialMT-32" transform="scale(0.015625)"/>
        <path d="M 266 2259 
Q 266 3072 433 3567 
Q 600 4063 929 4331 
Q 1259 4600 1759 4600 
Q 2128 4600 2406 4451 
Q 2684 4303 2865 4023 
Q 3047 3744 3150 3342 
Q 3253 2941 3253 2259 
Q 3253 1453 3087 958 
Q 2922 463 2592 192 
Q 2263 -78 1759 -78 
Q 1097 -78 719 397 
Q 266 969 266 2259 
z
M 844 2259 
Q 844 1131 1108 757 
Q 1372 384 1759 384 
Q 2147 384 2411 759 
Q 2675 1134 2675 2259 
Q 2675 3391 2411 3762 
Q 2147 4134 1753 4134 
Q 1366 4134 1134 3806 
Q 844 3388 844 2259 
z
" id="ArialMT-30" transform="scale(0.015625)"/>
        <path d="M 2384 0 
L 1822 0 
L 1822 3584 
Q 1619 3391 1289 3197 
Q 959 3003 697 2906 
L 697 3450 
Q 1169 3672 1522 3987 
Q 1875 4303 2022 4600 
L 2384 4600 
L 2384 0 
z
" id="ArialMT-31" transform="scale(0.015625)"/>
        <path d="M 203 1375 
L 203 1941 
L 1931 1941 
L 1931 1375 
L 203 1375 
z
" id="ArialMT-2d" transform="scale(0.015625)"/>
       </defs>
       <use xlink:href="#ArialMT-32"/>
       <use x="55.615234" xlink:href="#ArialMT-30"/>
       <use x="111.230469" xlink:href="#ArialMT-32"/>
       <use x="166.845703" xlink:href="#ArialMT-31"/>
       <use x="222.460938" xlink:href="#ArialMT-2d"/>
       <use x="255.761719" xlink:href="#ArialMT-30"/>
       <use x="311.376953" xlink:href="#ArialMT-31"/>
      </g>
     </g>
    </g>
    <g id="xtick_2">
     <g id="line2d_2">
      <path clip-path="url(#pa82bfeb701)" d="M 456.325055 512.64 
L 456.325055 69.12 
" style="fill:none;stroke:#ffffff;stroke-linecap:round;"/>
     </g>
     <g id="text_2">
      <!-- 2021-02 -->
      <g style="fill:#262626;" transform="translate(436.142633 530.013594)scale(0.11 -0.11)">
       <use xlink:href="#ArialMT-32"/>
       <use x="55.615234" xlink:href="#ArialMT-30"/>
       <use x="111.230469" xlink:href="#ArialMT-32"/>
       <use x="166.845703" xlink:href="#ArialMT-31"/>
       <use x="222.460938" xlink:href="#ArialMT-2d"/>
       <use x="255.761719" xlink:href="#ArialMT-30"/>
       <use x="311.376953" xlink:href="#ArialMT-32"/>
      </g>
     </g>
    </g>
    <g id="xtick_3">
     <g id="line2d_3">
      <path clip-path="url(#pa82bfeb701)" d="M 636.803281 512.64 
L 636.803281 69.12 
" style="fill:none;stroke:#ffffff;stroke-linecap:round;"/>
     </g>
     <g id="text_3">
      <!-- 2021-03 -->
      <g style="fill:#262626;" transform="translate(616.620859 530.013594)scale(0.11 -0.11)">
       <defs>
        <path d="M 269 1209 
L 831 1284 
Q 928 806 1161 595 
Q 1394 384 1728 384 
Q 2125 384 2398 659 
Q 2672 934 2672 1341 
Q 2672 1728 2419 1979 
Q 2166 2231 1775 2231 
Q 1616 2231 1378 2169 
L 1441 2663 
Q 1497 2656 1531 2656 
Q 1891 2656 2178 2843 
Q 2466 3031 2466 3422 
Q 2466 3731 2256 3934 
Q 2047 4138 1716 4138 
Q 1388 4138 1169 3931 
Q 950 3725 888 3313 
L 325 3413 
Q 428 3978 793 4289 
Q 1159 4600 1703 4600 
Q 2078 4600 2393 4439 
Q 2709 4278 2876 4000 
Q 3044 3722 3044 3409 
Q 3044 3113 2884 2869 
Q 2725 2625 2413 2481 
Q 2819 2388 3044 2092 
Q 3269 1797 3269 1353 
Q 3269 753 2831 336 
Q 2394 -81 1725 -81 
Q 1122 -81 723 278 
Q 325 638 269 1209 
z
" id="ArialMT-33" transform="scale(0.015625)"/>
       </defs>
       <use xlink:href="#ArialMT-32"/>
       <use x="55.615234" xlink:href="#ArialMT-30"/>
       <use x="111.230469" xlink:href="#ArialMT-32"/>
       <use x="166.845703" xlink:href="#ArialMT-31"/>
       <use x="222.460938" xlink:href="#ArialMT-2d"/>
       <use x="255.761719" xlink:href="#ArialMT-30"/>
       <use x="311.376953" xlink:href="#ArialMT-33"/>
      </g>
     </g>
    </g>
    <g id="xtick_4">
     <g id="line2d_4">
      <path clip-path="url(#pa82bfeb701)" d="M 836.618459 512.64 
L 836.618459 69.12 
" style="fill:none;stroke:#ffffff;stroke-linecap:round;"/>
     </g>
     <g id="text_4">
      <!-- 2021-04 -->
      <g style="fill:#262626;" transform="translate(816.436037 530.013594)scale(0.11 -0.11)">
       <defs>
        <path d="M 2069 0 
L 2069 1097 
L 81 1097 
L 81 1613 
L 2172 4581 
L 2631 4581 
L 2631 1613 
L 3250 1613 
L 3250 1097 
L 2631 1097 
L 2631 0 
L 2069 0 
z
M 2069 1613 
L 2069 3678 
L 634 1613 
L 2069 1613 
z
" id="ArialMT-34" transform="scale(0.015625)"/>
       </defs>
       <use xlink:href="#ArialMT-32"/>
       <use x="55.615234" xlink:href="#ArialMT-30"/>
       <use x="111.230469" xlink:href="#ArialMT-32"/>
       <use x="166.845703" xlink:href="#ArialMT-31"/>
       <use x="222.460938" xlink:href="#ArialMT-2d"/>
       <use x="255.761719" xlink:href="#ArialMT-30"/>
       <use x="311.376953" xlink:href="#ArialMT-34"/>
      </g>
     </g>
    </g>
    <g id="xtick_5">
     <g id="line2d_5">
      <path clip-path="url(#pa82bfeb701)" d="M 1029.987987 512.64 
L 1029.987987 69.12 
" style="fill:none;stroke:#ffffff;stroke-linecap:round;"/>
     </g>
     <g id="text_5">
      <!-- 2021-05 -->
      <g style="fill:#262626;" transform="translate(1009.805565 530.013594)scale(0.11 -0.11)">
       <defs>
        <path d="M 266 1200 
L 856 1250 
Q 922 819 1161 601 
Q 1400 384 1738 384 
Q 2144 384 2425 690 
Q 2706 997 2706 1503 
Q 2706 1984 2436 2262 
Q 2166 2541 1728 2541 
Q 1456 2541 1237 2417 
Q 1019 2294 894 2097 
L 366 2166 
L 809 4519 
L 3088 4519 
L 3088 3981 
L 1259 3981 
L 1013 2750 
Q 1425 3038 1878 3038 
Q 2478 3038 2890 2622 
Q 3303 2206 3303 1553 
Q 3303 931 2941 478 
Q 2500 -78 1738 -78 
Q 1113 -78 717 272 
Q 322 622 266 1200 
z
" id="ArialMT-35" transform="scale(0.015625)"/>
       </defs>
       <use xlink:href="#ArialMT-32"/>
       <use x="55.615234" xlink:href="#ArialMT-30"/>
       <use x="111.230469" xlink:href="#ArialMT-32"/>
       <use x="166.845703" xlink:href="#ArialMT-31"/>
       <use x="222.460938" xlink:href="#ArialMT-2d"/>
       <use x="255.761719" xlink:href="#ArialMT-30"/>
       <use x="311.376953" xlink:href="#ArialMT-35"/>
      </g>
     </g>
    </g>
    <g id="xtick_6">
     <g id="line2d_6">
      <path clip-path="url(#pa82bfeb701)" d="M 1229.803165 512.64 
L 1229.803165 69.12 
" style="fill:none;stroke:#ffffff;stroke-linecap:round;"/>
     </g>
     <g id="text_6">
      <!-- 2021-06 -->
      <g style="fill:#262626;" transform="translate(1209.620743 530.013594)scale(0.11 -0.11)">
       <defs>
        <path d="M 3184 3459 
L 2625 3416 
Q 2550 3747 2413 3897 
Q 2184 4138 1850 4138 
Q 1581 4138 1378 3988 
Q 1113 3794 959 3422 
Q 806 3050 800 2363 
Q 1003 2672 1297 2822 
Q 1591 2972 1913 2972 
Q 2475 2972 2870 2558 
Q 3266 2144 3266 1488 
Q 3266 1056 3080 686 
Q 2894 316 2569 119 
Q 2244 -78 1831 -78 
Q 1128 -78 684 439 
Q 241 956 241 2144 
Q 241 3472 731 4075 
Q 1159 4600 1884 4600 
Q 2425 4600 2770 4297 
Q 3116 3994 3184 3459 
z
M 888 1484 
Q 888 1194 1011 928 
Q 1134 663 1356 523 
Q 1578 384 1822 384 
Q 2178 384 2434 671 
Q 2691 959 2691 1453 
Q 2691 1928 2437 2201 
Q 2184 2475 1800 2475 
Q 1419 2475 1153 2201 
Q 888 1928 888 1484 
z
" id="ArialMT-36" transform="scale(0.015625)"/>
       </defs>
       <use xlink:href="#ArialMT-32"/>
       <use x="55.615234" xlink:href="#ArialMT-30"/>
       <use x="111.230469" xlink:href="#ArialMT-32"/>
       <use x="166.845703" xlink:href="#ArialMT-31"/>
       <use x="222.460938" xlink:href="#ArialMT-2d"/>
       <use x="255.761719" xlink:href="#ArialMT-30"/>
       <use x="311.376953" xlink:href="#ArialMT-36"/>
      </g>
     </g>
    </g>
   </g>
   <g id="matplotlib.axis_2">
    <g id="ytick_1">
     <g id="line2d_7">
      <path clip-path="url(#pa82bfeb701)" d="M 180 512.64 
L 1296 512.64 
" style="fill:none;stroke:#ffffff;stroke-linecap:round;"/>
     </g>
     <g id="line2d_8">
      <defs>
       <path d="M 0 0 
L -6 0 
" id="ma3866991da" style="stroke:#262626;stroke-width:1.25;"/>
      </defs>
      <g>
       <use style="fill:#262626;stroke:#262626;stroke-width:1.25;" x="180" xlink:href="#ma3866991da" y="512.64"/>
      </g>
     </g>
     <g id="text_7">
      <!-- 0 -->
      <g style="fill:#262626;" transform="translate(164.382969 516.576797)scale(0.11 -0.11)">
       <use xlink:href="#ArialMT-30"/>
      </g>
     </g>
    </g>
    <g id="ytick_2">
     <g id="line2d_9">
      <path clip-path="url(#pa82bfeb701)" d="M 180 450.764292 
L 1296 450.764292 
" style="fill:none;stroke:#ffffff;stroke-linecap:round;"/>
     </g>
     <g id="line2d_10">
      <g>
       <use style="fill:#262626;stroke:#262626;stroke-width:1.25;" x="180" xlink:href="#ma3866991da" y="450.764292"/>
      </g>
     </g>
     <g id="text_8">
      <!-- 50000 -->
      <g style="fill:#262626;" transform="translate(139.914844 454.701089)scale(0.11 -0.11)">
       <use xlink:href="#ArialMT-35"/>
       <use x="55.615234" xlink:href="#ArialMT-30"/>
       <use x="111.230469" xlink:href="#ArialMT-30"/>
       <use x="166.845703" xlink:href="#ArialMT-30"/>
       <use x="222.460938" xlink:href="#ArialMT-30"/>
      </g>
     </g>
    </g>
    <g id="ytick_3">
     <g id="line2d_11">
      <path clip-path="url(#pa82bfeb701)" d="M 180 388.888584 
L 1296 388.888584 
" style="fill:none;stroke:#ffffff;stroke-linecap:round;"/>
     </g>
     <g id="line2d_12">
      <g>
       <use style="fill:#262626;stroke:#262626;stroke-width:1.25;" x="180" xlink:href="#ma3866991da" y="388.888584"/>
      </g>
     </g>
     <g id="text_9">
      <!-- 100000 -->
      <g style="fill:#262626;" transform="translate(133.797812 392.825381)scale(0.11 -0.11)">
       <use xlink:href="#ArialMT-31"/>
       <use x="55.615234" xlink:href="#ArialMT-30"/>
       <use x="111.230469" xlink:href="#ArialMT-30"/>
       <use x="166.845703" xlink:href="#ArialMT-30"/>
       <use x="222.460938" xlink:href="#ArialMT-30"/>
       <use x="278.076172" xlink:href="#ArialMT-30"/>
      </g>
     </g>
    </g>
    <g id="ytick_4">
     <g id="line2d_13">
      <path clip-path="url(#pa82bfeb701)" d="M 180 327.012876 
L 1296 327.012876 
" style="fill:none;stroke:#ffffff;stroke-linecap:round;"/>
     </g>
     <g id="line2d_14">
      <g>
       <use style="fill:#262626;stroke:#262626;stroke-width:1.25;" x="180" xlink:href="#ma3866991da" y="327.012876"/>
      </g>
     </g>
     <g id="text_10">
      <!-- 150000 -->
      <g style="fill:#262626;" transform="translate(133.797812 330.949673)scale(0.11 -0.11)">
       <use xlink:href="#ArialMT-31"/>
       <use x="55.615234" xlink:href="#ArialMT-35"/>
       <use x="111.230469" xlink:href="#ArialMT-30"/>
       <use x="166.845703" xlink:href="#ArialMT-30"/>
       <use x="222.460938" xlink:href="#ArialMT-30"/>
       <use x="278.076172" xlink:href="#ArialMT-30"/>
      </g>
     </g>
    </g>
    <g id="ytick_5">
     <g id="line2d_15">
      <path clip-path="url(#pa82bfeb701)" d="M 180 265.137169 
L 1296 265.137169 
" style="fill:none;stroke:#ffffff;stroke-linecap:round;"/>
     </g>
     <g id="line2d_16">
      <g>
       <use style="fill:#262626;stroke:#262626;stroke-width:1.25;" x="180" xlink:href="#ma3866991da" y="265.137169"/>
      </g>
     </g>
     <g id="text_11">
      <!-- 200000 -->
      <g style="fill:#262626;" transform="translate(133.797812 269.073966)scale(0.11 -0.11)">
       <use xlink:href="#ArialMT-32"/>
       <use x="55.615234" xlink:href="#ArialMT-30"/>
       <use x="111.230469" xlink:href="#ArialMT-30"/>
       <use x="166.845703" xlink:href="#ArialMT-30"/>
       <use x="222.460938" xlink:href="#ArialMT-30"/>
       <use x="278.076172" xlink:href="#ArialMT-30"/>
      </g>
     </g>
    </g>
    <g id="ytick_6">
     <g id="line2d_17">
      <path clip-path="url(#pa82bfeb701)" d="M 180 203.261461 
L 1296 203.261461 
" style="fill:none;stroke:#ffffff;stroke-linecap:round;"/>
     </g>
     <g id="line2d_18">
      <g>
       <use style="fill:#262626;stroke:#262626;stroke-width:1.25;" x="180" xlink:href="#ma3866991da" y="203.261461"/>
      </g>
     </g>
     <g id="text_12">
      <!-- 250000 -->
      <g style="fill:#262626;" transform="translate(133.797812 207.198258)scale(0.11 -0.11)">
       <use xlink:href="#ArialMT-32"/>
       <use x="55.615234" xlink:href="#ArialMT-35"/>
       <use x="111.230469" xlink:href="#ArialMT-30"/>
       <use x="166.845703" xlink:href="#ArialMT-30"/>
       <use x="222.460938" xlink:href="#ArialMT-30"/>
       <use x="278.076172" xlink:href="#ArialMT-30"/>
      </g>
     </g>
    </g>
    <g id="ytick_7">
     <g id="line2d_19">
      <path clip-path="url(#pa82bfeb701)" d="M 180 141.385753 
L 1296 141.385753 
" style="fill:none;stroke:#ffffff;stroke-linecap:round;"/>
     </g>
     <g id="line2d_20">
      <g>
       <use style="fill:#262626;stroke:#262626;stroke-width:1.25;" x="180" xlink:href="#ma3866991da" y="141.385753"/>
      </g>
     </g>
     <g id="text_13">
      <!-- 300000 -->
      <g style="fill:#262626;" transform="translate(133.797812 145.32255)scale(0.11 -0.11)">
       <use xlink:href="#ArialMT-33"/>
       <use x="55.615234" xlink:href="#ArialMT-30"/>
       <use x="111.230469" xlink:href="#ArialMT-30"/>
       <use x="166.845703" xlink:href="#ArialMT-30"/>
       <use x="222.460938" xlink:href="#ArialMT-30"/>
       <use x="278.076172" xlink:href="#ArialMT-30"/>
      </g>
     </g>
    </g>
    <g id="ytick_8">
     <g id="line2d_21">
      <path clip-path="url(#pa82bfeb701)" d="M 180 79.510045 
L 1296 79.510045 
" style="fill:none;stroke:#ffffff;stroke-linecap:round;"/>
     </g>
     <g id="line2d_22">
      <g>
       <use style="fill:#262626;stroke:#262626;stroke-width:1.25;" x="180" xlink:href="#ma3866991da" y="79.510045"/>
      </g>
     </g>
     <g id="text_14">
      <!-- 350000 -->
      <g style="fill:#262626;" transform="translate(133.797812 83.446842)scale(0.11 -0.11)">
       <use xlink:href="#ArialMT-33"/>
       <use x="55.615234" xlink:href="#ArialMT-35"/>
       <use x="111.230469" xlink:href="#ArialMT-30"/>
       <use x="166.845703" xlink:href="#ArialMT-30"/>
       <use x="222.460938" xlink:href="#ArialMT-30"/>
       <use x="278.076172" xlink:href="#ArialMT-30"/>
      </g>
     </g>
    </g>
    <g id="text_15">
     <!-- Liczba szczepień -->
     <g style="fill:#262626;" transform="translate(126.816562 347.991328)rotate(-90)scale(0.15 -0.15)">
      <defs>
       <path d="M 469 0 
L 469 4581 
L 1075 4581 
L 1075 541 
L 3331 541 
L 3331 0 
L 469 0 
z
" id="ArialMT-4c" transform="scale(0.015625)"/>
       <path d="M 425 3934 
L 425 4581 
L 988 4581 
L 988 3934 
L 425 3934 
z
M 425 0 
L 425 3319 
L 988 3319 
L 988 0 
L 425 0 
z
" id="ArialMT-69" transform="scale(0.015625)"/>
       <path d="M 2588 1216 
L 3141 1144 
Q 3050 572 2676 248 
Q 2303 -75 1759 -75 
Q 1078 -75 664 370 
Q 250 816 250 1647 
Q 250 2184 428 2587 
Q 606 2991 970 3192 
Q 1334 3394 1763 3394 
Q 2303 3394 2647 3120 
Q 2991 2847 3088 2344 
L 2541 2259 
Q 2463 2594 2264 2762 
Q 2066 2931 1784 2931 
Q 1359 2931 1093 2626 
Q 828 2322 828 1663 
Q 828 994 1084 691 
Q 1341 388 1753 388 
Q 2084 388 2306 591 
Q 2528 794 2588 1216 
z
" id="ArialMT-63" transform="scale(0.015625)"/>
       <path d="M 125 0 
L 125 456 
L 2238 2881 
Q 1878 2863 1603 2863 
L 250 2863 
L 250 3319 
L 2963 3319 
L 2963 2947 
L 1166 841 
L 819 456 
Q 1197 484 1528 484 
L 3063 484 
L 3063 0 
L 125 0 
z
" id="ArialMT-7a" transform="scale(0.015625)"/>
       <path d="M 941 0 
L 419 0 
L 419 4581 
L 981 4581 
L 981 2947 
Q 1338 3394 1891 3394 
Q 2197 3394 2470 3270 
Q 2744 3147 2920 2923 
Q 3097 2700 3197 2384 
Q 3297 2069 3297 1709 
Q 3297 856 2875 390 
Q 2453 -75 1863 -75 
Q 1275 -75 941 416 
L 941 0 
z
M 934 1684 
Q 934 1088 1097 822 
Q 1363 388 1816 388 
Q 2184 388 2453 708 
Q 2722 1028 2722 1663 
Q 2722 2313 2464 2622 
Q 2206 2931 1841 2931 
Q 1472 2931 1203 2611 
Q 934 2291 934 1684 
z
" id="ArialMT-62" transform="scale(0.015625)"/>
       <path d="M 2588 409 
Q 2275 144 1986 34 
Q 1697 -75 1366 -75 
Q 819 -75 525 192 
Q 231 459 231 875 
Q 231 1119 342 1320 
Q 453 1522 633 1644 
Q 813 1766 1038 1828 
Q 1203 1872 1538 1913 
Q 2219 1994 2541 2106 
Q 2544 2222 2544 2253 
Q 2544 2597 2384 2738 
Q 2169 2928 1744 2928 
Q 1347 2928 1158 2789 
Q 969 2650 878 2297 
L 328 2372 
Q 403 2725 575 2942 
Q 747 3159 1072 3276 
Q 1397 3394 1825 3394 
Q 2250 3394 2515 3294 
Q 2781 3194 2906 3042 
Q 3031 2891 3081 2659 
Q 3109 2516 3109 2141 
L 3109 1391 
Q 3109 606 3145 398 
Q 3181 191 3288 0 
L 2700 0 
Q 2613 175 2588 409 
z
M 2541 1666 
Q 2234 1541 1622 1453 
Q 1275 1403 1131 1340 
Q 988 1278 909 1158 
Q 831 1038 831 891 
Q 831 666 1001 516 
Q 1172 366 1500 366 
Q 1825 366 2078 508 
Q 2331 650 2450 897 
Q 2541 1088 2541 1459 
L 2541 1666 
z
" id="ArialMT-61" transform="scale(0.015625)"/>
       <path id="ArialMT-20" transform="scale(0.015625)"/>
       <path d="M 197 991 
L 753 1078 
Q 800 744 1014 566 
Q 1228 388 1613 388 
Q 2000 388 2187 545 
Q 2375 703 2375 916 
Q 2375 1106 2209 1216 
Q 2094 1291 1634 1406 
Q 1016 1563 777 1677 
Q 538 1791 414 1992 
Q 291 2194 291 2438 
Q 291 2659 392 2848 
Q 494 3038 669 3163 
Q 800 3259 1026 3326 
Q 1253 3394 1513 3394 
Q 1903 3394 2198 3281 
Q 2494 3169 2634 2976 
Q 2775 2784 2828 2463 
L 2278 2388 
Q 2241 2644 2061 2787 
Q 1881 2931 1553 2931 
Q 1166 2931 1000 2803 
Q 834 2675 834 2503 
Q 834 2394 903 2306 
Q 972 2216 1119 2156 
Q 1203 2125 1616 2013 
Q 2213 1853 2448 1751 
Q 2684 1650 2818 1456 
Q 2953 1263 2953 975 
Q 2953 694 2789 445 
Q 2625 197 2315 61 
Q 2006 -75 1616 -75 
Q 969 -75 630 194 
Q 291 463 197 991 
z
" id="ArialMT-73" transform="scale(0.015625)"/>
       <path d="M 2694 1069 
L 3275 997 
Q 3138 488 2766 206 
Q 2394 -75 1816 -75 
Q 1088 -75 661 373 
Q 234 822 234 1631 
Q 234 2469 665 2931 
Q 1097 3394 1784 3394 
Q 2450 3394 2872 2941 
Q 3294 2488 3294 1666 
Q 3294 1616 3291 1516 
L 816 1516 
Q 847 969 1125 678 
Q 1403 388 1819 388 
Q 2128 388 2347 550 
Q 2566 713 2694 1069 
z
M 847 1978 
L 2700 1978 
Q 2663 2397 2488 2606 
Q 2219 2931 1791 2931 
Q 1403 2931 1139 2672 
Q 875 2413 847 1978 
z
" id="ArialMT-65" transform="scale(0.015625)"/>
       <path d="M 422 -1272 
L 422 3319 
L 934 3319 
L 934 2888 
Q 1116 3141 1344 3267 
Q 1572 3394 1897 3394 
Q 2322 3394 2647 3175 
Q 2972 2956 3137 2557 
Q 3303 2159 3303 1684 
Q 3303 1175 3120 767 
Q 2938 359 2589 142 
Q 2241 -75 1856 -75 
Q 1575 -75 1351 44 
Q 1128 163 984 344 
L 984 -1272 
L 422 -1272 
z
M 931 1641 
Q 931 1000 1190 694 
Q 1450 388 1819 388 
Q 2194 388 2461 705 
Q 2728 1022 2728 1688 
Q 2728 2322 2467 2637 
Q 2206 2953 1844 2953 
Q 1484 2953 1207 2617 
Q 931 2281 931 1641 
z
" id="ArialMT-70" transform="scale(0.015625)"/>
       <path d="M 422 0 
L 422 3319 
L 928 3319 
L 928 2847 
Q 1294 3394 1984 3394 
Q 2284 3394 2536 3286 
Q 2788 3178 2913 3003 
Q 3038 2828 3088 2588 
Q 3119 2431 3119 2041 
L 3119 0 
L 2556 0 
L 2556 2019 
Q 2556 2363 2490 2533 
Q 2425 2703 2258 2804 
Q 2091 2906 1866 2906 
Q 1506 2906 1245 2678 
Q 984 2450 984 1813 
L 984 0 
L 422 0 
z
M 1398 3731 
L 1813 4606 
L 2551 4606 
L 1863 3731 
L 1398 3731 
z
" id="ArialMT-144" transform="scale(0.015625)"/>
      </defs>
      <use xlink:href="#ArialMT-4c"/>
      <use x="55.615234" xlink:href="#ArialMT-69"/>
      <use x="77.832031" xlink:href="#ArialMT-63"/>
      <use x="127.832031" xlink:href="#ArialMT-7a"/>
      <use x="177.832031" xlink:href="#ArialMT-62"/>
      <use x="233.447266" xlink:href="#ArialMT-61"/>
      <use x="289.0625" xlink:href="#ArialMT-20"/>
      <use x="316.845703" xlink:href="#ArialMT-73"/>
      <use x="366.845703" xlink:href="#ArialMT-7a"/>
      <use x="416.845703" xlink:href="#ArialMT-63"/>
      <use x="466.845703" xlink:href="#ArialMT-7a"/>
      <use x="516.845703" xlink:href="#ArialMT-65"/>
      <use x="572.460938" xlink:href="#ArialMT-70"/>
      <use x="628.076172" xlink:href="#ArialMT-69"/>
      <use x="650.292969" xlink:href="#ArialMT-65"/>
      <use x="705.908203" xlink:href="#ArialMT-144"/>
     </g>
    </g>
   </g>
   <g id="patch_3">
    <path clip-path="url(#pa82bfeb701)" d="M 0 0 
z
" style="fill:#ccb974;stroke:#ffffff;stroke-linejoin:miter;"/>
   </g>
   <g id="patch_4">
    <path clip-path="url(#pa82bfeb701)" d="M 0 0 
z
" style="fill:#ccb974;stroke:#ffffff;stroke-linejoin:miter;"/>
   </g>
   <g id="patch_5">
    <path clip-path="url(#pa82bfeb701)" d="M 0 0 
z
" style="fill:#ccb974;stroke:#ffffff;stroke-linejoin:miter;"/>
   </g>
   <g id="patch_6">
    <path clip-path="url(#pa82bfeb701)" d="M 0 0 
z
" style="fill:#ccb974;stroke:#ffffff;stroke-linejoin:miter;"/>
   </g>
   <g id="patch_7">
    <path clip-path="url(#pa82bfeb701)" d="M 0 0 
z
" style="fill:#ccb974;stroke:#ffffff;stroke-linejoin:miter;"/>
   </g>
   <g id="patch_8">
    <path clip-path="url(#pa82bfeb701)" d="M 0 0 
z
" style="fill:#ccb974;stroke:#ffffff;stroke-linejoin:miter;"/>
   </g>
   <g id="patch_9">
    <path clip-path="url(#pa82bfeb701)" d="M 266.822918 512.64 
L 271.979439 512.64 
L 271.979439 503.721766 
L 266.822918 503.721766 
z
" style="fill:#ccb974;stroke:#ffffff;stroke-linejoin:miter;"/>
   </g>
   <g id="patch_10">
    <path clip-path="url(#pa82bfeb701)" d="M 273.268569 512.64 
L 278.42509 512.64 
L 278.42509 504.334512 
L 273.268569 504.334512 
z
" style="fill:#ccb974;stroke:#ffffff;stroke-linejoin:miter;"/>
   </g>
   <g id="patch_11">
    <path clip-path="url(#pa82bfeb701)" d="M 279.71422 512.64 
L 284.87074 512.64 
L 284.87074 497.775864 
L 279.71422 497.775864 
z
" style="fill:#ccb974;stroke:#ffffff;stroke-linejoin:miter;"/>
   </g>
   <g id="patch_12">
    <path clip-path="url(#pa82bfeb701)" d="M 286.159871 512.64 
L 291.316391 512.64 
L 291.316391 491.031589 
L 286.159871 491.031589 
z
" style="fill:#ccb974;stroke:#ffffff;stroke-linejoin:miter;"/>
   </g>
   <g id="patch_13">
    <path clip-path="url(#pa82bfeb701)" d="M 292.605522 512.64 
L 297.762042 512.64 
L 297.762042 491.012319 
L 292.605522 491.012319 
z
" style="fill:#ccb974;stroke:#ffffff;stroke-linejoin:miter;"/>
   </g>
   <g id="patch_14">
    <path clip-path="url(#pa82bfeb701)" d="M 299.051172 512.64 
L 304.207693 512.64 
L 304.207693 487.706388 
L 299.051172 487.706388 
z
" style="fill:#ccb974;stroke:#ffffff;stroke-linejoin:miter;"/>
   </g>
   <g id="patch_15">
    <path clip-path="url(#pa82bfeb701)" d="M 305.496823 512.64 
L 310.653344 512.64 
L 310.653344 486.109464 
L 305.496823 486.109464 
z
" style="fill:#ccb974;stroke:#ffffff;stroke-linejoin:miter;"/>
   </g>
   <g id="patch_16">
    <path clip-path="url(#pa82bfeb701)" d="M 311.942474 512.64 
L 317.098995 512.64 
L 317.098995 486.196797 
L 311.942474 486.196797 
z
" style="fill:#ccb974;stroke:#ffffff;stroke-linejoin:miter;"/>
   </g>
   <g id="patch_17">
    <path clip-path="url(#pa82bfeb701)" d="M 318.388125 512.64 
L 323.544646 512.64 
L 323.544646 485.729371 
L 318.388125 485.729371 
z
" style="fill:#ccb974;stroke:#ffffff;stroke-linejoin:miter;"/>
   </g>
   <g id="patch_18">
    <path clip-path="url(#pa82bfeb701)" d="M 324.833776 512.64 
L 329.990297 512.64 
L 329.990297 483.35794 
L 324.833776 483.35794 
z
" style="fill:#ccb974;stroke:#ffffff;stroke-linejoin:miter;"/>
   </g>
   <g id="patch_19">
    <path clip-path="url(#pa82bfeb701)" d="M 331.279427 512.64 
L 336.435948 512.64 
L 336.435948 482.6964 
L 331.279427 482.6964 
z
" style="fill:#ccb974;stroke:#ffffff;stroke-linejoin:miter;"/>
   </g>
   <g id="patch_20">
    <path clip-path="url(#pa82bfeb701)" d="M 337.725078 512.64 
L 342.881599 512.64 
L 342.881599 475.717351 
L 337.725078 475.717351 
z
" style="fill:#ccb974;stroke:#ffffff;stroke-linejoin:miter;"/>
   </g>
   <g id="patch_21">
    <path clip-path="url(#pa82bfeb701)" d="M 344.170729 512.64 
L 349.32725 512.64 
L 349.32725 473.477273 
L 344.170729 473.477273 
z
" style="fill:#ccb974;stroke:#ffffff;stroke-linejoin:miter;"/>
   </g>
   <g id="patch_22">
    <path clip-path="url(#pa82bfeb701)" d="M 350.61638 512.64 
L 355.772901 512.64 
L 355.772901 470.533404 
L 350.61638 470.533404 
z
" style="fill:#ccb974;stroke:#ffffff;stroke-linejoin:miter;"/>
   </g>
   <g id="patch_23">
    <path clip-path="url(#pa82bfeb701)" d="M 357.062031 512.64 
L 362.218551 512.64 
L 362.218551 467.155874 
L 357.062031 467.155874 
z
" style="fill:#ccb974;stroke:#ffffff;stroke-linejoin:miter;"/>
   </g>
   <g id="patch_24">
    <path clip-path="url(#pa82bfeb701)" d="M 363.507682 512.64 
L 368.664202 512.64 
L 368.664202 465.541449 
L 363.507682 465.541449 
z
" style="fill:#ccb974;stroke:#ffffff;stroke-linejoin:miter;"/>
   </g>
   <g id="patch_25">
    <path clip-path="url(#pa82bfeb701)" d="M 369.953333 512.64 
L 375.109853 512.64 
L 375.109853 470.682966 
L 369.953333 470.682966 
z
" style="fill:#ccb974;stroke:#ffffff;stroke-linejoin:miter;"/>
   </g>
   <g id="patch_26">
    <path clip-path="url(#pa82bfeb701)" d="M 376.398983 512.64 
L 381.555504 512.64 
L 381.555504 471.691187 
L 376.398983 471.691187 
z
" style="fill:#ccb974;stroke:#ffffff;stroke-linejoin:miter;"/>
   </g>
   <g id="patch_27">
    <path clip-path="url(#pa82bfeb701)" d="M 382.844634 512.64 
L 388.001155 512.64 
L 388.001155 473.291646 
L 382.844634 473.291646 
z
" style="fill:#ccb974;stroke:#ffffff;stroke-linejoin:miter;"/>
   </g>
   <g id="patch_28">
    <path clip-path="url(#pa82bfeb701)" d="M 389.290285 512.64 
L 394.446806 512.64 
L 394.446806 471.179917 
L 389.290285 471.179917 
z
" style="fill:#ccb974;stroke:#ffffff;stroke-linejoin:miter;"/>
   </g>
   <g id="patch_29">
    <path clip-path="url(#pa82bfeb701)" d="M 395.735936 512.64 
L 400.892457 512.64 
L 400.892457 468.917918 
L 395.735936 468.917918 
z
" style="fill:#ccb974;stroke:#ffffff;stroke-linejoin:miter;"/>
   </g>
   <g id="patch_30">
    <path clip-path="url(#pa82bfeb701)" d="M 402.181587 512.64 
L 407.338108 512.64 
L 407.338108 469.528366 
L 402.181587 469.528366 
z
" style="fill:#ccb974;stroke:#ffffff;stroke-linejoin:miter;"/>
   </g>
   <g id="patch_31">
    <path clip-path="url(#pa82bfeb701)" d="M 408.627238 512.64 
L 413.783759 512.64 
L 413.783759 470.563104 
L 408.627238 470.563104 
z
" style="fill:#ccb974;stroke:#ffffff;stroke-linejoin:miter;"/>
   </g>
   <g id="patch_32">
    <path clip-path="url(#pa82bfeb701)" d="M 415.072889 512.64 
L 420.22941 512.64 
L 420.22941 462.81715 
L 415.072889 462.81715 
z
" style="fill:#ccb974;stroke:#ffffff;stroke-linejoin:miter;"/>
   </g>
   <g id="patch_33">
    <path clip-path="url(#pa82bfeb701)" d="M 421.51854 512.64 
L 426.675061 512.64 
L 426.675061 448.248956 
L 421.51854 448.248956 
z
" style="fill:#ccb974;stroke:#ffffff;stroke-linejoin:miter;"/>
   </g>
   <g id="patch_34">
    <path clip-path="url(#pa82bfeb701)" d="M 427.964191 512.64 
L 433.120712 512.64 
L 433.120712 439.013742 
L 427.964191 439.013742 
z
" style="fill:#ccb974;stroke:#ffffff;stroke-linejoin:miter;"/>
   </g>
   <g id="patch_35">
    <path clip-path="url(#pa82bfeb701)" d="M 434.409842 512.64 
L 439.566362 512.64 
L 439.566362 432.725402 
L 434.409842 432.725402 
z
" style="fill:#ccb974;stroke:#ffffff;stroke-linejoin:miter;"/>
   </g>
   <g id="patch_36">
    <path clip-path="url(#pa82bfeb701)" d="M 440.855493 512.64 
L 446.012013 512.64 
L 446.012013 431.882655 
L 440.855493 431.882655 
z
" style="fill:#ccb974;stroke:#ffffff;stroke-linejoin:miter;"/>
   </g>
   <g id="patch_37">
    <path clip-path="url(#pa82bfeb701)" d="M 447.301144 512.64 
L 452.457664 512.64 
L 452.457664 432.065984 
L 447.301144 432.065984 
z
" style="fill:#ccb974;stroke:#ffffff;stroke-linejoin:miter;"/>
   </g>
   <g id="patch_38">
    <path clip-path="url(#pa82bfeb701)" d="M 453.746795 512.64 
L 458.903315 512.64 
L 458.903315 429.650533 
L 453.746795 429.650533 
z
" style="fill:#ccb974;stroke:#ffffff;stroke-linejoin:miter;"/>
   </g>
   <g id="patch_39">
    <path clip-path="url(#pa82bfeb701)" d="M 460.192445 512.64 
L 465.348966 512.64 
L 465.348966 432.249489 
L 460.192445 432.249489 
z
" style="fill:#ccb974;stroke:#ffffff;stroke-linejoin:miter;"/>
   </g>
   <g id="patch_40">
    <path clip-path="url(#pa82bfeb701)" d="M 466.638096 512.64 
L 471.794617 512.64 
L 471.794617 435.387648 
L 466.638096 435.387648 
z
" style="fill:#ccb974;stroke:#ffffff;stroke-linejoin:miter;"/>
   </g>
   <g id="patch_41">
    <path clip-path="url(#pa82bfeb701)" d="M 473.083747 512.64 
L 478.240268 512.64 
L 478.240268 432.497699 
L 473.083747 432.497699 
z
" style="fill:#ccb974;stroke:#ffffff;stroke-linejoin:miter;"/>
   </g>
   <g id="patch_42">
    <path clip-path="url(#pa82bfeb701)" d="M 479.529398 512.64 
L 484.685919 512.64 
L 484.685919 429.626136 
L 479.529398 429.626136 
z
" style="fill:#ccb974;stroke:#ffffff;stroke-linejoin:miter;"/>
   </g>
   <g id="patch_43">
    <path clip-path="url(#pa82bfeb701)" d="M 485.975049 512.64 
L 491.13157 512.64 
L 491.13157 428.368291 
L 485.975049 428.368291 
z
" style="fill:#ccb974;stroke:#ffffff;stroke-linejoin:miter;"/>
   </g>
   <g id="patch_44">
    <path clip-path="url(#pa82bfeb701)" d="M 492.4207 512.64 
L 497.577221 512.64 
L 497.577221 427.034605 
L 492.4207 427.034605 
z
" style="fill:#ccb974;stroke:#ffffff;stroke-linejoin:miter;"/>
   </g>
   <g id="patch_45">
    <path clip-path="url(#pa82bfeb701)" d="M 498.866351 512.64 
L 504.022872 512.64 
L 504.022872 427.816537 
L 498.866351 427.816537 
z
" style="fill:#ccb974;stroke:#ffffff;stroke-linejoin:miter;"/>
   </g>
   <g id="patch_46">
    <path clip-path="url(#pa82bfeb701)" d="M 505.312002 512.64 
L 510.468523 512.64 
L 510.468523 431.892378 
L 505.312002 431.892378 
z
" style="fill:#ccb974;stroke:#ffffff;stroke-linejoin:miter;"/>
   </g>
   <g id="patch_47">
    <path clip-path="url(#pa82bfeb701)" d="M 511.757653 512.64 
L 516.914174 512.64 
L 516.914174 436.394985 
L 511.757653 436.394985 
z
" style="fill:#ccb974;stroke:#ffffff;stroke-linejoin:miter;"/>
   </g>
   <g id="patch_48">
    <path clip-path="url(#pa82bfeb701)" d="M 518.203304 512.64 
L 523.359824 512.64 
L 523.359824 437.940994 
L 518.203304 437.940994 
z
" style="fill:#ccb974;stroke:#ffffff;stroke-linejoin:miter;"/>
   </g>
   <g id="patch_49">
    <path clip-path="url(#pa82bfeb701)" d="M 524.648955 512.64 
L 529.805475 512.64 
L 529.805475 437.12777 
L 524.648955 437.12777 
z
" style="fill:#ccb974;stroke:#ffffff;stroke-linejoin:miter;"/>
   </g>
   <g id="patch_50">
    <path clip-path="url(#pa82bfeb701)" d="M 531.094606 512.64 
L 536.251126 512.64 
L 536.251126 432.511842 
L 531.094606 432.511842 
z
" style="fill:#ccb974;stroke:#ffffff;stroke-linejoin:miter;"/>
   </g>
   <g id="patch_51">
    <path clip-path="url(#pa82bfeb701)" d="M 537.540256 512.64 
L 542.696777 512.64 
L 542.696777 430.269113 
L 537.540256 430.269113 
z
" style="fill:#ccb974;stroke:#ffffff;stroke-linejoin:miter;"/>
   </g>
   <g id="patch_52">
    <path clip-path="url(#pa82bfeb701)" d="M 543.985907 512.64 
L 549.142428 512.64 
L 549.142428 430.338767 
L 543.985907 430.338767 
z
" style="fill:#ccb974;stroke:#ffffff;stroke-linejoin:miter;"/>
   </g>
   <g id="patch_53">
    <path clip-path="url(#pa82bfeb701)" d="M 550.431558 512.64 
L 555.588079 512.64 
L 555.588079 429.429371 
L 550.431558 429.429371 
z
" style="fill:#ccb974;stroke:#ffffff;stroke-linejoin:miter;"/>
   </g>
   <g id="patch_54">
    <path clip-path="url(#pa82bfeb701)" d="M 556.877209 512.64 
L 562.03373 512.64 
L 562.03373 431.953723 
L 556.877209 431.953723 
z
" style="fill:#ccb974;stroke:#ffffff;stroke-linejoin:miter;"/>
   </g>
   <g id="patch_55">
    <path clip-path="url(#pa82bfeb701)" d="M 563.32286 512.64 
L 568.479381 512.64 
L 568.479381 424.125739 
L 563.32286 424.125739 
z
" style="fill:#ccb974;stroke:#ffffff;stroke-linejoin:miter;"/>
   </g>
   <g id="patch_56">
    <path clip-path="url(#pa82bfeb701)" d="M 569.768511 512.64 
L 574.925032 512.64 
L 574.925032 413.062539 
L 569.768511 413.062539 
z
" style="fill:#ccb974;stroke:#ffffff;stroke-linejoin:miter;"/>
   </g>
   <g id="patch_57">
    <path clip-path="url(#pa82bfeb701)" d="M 576.214162 512.64 
L 581.370683 512.64 
L 581.370683 408.376427 
L 576.214162 408.376427 
z
" style="fill:#ccb974;stroke:#ffffff;stroke-linejoin:miter;"/>
   </g>
   <g id="patch_58">
    <path clip-path="url(#pa82bfeb701)" d="M 582.659813 512.64 
L 587.816334 512.64 
L 587.816334 408.206887 
L 582.659813 408.206887 
z
" style="fill:#ccb974;stroke:#ffffff;stroke-linejoin:miter;"/>
   </g>
   <g id="patch_59">
    <path clip-path="url(#pa82bfeb701)" d="M 589.105464 512.64 
L 594.261985 512.64 
L 594.261985 407.820076 
L 589.105464 407.820076 
z
" style="fill:#ccb974;stroke:#ffffff;stroke-linejoin:miter;"/>
   </g>
   <g id="patch_60">
    <path clip-path="url(#pa82bfeb701)" d="M 595.551115 512.64 
L 600.707635 512.64 
L 600.707635 406.51609 
L 595.551115 406.51609 
z
" style="fill:#ccb974;stroke:#ffffff;stroke-linejoin:miter;"/>
   </g>
   <g id="patch_61">
    <path clip-path="url(#pa82bfeb701)" d="M 601.996766 512.64 
L 607.153286 512.64 
L 607.153286 406.117964 
L 601.996766 406.117964 
z
" style="fill:#ccb974;stroke:#ffffff;stroke-linejoin:miter;"/>
   </g>
   <g id="patch_62">
    <path clip-path="url(#pa82bfeb701)" d="M 608.442417 512.64 
L 613.598937 512.64 
L 613.598937 405.526255 
L 608.442417 405.526255 
z
" style="fill:#ccb974;stroke:#ffffff;stroke-linejoin:miter;"/>
   </g>
   <g id="patch_63">
    <path clip-path="url(#pa82bfeb701)" d="M 614.888067 512.64 
L 620.044588 512.64 
L 620.044588 405.355124 
L 614.888067 405.355124 
z
" style="fill:#ccb974;stroke:#ffffff;stroke-linejoin:miter;"/>
   </g>
   <g id="patch_64">
    <path clip-path="url(#pa82bfeb701)" d="M 621.333718 512.64 
L 626.490239 512.64 
L 626.490239 404.969904 
L 621.333718 404.969904 
z
" style="fill:#ccb974;stroke:#ffffff;stroke-linejoin:miter;"/>
   </g>
   <g id="patch_65">
    <path clip-path="url(#pa82bfeb701)" d="M 627.779369 512.64 
L 632.93589 512.64 
L 632.93589 403.339567 
L 627.779369 403.339567 
z
" style="fill:#ccb974;stroke:#ffffff;stroke-linejoin:miter;"/>
   </g>
   <g id="patch_66">
    <path clip-path="url(#pa82bfeb701)" d="M 634.22502 512.64 
L 639.381541 512.64 
L 639.381541 402.820342 
L 634.22502 402.820342 
z
" style="fill:#ccb974;stroke:#ffffff;stroke-linejoin:miter;"/>
   </g>
   <g id="patch_67">
    <path clip-path="url(#pa82bfeb701)" d="M 640.670671 512.64 
L 645.827192 512.64 
L 645.827192 402.32622 
L 640.670671 402.32622 
z
" style="fill:#ccb974;stroke:#ffffff;stroke-linejoin:miter;"/>
   </g>
   <g id="patch_68">
    <path clip-path="url(#pa82bfeb701)" d="M 647.116322 512.64 
L 652.272843 512.64 
L 652.272843 400.748036 
L 647.116322 400.748036 
z
" style="fill:#ccb974;stroke:#ffffff;stroke-linejoin:miter;"/>
   </g>
   <g id="patch_69">
    <path clip-path="url(#pa82bfeb701)" d="M 653.561973 512.64 
L 658.718494 512.64 
L 658.718494 401.505395 
L 653.561973 401.505395 
z
" style="fill:#ccb974;stroke:#ffffff;stroke-linejoin:miter;"/>
   </g>
   <g id="patch_70">
    <path clip-path="url(#pa82bfeb701)" d="M 660.007624 512.64 
L 665.164145 512.64 
L 665.164145 401.660261 
L 660.007624 401.660261 
z
" style="fill:#ccb974;stroke:#ffffff;stroke-linejoin:miter;"/>
   </g>
   <g id="patch_71">
    <path clip-path="url(#pa82bfeb701)" d="M 666.453275 512.64 
L 671.609796 512.64 
L 671.609796 401.112926 
L 666.453275 401.112926 
z
" style="fill:#ccb974;stroke:#ffffff;stroke-linejoin:miter;"/>
   </g>
   <g id="patch_72">
    <path clip-path="url(#pa82bfeb701)" d="M 672.898926 512.64 
L 678.055446 512.64 
L 678.055446 400.374307 
L 672.898926 400.374307 
z
" style="fill:#ccb974;stroke:#ffffff;stroke-linejoin:miter;"/>
   </g>
   <g id="patch_73">
    <path clip-path="url(#pa82bfeb701)" d="M 679.344577 512.64 
L 684.501097 512.64 
L 684.501097 400.708259 
L 679.344577 400.708259 
z
" style="fill:#ccb974;stroke:#ffffff;stroke-linejoin:miter;"/>
   </g>
   <g id="patch_74">
    <path clip-path="url(#pa82bfeb701)" d="M 685.790228 512.64 
L 690.946748 512.64 
L 690.946748 399.388008 
L 685.790228 399.388008 
z
" style="fill:#ccb974;stroke:#ffffff;stroke-linejoin:miter;"/>
   </g>
   <g id="patch_75">
    <path clip-path="url(#pa82bfeb701)" d="M 692.235878 512.64 
L 697.392399 512.64 
L 697.392399 402.804077 
L 692.235878 402.804077 
z
" style="fill:#ccb974;stroke:#ffffff;stroke-linejoin:miter;"/>
   </g>
   <g id="patch_76">
    <path clip-path="url(#pa82bfeb701)" d="M 698.681529 512.64 
L 703.83805 512.64 
L 703.83805 404.834485 
L 698.681529 404.834485 
z
" style="fill:#ccb974;stroke:#ffffff;stroke-linejoin:miter;"/>
   </g>
   <g id="patch_77">
    <path clip-path="url(#pa82bfeb701)" d="M 705.12718 512.64 
L 710.283701 512.64 
L 710.283701 406.630471 
L 705.12718 406.630471 
z
" style="fill:#ccb974;stroke:#ffffff;stroke-linejoin:miter;"/>
   </g>
   <g id="patch_78">
    <path clip-path="url(#pa82bfeb701)" d="M 711.572831 512.64 
L 716.729352 512.64 
L 716.729352 408.934899 
L 711.572831 408.934899 
z
" style="fill:#ccb974;stroke:#ffffff;stroke-linejoin:miter;"/>
   </g>
   <g id="patch_79">
    <path clip-path="url(#pa82bfeb701)" d="M 718.018482 512.64 
L 723.175003 512.64 
L 723.175003 412.501592 
L 718.018482 412.501592 
z
" style="fill:#ccb974;stroke:#ffffff;stroke-linejoin:miter;"/>
   </g>
   <g id="patch_80">
    <path clip-path="url(#pa82bfeb701)" d="M 724.464133 512.64 
L 729.620654 512.64 
L 729.620654 413.411342 
L 724.464133 413.411342 
z
" style="fill:#ccb974;stroke:#ffffff;stroke-linejoin:miter;"/>
   </g>
   <g id="patch_81">
    <path clip-path="url(#pa82bfeb701)" d="M 730.909784 512.64 
L 736.066305 512.64 
L 736.066305 418.407893 
L 730.909784 418.407893 
z
" style="fill:#ccb974;stroke:#ffffff;stroke-linejoin:miter;"/>
   </g>
   <g id="patch_82">
    <path clip-path="url(#pa82bfeb701)" d="M 737.355435 512.64 
L 742.511956 512.64 
L 742.511956 420.875497 
L 737.355435 420.875497 
z
" style="fill:#ccb974;stroke:#ffffff;stroke-linejoin:miter;"/>
   </g>
   <g id="patch_83">
    <path clip-path="url(#pa82bfeb701)" d="M 743.801086 512.64 
L 748.957607 512.64 
L 748.957607 422.51644 
L 743.801086 422.51644 
z
" style="fill:#ccb974;stroke:#ffffff;stroke-linejoin:miter;"/>
   </g>
   <g id="patch_84">
    <path clip-path="url(#pa82bfeb701)" d="M 750.246737 512.64 
L 755.403257 512.64 
L 755.403257 423.881242 
L 750.246737 423.881242 
z
" style="fill:#ccb974;stroke:#ffffff;stroke-linejoin:miter;"/>
   </g>
   <g id="patch_85">
    <path clip-path="url(#pa82bfeb701)" d="M 756.692388 512.64 
L 761.848908 512.64 
L 761.848908 424.914213 
L 756.692388 424.914213 
z
" style="fill:#ccb974;stroke:#ffffff;stroke-linejoin:miter;"/>
   </g>
   <g id="patch_86">
    <path clip-path="url(#pa82bfeb701)" d="M 763.138039 512.64 
L 768.294559 512.64 
L 768.294559 424.841906 
L 763.138039 424.841906 
z
" style="fill:#ccb974;stroke:#ffffff;stroke-linejoin:miter;"/>
   </g>
   <g id="patch_87">
    <path clip-path="url(#pa82bfeb701)" d="M 769.583689 512.64 
L 774.74021 512.64 
L 774.74021 425.059532 
L 769.583689 425.059532 
z
" style="fill:#ccb974;stroke:#ffffff;stroke-linejoin:miter;"/>
   </g>
   <g id="patch_88">
    <path clip-path="url(#pa82bfeb701)" d="M 776.02934 512.64 
L 781.185861 512.64 
L 781.185861 420.556925 
L 776.02934 420.556925 
z
" style="fill:#ccb974;stroke:#ffffff;stroke-linejoin:miter;"/>
   </g>
   <g id="patch_89">
    <path clip-path="url(#pa82bfeb701)" d="M 782.474991 512.64 
L 787.631512 512.64 
L 787.631512 408.705429 
L 782.474991 408.705429 
z
" style="fill:#ccb974;stroke:#ffffff;stroke-linejoin:miter;"/>
   </g>
   <g id="patch_90">
    <path clip-path="url(#pa82bfeb701)" d="M 788.920642 512.64 
L 794.077163 512.64 
L 794.077163 398.9966 
L 788.920642 398.9966 
z
" style="fill:#ccb974;stroke:#ffffff;stroke-linejoin:miter;"/>
   </g>
   <g id="patch_91">
    <path clip-path="url(#pa82bfeb701)" d="M 795.366293 512.64 
L 800.522814 512.64 
L 800.522814 388.628706 
L 795.366293 388.628706 
z
" style="fill:#ccb974;stroke:#ffffff;stroke-linejoin:miter;"/>
   </g>
   <g id="patch_92">
    <path clip-path="url(#pa82bfeb701)" d="M 801.811944 512.64 
L 806.968465 512.64 
L 806.968465 376.14979 
L 801.811944 376.14979 
z
" style="fill:#ccb974;stroke:#ffffff;stroke-linejoin:miter;"/>
   </g>
   <g id="patch_93">
    <path clip-path="url(#pa82bfeb701)" d="M 808.257595 512.64 
L 813.414116 512.64 
L 813.414116 365.61554 
L 808.257595 365.61554 
z
" style="fill:#ccb974;stroke:#ffffff;stroke-linejoin:miter;"/>
   </g>
   <g id="patch_94">
    <path clip-path="url(#pa82bfeb701)" d="M 814.703246 512.64 
L 819.859767 512.64 
L 819.859767 361.239159 
L 814.703246 361.239159 
z
" style="fill:#ccb974;stroke:#ffffff;stroke-linejoin:miter;"/>
   </g>
   <g id="patch_95">
    <path clip-path="url(#pa82bfeb701)" d="M 821.148897 512.64 
L 826.305418 512.64 
L 826.305418 356.005181 
L 821.148897 356.005181 
z
" style="fill:#ccb974;stroke:#ffffff;stroke-linejoin:miter;"/>
   </g>
   <g id="patch_96">
    <path clip-path="url(#pa82bfeb701)" d="M 827.594548 512.64 
L 832.751068 512.64 
L 832.751068 355.654434 
L 827.594548 355.654434 
z
" style="fill:#ccb974;stroke:#ffffff;stroke-linejoin:miter;"/>
   </g>
   <g id="patch_97">
    <path clip-path="url(#pa82bfeb701)" d="M 834.040199 512.64 
L 839.196719 512.64 
L 839.196719 355.431505 
L 834.040199 355.431505 
z
" style="fill:#ccb974;stroke:#ffffff;stroke-linejoin:miter;"/>
   </g>
   <g id="patch_98">
    <path clip-path="url(#pa82bfeb701)" d="M 840.48585 512.64 
L 845.64237 512.64 
L 845.64237 359.191957 
L 840.48585 359.191957 
z
" style="fill:#ccb974;stroke:#ffffff;stroke-linejoin:miter;"/>
   </g>
   <g id="patch_99">
    <path clip-path="url(#pa82bfeb701)" d="M 846.931501 512.64 
L 852.088021 512.64 
L 852.088021 360.731955 
L 846.931501 360.731955 
z
" style="fill:#ccb974;stroke:#ffffff;stroke-linejoin:miter;"/>
   </g>
   <g id="patch_100">
    <path clip-path="url(#pa82bfeb701)" d="M 853.377151 512.64 
L 858.533672 512.64 
L 858.533672 369.861981 
L 853.377151 369.861981 
z
" style="fill:#ccb974;stroke:#ffffff;stroke-linejoin:miter;"/>
   </g>
   <g id="patch_101">
    <path clip-path="url(#pa82bfeb701)" d="M 859.822802 512.64 
L 864.979323 512.64 
L 864.979323 375.39473 
L 859.822802 375.39473 
z
" style="fill:#ccb974;stroke:#ffffff;stroke-linejoin:miter;"/>
   </g>
   <g id="patch_102">
    <path clip-path="url(#pa82bfeb701)" d="M 866.268453 512.64 
L 871.424974 512.64 
L 871.424974 388.632065 
L 866.268453 388.632065 
z
" style="fill:#ccb974;stroke:#ffffff;stroke-linejoin:miter;"/>
   </g>
   <g id="patch_103">
    <path clip-path="url(#pa82bfeb701)" d="M 872.714104 512.64 
L 877.870625 512.64 
L 877.870625 387.276103 
L 872.714104 387.276103 
z
" style="fill:#ccb974;stroke:#ffffff;stroke-linejoin:miter;"/>
   </g>
   <g id="patch_104">
    <path clip-path="url(#pa82bfeb701)" d="M 879.159755 512.64 
L 884.316276 512.64 
L 884.316276 383.819019 
L 879.159755 383.819019 
z
" style="fill:#ccb974;stroke:#ffffff;stroke-linejoin:miter;"/>
   </g>
   <g id="patch_105">
    <path clip-path="url(#pa82bfeb701)" d="M 885.605406 512.64 
L 890.761927 512.64 
L 890.761927 371.093661 
L 885.605406 371.093661 
z
" style="fill:#ccb974;stroke:#ffffff;stroke-linejoin:miter;"/>
   </g>
   <g id="patch_106">
    <path clip-path="url(#pa82bfeb701)" d="M 892.051057 512.64 
L 897.207578 512.64 
L 897.207578 358.773677 
L 892.051057 358.773677 
z
" style="fill:#ccb974;stroke:#ffffff;stroke-linejoin:miter;"/>
   </g>
   <g id="patch_107">
    <path clip-path="url(#pa82bfeb701)" d="M 898.496708 512.64 
L 903.653229 512.64 
L 903.653229 339.064673 
L 898.496708 339.064673 
z
" style="fill:#ccb974;stroke:#ffffff;stroke-linejoin:miter;"/>
   </g>
   <g id="patch_108">
    <path clip-path="url(#pa82bfeb701)" d="M 904.942359 512.64 
L 910.09888 512.64 
L 910.09888 330.777041 
L 904.942359 330.777041 
z
" style="fill:#ccb974;stroke:#ffffff;stroke-linejoin:miter;"/>
   </g>
   <g id="patch_109">
    <path clip-path="url(#pa82bfeb701)" d="M 911.38801 512.64 
L 916.54453 512.64 
L 916.54453 314.814523 
L 911.38801 314.814523 
z
" style="fill:#ccb974;stroke:#ffffff;stroke-linejoin:miter;"/>
   </g>
   <g id="patch_110">
    <path clip-path="url(#pa82bfeb701)" d="M 917.833661 512.64 
L 922.990181 512.64 
L 922.990181 304.168542 
L 917.833661 304.168542 
z
" style="fill:#ccb974;stroke:#ffffff;stroke-linejoin:miter;"/>
   </g>
   <g id="patch_111">
    <path clip-path="url(#pa82bfeb701)" d="M 924.279312 512.64 
L 929.435832 512.64 
L 929.435832 296.301664 
L 924.279312 296.301664 
z
" style="fill:#ccb974;stroke:#ffffff;stroke-linejoin:miter;"/>
   </g>
   <g id="patch_112">
    <path clip-path="url(#pa82bfeb701)" d="M 930.724962 512.64 
L 935.881483 512.64 
L 935.881483 296.713403 
L 930.724962 296.713403 
z
" style="fill:#ccb974;stroke:#ffffff;stroke-linejoin:miter;"/>
   </g>
   <g id="patch_113">
    <path clip-path="url(#pa82bfeb701)" d="M 937.170613 512.64 
L 942.327134 512.64 
L 942.327134 297.398632 
L 937.170613 297.398632 
z
" style="fill:#ccb974;stroke:#ffffff;stroke-linejoin:miter;"/>
   </g>
   <g id="patch_114">
    <path clip-path="url(#pa82bfeb701)" d="M 943.616264 512.64 
L 948.772785 512.64 
L 948.772785 298.643572 
L 943.616264 298.643572 
z
" style="fill:#ccb974;stroke:#ffffff;stroke-linejoin:miter;"/>
   </g>
   <g id="patch_115">
    <path clip-path="url(#pa82bfeb701)" d="M 950.061915 512.64 
L 955.218436 512.64 
L 955.218436 299.529632 
L 950.061915 299.529632 
z
" style="fill:#ccb974;stroke:#ffffff;stroke-linejoin:miter;"/>
   </g>
   <g id="patch_116">
    <path clip-path="url(#pa82bfeb701)" d="M 956.507566 512.64 
L 961.664087 512.64 
L 961.664087 296.577984 
L 956.507566 296.577984 
z
" style="fill:#ccb974;stroke:#ffffff;stroke-linejoin:miter;"/>
   </g>
   <g id="patch_117">
    <path clip-path="url(#pa82bfeb701)" d="M 962.953217 512.64 
L 968.109738 512.64 
L 968.109738 293.378126 
L 962.953217 293.378126 
z
" style="fill:#ccb974;stroke:#ffffff;stroke-linejoin:miter;"/>
   </g>
   <g id="patch_118">
    <path clip-path="url(#pa82bfeb701)" d="M 969.398868 512.64 
L 974.555389 512.64 
L 974.555389 287.775369 
L 969.398868 287.775369 
z
" style="fill:#ccb974;stroke:#ffffff;stroke-linejoin:miter;"/>
   </g>
   <g id="patch_119">
    <path clip-path="url(#pa82bfeb701)" d="M 975.844519 512.64 
L 981.00104 512.64 
L 981.00104 278.899917 
L 975.844519 278.899917 
z
" style="fill:#ccb974;stroke:#ffffff;stroke-linejoin:miter;"/>
   </g>
   <g id="patch_120">
    <path clip-path="url(#pa82bfeb701)" d="M 982.29017 512.64 
L 987.446691 512.64 
L 987.446691 270.96533 
L 982.29017 270.96533 
z
" style="fill:#ccb974;stroke:#ffffff;stroke-linejoin:miter;"/>
   </g>
   <g id="patch_121">
    <path clip-path="url(#pa82bfeb701)" d="M 988.735821 512.64 
L 993.892341 512.64 
L 993.892341 257.745673 
L 988.735821 257.745673 
z
" style="fill:#ccb974;stroke:#ffffff;stroke-linejoin:miter;"/>
   </g>
   <g id="patch_122">
    <path clip-path="url(#pa82bfeb701)" d="M 995.181472 512.64 
L 1000.337992 512.64 
L 1000.337992 256.140264 
L 995.181472 256.140264 
z
" style="fill:#ccb974;stroke:#ffffff;stroke-linejoin:miter;"/>
   </g>
   <g id="patch_123">
    <path clip-path="url(#pa82bfeb701)" d="M 1001.627123 512.64 
L 1006.783643 512.64 
L 1006.783643 250.889491 
L 1001.627123 250.889491 
z
" style="fill:#ccb974;stroke:#ffffff;stroke-linejoin:miter;"/>
   </g>
   <g id="patch_124">
    <path clip-path="url(#pa82bfeb701)" d="M 1008.072773 512.64 
L 1013.229294 512.64 
L 1013.229294 242.19896 
L 1008.072773 242.19896 
z
" style="fill:#ccb974;stroke:#ffffff;stroke-linejoin:miter;"/>
   </g>
   <g id="patch_125">
    <path clip-path="url(#pa82bfeb701)" d="M 1014.518424 512.64 
L 1019.674945 512.64 
L 1019.674945 232.245457 
L 1014.518424 232.245457 
z
" style="fill:#ccb974;stroke:#ffffff;stroke-linejoin:miter;"/>
   </g>
   <g id="patch_126">
    <path clip-path="url(#pa82bfeb701)" d="M 1020.964075 512.64 
L 1026.120596 512.64 
L 1026.120596 218.494553 
L 1020.964075 218.494553 
z
" style="fill:#ccb974;stroke:#ffffff;stroke-linejoin:miter;"/>
   </g>
   <g id="patch_127">
    <path clip-path="url(#pa82bfeb701)" d="M 1027.409726 512.64 
L 1032.566247 512.64 
L 1032.566247 215.368946 
L 1027.409726 215.368946 
z
" style="fill:#ccb974;stroke:#ffffff;stroke-linejoin:miter;"/>
   </g>
   <g id="patch_128">
    <path clip-path="url(#pa82bfeb701)" d="M 1033.855377 512.64 
L 1039.011898 512.64 
L 1039.011898 231.633241 
L 1033.855377 231.633241 
z
" style="fill:#ccb974;stroke:#ffffff;stroke-linejoin:miter;"/>
   </g>
   <g id="patch_129">
    <path clip-path="url(#pa82bfeb701)" d="M 1040.301028 512.64 
L 1045.457549 512.64 
L 1045.457549 219.873674 
L 1040.301028 219.873674 
z
" style="fill:#ccb974;stroke:#ffffff;stroke-linejoin:miter;"/>
   </g>
   <g id="patch_130">
    <path clip-path="url(#pa82bfeb701)" d="M 1046.746679 512.64 
L 1051.9032 512.64 
L 1051.9032 245.928297 
L 1046.746679 245.928297 
z
" style="fill:#ccb974;stroke:#ffffff;stroke-linejoin:miter;"/>
   </g>
   <g id="patch_131">
    <path clip-path="url(#pa82bfeb701)" d="M 1053.19233 512.64 
L 1058.348851 512.64 
L 1058.348851 249.987874 
L 1053.19233 249.987874 
z
" style="fill:#ccb974;stroke:#ffffff;stroke-linejoin:miter;"/>
   </g>
   <g id="patch_132">
    <path clip-path="url(#pa82bfeb701)" d="M 1059.637981 512.64 
L 1064.794502 512.64 
L 1064.794502 241.543431 
L 1059.637981 241.543431 
z
" style="fill:#ccb974;stroke:#ffffff;stroke-linejoin:miter;"/>
   </g>
   <g id="patch_133">
    <path clip-path="url(#pa82bfeb701)" d="M 1066.083632 512.64 
L 1071.240152 512.64 
L 1071.240152 236.223888 
L 1066.083632 236.223888 
z
" style="fill:#ccb974;stroke:#ffffff;stroke-linejoin:miter;"/>
   </g>
   <g id="patch_134">
    <path clip-path="url(#pa82bfeb701)" d="M 1072.529283 512.64 
L 1077.685803 512.64 
L 1077.685803 219.48368 
L 1072.529283 219.48368 
z
" style="fill:#ccb974;stroke:#ffffff;stroke-linejoin:miter;"/>
   </g>
   <g id="patch_135">
    <path clip-path="url(#pa82bfeb701)" d="M 1078.974934 512.64 
L 1084.131454 512.64 
L 1084.131454 195.397765 
L 1078.974934 195.397765 
z
" style="fill:#ccb974;stroke:#ffffff;stroke-linejoin:miter;"/>
   </g>
   <g id="patch_136">
    <path clip-path="url(#pa82bfeb701)" d="M 1085.420584 512.64 
L 1090.577105 512.64 
L 1090.577105 200.744357 
L 1085.420584 200.744357 
z
" style="fill:#ccb974;stroke:#ffffff;stroke-linejoin:miter;"/>
   </g>
   <g id="patch_137">
    <path clip-path="url(#pa82bfeb701)" d="M 1091.866235 512.64 
L 1097.022756 512.64 
L 1097.022756 165.81057 
L 1091.866235 165.81057 
z
" style="fill:#ccb974;stroke:#ffffff;stroke-linejoin:miter;"/>
   </g>
   <g id="patch_138">
    <path clip-path="url(#pa82bfeb701)" d="M 1098.311886 512.64 
L 1103.468407 512.64 
L 1103.468407 150.502697 
L 1098.311886 150.502697 
z
" style="fill:#ccb974;stroke:#ffffff;stroke-linejoin:miter;"/>
   </g>
   <g id="patch_139">
    <path clip-path="url(#pa82bfeb701)" d="M 1104.757537 512.64 
L 1109.914058 512.64 
L 1109.914058 143.032531 
L 1104.757537 143.032531 
z
" style="fill:#ccb974;stroke:#ffffff;stroke-linejoin:miter;"/>
   </g>
   <g id="patch_140">
    <path clip-path="url(#pa82bfeb701)" d="M 1111.203188 512.64 
L 1116.359709 512.64 
L 1116.359709 139.543094 
L 1111.203188 139.543094 
z
" style="fill:#ccb974;stroke:#ffffff;stroke-linejoin:miter;"/>
   </g>
   <g id="patch_141">
    <path clip-path="url(#pa82bfeb701)" d="M 1117.648839 512.64 
L 1122.80536 512.64 
L 1122.80536 141.465307 
L 1117.648839 141.465307 
z
" style="fill:#ccb974;stroke:#ffffff;stroke-linejoin:miter;"/>
   </g>
   <g id="patch_142">
    <path clip-path="url(#pa82bfeb701)" d="M 1124.09449 512.64 
L 1129.251011 512.64 
L 1129.251011 140.592153 
L 1124.09449 140.592153 
z
" style="fill:#ccb974;stroke:#ffffff;stroke-linejoin:miter;"/>
   </g>
   <g id="patch_143">
    <path clip-path="url(#pa82bfeb701)" d="M 1130.540141 512.64 
L 1135.696662 512.64 
L 1135.696662 138.693453 
L 1130.540141 138.693453 
z
" style="fill:#ccb974;stroke:#ffffff;stroke-linejoin:miter;"/>
   </g>
   <g id="patch_144">
    <path clip-path="url(#pa82bfeb701)" d="M 1136.985792 512.64 
L 1142.142313 512.64 
L 1142.142313 143.874924 
L 1136.985792 143.874924 
z
" style="fill:#ccb974;stroke:#ffffff;stroke-linejoin:miter;"/>
   </g>
   <g id="patch_145">
    <path clip-path="url(#pa82bfeb701)" d="M 1143.431443 512.64 
L 1148.587963 512.64 
L 1148.587963 141.713694 
L 1143.431443 141.713694 
z
" style="fill:#ccb974;stroke:#ffffff;stroke-linejoin:miter;"/>
   </g>
   <g id="patch_146">
    <path clip-path="url(#pa82bfeb701)" d="M 1149.877094 512.64 
L 1155.033614 512.64 
L 1155.033614 140.214711 
L 1149.877094 140.214711 
z
" style="fill:#ccb974;stroke:#ffffff;stroke-linejoin:miter;"/>
   </g>
   <g id="patch_147">
    <path clip-path="url(#pa82bfeb701)" d="M 1156.322745 512.64 
L 1161.479265 512.64 
L 1161.479265 139.594716 
L 1156.322745 139.594716 
z
" style="fill:#ccb974;stroke:#ffffff;stroke-linejoin:miter;"/>
   </g>
   <g id="patch_148">
    <path clip-path="url(#pa82bfeb701)" d="M 1162.768396 512.64 
L 1167.924916 512.64 
L 1167.924916 139.383632 
L 1162.768396 139.383632 
z
" style="fill:#ccb974;stroke:#ffffff;stroke-linejoin:miter;"/>
   </g>
   <g id="patch_149">
    <path clip-path="url(#pa82bfeb701)" d="M 1169.214046 512.64 
L 1174.370567 512.64 
L 1174.370567 143.055336 
L 1169.214046 143.055336 
z
" style="fill:#ccb974;stroke:#ffffff;stroke-linejoin:miter;"/>
   </g>
   <g id="patch_150">
    <path clip-path="url(#pa82bfeb701)" d="M 1175.659697 512.64 
L 1180.816218 512.64 
L 1180.816218 148.166447 
L 1175.659697 148.166447 
z
" style="fill:#ccb974;stroke:#ffffff;stroke-linejoin:miter;"/>
   </g>
   <g id="patch_151">
    <path clip-path="url(#pa82bfeb701)" d="M 1182.105348 512.64 
L 1187.261869 512.64 
L 1187.261869 151.59277 
L 1182.105348 151.59277 
z
" style="fill:#ccb974;stroke:#ffffff;stroke-linejoin:miter;"/>
   </g>
   <g id="patch_152">
    <path clip-path="url(#pa82bfeb701)" d="M 1188.550999 512.64 
L 1193.70752 512.64 
L 1193.70752 155.993547 
L 1188.550999 155.993547 
z
" style="fill:#ccb974;stroke:#ffffff;stroke-linejoin:miter;"/>
   </g>
   <g id="patch_153">
    <path clip-path="url(#pa82bfeb701)" d="M 1194.99665 512.64 
L 1200.153171 512.64 
L 1200.153171 163.81941 
L 1194.99665 163.81941 
z
" style="fill:#ccb974;stroke:#ffffff;stroke-linejoin:miter;"/>
   </g>
   <g id="patch_154">
    <path clip-path="url(#pa82bfeb701)" d="M 1201.442301 512.64 
L 1206.598822 512.64 
L 1206.598822 173.15999 
L 1201.442301 173.15999 
z
" style="fill:#ccb974;stroke:#ffffff;stroke-linejoin:miter;"/>
   </g>
   <g id="patch_155">
    <path clip-path="url(#pa82bfeb701)" d="M 1207.887952 512.64 
L 1213.044473 512.64 
L 1213.044473 175.913459 
L 1207.887952 175.913459 
z
" style="fill:#ccb974;stroke:#ffffff;stroke-linejoin:miter;"/>
   </g>
   <g id="patch_156">
    <path clip-path="url(#pa82bfeb701)" d="M 1214.333603 512.64 
L 1219.490124 512.64 
L 1219.490124 169.429768 
L 1214.333603 169.429768 
z
" style="fill:#ccb974;stroke:#ffffff;stroke-linejoin:miter;"/>
   </g>
   <g id="patch_157">
    <path clip-path="url(#pa82bfeb701)" d="M 1220.779254 512.64 
L 1225.935775 512.64 
L 1225.935775 164.732341 
L 1220.779254 164.732341 
z
" style="fill:#ccb974;stroke:#ffffff;stroke-linejoin:miter;"/>
   </g>
   <g id="patch_158">
    <path clip-path="url(#pa82bfeb701)" d="M 1227.224905 512.64 
L 1232.381425 512.64 
L 1232.381425 159.275258 
L 1227.224905 159.275258 
z
" style="fill:#ccb974;stroke:#ffffff;stroke-linejoin:miter;"/>
   </g>
   <g id="patch_159">
    <path clip-path="url(#pa82bfeb701)" d="M 1233.670556 512.64 
L 1238.827076 512.64 
L 1238.827076 133.211972 
L 1233.670556 133.211972 
z
" style="fill:#ccb974;stroke:#ffffff;stroke-linejoin:miter;"/>
   </g>
   <g id="patch_160">
    <path clip-path="url(#pa82bfeb701)" d="M 1240.116207 512.64 
L 1245.272727 512.64 
L 1245.272727 90.24 
L 1240.116207 90.24 
z
" style="fill:#ccb974;stroke:#ffffff;stroke-linejoin:miter;"/>
   </g>
   <g id="patch_161">
    <path d="M 180 512.64 
L 180 69.12 
" style="fill:none;stroke:#ffffff;stroke-linecap:square;stroke-linejoin:miter;stroke-width:1.25;"/>
   </g>
   <g id="patch_162">
    <path d="M 1296 512.64 
L 1296 69.12 
" style="fill:none;stroke:#ffffff;stroke-linecap:square;stroke-linejoin:miter;stroke-width:1.25;"/>
   </g>
   <g id="patch_163">
    <path d="M 180 512.64 
L 1296 512.64 
" style="fill:none;stroke:#ffffff;stroke-linecap:square;stroke-linejoin:miter;stroke-width:1.25;"/>
   </g>
   <g id="patch_164">
    <path d="M 180 69.12 
L 1296 69.12 
" style="fill:none;stroke:#ffffff;stroke-linecap:square;stroke-linejoin:miter;stroke-width:1.25;"/>
   </g>
  </g>
  <g id="axes_2">
   <g id="matplotlib.axis_3">
    <g id="ytick_9">
     <g id="line2d_23">
      <path clip-path="url(#pa82bfeb701)" d="M 180 492.48 
L 1296 492.48 
" style="fill:none;stroke:#ffffff;stroke-linecap:round;"/>
     </g>
     <g id="line2d_24">
      <defs>
       <path d="M 0 0 
L 6 0 
" id="m2d27384b97" style="stroke:#262626;stroke-width:1.25;"/>
      </defs>
      <g>
       <use style="fill:#262626;stroke:#262626;stroke-width:1.25;" x="1296" xlink:href="#m2d27384b97" y="492.48"/>
      </g>
     </g>
     <g id="text_16">
      <!-- 0 -->
      <g style="fill:#262626;" transform="translate(1305.5 496.416797)scale(0.11 -0.11)">
       <use xlink:href="#ArialMT-30"/>
      </g>
     </g>
    </g>
    <g id="ytick_10">
     <g id="line2d_25">
      <path clip-path="url(#pa82bfeb701)" d="M 180 437.973795 
L 1296 437.973795 
" style="fill:none;stroke:#ffffff;stroke-linecap:round;"/>
     </g>
     <g id="line2d_26">
      <g>
       <use style="fill:#262626;stroke:#262626;stroke-width:1.25;" x="1296" xlink:href="#m2d27384b97" y="437.973795"/>
      </g>
     </g>
     <g id="text_17">
      <!-- 5 -->
      <g style="fill:#262626;" transform="translate(1305.5 441.910592)scale(0.11 -0.11)">
       <use xlink:href="#ArialMT-35"/>
      </g>
     </g>
    </g>
    <g id="ytick_11">
     <g id="line2d_27">
      <path clip-path="url(#pa82bfeb701)" d="M 180 383.467591 
L 1296 383.467591 
" style="fill:none;stroke:#ffffff;stroke-linecap:round;"/>
     </g>
     <g id="line2d_28">
      <g>
       <use style="fill:#262626;stroke:#262626;stroke-width:1.25;" x="1296" xlink:href="#m2d27384b97" y="383.467591"/>
      </g>
     </g>
     <g id="text_18">
      <!-- 10 -->
      <g style="fill:#262626;" transform="translate(1305.5 387.404388)scale(0.11 -0.11)">
       <use xlink:href="#ArialMT-31"/>
       <use x="55.615234" xlink:href="#ArialMT-30"/>
      </g>
     </g>
    </g>
    <g id="ytick_12">
     <g id="line2d_29">
      <path clip-path="url(#pa82bfeb701)" d="M 180 328.961386 
L 1296 328.961386 
" style="fill:none;stroke:#ffffff;stroke-linecap:round;"/>
     </g>
     <g id="line2d_30">
      <g>
       <use style="fill:#262626;stroke:#262626;stroke-width:1.25;" x="1296" xlink:href="#m2d27384b97" y="328.961386"/>
      </g>
     </g>
     <g id="text_19">
      <!-- 15 -->
      <g style="fill:#262626;" transform="translate(1305.5 332.898183)scale(0.11 -0.11)">
       <use xlink:href="#ArialMT-31"/>
       <use x="55.615234" xlink:href="#ArialMT-35"/>
      </g>
     </g>
    </g>
    <g id="ytick_13">
     <g id="line2d_31">
      <path clip-path="url(#pa82bfeb701)" d="M 180 274.455181 
L 1296 274.455181 
" style="fill:none;stroke:#ffffff;stroke-linecap:round;"/>
     </g>
     <g id="line2d_32">
      <g>
       <use style="fill:#262626;stroke:#262626;stroke-width:1.25;" x="1296" xlink:href="#m2d27384b97" y="274.455181"/>
      </g>
     </g>
     <g id="text_20">
      <!-- 20 -->
      <g style="fill:#262626;" transform="translate(1305.5 278.391978)scale(0.11 -0.11)">
       <use xlink:href="#ArialMT-32"/>
       <use x="55.615234" xlink:href="#ArialMT-30"/>
      </g>
     </g>
    </g>
    <g id="ytick_14">
     <g id="line2d_33">
      <path clip-path="url(#pa82bfeb701)" d="M 180 219.948977 
L 1296 219.948977 
" style="fill:none;stroke:#ffffff;stroke-linecap:round;"/>
     </g>
     <g id="line2d_34">
      <g>
       <use style="fill:#262626;stroke:#262626;stroke-width:1.25;" x="1296" xlink:href="#m2d27384b97" y="219.948977"/>
      </g>
     </g>
     <g id="text_21">
      <!-- 25 -->
      <g style="fill:#262626;" transform="translate(1305.5 223.885774)scale(0.11 -0.11)">
       <use xlink:href="#ArialMT-32"/>
       <use x="55.615234" xlink:href="#ArialMT-35"/>
      </g>
     </g>
    </g>
    <g id="ytick_15">
     <g id="line2d_35">
      <path clip-path="url(#pa82bfeb701)" d="M 180 165.442772 
L 1296 165.442772 
" style="fill:none;stroke:#ffffff;stroke-linecap:round;"/>
     </g>
     <g id="line2d_36">
      <g>
       <use style="fill:#262626;stroke:#262626;stroke-width:1.25;" x="1296" xlink:href="#m2d27384b97" y="165.442772"/>
      </g>
     </g>
     <g id="text_22">
      <!-- 30 -->
      <g style="fill:#262626;" transform="translate(1305.5 169.379569)scale(0.11 -0.11)">
       <use xlink:href="#ArialMT-33"/>
       <use x="55.615234" xlink:href="#ArialMT-30"/>
      </g>
     </g>
    </g>
    <g id="ytick_16">
     <g id="line2d_37">
      <path clip-path="url(#pa82bfeb701)" d="M 180 110.936568 
L 1296 110.936568 
" style="fill:none;stroke:#ffffff;stroke-linecap:round;"/>
     </g>
     <g id="line2d_38">
      <g>
       <use style="fill:#262626;stroke:#262626;stroke-width:1.25;" x="1296" xlink:href="#m2d27384b97" y="110.936568"/>
      </g>
     </g>
     <g id="text_23">
      <!-- 35 -->
      <g style="fill:#262626;" transform="translate(1305.5 114.873364)scale(0.11 -0.11)">
       <use xlink:href="#ArialMT-33"/>
       <use x="55.615234" xlink:href="#ArialMT-35"/>
      </g>
     </g>
    </g>
    <g id="text_24">
     <!-- Populacja zaszczepiona [%] -->
     <g style="fill:#262626;" transform="translate(1332.653594 384.263203)rotate(-90)scale(0.15 -0.15)">
      <defs>
       <path d="M 494 0 
L 494 4581 
L 2222 4581 
Q 2678 4581 2919 4538 
Q 3256 4481 3484 4323 
Q 3713 4166 3852 3881 
Q 3991 3597 3991 3256 
Q 3991 2672 3619 2267 
Q 3247 1863 2275 1863 
L 1100 1863 
L 1100 0 
L 494 0 
z
M 1100 2403 
L 2284 2403 
Q 2872 2403 3119 2622 
Q 3366 2841 3366 3238 
Q 3366 3525 3220 3729 
Q 3075 3934 2838 4000 
Q 2684 4041 2272 4041 
L 1100 4041 
L 1100 2403 
z
" id="ArialMT-50" transform="scale(0.015625)"/>
       <path d="M 213 1659 
Q 213 2581 725 3025 
Q 1153 3394 1769 3394 
Q 2453 3394 2887 2945 
Q 3322 2497 3322 1706 
Q 3322 1066 3130 698 
Q 2938 331 2570 128 
Q 2203 -75 1769 -75 
Q 1072 -75 642 372 
Q 213 819 213 1659 
z
M 791 1659 
Q 791 1022 1069 705 
Q 1347 388 1769 388 
Q 2188 388 2466 706 
Q 2744 1025 2744 1678 
Q 2744 2294 2464 2611 
Q 2184 2928 1769 2928 
Q 1347 2928 1069 2612 
Q 791 2297 791 1659 
z
" id="ArialMT-6f" transform="scale(0.015625)"/>
       <path d="M 2597 0 
L 2597 488 
Q 2209 -75 1544 -75 
Q 1250 -75 995 37 
Q 741 150 617 320 
Q 494 491 444 738 
Q 409 903 409 1263 
L 409 3319 
L 972 3319 
L 972 1478 
Q 972 1038 1006 884 
Q 1059 663 1231 536 
Q 1403 409 1656 409 
Q 1909 409 2131 539 
Q 2353 669 2445 892 
Q 2538 1116 2538 1541 
L 2538 3319 
L 3100 3319 
L 3100 0 
L 2597 0 
z
" id="ArialMT-75" transform="scale(0.015625)"/>
       <path d="M 409 0 
L 409 4581 
L 972 4581 
L 972 0 
L 409 0 
z
" id="ArialMT-6c" transform="scale(0.015625)"/>
       <path d="M 419 3928 
L 419 4581 
L 981 4581 
L 981 3928 
L 419 3928 
z
M -294 -1288 
L -188 -809 
Q -19 -853 78 -853 
Q 250 -853 334 -739 
Q 419 -625 419 -169 
L 419 3319 
L 981 3319 
L 981 -181 
Q 981 -794 822 -1034 
Q 619 -1347 147 -1347 
Q -81 -1347 -294 -1288 
z
" id="ArialMT-6a" transform="scale(0.015625)"/>
       <path d="M 422 0 
L 422 3319 
L 928 3319 
L 928 2847 
Q 1294 3394 1984 3394 
Q 2284 3394 2536 3286 
Q 2788 3178 2913 3003 
Q 3038 2828 3088 2588 
Q 3119 2431 3119 2041 
L 3119 0 
L 2556 0 
L 2556 2019 
Q 2556 2363 2490 2533 
Q 2425 2703 2258 2804 
Q 2091 2906 1866 2906 
Q 1506 2906 1245 2678 
Q 984 2450 984 1813 
L 984 0 
L 422 0 
z
" id="ArialMT-6e" transform="scale(0.015625)"/>
       <path d="M 434 -1272 
L 434 4581 
L 1675 4581 
L 1675 4116 
L 997 4116 
L 997 -806 
L 1675 -806 
L 1675 -1272 
L 434 -1272 
z
" id="ArialMT-5b" transform="scale(0.015625)"/>
       <path d="M 372 3481 
Q 372 3972 619 4315 
Q 866 4659 1334 4659 
Q 1766 4659 2048 4351 
Q 2331 4044 2331 3447 
Q 2331 2866 2045 2552 
Q 1759 2238 1341 2238 
Q 925 2238 648 2547 
Q 372 2856 372 3481 
z
M 1350 4272 
Q 1141 4272 1002 4090 
Q 863 3909 863 3425 
Q 863 2984 1003 2804 
Q 1144 2625 1350 2625 
Q 1563 2625 1702 2806 
Q 1841 2988 1841 3469 
Q 1841 3913 1700 4092 
Q 1559 4272 1350 4272 
z
M 1353 -169 
L 3859 4659 
L 4316 4659 
L 1819 -169 
L 1353 -169 
z
M 3334 1075 
Q 3334 1569 3581 1911 
Q 3828 2253 4300 2253 
Q 4731 2253 5014 1945 
Q 5297 1638 5297 1041 
Q 5297 459 5011 145 
Q 4725 -169 4303 -169 
Q 3888 -169 3611 142 
Q 3334 453 3334 1075 
z
M 4316 1866 
Q 4103 1866 3964 1684 
Q 3825 1503 3825 1019 
Q 3825 581 3965 400 
Q 4106 219 4313 219 
Q 4528 219 4667 400 
Q 4806 581 4806 1063 
Q 4806 1506 4665 1686 
Q 4525 1866 4316 1866 
z
" id="ArialMT-25" transform="scale(0.015625)"/>
       <path d="M 1363 -1272 
L 122 -1272 
L 122 -806 
L 800 -806 
L 800 4116 
L 122 4116 
L 122 4581 
L 1363 4581 
L 1363 -1272 
z
" id="ArialMT-5d" transform="scale(0.015625)"/>
      </defs>
      <use xlink:href="#ArialMT-50"/>
      <use x="66.699219" xlink:href="#ArialMT-6f"/>
      <use x="122.314453" xlink:href="#ArialMT-70"/>
      <use x="177.929688" xlink:href="#ArialMT-75"/>
      <use x="233.544922" xlink:href="#ArialMT-6c"/>
      <use x="255.761719" xlink:href="#ArialMT-61"/>
      <use x="311.376953" xlink:href="#ArialMT-63"/>
      <use x="361.376953" xlink:href="#ArialMT-6a"/>
      <use x="383.59375" xlink:href="#ArialMT-61"/>
      <use x="439.208984" xlink:href="#ArialMT-20"/>
      <use x="466.992188" xlink:href="#ArialMT-7a"/>
      <use x="516.992188" xlink:href="#ArialMT-61"/>
      <use x="572.607422" xlink:href="#ArialMT-73"/>
      <use x="622.607422" xlink:href="#ArialMT-7a"/>
      <use x="672.607422" xlink:href="#ArialMT-63"/>
      <use x="722.607422" xlink:href="#ArialMT-7a"/>
      <use x="772.607422" xlink:href="#ArialMT-65"/>
      <use x="828.222656" xlink:href="#ArialMT-70"/>
      <use x="883.837891" xlink:href="#ArialMT-69"/>
      <use x="906.054688" xlink:href="#ArialMT-6f"/>
      <use x="961.669922" xlink:href="#ArialMT-6e"/>
      <use x="1017.285156" xlink:href="#ArialMT-61"/>
      <use x="1072.900391" xlink:href="#ArialMT-20"/>
      <use x="1100.683594" xlink:href="#ArialMT-5b"/>
      <use x="1128.466797" xlink:href="#ArialMT-25"/>
      <use x="1217.382812" xlink:href="#ArialMT-5d"/>
     </g>
    </g>
   </g>
   <g id="line2d_39">
    <path clip-path="url(#pa82bfeb701)" d="M 230.727273 492.370172 
L 237.172924 492.248515 
L 243.618575 491.966977 
L 250.064225 491.396204 
L 256.509876 491.114095 
L 275.846829 491.031033 
L 282.29248 489.85189 
L 288.738131 488.482935 
L 295.183782 487.909055 
L 301.629433 487.093914 
L 308.075084 486.813686 
L 320.966386 486.692086 
L 340.303338 481.955816 
L 346.748989 480.779494 
L 353.19464 480.024611 
L 359.640291 479.444831 
L 366.085942 479.098131 
L 372.531593 478.466244 
L 391.868546 475.225859 
L 398.314197 474.271387 
L 404.759848 473.832818 
L 411.205498 473.674077 
L 417.651149 472.492026 
L 424.0968 470.177721 
L 430.542451 468.009644 
L 436.988102 466.315511 
L 443.433753 465.526166 
L 449.879404 465.159798 
L 456.325055 464.64917 
L 462.770706 464.015801 
L 469.216357 462.457805 
L 475.662008 460.636342 
L 482.107659 459.094736 
L 488.553309 458.473196 
L 501.444611 458.097565 
L 507.890262 457.529842 
L 520.781564 453.70845 
L 527.227215 452.199425 
L 533.672866 451.259633 
L 540.118517 450.679938 
L 546.564168 450.399597 
L 553.009819 449.697333 
L 559.45547 448.619123 
L 565.90112 446.564779 
L 572.346771 444.270855 
L 578.792422 442.765935 
L 585.238073 441.959458 
L 591.683724 441.587162 
L 598.129375 440.462376 
L 604.575026 438.973703 
L 617.466328 434.250943 
L 623.911979 432.570663 
L 630.35763 431.588856 
L 636.803281 431.20664 
L 643.248932 430.040266 
L 649.694582 428.321192 
L 662.585884 423.358738 
L 669.031535 421.542435 
L 675.477186 420.448149 
L 681.922837 420.08657 
L 688.368488 418.707126 
L 694.814139 417.18 
L 701.25979 414.309717 
L 707.705441 411.645491 
L 714.151092 410.052178 
L 720.596743 409.395464 
L 727.042393 409.115066 
L 733.488044 408.484035 
L 739.933695 407.404429 
L 752.824997 402.321259 
L 759.270648 400.874573 
L 765.716299 400.266231 
L 772.16195 400.055412 
L 778.607601 398.715133 
L 785.053252 395.968872 
L 797.944554 387.982467 
L 804.390204 384.572252 
L 810.835855 382.410617 
L 817.281506 381.598554 
L 823.727157 379.558519 
L 830.172808 376.672587 
L 843.06411 366.930308 
L 849.509761 362.932531 
L 855.955412 361.91495 
L 868.846714 361.606076 
L 875.292365 358.274277 
L 881.738015 352.534735 
L 888.183666 345.19065 
L 894.629317 339.01194 
L 901.074968 334.858557 
L 907.520619 333.39474 
L 913.96627 330.837862 
L 920.411921 326.217548 
L 933.303223 314.706625 
L 939.748874 309.321594 
L 946.194525 305.582722 
L 952.640176 304.370685 
L 959.085826 301.521437 
L 965.531477 296.691416 
L 971.977128 290.68778 
L 978.422779 284.080335 
L 984.86843 277.938482 
L 991.314081 272.486693 
L 997.759732 271.122356 
L 1004.205383 267.912157 
L 1010.651034 262.366445 
L 1017.096685 255.417118 
L 1023.542336 247.402323 
L 1029.987987 241.37959 
L 1036.433638 238.296207 
L 1042.879288 235.939972 
L 1049.324939 235.415148 
L 1055.77059 230.636976 
L 1062.216241 222.977147 
L 1068.661892 214.972043 
L 1075.107543 207.779887 
L 1081.553194 202.150999 
L 1087.998845 199.997545 
L 1094.444496 196.005611 
L 1100.890147 190.049094 
L 1107.335798 182.795567 
L 1113.781449 175.73664 
L 1120.227099 169.542966 
L 1126.67275 164.960648 
L 1133.118401 163.059173 
L 1139.564052 159.98685 
L 1146.009703 154.167011 
L 1152.455354 146.84496 
L 1158.901005 139.901704 
L 1165.346656 133.952598 
L 1171.792307 130.177013 
L 1178.237958 129.082157 
L 1184.683609 127.203201 
L 1191.12926 123.059737 
L 1197.57491 117.782709 
L 1204.020561 113.286332 
L 1210.466212 109.054162 
L 1216.911863 105.382904 
L 1223.357514 103.855293 
L 1229.803165 101.759561 
L 1236.248816 96.35945 
L 1242.694467 89.28 
L 1242.694467 89.28 
" style="fill:none;stroke:#4c72b0;stroke-linecap:round;stroke-width:1.5;"/>
   </g>
   <g id="line2d_40">
    <path clip-path="url(#pa82bfeb701)" d="M 230.727273 492.48 
L 372.531593 492.379379 
L 378.977244 492.16152 
L 391.868546 491.348801 
L 398.314197 491.183675 
L 411.205498 491.119768 
L 417.651149 490.320389 
L 424.0968 488.972727 
L 436.988102 487.374084 
L 443.433753 486.907951 
L 456.325055 486.763832 
L 462.770706 485.834815 
L 475.662008 482.662185 
L 482.107659 481.210083 
L 488.553309 480.373334 
L 494.99896 479.927667 
L 507.890262 479.301396 
L 514.335913 478.736723 
L 520.781564 477.54595 
L 527.227215 475.930147 
L 533.672866 474.6674 
L 540.118517 474.218654 
L 546.564168 474.066982 
L 553.009819 473.717403 
L 559.45547 472.772624 
L 565.90112 470.417985 
L 572.346771 467.803301 
L 578.792422 466.350115 
L 585.238073 466.100816 
L 598.129375 465.841425 
L 604.575026 465.242917 
L 611.020677 463.077149 
L 617.466328 460.525089 
L 623.911979 459.185152 
L 630.35763 458.848315 
L 643.248932 458.477045 
L 649.694582 457.854479 
L 656.140233 455.9607 
L 662.585884 453.523428 
L 669.031535 452.231264 
L 675.477186 451.887814 
L 688.368488 451.549951 
L 694.814139 451.286228 
L 701.25979 450.101611 
L 707.705441 448.144182 
L 714.151092 447.000584 
L 727.042393 446.697468 
L 733.488044 446.579488 
L 739.933695 446.26611 
L 746.379346 445.033663 
L 752.824997 443.157358 
L 759.270648 442.033684 
L 765.716299 441.767709 
L 778.607601 441.501335 
L 785.053252 440.943731 
L 791.498903 439.532504 
L 797.944554 437.501135 
L 804.390204 436.328946 
L 810.835855 435.91777 
L 823.727157 435.402865 
L 836.618459 434.375422 
L 843.06411 433.812032 
L 849.509761 433.475708 
L 862.401063 433.38076 
L 868.846714 433.360835 
L 888.183666 432.729405 
L 901.074968 432.46246 
L 907.520619 432.433984 
L 913.96627 432.232572 
L 920.411921 431.55733 
L 926.857572 430.046851 
L 933.303223 428.39841 
L 939.748874 427.573406 
L 946.194525 427.234488 
L 952.640176 427.097097 
L 959.085826 426.712144 
L 965.531477 425.730679 
L 971.977128 423.613454 
L 978.422779 421.337517 
L 984.86843 419.989997 
L 991.314081 417.106744 
L 997.759732 418.988579 
L 1004.205383 418.117968 
L 1010.651034 414.183299 
L 1017.096685 411.175938 
L 1023.542336 410.58886 
L 1029.987987 408.618262 
L 1036.433638 408.114759 
L 1042.879288 406.966657 
L 1049.324939 403.671173 
L 1055.77059 401.717506 
L 1062.216241 398.161947 
L 1068.661892 394.092595 
L 1075.107543 390.436643 
L 1081.553194 388.435374 
L 1087.998845 387.821047 
L 1094.444496 386.195552 
L 1100.890147 383.040309 
L 1107.335798 377.578714 
L 1113.781449 371.565388 
L 1120.227099 373.341186 
L 1126.67275 370.312332 
L 1133.118401 369.265392 
L 1139.564052 360.162069 
L 1146.009703 355.820158 
L 1152.455354 350.094384 
L 1158.901005 343.617518 
L 1165.346656 338.253865 
L 1171.792307 334.175477 
L 1178.237958 332.935904 
L 1184.683609 330.296991 
L 1191.12926 325.566506 
L 1197.57491 319.427589 
L 1204.020561 312.662457 
L 1210.466212 305.408247 
L 1216.911863 299.032828 
L 1223.357514 296.68808 
L 1229.803165 292.403035 
L 1236.248816 284.388896 
L 1242.694467 272.986575 
L 1242.694467 272.986575 
" style="fill:none;stroke:#c44e52;stroke-linecap:round;stroke-width:1.5;"/>
   </g>
   <g id="patch_165">
    <path d="M 180 512.64 
L 180 69.12 
" style="fill:none;stroke:#ffffff;stroke-linecap:square;stroke-linejoin:miter;stroke-width:1.25;"/>
   </g>
   <g id="patch_166">
    <path d="M 1296 512.64 
L 1296 69.12 
" style="fill:none;stroke:#ffffff;stroke-linecap:square;stroke-linejoin:miter;stroke-width:1.25;"/>
   </g>
   <g id="patch_167">
    <path d="M 180 512.64 
L 1296 512.64 
" style="fill:none;stroke:#ffffff;stroke-linecap:square;stroke-linejoin:miter;stroke-width:1.25;"/>
   </g>
   <g id="patch_168">
    <path d="M 180 69.12 
L 1296 69.12 
" style="fill:none;stroke:#ffffff;stroke-linecap:square;stroke-linejoin:miter;stroke-width:1.25;"/>
   </g>
   <g id="text_25">
    <!-- Szczepienia -->
    <g style="fill:#262626;" transform="translate(684.08125 63.12)scale(0.2 -0.2)">
     <defs>
      <path d="M 288 1472 
L 859 1522 
Q 900 1178 1048 958 
Q 1197 738 1509 602 
Q 1822 466 2213 466 
Q 2559 466 2825 569 
Q 3091 672 3220 851 
Q 3350 1031 3350 1244 
Q 3350 1459 3225 1620 
Q 3100 1781 2813 1891 
Q 2628 1963 1997 2114 
Q 1366 2266 1113 2400 
Q 784 2572 623 2826 
Q 463 3081 463 3397 
Q 463 3744 659 4045 
Q 856 4347 1234 4503 
Q 1613 4659 2075 4659 
Q 2584 4659 2973 4495 
Q 3363 4331 3572 4012 
Q 3781 3694 3797 3291 
L 3216 3247 
Q 3169 3681 2898 3903 
Q 2628 4125 2100 4125 
Q 1550 4125 1298 3923 
Q 1047 3722 1047 3438 
Q 1047 3191 1225 3031 
Q 1400 2872 2139 2705 
Q 2878 2538 3153 2413 
Q 3553 2228 3743 1945 
Q 3934 1663 3934 1294 
Q 3934 928 3725 604 
Q 3516 281 3123 101 
Q 2731 -78 2241 -78 
Q 1619 -78 1198 103 
Q 778 284 539 648 
Q 300 1013 288 1472 
z
" id="ArialMT-53" transform="scale(0.015625)"/>
     </defs>
     <use xlink:href="#ArialMT-53"/>
     <use x="66.699219" xlink:href="#ArialMT-7a"/>
     <use x="116.699219" xlink:href="#ArialMT-63"/>
     <use x="166.699219" xlink:href="#ArialMT-7a"/>
     <use x="216.699219" xlink:href="#ArialMT-65"/>
     <use x="272.314453" xlink:href="#ArialMT-70"/>
     <use x="327.929688" xlink:href="#ArialMT-69"/>
     <use x="350.146484" xlink:href="#ArialMT-65"/>
     <use x="405.761719" xlink:href="#ArialMT-6e"/>
     <use x="461.376953" xlink:href="#ArialMT-69"/>
     <use x="483.59375" xlink:href="#ArialMT-61"/>
    </g>
   </g>
  </g>
  <g id="legend_1">
   <g id="patch_169">
    <path d="M 442.344531 570.5 
L 997.655469 570.5 
Q 999.855469 570.5 999.855469 568.3 
L 999.855469 551.693437 
Q 999.855469 549.493438 997.655469 549.493438 
L 442.344531 549.493438 
Q 440.144531 549.493438 440.144531 551.693437 
L 440.144531 568.3 
Q 440.144531 570.5 442.344531 570.5 
z
" style="fill:#eaeaf2;opacity:0.8;stroke:#cccccc;stroke-linejoin:miter;"/>
   </g>
   <g id="patch_170">
    <path d="M 444.544531 563.79 
L 466.544531 563.79 
L 466.544531 556.09 
L 444.544531 556.09 
z
" style="fill:#ccb974;stroke:#ffffff;stroke-linejoin:miter;"/>
   </g>
   <g id="text_26">
    <!-- Średnia 7-dniowa liczba szczepień -->
    <g style="fill:#262626;" transform="translate(475.344531 563.79)scale(0.11 -0.11)">
     <defs>
      <path d="M 288 1472 
L 859 1522 
Q 900 1178 1048 958 
Q 1197 738 1509 602 
Q 1822 466 2213 466 
Q 2559 466 2825 569 
Q 3091 672 3220 851 
Q 3350 1031 3350 1244 
Q 3350 1459 3225 1620 
Q 3100 1781 2813 1891 
Q 2628 1963 1997 2114 
Q 1366 2266 1113 2400 
Q 784 2572 623 2826 
Q 463 3081 463 3397 
Q 463 3744 659 4045 
Q 856 4347 1234 4503 
Q 1613 4659 2075 4659 
Q 2584 4659 2973 4495 
Q 3363 4331 3572 4012 
Q 3781 3694 3797 3291 
L 3216 3247 
Q 3169 3681 2898 3903 
Q 2628 4125 2100 4125 
Q 1550 4125 1298 3923 
Q 1047 3722 1047 3438 
Q 1047 3191 1225 3031 
Q 1400 2872 2139 2705 
Q 2878 2538 3153 2413 
Q 3553 2228 3743 1945 
Q 3934 1663 3934 1294 
Q 3934 928 3725 604 
Q 3516 281 3123 101 
Q 2731 -78 2241 -78 
Q 1619 -78 1198 103 
Q 778 284 539 648 
Q 300 1013 288 1472 
z
M 1534 4883 
L 1949 5758 
L 2687 5758 
L 1999 4883 
L 1534 4883 
z
" id="ArialMT-15a" transform="scale(0.015625)"/>
      <path d="M 416 0 
L 416 3319 
L 922 3319 
L 922 2816 
Q 1116 3169 1280 3281 
Q 1444 3394 1641 3394 
Q 1925 3394 2219 3213 
L 2025 2691 
Q 1819 2813 1613 2813 
Q 1428 2813 1281 2702 
Q 1134 2591 1072 2394 
Q 978 2094 978 1738 
L 978 0 
L 416 0 
z
" id="ArialMT-72" transform="scale(0.015625)"/>
      <path d="M 2575 0 
L 2575 419 
Q 2259 -75 1647 -75 
Q 1250 -75 917 144 
Q 584 363 401 755 
Q 219 1147 219 1656 
Q 219 2153 384 2558 
Q 550 2963 881 3178 
Q 1213 3394 1622 3394 
Q 1922 3394 2156 3267 
Q 2391 3141 2538 2938 
L 2538 4581 
L 3097 4581 
L 3097 0 
L 2575 0 
z
M 797 1656 
Q 797 1019 1065 703 
Q 1334 388 1700 388 
Q 2069 388 2326 689 
Q 2584 991 2584 1609 
Q 2584 2291 2321 2609 
Q 2059 2928 1675 2928 
Q 1300 2928 1048 2622 
Q 797 2316 797 1656 
z
" id="ArialMT-64" transform="scale(0.015625)"/>
      <path d="M 303 3981 
L 303 4522 
L 3269 4522 
L 3269 4084 
Q 2831 3619 2401 2847 
Q 1972 2075 1738 1259 
Q 1569 684 1522 0 
L 944 0 
Q 953 541 1156 1306 
Q 1359 2072 1739 2783 
Q 2119 3494 2547 3981 
L 303 3981 
z
" id="ArialMT-37" transform="scale(0.015625)"/>
      <path d="M 1034 0 
L 19 3319 
L 600 3319 
L 1128 1403 
L 1325 691 
Q 1338 744 1497 1375 
L 2025 3319 
L 2603 3319 
L 3100 1394 
L 3266 759 
L 3456 1400 
L 4025 3319 
L 4572 3319 
L 3534 0 
L 2950 0 
L 2422 1988 
L 2294 2553 
L 1622 0 
L 1034 0 
z
" id="ArialMT-77" transform="scale(0.015625)"/>
     </defs>
     <use xlink:href="#ArialMT-15a"/>
     <use x="66.699219" xlink:href="#ArialMT-72"/>
     <use x="100" xlink:href="#ArialMT-65"/>
     <use x="155.615234" xlink:href="#ArialMT-64"/>
     <use x="211.230469" xlink:href="#ArialMT-6e"/>
     <use x="266.845703" xlink:href="#ArialMT-69"/>
     <use x="289.0625" xlink:href="#ArialMT-61"/>
     <use x="344.677734" xlink:href="#ArialMT-20"/>
     <use x="372.460938" xlink:href="#ArialMT-37"/>
     <use x="428.076172" xlink:href="#ArialMT-2d"/>
     <use x="461.376953" xlink:href="#ArialMT-64"/>
     <use x="516.992188" xlink:href="#ArialMT-6e"/>
     <use x="572.607422" xlink:href="#ArialMT-69"/>
     <use x="594.824219" xlink:href="#ArialMT-6f"/>
     <use x="650.439453" xlink:href="#ArialMT-77"/>
     <use x="722.65625" xlink:href="#ArialMT-61"/>
     <use x="778.271484" xlink:href="#ArialMT-20"/>
     <use x="806.054688" xlink:href="#ArialMT-6c"/>
     <use x="828.271484" xlink:href="#ArialMT-69"/>
     <use x="850.488281" xlink:href="#ArialMT-63"/>
     <use x="900.488281" xlink:href="#ArialMT-7a"/>
     <use x="950.488281" xlink:href="#ArialMT-62"/>
     <use x="1006.103516" xlink:href="#ArialMT-61"/>
     <use x="1061.71875" xlink:href="#ArialMT-20"/>
     <use x="1089.501953" xlink:href="#ArialMT-73"/>
     <use x="1139.501953" xlink:href="#ArialMT-7a"/>
     <use x="1189.501953" xlink:href="#ArialMT-63"/>
     <use x="1239.501953" xlink:href="#ArialMT-7a"/>
     <use x="1289.501953" xlink:href="#ArialMT-65"/>
     <use x="1345.117188" xlink:href="#ArialMT-70"/>
     <use x="1400.732422" xlink:href="#ArialMT-69"/>
     <use x="1422.949219" xlink:href="#ArialMT-65"/>
     <use x="1478.564453" xlink:href="#ArialMT-144"/>
    </g>
   </g>
   <g id="line2d_41">
    <path d="M 666.094844 559.94 
L 688.094844 559.94 
" style="fill:none;stroke:#4c72b0;stroke-linecap:round;stroke-width:1.5;"/>
   </g>
   <g id="line2d_42"/>
   <g id="text_27">
    <!-- Zaszczepieni I dawką [%] -->
    <g style="fill:#262626;" transform="translate(696.894844 563.79)scale(0.11 -0.11)">
     <defs>
      <path d="M 128 0 
L 128 563 
L 2475 3497 
Q 2725 3809 2950 4041 
L 394 4041 
L 394 4581 
L 3675 4581 
L 3675 4041 
L 1103 863 
L 825 541 
L 3750 541 
L 3750 0 
L 128 0 
z
" id="ArialMT-5a" transform="scale(0.015625)"/>
      <path d="M 597 0 
L 597 4581 
L 1203 4581 
L 1203 0 
L 597 0 
z
" id="ArialMT-49" transform="scale(0.015625)"/>
      <path d="M 425 0 
L 425 4581 
L 988 4581 
L 988 1969 
L 2319 3319 
L 3047 3319 
L 1778 2088 
L 3175 0 
L 2481 0 
L 1384 1697 
L 988 1316 
L 988 0 
L 425 0 
z
" id="ArialMT-6b" transform="scale(0.015625)"/>
      <path d="M 2588 409 
Q 2275 144 1986 34 
Q 1697 -75 1366 -75 
Q 819 -75 525 192 
Q 231 459 231 875 
Q 231 1119 342 1320 
Q 453 1522 633 1644 
Q 813 1766 1038 1828 
Q 1203 1872 1538 1913 
Q 2219 1994 2541 2106 
Q 2544 2222 2544 2253 
Q 2544 2597 2384 2738 
Q 2169 2928 1744 2928 
Q 1347 2928 1158 2789 
Q 969 2650 878 2297 
L 328 2372 
Q 403 2725 575 2942 
Q 747 3159 1072 3276 
Q 1397 3394 1825 3394 
Q 2250 3394 2515 3294 
Q 2781 3194 2906 3042 
Q 3031 2891 3081 2659 
Q 3109 2516 3109 2141 
L 3109 1391 
Q 3109 606 3145 398 
Q 3181 191 3288 0 
L 2700 0 
Q 2613 175 2588 409 
z
M 2541 1666 
Q 2234 1541 1622 1453 
Q 1275 1403 1131 1340 
Q 988 1278 909 1158 
Q 831 1038 831 891 
Q 831 666 1001 516 
Q 1172 366 1500 366 
Q 1825 366 2078 508 
Q 2331 650 2450 897 
Q 2541 1088 2541 1459 
L 2541 1666 
z
M 3174 0 
Q 2996 -109 2897 -270 
Q 2799 -431 2799 -597 
Q 2799 -728 2871 -818 
Q 2943 -909 3105 -909 
Q 3177 -909 3252 -889 
Q 3327 -869 3390 -834 
L 3390 -1234 
Q 3162 -1344 2965 -1344 
Q 2805 -1344 2686 -1298 
Q 2568 -1253 2488 -1173 
Q 2409 -1094 2369 -991 
Q 2330 -888 2330 -769 
Q 2330 -569 2442 -367 
Q 2555 -166 2762 0 
L 3174 0 
z
" id="ArialMT-105" transform="scale(0.015625)"/>
     </defs>
     <use xlink:href="#ArialMT-5a"/>
     <use x="61.083984" xlink:href="#ArialMT-61"/>
     <use x="116.699219" xlink:href="#ArialMT-73"/>
     <use x="166.699219" xlink:href="#ArialMT-7a"/>
     <use x="216.699219" xlink:href="#ArialMT-63"/>
     <use x="266.699219" xlink:href="#ArialMT-7a"/>
     <use x="316.699219" xlink:href="#ArialMT-65"/>
     <use x="372.314453" xlink:href="#ArialMT-70"/>
     <use x="427.929688" xlink:href="#ArialMT-69"/>
     <use x="450.146484" xlink:href="#ArialMT-65"/>
     <use x="505.761719" xlink:href="#ArialMT-6e"/>
     <use x="561.376953" xlink:href="#ArialMT-69"/>
     <use x="583.59375" xlink:href="#ArialMT-20"/>
     <use x="611.376953" xlink:href="#ArialMT-49"/>
     <use x="639.160156" xlink:href="#ArialMT-20"/>
     <use x="666.943359" xlink:href="#ArialMT-64"/>
     <use x="722.558594" xlink:href="#ArialMT-61"/>
     <use x="778.173828" xlink:href="#ArialMT-77"/>
     <use x="850.390625" xlink:href="#ArialMT-6b"/>
     <use x="900.390625" xlink:href="#ArialMT-105"/>
     <use x="956.005859" xlink:href="#ArialMT-20"/>
     <use x="983.789062" xlink:href="#ArialMT-5b"/>
     <use x="1011.572266" xlink:href="#ArialMT-25"/>
     <use x="1100.488281" xlink:href="#ArialMT-5d"/>
    </g>
   </g>
   <g id="line2d_43">
    <path d="M 842.998906 559.94 
L 864.998906 559.94 
" style="fill:none;stroke:#c44e52;stroke-linecap:round;stroke-width:1.5;"/>
   </g>
   <g id="line2d_44"/>
   <g id="text_28">
    <!-- W pełni zaszczepieni [%] -->
    <g style="fill:#262626;" transform="translate(873.798906 563.79)scale(0.11 -0.11)">
     <defs>
      <path d="M 1294 0 
L 78 4581 
L 700 4581 
L 1397 1578 
Q 1509 1106 1591 641 
Q 1766 1375 1797 1488 
L 2669 4581 
L 3400 4581 
L 4056 2263 
Q 4303 1400 4413 641 
Q 4500 1075 4641 1638 
L 5359 4581 
L 5969 4581 
L 4713 0 
L 4128 0 
L 3163 3491 
Q 3041 3928 3019 4028 
Q 2947 3713 2884 3491 
L 1913 0 
L 1294 0 
z
" id="ArialMT-57" transform="scale(0.015625)"/>
      <path d="M 416 1794 
L 9 1450 
L 9 1944 
L 416 2288 
L 416 4581 
L 975 4581 
L 975 2763 
L 1397 3122 
L 1397 2631 
L 975 2272 
L 975 0 
L 416 0 
L 416 1794 
z
" id="ArialMT-142" transform="scale(0.015625)"/>
     </defs>
     <use xlink:href="#ArialMT-57"/>
     <use x="94.384766" xlink:href="#ArialMT-20"/>
     <use x="122.167969" xlink:href="#ArialMT-70"/>
     <use x="177.783203" xlink:href="#ArialMT-65"/>
     <use x="233.398438" xlink:href="#ArialMT-142"/>
     <use x="255.615234" xlink:href="#ArialMT-6e"/>
     <use x="311.230469" xlink:href="#ArialMT-69"/>
     <use x="333.447266" xlink:href="#ArialMT-20"/>
     <use x="361.230469" xlink:href="#ArialMT-7a"/>
     <use x="411.230469" xlink:href="#ArialMT-61"/>
     <use x="466.845703" xlink:href="#ArialMT-73"/>
     <use x="516.845703" xlink:href="#ArialMT-7a"/>
     <use x="566.845703" xlink:href="#ArialMT-63"/>
     <use x="616.845703" xlink:href="#ArialMT-7a"/>
     <use x="666.845703" xlink:href="#ArialMT-65"/>
     <use x="722.460938" xlink:href="#ArialMT-70"/>
     <use x="778.076172" xlink:href="#ArialMT-69"/>
     <use x="800.292969" xlink:href="#ArialMT-65"/>
     <use x="855.908203" xlink:href="#ArialMT-6e"/>
     <use x="911.523438" xlink:href="#ArialMT-69"/>
     <use x="933.740234" xlink:href="#ArialMT-20"/>
     <use x="961.523438" xlink:href="#ArialMT-5b"/>
     <use x="989.306641" xlink:href="#ArialMT-25"/>
     <use x="1078.222656" xlink:href="#ArialMT-5d"/>
    </g>
   </g>
  </g>
 </g>
 <defs>
  <clipPath id="pa82bfeb701">
   <rect height="443.52" width="1116" x="180" y="69.12"/>
  </clipPath>
 </defs>
</svg>
