<?xml version="1.0" encoding="utf-8" standalone="no"?>
<!DOCTYPE svg PUBLIC "-//W3C//DTD SVG 1.1//EN"
  "http://www.w3.org/Graphics/SVG/1.1/DTD/svg11.dtd">
<svg height="576pt" version="1.1" viewBox="0 0 1440 576" width="1440pt" xmlns="http://www.w3.org/2000/svg" xmlns:xlink="http://www.w3.org/1999/xlink">
 <metadata>
  <rdf:RDF xmlns:cc="http://creativecommons.org/ns#" xmlns:dc="http://purl.org/dc/elements/1.1/" xmlns:rdf="http://www.w3.org/1999/02/22-rdf-syntax-ns#">
   <cc:Work>
    <dc:type rdf:resource="http://purl.org/dc/dcmitype/StillImage"/>
    <dc:date>2021-06-07T12:40:46.488583</dc:date>
    <dc:format>image/svg+xml</dc:format>
    <dc:creator>
     <cc:Agent>
      <dc:title>Matplotlib v3.4.1, https://matplotlib.org/</dc:title>
     </cc:Agent>
    </dc:creator>
   </cc:Work>
  </rdf:RDF>
 </metadata>
 <defs>
  <style type="text/css">*{stroke-linecap:butt;stroke-linejoin:round;}</style>
 </defs>
 <g id="figure_1">
  <g id="patch_1">
   <path d="M 0 576 
L 1440 576 
L 1440 0 
L 0 0 
z
" style="fill:#ffffff;"/>
  </g>
  <g id="axes_1">
   <g id="patch_2">
    <path d="M 180 512.64 
L 1296 512.64 
L 1296 69.12 
L 180 69.12 
z
" style="fill:#eaeaf2;"/>
   </g>
   <g id="matplotlib.axis_1">
    <g id="xtick_1">
     <g id="line2d_1">
      <path clip-path="url(#p4665ec452e)" d="M 271.673053 512.64 
L 271.673053 69.12 
" style="fill:none;stroke:#ffffff;stroke-linecap:round;"/>
     </g>
     <g id="text_1">
      <!-- 2020-11 -->
      <g style="fill:#262626;" transform="translate(251.896257 530.013594)scale(0.11 -0.11)">
       <defs>
        <path d="M 3222 541 
L 3222 0 
L 194 0 
Q 188 203 259 391 
Q 375 700 629 1000 
Q 884 1300 1366 1694 
Q 2113 2306 2375 2664 
Q 2638 3022 2638 3341 
Q 2638 3675 2398 3904 
Q 2159 4134 1775 4134 
Q 1369 4134 1125 3890 
Q 881 3647 878 3216 
L 300 3275 
Q 359 3922 746 4261 
Q 1134 4600 1788 4600 
Q 2447 4600 2831 4234 
Q 3216 3869 3216 3328 
Q 3216 3053 3103 2787 
Q 2991 2522 2730 2228 
Q 2469 1934 1863 1422 
Q 1356 997 1212 845 
Q 1069 694 975 541 
L 3222 541 
z
" id="ArialMT-32" transform="scale(0.015625)"/>
        <path d="M 266 2259 
Q 266 3072 433 3567 
Q 600 4063 929 4331 
Q 1259 4600 1759 4600 
Q 2128 4600 2406 4451 
Q 2684 4303 2865 4023 
Q 3047 3744 3150 3342 
Q 3253 2941 3253 2259 
Q 3253 1453 3087 958 
Q 2922 463 2592 192 
Q 2263 -78 1759 -78 
Q 1097 -78 719 397 
Q 266 969 266 2259 
z
M 844 2259 
Q 844 1131 1108 757 
Q 1372 384 1759 384 
Q 2147 384 2411 759 
Q 2675 1134 2675 2259 
Q 2675 3391 2411 3762 
Q 2147 4134 1753 4134 
Q 1366 4134 1134 3806 
Q 844 3388 844 2259 
z
" id="ArialMT-30" transform="scale(0.015625)"/>
        <path d="M 203 1375 
L 203 1941 
L 1931 1941 
L 1931 1375 
L 203 1375 
z
" id="ArialMT-2d" transform="scale(0.015625)"/>
        <path d="M 2384 0 
L 1822 0 
L 1822 3584 
Q 1619 3391 1289 3197 
Q 959 3003 697 2906 
L 697 3450 
Q 1169 3672 1522 3987 
Q 1875 4303 2022 4600 
L 2384 4600 
L 2384 0 
z
" id="ArialMT-31" transform="scale(0.015625)"/>
       </defs>
       <use xlink:href="#ArialMT-32"/>
       <use x="55.615234" xlink:href="#ArialMT-30"/>
       <use x="111.230469" xlink:href="#ArialMT-32"/>
       <use x="166.845703" xlink:href="#ArialMT-30"/>
       <use x="222.460938" xlink:href="#ArialMT-2d"/>
       <use x="255.761719" xlink:href="#ArialMT-31"/>
       <use x="304.001953" xlink:href="#ArialMT-31"/>
      </g>
     </g>
    </g>
    <g id="xtick_2">
     <g id="line2d_2">
      <path clip-path="url(#p4665ec452e)" d="M 408.158989 512.64 
L 408.158989 69.12 
" style="fill:none;stroke:#ffffff;stroke-linecap:round;"/>
     </g>
     <g id="text_2">
      <!-- 2020-12 -->
      <g style="fill:#262626;" transform="translate(387.976567 530.013594)scale(0.11 -0.11)">
       <use xlink:href="#ArialMT-32"/>
       <use x="55.615234" xlink:href="#ArialMT-30"/>
       <use x="111.230469" xlink:href="#ArialMT-32"/>
       <use x="166.845703" xlink:href="#ArialMT-30"/>
       <use x="222.460938" xlink:href="#ArialMT-2d"/>
       <use x="255.761719" xlink:href="#ArialMT-31"/>
       <use x="311.376953" xlink:href="#ArialMT-32"/>
      </g>
     </g>
    </g>
    <g id="xtick_3">
     <g id="line2d_3">
      <path clip-path="url(#p4665ec452e)" d="M 549.194456 512.64 
L 549.194456 69.12 
" style="fill:none;stroke:#ffffff;stroke-linecap:round;"/>
     </g>
     <g id="text_3">
      <!-- 2021-01 -->
      <g style="fill:#262626;" transform="translate(529.012034 530.013594)scale(0.11 -0.11)">
       <use xlink:href="#ArialMT-32"/>
       <use x="55.615234" xlink:href="#ArialMT-30"/>
       <use x="111.230469" xlink:href="#ArialMT-32"/>
       <use x="166.845703" xlink:href="#ArialMT-31"/>
       <use x="222.460938" xlink:href="#ArialMT-2d"/>
       <use x="255.761719" xlink:href="#ArialMT-30"/>
       <use x="311.376953" xlink:href="#ArialMT-31"/>
      </g>
     </g>
    </g>
    <g id="xtick_4">
     <g id="line2d_4">
      <path clip-path="url(#p4665ec452e)" d="M 690.229923 512.64 
L 690.229923 69.12 
" style="fill:none;stroke:#ffffff;stroke-linecap:round;"/>
     </g>
     <g id="text_4">
      <!-- 2021-02 -->
      <g style="fill:#262626;" transform="translate(670.047501 530.013594)scale(0.11 -0.11)">
       <use xlink:href="#ArialMT-32"/>
       <use x="55.615234" xlink:href="#ArialMT-30"/>
       <use x="111.230469" xlink:href="#ArialMT-32"/>
       <use x="166.845703" xlink:href="#ArialMT-31"/>
       <use x="222.460938" xlink:href="#ArialMT-2d"/>
       <use x="255.761719" xlink:href="#ArialMT-30"/>
       <use x="311.376953" xlink:href="#ArialMT-32"/>
      </g>
     </g>
    </g>
    <g id="xtick_5">
     <g id="line2d_5">
      <path clip-path="url(#p4665ec452e)" d="M 817.616796 512.64 
L 817.616796 69.12 
" style="fill:none;stroke:#ffffff;stroke-linecap:round;"/>
     </g>
     <g id="text_5">
      <!-- 2021-03 -->
      <g style="fill:#262626;" transform="translate(797.434374 530.013594)scale(0.11 -0.11)">
       <defs>
        <path d="M 269 1209 
L 831 1284 
Q 928 806 1161 595 
Q 1394 384 1728 384 
Q 2125 384 2398 659 
Q 2672 934 2672 1341 
Q 2672 1728 2419 1979 
Q 2166 2231 1775 2231 
Q 1616 2231 1378 2169 
L 1441 2663 
Q 1497 2656 1531 2656 
Q 1891 2656 2178 2843 
Q 2466 3031 2466 3422 
Q 2466 3731 2256 3934 
Q 2047 4138 1716 4138 
Q 1388 4138 1169 3931 
Q 950 3725 888 3313 
L 325 3413 
Q 428 3978 793 4289 
Q 1159 4600 1703 4600 
Q 2078 4600 2393 4439 
Q 2709 4278 2876 4000 
Q 3044 3722 3044 3409 
Q 3044 3113 2884 2869 
Q 2725 2625 2413 2481 
Q 2819 2388 3044 2092 
Q 3269 1797 3269 1353 
Q 3269 753 2831 336 
Q 2394 -81 1725 -81 
Q 1122 -81 723 278 
Q 325 638 269 1209 
z
" id="ArialMT-33" transform="scale(0.015625)"/>
       </defs>
       <use xlink:href="#ArialMT-32"/>
       <use x="55.615234" xlink:href="#ArialMT-30"/>
       <use x="111.230469" xlink:href="#ArialMT-32"/>
       <use x="166.845703" xlink:href="#ArialMT-31"/>
       <use x="222.460938" xlink:href="#ArialMT-2d"/>
       <use x="255.761719" xlink:href="#ArialMT-30"/>
       <use x="311.376953" xlink:href="#ArialMT-33"/>
      </g>
     </g>
    </g>
    <g id="xtick_6">
     <g id="line2d_6">
      <path clip-path="url(#p4665ec452e)" d="M 958.652263 512.64 
L 958.652263 69.12 
" style="fill:none;stroke:#ffffff;stroke-linecap:round;"/>
     </g>
     <g id="text_6">
      <!-- 2021-04 -->
      <g style="fill:#262626;" transform="translate(938.469841 530.013594)scale(0.11 -0.11)">
       <defs>
        <path d="M 2069 0 
L 2069 1097 
L 81 1097 
L 81 1613 
L 2172 4581 
L 2631 4581 
L 2631 1613 
L 3250 1613 
L 3250 1097 
L 2631 1097 
L 2631 0 
L 2069 0 
z
M 2069 1613 
L 2069 3678 
L 634 1613 
L 2069 1613 
z
" id="ArialMT-34" transform="scale(0.015625)"/>
       </defs>
       <use xlink:href="#ArialMT-32"/>
       <use x="55.615234" xlink:href="#ArialMT-30"/>
       <use x="111.230469" xlink:href="#ArialMT-32"/>
       <use x="166.845703" xlink:href="#ArialMT-31"/>
       <use x="222.460938" xlink:href="#ArialMT-2d"/>
       <use x="255.761719" xlink:href="#ArialMT-30"/>
       <use x="311.376953" xlink:href="#ArialMT-34"/>
      </g>
     </g>
    </g>
    <g id="xtick_7">
     <g id="line2d_7">
      <path clip-path="url(#p4665ec452e)" d="M 1095.138198 512.64 
L 1095.138198 69.12 
" style="fill:none;stroke:#ffffff;stroke-linecap:round;"/>
     </g>
     <g id="text_7">
      <!-- 2021-05 -->
      <g style="fill:#262626;" transform="translate(1074.955776 530.013594)scale(0.11 -0.11)">
       <defs>
        <path d="M 266 1200 
L 856 1250 
Q 922 819 1161 601 
Q 1400 384 1738 384 
Q 2144 384 2425 690 
Q 2706 997 2706 1503 
Q 2706 1984 2436 2262 
Q 2166 2541 1728 2541 
Q 1456 2541 1237 2417 
Q 1019 2294 894 2097 
L 366 2166 
L 809 4519 
L 3088 4519 
L 3088 3981 
L 1259 3981 
L 1013 2750 
Q 1425 3038 1878 3038 
Q 2478 3038 2890 2622 
Q 3303 2206 3303 1553 
Q 3303 931 2941 478 
Q 2500 -78 1738 -78 
Q 1113 -78 717 272 
Q 322 622 266 1200 
z
" id="ArialMT-35" transform="scale(0.015625)"/>
       </defs>
       <use xlink:href="#ArialMT-32"/>
       <use x="55.615234" xlink:href="#ArialMT-30"/>
       <use x="111.230469" xlink:href="#ArialMT-32"/>
       <use x="166.845703" xlink:href="#ArialMT-31"/>
       <use x="222.460938" xlink:href="#ArialMT-2d"/>
       <use x="255.761719" xlink:href="#ArialMT-30"/>
       <use x="311.376953" xlink:href="#ArialMT-35"/>
      </g>
     </g>
    </g>
    <g id="xtick_8">
     <g id="line2d_8">
      <path clip-path="url(#p4665ec452e)" d="M 1236.173665 512.64 
L 1236.173665 69.12 
" style="fill:none;stroke:#ffffff;stroke-linecap:round;"/>
     </g>
     <g id="text_8">
      <!-- 2021-06 -->
      <g style="fill:#262626;" transform="translate(1215.991243 530.013594)scale(0.11 -0.11)">
       <defs>
        <path d="M 3184 3459 
L 2625 3416 
Q 2550 3747 2413 3897 
Q 2184 4138 1850 4138 
Q 1581 4138 1378 3988 
Q 1113 3794 959 3422 
Q 806 3050 800 2363 
Q 1003 2672 1297 2822 
Q 1591 2972 1913 2972 
Q 2475 2972 2870 2558 
Q 3266 2144 3266 1488 
Q 3266 1056 3080 686 
Q 2894 316 2569 119 
Q 2244 -78 1831 -78 
Q 1128 -78 684 439 
Q 241 956 241 2144 
Q 241 3472 731 4075 
Q 1159 4600 1884 4600 
Q 2425 4600 2770 4297 
Q 3116 3994 3184 3459 
z
M 888 1484 
Q 888 1194 1011 928 
Q 1134 663 1356 523 
Q 1578 384 1822 384 
Q 2178 384 2434 671 
Q 2691 959 2691 1453 
Q 2691 1928 2437 2201 
Q 2184 2475 1800 2475 
Q 1419 2475 1153 2201 
Q 888 1928 888 1484 
z
" id="ArialMT-36" transform="scale(0.015625)"/>
       </defs>
       <use xlink:href="#ArialMT-32"/>
       <use x="55.615234" xlink:href="#ArialMT-30"/>
       <use x="111.230469" xlink:href="#ArialMT-32"/>
       <use x="166.845703" xlink:href="#ArialMT-31"/>
       <use x="222.460938" xlink:href="#ArialMT-2d"/>
       <use x="255.761719" xlink:href="#ArialMT-30"/>
       <use x="311.376953" xlink:href="#ArialMT-36"/>
      </g>
     </g>
    </g>
   </g>
   <g id="matplotlib.axis_2">
    <g id="ytick_1">
     <g id="line2d_9">
      <path clip-path="url(#p4665ec452e)" d="M 180 423.156181 
L 1296 423.156181 
" style="fill:none;stroke:#ffffff;stroke-linecap:round;"/>
     </g>
     <g id="text_9">
      <!-- 7 -->
      <g style="fill:#262626;" transform="translate(164.382969 427.092978)scale(0.11 -0.11)">
       <defs>
        <path d="M 303 3981 
L 303 4522 
L 3269 4522 
L 3269 4084 
Q 2831 3619 2401 2847 
Q 1972 2075 1738 1259 
Q 1569 684 1522 0 
L 944 0 
Q 953 541 1156 1306 
Q 1359 2072 1739 2783 
Q 2119 3494 2547 3981 
L 303 3981 
z
" id="ArialMT-37" transform="scale(0.015625)"/>
       </defs>
       <use xlink:href="#ArialMT-37"/>
      </g>
     </g>
    </g>
    <g id="ytick_2">
     <g id="line2d_10">
      <path clip-path="url(#p4665ec452e)" d="M 180 328.55483 
L 1296 328.55483 
" style="fill:none;stroke:#ffffff;stroke-linecap:round;"/>
     </g>
     <g id="text_10">
      <!-- 8 -->
      <g style="fill:#262626;" transform="translate(164.382969 332.491627)scale(0.11 -0.11)">
       <defs>
        <path d="M 1131 2484 
Q 781 2613 612 2850 
Q 444 3088 444 3419 
Q 444 3919 803 4259 
Q 1163 4600 1759 4600 
Q 2359 4600 2725 4251 
Q 3091 3903 3091 3403 
Q 3091 3084 2923 2848 
Q 2756 2613 2416 2484 
Q 2838 2347 3058 2040 
Q 3278 1734 3278 1309 
Q 3278 722 2862 322 
Q 2447 -78 1769 -78 
Q 1091 -78 675 323 
Q 259 725 259 1325 
Q 259 1772 486 2073 
Q 713 2375 1131 2484 
z
M 1019 3438 
Q 1019 3113 1228 2906 
Q 1438 2700 1772 2700 
Q 2097 2700 2305 2904 
Q 2513 3109 2513 3406 
Q 2513 3716 2298 3927 
Q 2084 4138 1766 4138 
Q 1444 4138 1231 3931 
Q 1019 3725 1019 3438 
z
M 838 1322 
Q 838 1081 952 856 
Q 1066 631 1291 507 
Q 1516 384 1775 384 
Q 2178 384 2440 643 
Q 2703 903 2703 1303 
Q 2703 1709 2433 1975 
Q 2163 2241 1756 2241 
Q 1359 2241 1098 1978 
Q 838 1716 838 1322 
z
" id="ArialMT-38" transform="scale(0.015625)"/>
       </defs>
       <use xlink:href="#ArialMT-38"/>
      </g>
     </g>
    </g>
    <g id="ytick_3">
     <g id="line2d_11">
      <path clip-path="url(#p4665ec452e)" d="M 180 233.953478 
L 1296 233.953478 
" style="fill:none;stroke:#ffffff;stroke-linecap:round;"/>
     </g>
     <g id="text_11">
      <!-- 9 -->
      <g style="fill:#262626;" transform="translate(164.382969 237.890275)scale(0.11 -0.11)">
       <defs>
        <path d="M 350 1059 
L 891 1109 
Q 959 728 1153 556 
Q 1347 384 1650 384 
Q 1909 384 2104 503 
Q 2300 622 2425 820 
Q 2550 1019 2634 1356 
Q 2719 1694 2719 2044 
Q 2719 2081 2716 2156 
Q 2547 1888 2255 1720 
Q 1963 1553 1622 1553 
Q 1053 1553 659 1965 
Q 266 2378 266 3053 
Q 266 3750 677 4175 
Q 1088 4600 1706 4600 
Q 2153 4600 2523 4359 
Q 2894 4119 3086 3673 
Q 3278 3228 3278 2384 
Q 3278 1506 3087 986 
Q 2897 466 2520 194 
Q 2144 -78 1638 -78 
Q 1100 -78 759 220 
Q 419 519 350 1059 
z
M 2653 3081 
Q 2653 3566 2395 3850 
Q 2138 4134 1775 4134 
Q 1400 4134 1122 3828 
Q 844 3522 844 3034 
Q 844 2597 1108 2323 
Q 1372 2050 1759 2050 
Q 2150 2050 2401 2323 
Q 2653 2597 2653 3081 
z
" id="ArialMT-39" transform="scale(0.015625)"/>
       </defs>
       <use xlink:href="#ArialMT-39"/>
      </g>
     </g>
    </g>
    <g id="ytick_4">
     <g id="line2d_12">
      <path clip-path="url(#p4665ec452e)" d="M 180 139.352127 
L 1296 139.352127 
" style="fill:none;stroke:#ffffff;stroke-linecap:round;"/>
     </g>
     <g id="text_12">
      <!-- 10 -->
      <g style="fill:#262626;" transform="translate(158.265938 143.288924)scale(0.11 -0.11)">
       <use xlink:href="#ArialMT-31"/>
       <use x="55.615234" xlink:href="#ArialMT-30"/>
      </g>
     </g>
    </g>
   </g>
   <g id="line2d_13">
    <path clip-path="url(#p4665ec452e)" d="M 230.727273 213.1003 
L 235.276804 207.88708 
L 239.826335 203.912492 
L 244.375866 200.620859 
L 248.925397 192.740116 
L 253.474929 183.712857 
L 258.02446 176.131808 
L 262.573991 169.157175 
L 267.123522 162.448362 
L 271.673053 158.289046 
L 276.222585 154.371062 
L 280.772116 152.192938 
L 285.321647 148.153828 
L 289.871178 143.562169 
L 294.420709 140.124834 
L 298.970241 136.497357 
L 303.519772 132.06985 
L 312.618834 125.352078 
L 317.168365 125.072568 
L 321.717896 127.455398 
L 326.267428 129.11191 
L 330.816959 130.389098 
L 335.36649 132.039178 
L 339.916021 132.549973 
L 344.465552 136.236373 
L 349.015084 139.45972 
L 353.564615 138.669414 
L 358.114146 139.641099 
L 362.663677 140.480571 
L 367.213208 142.996157 
L 371.76274 146.778062 
L 376.312271 152.957099 
L 380.861802 156.215499 
L 385.411333 161.716539 
L 389.960864 166.012533 
L 394.510395 173.661705 
L 399.059927 179.455147 
L 403.609458 188.569917 
L 408.158989 189.643375 
L 412.70852 191.230024 
L 417.258051 193.213821 
L 421.807583 197.450121 
L 426.357114 200.618514 
L 430.906645 203.362912 
L 435.456176 204.957471 
L 440.005707 205.935951 
L 444.555238 208.051822 
L 449.10477 209.443241 
L 453.654301 209.609429 
L 458.203832 210.820162 
L 462.753363 211.080417 
L 467.302894 210.462988 
L 471.852426 212.30892 
L 476.401957 211.930234 
L 480.951488 214.333804 
L 485.501019 217.21973 
L 490.05055 217.541684 
L 494.600082 218.080252 
L 499.149613 218.451861 
L 503.699144 218.049233 
L 508.248675 218.180429 
L 512.798206 216.554108 
L 517.347737 219.279433 
L 521.897269 228.606329 
L 526.4468 236.690538 
L 530.996331 239.163848 
L 535.545862 237.899981 
L 540.095393 236.872692 
L 544.644925 236.388866 
L 549.194456 233.140728 
L 553.743987 230.054823 
L 558.293518 226.812433 
L 562.843049 224.942687 
L 567.392581 225.383436 
L 571.942112 223.578807 
L 576.491643 225.607637 
L 581.041174 229.056606 
L 585.590705 223.516055 
L 590.140236 218.186075 
L 594.689768 217.918219 
L 599.239299 220.856363 
L 603.78883 228.565358 
L 608.338361 232.782586 
L 612.887892 234.436019 
L 617.437424 239.844761 
L 621.986955 245.995525 
L 626.536486 248.589872 
L 631.086017 250.029793 
L 635.635548 254.345123 
L 640.185079 259.192856 
L 649.284142 264.21288 
L 653.833673 267.41732 
L 658.383204 269.463302 
L 662.932735 270.025733 
L 667.482267 270.343729 
L 672.031798 270.333929 
L 681.13086 272.700574 
L 685.680391 272.642815 
L 690.229923 272.432166 
L 694.779454 273.131113 
L 699.328985 273.098313 
L 703.878516 274.778078 
L 708.428047 275.01204 
L 712.977578 274.752403 
L 717.52711 274.695943 
L 722.076641 274.880847 
L 726.626172 275.647418 
L 731.175703 275.316282 
L 735.725234 274.003208 
L 740.274766 273.176548 
L 749.373828 270.128353 
L 753.923359 269.854946 
L 758.47289 267.094788 
L 763.022422 263.008042 
L 767.571953 258.438002 
L 772.121484 253.394037 
L 776.671015 249.532959 
L 781.220546 246.240196 
L 785.770077 243.716044 
L 790.319609 241.645654 
L 794.86914 235.598131 
L 799.418671 230.528148 
L 803.968202 226.186606 
L 808.517733 220.825872 
L 813.067265 216.483366 
L 817.616796 215.24907 
L 822.166327 213.048138 
L 826.715858 208.413995 
L 831.265389 204.53736 
L 835.814921 199.434685 
L 840.364452 196.294968 
L 844.913983 192.480478 
L 849.463514 191.003086 
L 854.013045 188.89047 
L 858.562576 187.286236 
L 863.112108 181.561488 
L 867.661639 178.778839 
L 872.21117 173.184104 
L 876.760701 170.005109 
L 881.310232 166.078433 
L 885.859764 162.530636 
L 890.409295 156.611565 
L 894.958826 152.129711 
L 899.508357 147.188428 
L 904.057888 143.684128 
L 908.607419 140.780952 
L 913.156951 138.514817 
L 917.706482 137.099349 
L 922.256013 134.193192 
L 926.805544 130.282005 
L 931.355075 125.316632 
L 935.904607 122.527185 
L 940.454138 118.799017 
L 945.003669 117.627737 
L 949.5532 115.635294 
L 954.102731 114.262457 
L 958.652263 113.746183 
L 963.201794 115.922709 
L 967.751325 117.703844 
L 972.300856 120.832717 
L 976.850387 124.464627 
L 981.399918 131.325736 
L 985.94945 142.035014 
L 990.498981 146.801292 
L 995.048512 148.178073 
L 999.598043 150.370098 
L 1004.147574 151.231551 
L 1008.697106 149.774317 
L 1013.246637 146.421685 
L 1017.796168 142.299227 
L 1022.345699 146.675913 
L 1026.89523 154.006451 
L 1031.444762 160.755397 
L 1035.994293 168.403483 
L 1040.543824 172.433451 
L 1045.093355 175.963607 
L 1049.642886 182.855758 
L 1054.192417 191.358581 
L 1058.741949 199.097174 
L 1063.29148 206.608094 
L 1067.841011 212.981304 
L 1076.940073 223.378744 
L 1081.489605 231.196426 
L 1090.588667 245.881939 
L 1095.138198 251.80768 
L 1099.687729 257.210204 
L 1104.23726 259.205923 
L 1108.786792 266.948116 
L 1113.336323 279.570911 
L 1117.885854 285.122405 
L 1122.435385 287.292648 
L 1126.984916 292.423765 
L 1131.534448 294.805218 
L 1136.083979 296.382717 
L 1140.63351 293.829726 
L 1145.183041 292.708877 
L 1149.732572 301.486974 
L 1154.282104 311.382733 
L 1163.381166 325.876153 
L 1167.930697 330.033886 
L 1172.480228 336.533408 
L 1177.029759 346.462846 
L 1181.579291 355.927417 
L 1186.128822 366.208692 
L 1190.678353 376.014827 
L 1195.227884 384.565989 
L 1199.777415 389.184473 
L 1204.326947 395.721742 
L 1208.876478 406.214009 
L 1213.426009 415.471877 
L 1217.97554 424.189995 
L 1222.525071 433.904247 
L 1227.074603 441.012718 
L 1231.624134 444.437713 
L 1236.173665 451.019664 
L 1240.723196 461.562199 
L 1245.272727 474.588947 
L 1245.272727 474.588947 
" style="fill:none;stroke:#64b5cd;stroke-linecap:round;stroke-width:1.5;"/>
   </g>
   <g id="line2d_14">
    <path clip-path="url(#p4665ec452e)" d="M 230.727273 131.222082 
L 235.276804 119.588337 
L 239.826335 119.298518 
L 244.375866 119.228062 
L 248.925397 105.111012 
L 253.474929 96.178081 
L 258.02446 92.971571 
L 262.573991 92.423399 
L 267.123522 93.801157 
L 276.222585 94.017485 
L 285.321647 99.551872 
L 289.871178 101.107087 
L 294.420709 102.54266 
L 298.970241 104.383681 
L 308.069303 104.446447 
L 312.618834 109.862969 
L 317.168365 114.447593 
L 321.717896 134.455001 
L 326.267428 132.013058 
L 330.816959 134.205394 
L 335.36649 134.250728 
L 339.916021 134.161823 
L 344.465552 136.245872 
L 349.015084 139.245588 
L 353.564615 124.135469 
L 358.114146 132.107352 
L 362.663677 136.321307 
L 367.213208 136.250028 
L 371.76274 136.406317 
L 376.312271 143.538437 
L 380.861802 148.637202 
L 385.411333 152.94364 
L 389.960864 156.230165 
L 394.510395 159.249558 
L 399.059927 159.528612 
L 403.609458 159.536206 
L 408.158989 165.087478 
L 412.70852 167.606107 
L 417.258051 169.704422 
L 426.357114 175.162887 
L 435.456176 175.113626 
L 440.005707 177.547993 
L 444.555238 179.342717 
L 449.10477 180.872864 
L 458.203832 182.136463 
L 467.302894 182.154789 
L 471.852426 184.853311 
L 476.401957 185.978551 
L 485.501019 187.036045 
L 490.05055 186.660984 
L 494.600082 186.453819 
L 499.149613 186.373097 
L 503.699144 185.376824 
L 508.248675 183.580564 
L 512.798206 184.169952 
L 517.347737 192.195804 
L 521.897269 212.143224 
L 526.4468 212.443015 
L 530.996331 212.468262 
L 535.545862 209.27349 
L 540.095393 208.707289 
L 544.644925 205.942152 
L 549.194456 198.913897 
L 553.743987 198.756264 
L 558.293518 198.389089 
L 562.843049 198.452095 
L 567.392581 195.124981 
L 571.942112 194.772709 
L 576.491643 216.476433 
L 581.041174 205.954557 
L 585.590705 187.948458 
L 590.140236 188.212388 
L 594.689768 188.280286 
L 599.239299 200.044558 
L 603.78883 206.823191 
L 608.338361 192.93234 
L 612.887892 205.049581 
L 617.437424 211.795544 
L 626.536486 212.02807 
L 631.086017 219.218041 
L 635.635548 222.896751 
L 640.185079 224.875994 
L 644.734611 226.011623 
L 649.284142 226.719685 
L 658.383204 226.736682 
L 662.932735 225.804824 
L 667.482267 225.766577 
L 672.031798 226.166635 
L 676.581329 226.789238 
L 681.13086 226.079122 
L 690.229923 226.15742 
L 694.779454 226.023892 
L 708.428047 223.687975 
L 712.977578 223.278871 
L 722.076641 223.326558 
L 726.626172 222.247573 
L 731.175703 221.865185 
L 735.725234 220.450621 
L 740.274766 219.685909 
L 744.824297 219.11676 
L 753.923359 219.056899 
L 758.47289 214.263347 
L 763.022422 210.31348 
L 767.571953 206.971041 
L 772.121484 203.308612 
L 776.671015 198.940387 
L 785.770077 198.712587 
L 790.319609 193.373338 
L 799.418671 186.806777 
L 803.968202 183.342903 
L 808.517733 179.530174 
L 817.616796 179.425152 
L 822.166327 172.977277 
L 826.715858 168.484426 
L 831.265389 164.190525 
L 840.364452 155.153821 
L 849.463514 154.830979 
L 854.013045 148.656832 
L 858.562576 143.125051 
L 863.112108 138.841349 
L 867.661639 133.772907 
L 872.21117 128.450195 
L 876.760701 128.262838 
L 881.310232 128.196832 
L 885.859764 119.41424 
L 890.409295 114.444763 
L 894.958826 110.203204 
L 899.508357 107.111802 
L 904.057888 104.41209 
L 913.156951 104.21298 
L 917.706482 101.324795 
L 922.256013 98.636216 
L 926.805544 94.903498 
L 931.355075 91.409281 
L 935.904607 89.341819 
L 940.454138 89.28 
L 945.003669 89.342181 
L 949.5532 90.089002 
L 954.102731 91.30732 
L 958.652263 94.705037 
L 963.201794 99.062874 
L 967.751325 105.229857 
L 976.850387 105.405832 
L 981.399918 137.473337 
L 985.94945 131.159043 
L 990.498981 132.287682 
L 995.048512 133.73763 
L 999.598043 133.236502 
L 1008.697106 132.989512 
L 1013.246637 111.183467 
L 1017.796168 124.515489 
L 1022.345699 131.309392 
L 1026.89523 138.36108 
L 1031.444762 145.104601 
L 1035.994293 145.4037 
L 1040.543824 145.520199 
L 1045.093355 156.383569 
L 1049.642886 164.30867 
L 1054.192417 168.684159 
L 1058.741949 172.509207 
L 1063.29148 179.609956 
L 1072.390542 179.872303 
L 1076.940073 187.367741 
L 1081.489605 192.673253 
L 1090.588667 210.898555 
L 1095.138198 215.942758 
L 1099.687729 216.281141 
L 1104.23726 216.216132 
L 1108.786792 248.492578 
L 1113.336323 239.73123 
L 1117.885854 237.383212 
L 1122.435385 235.910908 
L 1126.984916 237.310606 
L 1131.534448 237.314062 
L 1136.083979 234.511485 
L 1140.63351 212.465604 
L 1145.183041 223.292281 
L 1149.732572 229.074028 
L 1154.282104 233.15065 
L 1158.831635 236.700839 
L 1163.381166 234.543366 
L 1167.930697 235.381156 
L 1172.480228 241.412568 
L 1177.029759 245.21267 
L 1181.579291 248.819885 
L 1186.128822 254.477632 
L 1190.678353 258.306303 
L 1195.227884 260.796158 
L 1199.777415 262.709215 
L 1204.326947 268.202141 
L 1213.426009 277.075716 
L 1217.97554 279.30925 
L 1222.525071 280.305804 
L 1227.074603 280.047534 
L 1231.624134 279.185415 
L 1236.173665 285.85281 
L 1240.723196 289.989144 
L 1245.272727 295.295167 
L 1245.272727 295.295167 
" style="fill:none;stroke:#4c72b0;stroke-linecap:round;stroke-width:1.5;"/>
   </g>
   <g id="line2d_15">
    <path clip-path="url(#p4665ec452e)" d="M 230.727273 206.879547 
L 235.276804 201.692744 
L 239.826335 197.702179 
L 244.375866 194.609717 
L 248.925397 187.140719 
L 253.474929 182.691669 
L 258.02446 178.053744 
L 262.573991 172.937891 
L 267.123522 168.744413 
L 271.673053 167.100444 
L 276.222585 162.623967 
L 280.772116 157.612396 
L 285.321647 155.073369 
L 289.871178 152.768838 
L 294.420709 150.979367 
L 298.970241 147.311819 
L 303.519772 147.475478 
L 308.069303 144.015496 
L 312.618834 141.026691 
L 317.168365 141.548346 
L 326.267428 138.193046 
L 330.816959 138.099755 
L 335.36649 139.517478 
L 339.916021 137.516655 
L 344.465552 135.125031 
L 349.015084 136.037107 
L 353.564615 137.188659 
L 358.114146 136.740559 
L 362.663677 137.432445 
L 367.213208 139.062518 
L 371.76274 138.464962 
L 376.312271 137.740174 
L 380.861802 138.955535 
L 385.411333 141.044179 
L 389.960864 140.804002 
L 394.510395 141.746363 
L 399.059927 143.601307 
L 403.609458 141.623104 
L 408.158989 142.298594 
L 412.70852 144.522185 
L 417.258051 146.252578 
L 421.807583 147.845921 
L 426.357114 148.9803 
L 430.906645 151.544415 
L 435.456176 148.875747 
L 440.005707 148.875747 
L 444.555238 151.076549 
L 449.10477 152.684737 
L 453.654301 153.628969 
L 458.203832 154.4466 
L 462.753363 155.689004 
L 467.302894 154.270438 
L 471.852426 152.294892 
L 476.401957 153.838972 
L 480.951488 154.804968 
L 485.501019 155.643075 
L 490.05055 156.669019 
L 494.600082 157.508267 
L 499.149613 156.493821 
L 503.699144 155.750278 
L 508.248675 159.538485 
L 512.798206 162.536124 
L 517.347737 165.343128 
L 521.897269 166.927835 
L 526.4468 165.620527 
L 530.996331 163.423785 
L 535.545862 162.207437 
L 540.095393 162.596507 
L 544.644925 164.023936 
L 549.194456 165.218846 
L 553.743987 166.103666 
L 558.293518 165.055268 
L 562.843049 163.136175 
L 567.392581 162.799898 
L 571.942112 163.540183 
L 576.491643 165.394018 
L 581.041174 165.122921 
L 585.590705 166.43476 
L 590.140236 167.463952 
L 594.689768 165.648878 
L 599.239299 164.644752 
L 608.338361 168.125299 
L 612.887892 169.10254 
L 617.437424 170.262509 
L 621.986955 172.059914 
L 626.536486 171.286272 
L 631.086017 171.581685 
L 635.635548 173.675814 
L 640.185079 176.152628 
L 644.734611 178.163726 
L 649.284142 178.722078 
L 653.833673 179.710484 
L 658.383204 178.617949 
L 662.932735 178.280318 
L 667.482267 181.416853 
L 672.031798 183.045446 
L 676.581329 184.094108 
L 681.13086 184.591648 
L 685.680391 186.799685 
L 690.229923 185.615655 
L 694.779454 185.580642 
L 703.878516 189.636066 
L 712.977578 191.12391 
L 717.52711 192.733643 
L 722.076641 192.499846 
L 726.626172 191.615154 
L 731.175703 193.157458 
L 735.725234 195.034303 
L 740.274766 195.127193 
L 744.824297 195.530777 
L 749.373828 197.107176 
L 753.923359 196.602381 
L 758.47289 194.332835 
L 763.022422 195.049778 
L 767.571953 195.336531 
L 772.121484 193.392889 
L 776.671015 192.816743 
L 781.220546 192.123966 
L 785.770077 190.200458 
L 790.319609 186.721704 
L 794.86914 185.826005 
L 799.418671 183.462148 
L 803.968202 181.833156 
L 808.517733 179.749972 
L 813.067265 178.656984 
L 817.616796 176.146291 
L 822.166327 173.207795 
L 826.715858 172.041709 
L 835.814921 167.123482 
L 840.364452 165.399674 
L 844.913983 164.63353 
L 849.463514 161.999858 
L 854.013045 157.899344 
L 858.562576 156.483526 
L 863.112108 154.926414 
L 872.21117 150.678737 
L 876.760701 150.13326 
L 881.310232 147.311819 
L 885.859764 143.045907 
L 894.958826 140.078451 
L 904.057888 134.063139 
L 908.607419 132.892615 
L 913.156951 128.756335 
L 917.706482 123.389825 
L 922.256013 121.821076 
L 926.805544 119.679493 
L 931.355075 117.401244 
L 935.904607 114.731889 
L 940.454138 113.100593 
L 945.003669 110.377395 
L 949.5532 106.806406 
L 954.102731 106.07849 
L 958.652263 104.579752 
L 963.201794 104.152483 
L 967.751325 103.253826 
L 972.300856 104.235412 
L 976.850387 102.099639 
L 981.399918 99.561541 
L 985.94945 96.380828 
L 990.498981 95.910235 
L 995.048512 96.766115 
L 999.598043 97.820663 
L 1004.147574 99.798737 
L 1008.697106 98.312013 
L 1013.246637 96.577374 
L 1017.796168 98.546092 
L 1022.345699 100.385805 
L 1026.89523 101.738217 
L 1031.444762 103.803793 
L 1035.994293 106.202446 
L 1045.093355 104.202824 
L 1049.642886 107.924295 
L 1067.841011 118.922039 
L 1076.940073 120.355182 
L 1081.489605 125.162302 
L 1086.039136 128.641211 
L 1090.588667 133.351026 
L 1095.138198 137.69796 
L 1099.687729 142.929865 
L 1104.23726 143.983917 
L 1108.786792 143.95235 
L 1113.336323 146.562618 
L 1117.885854 151.203034 
L 1122.435385 157.841885 
L 1126.984916 162.998212 
L 1131.534448 168.674121 
L 1136.083979 170.036503 
L 1140.63351 171.974988 
L 1145.183041 179.828999 
L 1149.732572 185.68572 
L 1154.282104 189.351485 
L 1158.831635 193.545091 
L 1163.381166 199.121407 
L 1167.930697 199.981646 
L 1172.480228 203.799653 
L 1177.029759 210.94693 
L 1181.579291 216.809777 
L 1186.128822 221.943008 
L 1190.678353 228.367055 
L 1195.227884 235.841124 
L 1199.777415 235.579465 
L 1204.326947 240.603943 
L 1208.876478 257.839284 
L 1213.426009 256.614944 
L 1217.97554 263.825568 
L 1222.525071 271.561959 
L 1227.074603 277.291701 
L 1231.624134 278.293764 
L 1236.173665 285.541555 
L 1240.723196 301.116501 
L 1245.272727 307.247264 
L 1245.272727 307.247264 
" style="fill:none;stroke:#c44e52;stroke-linecap:round;stroke-width:1.5;"/>
   </g>
   <g id="line2d_16">
    <path clip-path="url(#p4665ec452e)" d="M 230.727273 447.145937 
L 235.276804 440.700674 
L 239.826335 437.034286 
L 244.375866 431.977305 
L 248.925397 424.777388 
L 253.474929 418.660988 
L 258.02446 414.398583 
L 262.573991 410.470734 
L 267.123522 406.699489 
L 271.673053 402.032108 
L 276.222585 396.536717 
L 280.772116 390.423148 
L 285.321647 385.952961 
L 289.871178 386.536922 
L 294.420709 381.517711 
L 298.970241 375.596467 
L 303.519772 374.14661 
L 308.069303 376.067252 
L 312.618834 371.262044 
L 317.168365 367.499966 
L 321.717896 365.932346 
L 326.267428 364.112585 
L 330.816959 360.530318 
L 339.916021 361.559333 
L 344.465552 361.065798 
L 349.015084 360.931644 
L 353.564615 362.599664 
L 358.114146 360.130687 
L 362.663677 360.574826 
L 367.213208 360.530318 
L 371.76274 359.512375 
L 376.312271 361.919891 
L 380.861802 362.918571 
L 385.411333 361.289813 
L 389.960864 361.424477 
L 394.510395 361.694381 
L 399.059927 361.694381 
L 403.609458 360.886968 
L 408.158989 364.808356 
L 412.70852 365.228289 
L 417.258051 366.974535 
L 421.807583 368.172946 
L 426.357114 370.864141 
L 430.906645 371.162412 
L 435.456176 371.862055 
L 440.005707 374.455428 
L 444.555238 376.277244 
L 449.10477 377.600361 
L 453.654301 378.08125 
L 458.203832 378.134834 
L 462.753363 377.121904 
L 467.302894 375.910063 
L 471.852426 379.538761 
L 476.401957 379.920328 
L 480.951488 380.523061 
L 485.501019 380.303441 
L 490.05055 381.963156 
L 494.600082 381.129659 
L 499.149613 380.908628 
L 503.699144 383.199059 
L 508.248675 385.141425 
L 512.798206 386.83026 
L 517.347737 387.242467 
L 521.897269 387.242467 
L 526.4468 388.251083 
L 530.996331 387.478823 
L 535.545862 387.18347 
L 540.095393 388.609648 
L 544.644925 387.0067 
L 553.743987 388.131862 
L 558.293518 387.3015 
L 562.843049 384.968426 
L 567.392581 385.720382 
L 571.942112 387.065587 
L 576.491643 388.012792 
L 581.041174 386.478363 
L 585.590705 387.656478 
L 590.140236 387.3015 
L 594.689768 387.12451 
L 599.239299 385.256933 
L 603.78883 387.065587 
L 608.338361 385.662327 
L 612.887892 385.778474 
L 617.437424 386.94785 
L 621.986955 384.451321 
L 631.086017 388.489975 
L 635.635548 389.270568 
L 640.185079 387.597222 
L 644.734611 394.221409 
L 649.284142 394.9869 
L 653.833673 394.667192 
L 658.383204 395.629574 
L 662.932735 396.797507 
L 667.482267 399.110614 
L 672.031798 399.64736 
L 676.581329 400.051928 
L 681.13086 399.445723 
L 685.680391 400.866292 
L 690.229923 401.070983 
L 694.779454 403.282365 
L 699.328985 402.170213 
L 703.878516 404.691197 
L 708.428047 404.337017 
L 712.977578 407.573411 
L 717.52711 404.47853 
L 722.076641 405.189287 
L 726.626172 405.40356 
L 731.175703 406.049306 
L 735.725234 409.495067 
L 740.274766 408.751342 
L 744.824297 409.271335 
L 749.373828 409.271335 
L 753.923359 408.603296 
L 758.47289 408.973846 
L 763.022422 408.086952 
L 767.571953 407.427196 
L 772.121484 406.627026 
L 776.671015 406.772009 
L 781.220546 404.195716 
L 785.770077 404.47853 
L 790.319609 403.702816 
L 794.86914 405.546679 
L 799.418671 401.756503 
L 803.968202 395.629574 
L 808.517733 396.993572 
L 813.067265 393.336096 
L 817.616796 392.959197 
L 822.166327 391.035457 
L 826.715858 388.430196 
L 831.265389 384.508638 
L 835.814921 383.086034 
L 840.364452 380.798305 
L 844.913983 377.920682 
L 849.463514 374.300893 
L 854.013045 374.352377 
L 858.562576 371.062884 
L 863.112108 369.729405 
L 867.661639 367.165263 
L 872.21117 365.791115 
L 876.760701 362.736207 
L 881.310232 362.417913 
L 890.409295 357.595009 
L 894.958826 357.724511 
L 899.508357 355.378021 
L 904.057888 352.473366 
L 908.607419 350.652107 
L 913.156951 348.23797 
L 917.706482 344.747315 
L 922.256013 343.810475 
L 926.805544 340.765065 
L 931.355075 336.874367 
L 935.904607 333.70536 
L 940.454138 331.355512 
L 945.003669 328.426643 
L 949.5532 326.264769 
L 954.102731 325.064345 
L 958.652263 323.547293 
L 963.201794 323.126842 
L 967.751325 321.581325 
L 972.300856 321.110817 
L 981.399918 318.506946 
L 985.94945 317.739558 
L 990.498981 317.175109 
L 995.048512 316.781989 
L 999.598043 316.866092 
L 1004.147574 314.484316 
L 1008.697106 313.830199 
L 1013.246637 313.018861 
L 1017.796168 314.53903 
L 1022.345699 314.922921 
L 1026.89523 315.418794 
L 1031.444762 316.894143 
L 1040.543824 317.626398 
L 1045.093355 319.309386 
L 1049.642886 319.944684 
L 1054.192417 320.993555 
L 1058.741949 321.169503 
L 1063.29148 321.994948 
L 1067.841011 322.291505 
L 1072.390542 324.819976 
L 1076.940073 326.668319 
L 1081.489605 329.702903 
L 1086.039136 331.322829 
L 1090.588667 333.437652 
L 1095.138198 337.117246 
L 1099.687729 339.616627 
L 1104.23726 341.745022 
L 1108.786792 341.163082 
L 1117.885854 351.700109 
L 1122.435385 353.252995 
L 1126.984916 359.16086 
L 1131.534448 359.997851 
L 1136.083979 362.463318 
L 1140.63351 368.269478 
L 1145.183041 373.226157 
L 1154.282104 382.242629 
L 1158.831635 385.8366 
L 1163.381166 388.072309 
L 1167.930697 389.089859 
L 1172.480228 398.843378 
L 1177.029759 401.619001 
L 1181.579291 406.409967 
L 1186.128822 411.609152 
L 1190.678353 415.98456 
L 1195.227884 419.653319 
L 1199.777415 423.556709 
L 1204.326947 432.833432 
L 1208.876478 439.257924 
L 1213.426009 444.731386 
L 1217.97554 452.40292 
L 1222.525071 461.13777 
L 1231.624134 468.227831 
L 1236.173665 471.190979 
L 1240.723196 488.956265 
L 1245.272727 492.48 
L 1245.272727 492.48 
" style="fill:none;stroke:#55a868;stroke-linecap:round;stroke-width:1.5;"/>
   </g>
   <g id="patch_3">
    <path d="M 180 512.64 
L 180 69.12 
" style="fill:none;stroke:#ffffff;stroke-linecap:square;stroke-linejoin:miter;stroke-width:1.25;"/>
   </g>
   <g id="patch_4">
    <path d="M 1296 512.64 
L 1296 69.12 
" style="fill:none;stroke:#ffffff;stroke-linecap:square;stroke-linejoin:miter;stroke-width:1.25;"/>
   </g>
   <g id="patch_5">
    <path d="M 180 512.64 
L 1296 512.64 
" style="fill:none;stroke:#ffffff;stroke-linecap:square;stroke-linejoin:miter;stroke-width:1.25;"/>
   </g>
   <g id="patch_6">
    <path d="M 180 69.12 
L 1296 69.12 
" style="fill:none;stroke:#ffffff;stroke-linecap:square;stroke-linejoin:miter;stroke-width:1.25;"/>
   </g>
   <g id="text_13">
    <!-- Zakażenia,zgony,hospitalizacja,respiratory (skala logarytmiczna) -->
    <g style="fill:#262626;" transform="translate(453.076562 63.12)scale(0.2 -0.2)">
     <defs>
      <path d="M 128 0 
L 128 563 
L 2475 3497 
Q 2725 3809 2950 4041 
L 394 4041 
L 394 4581 
L 3675 4581 
L 3675 4041 
L 1103 863 
L 825 541 
L 3750 541 
L 3750 0 
L 128 0 
z
" id="ArialMT-5a" transform="scale(0.015625)"/>
      <path d="M 2588 409 
Q 2275 144 1986 34 
Q 1697 -75 1366 -75 
Q 819 -75 525 192 
Q 231 459 231 875 
Q 231 1119 342 1320 
Q 453 1522 633 1644 
Q 813 1766 1038 1828 
Q 1203 1872 1538 1913 
Q 2219 1994 2541 2106 
Q 2544 2222 2544 2253 
Q 2544 2597 2384 2738 
Q 2169 2928 1744 2928 
Q 1347 2928 1158 2789 
Q 969 2650 878 2297 
L 328 2372 
Q 403 2725 575 2942 
Q 747 3159 1072 3276 
Q 1397 3394 1825 3394 
Q 2250 3394 2515 3294 
Q 2781 3194 2906 3042 
Q 3031 2891 3081 2659 
Q 3109 2516 3109 2141 
L 3109 1391 
Q 3109 606 3145 398 
Q 3181 191 3288 0 
L 2700 0 
Q 2613 175 2588 409 
z
M 2541 1666 
Q 2234 1541 1622 1453 
Q 1275 1403 1131 1340 
Q 988 1278 909 1158 
Q 831 1038 831 891 
Q 831 666 1001 516 
Q 1172 366 1500 366 
Q 1825 366 2078 508 
Q 2331 650 2450 897 
Q 2541 1088 2541 1459 
L 2541 1666 
z
" id="ArialMT-61" transform="scale(0.015625)"/>
      <path d="M 425 0 
L 425 4581 
L 988 4581 
L 988 1969 
L 2319 3319 
L 3047 3319 
L 1778 2088 
L 3175 0 
L 2481 0 
L 1384 1697 
L 988 1316 
L 988 0 
L 425 0 
z
" id="ArialMT-6b" transform="scale(0.015625)"/>
      <path d="M 125 0 
L 125 456 
L 2238 2881 
Q 1878 2863 1603 2863 
L 250 2863 
L 250 3319 
L 2963 3319 
L 2963 2947 
L 1166 841 
L 819 456 
Q 1197 484 1528 484 
L 3063 484 
L 3063 0 
L 125 0 
z
M 1244 3731 
L 1244 4431 
L 1941 4431 
L 1941 3731 
L 1244 3731 
z
" id="ArialMT-17c" transform="scale(0.015625)"/>
      <path d="M 2694 1069 
L 3275 997 
Q 3138 488 2766 206 
Q 2394 -75 1816 -75 
Q 1088 -75 661 373 
Q 234 822 234 1631 
Q 234 2469 665 2931 
Q 1097 3394 1784 3394 
Q 2450 3394 2872 2941 
Q 3294 2488 3294 1666 
Q 3294 1616 3291 1516 
L 816 1516 
Q 847 969 1125 678 
Q 1403 388 1819 388 
Q 2128 388 2347 550 
Q 2566 713 2694 1069 
z
M 847 1978 
L 2700 1978 
Q 2663 2397 2488 2606 
Q 2219 2931 1791 2931 
Q 1403 2931 1139 2672 
Q 875 2413 847 1978 
z
" id="ArialMT-65" transform="scale(0.015625)"/>
      <path d="M 422 0 
L 422 3319 
L 928 3319 
L 928 2847 
Q 1294 3394 1984 3394 
Q 2284 3394 2536 3286 
Q 2788 3178 2913 3003 
Q 3038 2828 3088 2588 
Q 3119 2431 3119 2041 
L 3119 0 
L 2556 0 
L 2556 2019 
Q 2556 2363 2490 2533 
Q 2425 2703 2258 2804 
Q 2091 2906 1866 2906 
Q 1506 2906 1245 2678 
Q 984 2450 984 1813 
L 984 0 
L 422 0 
z
" id="ArialMT-6e" transform="scale(0.015625)"/>
      <path d="M 425 3934 
L 425 4581 
L 988 4581 
L 988 3934 
L 425 3934 
z
M 425 0 
L 425 3319 
L 988 3319 
L 988 0 
L 425 0 
z
" id="ArialMT-69" transform="scale(0.015625)"/>
      <path d="M 569 0 
L 569 641 
L 1209 641 
L 1209 0 
Q 1209 -353 1084 -570 
Q 959 -788 688 -906 
L 531 -666 
Q 709 -588 793 -436 
Q 878 -284 888 0 
L 569 0 
z
" id="ArialMT-2c" transform="scale(0.015625)"/>
      <path d="M 125 0 
L 125 456 
L 2238 2881 
Q 1878 2863 1603 2863 
L 250 2863 
L 250 3319 
L 2963 3319 
L 2963 2947 
L 1166 841 
L 819 456 
Q 1197 484 1528 484 
L 3063 484 
L 3063 0 
L 125 0 
z
" id="ArialMT-7a" transform="scale(0.015625)"/>
      <path d="M 319 -275 
L 866 -356 
Q 900 -609 1056 -725 
Q 1266 -881 1628 -881 
Q 2019 -881 2231 -725 
Q 2444 -569 2519 -288 
Q 2563 -116 2559 434 
Q 2191 0 1641 0 
Q 956 0 581 494 
Q 206 988 206 1678 
Q 206 2153 378 2554 
Q 550 2956 876 3175 
Q 1203 3394 1644 3394 
Q 2231 3394 2613 2919 
L 2613 3319 
L 3131 3319 
L 3131 450 
Q 3131 -325 2973 -648 
Q 2816 -972 2473 -1159 
Q 2131 -1347 1631 -1347 
Q 1038 -1347 672 -1080 
Q 306 -813 319 -275 
z
M 784 1719 
Q 784 1066 1043 766 
Q 1303 466 1694 466 
Q 2081 466 2343 764 
Q 2606 1063 2606 1700 
Q 2606 2309 2336 2618 
Q 2066 2928 1684 2928 
Q 1309 2928 1046 2623 
Q 784 2319 784 1719 
z
" id="ArialMT-67" transform="scale(0.015625)"/>
      <path d="M 213 1659 
Q 213 2581 725 3025 
Q 1153 3394 1769 3394 
Q 2453 3394 2887 2945 
Q 3322 2497 3322 1706 
Q 3322 1066 3130 698 
Q 2938 331 2570 128 
Q 2203 -75 1769 -75 
Q 1072 -75 642 372 
Q 213 819 213 1659 
z
M 791 1659 
Q 791 1022 1069 705 
Q 1347 388 1769 388 
Q 2188 388 2466 706 
Q 2744 1025 2744 1678 
Q 2744 2294 2464 2611 
Q 2184 2928 1769 2928 
Q 1347 2928 1069 2612 
Q 791 2297 791 1659 
z
" id="ArialMT-6f" transform="scale(0.015625)"/>
      <path d="M 397 -1278 
L 334 -750 
Q 519 -800 656 -800 
Q 844 -800 956 -737 
Q 1069 -675 1141 -563 
Q 1194 -478 1313 -144 
Q 1328 -97 1363 -6 
L 103 3319 
L 709 3319 
L 1400 1397 
Q 1534 1031 1641 628 
Q 1738 1016 1872 1384 
L 2581 3319 
L 3144 3319 
L 1881 -56 
Q 1678 -603 1566 -809 
Q 1416 -1088 1222 -1217 
Q 1028 -1347 759 -1347 
Q 597 -1347 397 -1278 
z
" id="ArialMT-79" transform="scale(0.015625)"/>
      <path d="M 422 0 
L 422 4581 
L 984 4581 
L 984 2938 
Q 1378 3394 1978 3394 
Q 2347 3394 2619 3248 
Q 2891 3103 3008 2847 
Q 3125 2591 3125 2103 
L 3125 0 
L 2563 0 
L 2563 2103 
Q 2563 2525 2380 2717 
Q 2197 2909 1863 2909 
Q 1613 2909 1392 2779 
Q 1172 2650 1078 2428 
Q 984 2206 984 1816 
L 984 0 
L 422 0 
z
" id="ArialMT-68" transform="scale(0.015625)"/>
      <path d="M 197 991 
L 753 1078 
Q 800 744 1014 566 
Q 1228 388 1613 388 
Q 2000 388 2187 545 
Q 2375 703 2375 916 
Q 2375 1106 2209 1216 
Q 2094 1291 1634 1406 
Q 1016 1563 777 1677 
Q 538 1791 414 1992 
Q 291 2194 291 2438 
Q 291 2659 392 2848 
Q 494 3038 669 3163 
Q 800 3259 1026 3326 
Q 1253 3394 1513 3394 
Q 1903 3394 2198 3281 
Q 2494 3169 2634 2976 
Q 2775 2784 2828 2463 
L 2278 2388 
Q 2241 2644 2061 2787 
Q 1881 2931 1553 2931 
Q 1166 2931 1000 2803 
Q 834 2675 834 2503 
Q 834 2394 903 2306 
Q 972 2216 1119 2156 
Q 1203 2125 1616 2013 
Q 2213 1853 2448 1751 
Q 2684 1650 2818 1456 
Q 2953 1263 2953 975 
Q 2953 694 2789 445 
Q 2625 197 2315 61 
Q 2006 -75 1616 -75 
Q 969 -75 630 194 
Q 291 463 197 991 
z
" id="ArialMT-73" transform="scale(0.015625)"/>
      <path d="M 422 -1272 
L 422 3319 
L 934 3319 
L 934 2888 
Q 1116 3141 1344 3267 
Q 1572 3394 1897 3394 
Q 2322 3394 2647 3175 
Q 2972 2956 3137 2557 
Q 3303 2159 3303 1684 
Q 3303 1175 3120 767 
Q 2938 359 2589 142 
Q 2241 -75 1856 -75 
Q 1575 -75 1351 44 
Q 1128 163 984 344 
L 984 -1272 
L 422 -1272 
z
M 931 1641 
Q 931 1000 1190 694 
Q 1450 388 1819 388 
Q 2194 388 2461 705 
Q 2728 1022 2728 1688 
Q 2728 2322 2467 2637 
Q 2206 2953 1844 2953 
Q 1484 2953 1207 2617 
Q 931 2281 931 1641 
z
" id="ArialMT-70" transform="scale(0.015625)"/>
      <path d="M 1650 503 
L 1731 6 
Q 1494 -44 1306 -44 
Q 1000 -44 831 53 
Q 663 150 594 308 
Q 525 466 525 972 
L 525 2881 
L 113 2881 
L 113 3319 
L 525 3319 
L 525 4141 
L 1084 4478 
L 1084 3319 
L 1650 3319 
L 1650 2881 
L 1084 2881 
L 1084 941 
Q 1084 700 1114 631 
Q 1144 563 1211 522 
Q 1278 481 1403 481 
Q 1497 481 1650 503 
z
" id="ArialMT-74" transform="scale(0.015625)"/>
      <path d="M 409 0 
L 409 4581 
L 972 4581 
L 972 0 
L 409 0 
z
" id="ArialMT-6c" transform="scale(0.015625)"/>
      <path d="M 2588 1216 
L 3141 1144 
Q 3050 572 2676 248 
Q 2303 -75 1759 -75 
Q 1078 -75 664 370 
Q 250 816 250 1647 
Q 250 2184 428 2587 
Q 606 2991 970 3192 
Q 1334 3394 1763 3394 
Q 2303 3394 2647 3120 
Q 2991 2847 3088 2344 
L 2541 2259 
Q 2463 2594 2264 2762 
Q 2066 2931 1784 2931 
Q 1359 2931 1093 2626 
Q 828 2322 828 1663 
Q 828 994 1084 691 
Q 1341 388 1753 388 
Q 2084 388 2306 591 
Q 2528 794 2588 1216 
z
" id="ArialMT-63" transform="scale(0.015625)"/>
      <path d="M 419 3928 
L 419 4581 
L 981 4581 
L 981 3928 
L 419 3928 
z
M -294 -1288 
L -188 -809 
Q -19 -853 78 -853 
Q 250 -853 334 -739 
Q 419 -625 419 -169 
L 419 3319 
L 981 3319 
L 981 -181 
Q 981 -794 822 -1034 
Q 619 -1347 147 -1347 
Q -81 -1347 -294 -1288 
z
" id="ArialMT-6a" transform="scale(0.015625)"/>
      <path d="M 416 0 
L 416 3319 
L 922 3319 
L 922 2816 
Q 1116 3169 1280 3281 
Q 1444 3394 1641 3394 
Q 1925 3394 2219 3213 
L 2025 2691 
Q 1819 2813 1613 2813 
Q 1428 2813 1281 2702 
Q 1134 2591 1072 2394 
Q 978 2094 978 1738 
L 978 0 
L 416 0 
z
" id="ArialMT-72" transform="scale(0.015625)"/>
      <path id="ArialMT-20" transform="scale(0.015625)"/>
      <path d="M 1497 -1347 
Q 1031 -759 709 28 
Q 388 816 388 1659 
Q 388 2403 628 3084 
Q 909 3875 1497 4659 
L 1900 4659 
Q 1522 4009 1400 3731 
Q 1209 3300 1100 2831 
Q 966 2247 966 1656 
Q 966 153 1900 -1347 
L 1497 -1347 
z
" id="ArialMT-28" transform="scale(0.015625)"/>
      <path d="M 422 0 
L 422 3319 
L 925 3319 
L 925 2853 
Q 1081 3097 1340 3245 
Q 1600 3394 1931 3394 
Q 2300 3394 2536 3241 
Q 2772 3088 2869 2813 
Q 3263 3394 3894 3394 
Q 4388 3394 4653 3120 
Q 4919 2847 4919 2278 
L 4919 0 
L 4359 0 
L 4359 2091 
Q 4359 2428 4304 2576 
Q 4250 2725 4106 2815 
Q 3963 2906 3769 2906 
Q 3419 2906 3187 2673 
Q 2956 2441 2956 1928 
L 2956 0 
L 2394 0 
L 2394 2156 
Q 2394 2531 2256 2718 
Q 2119 2906 1806 2906 
Q 1569 2906 1367 2781 
Q 1166 2656 1075 2415 
Q 984 2175 984 1722 
L 984 0 
L 422 0 
z
" id="ArialMT-6d" transform="scale(0.015625)"/>
      <path d="M 791 -1347 
L 388 -1347 
Q 1322 153 1322 1656 
Q 1322 2244 1188 2822 
Q 1081 3291 891 3722 
Q 769 4003 388 4659 
L 791 4659 
Q 1378 3875 1659 3084 
Q 1900 2403 1900 1659 
Q 1900 816 1576 28 
Q 1253 -759 791 -1347 
z
" id="ArialMT-29" transform="scale(0.015625)"/>
     </defs>
     <use xlink:href="#ArialMT-5a"/>
     <use x="61.083984" xlink:href="#ArialMT-61"/>
     <use x="116.699219" xlink:href="#ArialMT-6b"/>
     <use x="166.699219" xlink:href="#ArialMT-61"/>
     <use x="222.314453" xlink:href="#ArialMT-17c"/>
     <use x="272.314453" xlink:href="#ArialMT-65"/>
     <use x="327.929688" xlink:href="#ArialMT-6e"/>
     <use x="383.544922" xlink:href="#ArialMT-69"/>
     <use x="405.761719" xlink:href="#ArialMT-61"/>
     <use x="461.376953" xlink:href="#ArialMT-2c"/>
     <use x="489.160156" xlink:href="#ArialMT-7a"/>
     <use x="539.160156" xlink:href="#ArialMT-67"/>
     <use x="594.775391" xlink:href="#ArialMT-6f"/>
     <use x="650.390625" xlink:href="#ArialMT-6e"/>
     <use x="706.005859" xlink:href="#ArialMT-79"/>
     <use x="748.630859" xlink:href="#ArialMT-2c"/>
     <use x="776.414062" xlink:href="#ArialMT-68"/>
     <use x="832.029297" xlink:href="#ArialMT-6f"/>
     <use x="887.644531" xlink:href="#ArialMT-73"/>
     <use x="937.644531" xlink:href="#ArialMT-70"/>
     <use x="993.259766" xlink:href="#ArialMT-69"/>
     <use x="1015.476562" xlink:href="#ArialMT-74"/>
     <use x="1043.259766" xlink:href="#ArialMT-61"/>
     <use x="1098.875" xlink:href="#ArialMT-6c"/>
     <use x="1121.091797" xlink:href="#ArialMT-69"/>
     <use x="1143.308594" xlink:href="#ArialMT-7a"/>
     <use x="1193.308594" xlink:href="#ArialMT-61"/>
     <use x="1248.923828" xlink:href="#ArialMT-63"/>
     <use x="1298.923828" xlink:href="#ArialMT-6a"/>
     <use x="1321.140625" xlink:href="#ArialMT-61"/>
     <use x="1376.755859" xlink:href="#ArialMT-2c"/>
     <use x="1404.539062" xlink:href="#ArialMT-72"/>
     <use x="1437.839844" xlink:href="#ArialMT-65"/>
     <use x="1493.455078" xlink:href="#ArialMT-73"/>
     <use x="1543.455078" xlink:href="#ArialMT-70"/>
     <use x="1599.070312" xlink:href="#ArialMT-69"/>
     <use x="1621.287109" xlink:href="#ArialMT-72"/>
     <use x="1654.587891" xlink:href="#ArialMT-61"/>
     <use x="1710.203125" xlink:href="#ArialMT-74"/>
     <use x="1737.986328" xlink:href="#ArialMT-6f"/>
     <use x="1793.601562" xlink:href="#ArialMT-72"/>
     <use x="1826.902344" xlink:href="#ArialMT-79"/>
     <use x="1876.902344" xlink:href="#ArialMT-20"/>
     <use x="1904.685547" xlink:href="#ArialMT-28"/>
     <use x="1937.986328" xlink:href="#ArialMT-73"/>
     <use x="1987.986328" xlink:href="#ArialMT-6b"/>
     <use x="2037.986328" xlink:href="#ArialMT-61"/>
     <use x="2093.601562" xlink:href="#ArialMT-6c"/>
     <use x="2115.818359" xlink:href="#ArialMT-61"/>
     <use x="2171.433594" xlink:href="#ArialMT-20"/>
     <use x="2199.216797" xlink:href="#ArialMT-6c"/>
     <use x="2221.433594" xlink:href="#ArialMT-6f"/>
     <use x="2277.048828" xlink:href="#ArialMT-67"/>
     <use x="2332.664062" xlink:href="#ArialMT-61"/>
     <use x="2388.279297" xlink:href="#ArialMT-72"/>
     <use x="2421.580078" xlink:href="#ArialMT-79"/>
     <use x="2471.580078" xlink:href="#ArialMT-74"/>
     <use x="2499.363281" xlink:href="#ArialMT-6d"/>
     <use x="2582.664062" xlink:href="#ArialMT-69"/>
     <use x="2604.880859" xlink:href="#ArialMT-63"/>
     <use x="2654.880859" xlink:href="#ArialMT-7a"/>
     <use x="2704.880859" xlink:href="#ArialMT-6e"/>
     <use x="2760.496094" xlink:href="#ArialMT-61"/>
     <use x="2816.111328" xlink:href="#ArialMT-29"/>
    </g>
   </g>
  </g>
  <g id="legend_1">
   <g id="patch_7">
    <path d="M 404.939375 570.5 
L 1035.060625 570.5 
Q 1037.260625 570.5 1037.260625 568.3 
L 1037.260625 553.668281 
Q 1037.260625 551.468281 1035.060625 551.468281 
L 404.939375 551.468281 
Q 402.739375 551.468281 402.739375 553.668281 
L 402.739375 568.3 
Q 402.739375 570.5 404.939375 570.5 
z
" style="fill:#eaeaf2;opacity:0.8;stroke:#cccccc;stroke-linejoin:miter;"/>
   </g>
   <g id="line2d_17">
    <path d="M 407.139375 559.934844 
L 429.139375 559.934844 
" style="fill:none;stroke:#64b5cd;stroke-linecap:round;stroke-width:1.5;"/>
   </g>
   <g id="line2d_18"/>
   <g id="text_14">
    <!-- Zakażenia średnia 7-dniowa -->
    <g style="fill:#262626;" transform="translate(437.939375 563.784844)scale(0.11 -0.11)">
     <defs>
      <path d="M 197 991 
L 753 1078 
Q 800 744 1014 566 
Q 1228 388 1613 388 
Q 2000 388 2187 545 
Q 2375 703 2375 916 
Q 2375 1106 2209 1216 
Q 2094 1291 1634 1406 
Q 1016 1563 777 1677 
Q 538 1791 414 1992 
Q 291 2194 291 2438 
Q 291 2659 392 2848 
Q 494 3038 669 3163 
Q 800 3259 1026 3326 
Q 1253 3394 1513 3394 
Q 1903 3394 2198 3281 
Q 2494 3169 2634 2976 
Q 2775 2784 2828 2463 
L 2278 2388 
Q 2241 2644 2061 2787 
Q 1881 2931 1553 2931 
Q 1166 2931 1000 2803 
Q 834 2675 834 2503 
Q 834 2394 903 2306 
Q 972 2216 1119 2156 
Q 1203 2125 1616 2013 
Q 2213 1853 2448 1751 
Q 2684 1650 2818 1456 
Q 2953 1263 2953 975 
Q 2953 694 2789 445 
Q 2625 197 2315 61 
Q 2006 -75 1616 -75 
Q 969 -75 630 194 
Q 291 463 197 991 
z
M 1230 3731 
L 1645 4606 
L 2383 4606 
L 1695 3731 
L 1230 3731 
z
" id="ArialMT-15b" transform="scale(0.015625)"/>
      <path d="M 2575 0 
L 2575 419 
Q 2259 -75 1647 -75 
Q 1250 -75 917 144 
Q 584 363 401 755 
Q 219 1147 219 1656 
Q 219 2153 384 2558 
Q 550 2963 881 3178 
Q 1213 3394 1622 3394 
Q 1922 3394 2156 3267 
Q 2391 3141 2538 2938 
L 2538 4581 
L 3097 4581 
L 3097 0 
L 2575 0 
z
M 797 1656 
Q 797 1019 1065 703 
Q 1334 388 1700 388 
Q 2069 388 2326 689 
Q 2584 991 2584 1609 
Q 2584 2291 2321 2609 
Q 2059 2928 1675 2928 
Q 1300 2928 1048 2622 
Q 797 2316 797 1656 
z
" id="ArialMT-64" transform="scale(0.015625)"/>
      <path d="M 1034 0 
L 19 3319 
L 600 3319 
L 1128 1403 
L 1325 691 
Q 1338 744 1497 1375 
L 2025 3319 
L 2603 3319 
L 3100 1394 
L 3266 759 
L 3456 1400 
L 4025 3319 
L 4572 3319 
L 3534 0 
L 2950 0 
L 2422 1988 
L 2294 2553 
L 1622 0 
L 1034 0 
z
" id="ArialMT-77" transform="scale(0.015625)"/>
     </defs>
     <use xlink:href="#ArialMT-5a"/>
     <use x="61.083984" xlink:href="#ArialMT-61"/>
     <use x="116.699219" xlink:href="#ArialMT-6b"/>
     <use x="166.699219" xlink:href="#ArialMT-61"/>
     <use x="222.314453" xlink:href="#ArialMT-17c"/>
     <use x="272.314453" xlink:href="#ArialMT-65"/>
     <use x="327.929688" xlink:href="#ArialMT-6e"/>
     <use x="383.544922" xlink:href="#ArialMT-69"/>
     <use x="405.761719" xlink:href="#ArialMT-61"/>
     <use x="461.376953" xlink:href="#ArialMT-20"/>
     <use x="489.160156" xlink:href="#ArialMT-15b"/>
     <use x="539.160156" xlink:href="#ArialMT-72"/>
     <use x="572.460938" xlink:href="#ArialMT-65"/>
     <use x="628.076172" xlink:href="#ArialMT-64"/>
     <use x="683.691406" xlink:href="#ArialMT-6e"/>
     <use x="739.306641" xlink:href="#ArialMT-69"/>
     <use x="761.523438" xlink:href="#ArialMT-61"/>
     <use x="817.138672" xlink:href="#ArialMT-20"/>
     <use x="844.921875" xlink:href="#ArialMT-37"/>
     <use x="900.537109" xlink:href="#ArialMT-2d"/>
     <use x="933.837891" xlink:href="#ArialMT-64"/>
     <use x="989.453125" xlink:href="#ArialMT-6e"/>
     <use x="1045.068359" xlink:href="#ArialMT-69"/>
     <use x="1067.285156" xlink:href="#ArialMT-6f"/>
     <use x="1122.900391" xlink:href="#ArialMT-77"/>
     <use x="1195.117188" xlink:href="#ArialMT-61"/>
    </g>
   </g>
   <g id="line2d_19">
    <path d="M 597.509844 559.934844 
L 619.509844 559.934844 
" style="fill:none;stroke:#4c72b0;stroke-linecap:round;stroke-width:1.5;"/>
   </g>
   <g id="line2d_20"/>
   <g id="text_15">
    <!-- Zlecenia POZ średnia 7-dniowa -->
    <g style="fill:#262626;" transform="translate(628.309844 563.784844)scale(0.11 -0.11)">
     <defs>
      <path d="M 494 0 
L 494 4581 
L 2222 4581 
Q 2678 4581 2919 4538 
Q 3256 4481 3484 4323 
Q 3713 4166 3852 3881 
Q 3991 3597 3991 3256 
Q 3991 2672 3619 2267 
Q 3247 1863 2275 1863 
L 1100 1863 
L 1100 0 
L 494 0 
z
M 1100 2403 
L 2284 2403 
Q 2872 2403 3119 2622 
Q 3366 2841 3366 3238 
Q 3366 3525 3220 3729 
Q 3075 3934 2838 4000 
Q 2684 4041 2272 4041 
L 1100 4041 
L 1100 2403 
z
" id="ArialMT-50" transform="scale(0.015625)"/>
      <path d="M 309 2231 
Q 309 3372 921 4017 
Q 1534 4663 2503 4663 
Q 3138 4663 3647 4359 
Q 4156 4056 4423 3514 
Q 4691 2972 4691 2284 
Q 4691 1588 4409 1038 
Q 4128 488 3612 205 
Q 3097 -78 2500 -78 
Q 1853 -78 1343 234 
Q 834 547 571 1087 
Q 309 1628 309 2231 
z
M 934 2222 
Q 934 1394 1379 917 
Q 1825 441 2497 441 
Q 3181 441 3623 922 
Q 4066 1403 4066 2288 
Q 4066 2847 3877 3264 
Q 3688 3681 3323 3911 
Q 2959 4141 2506 4141 
Q 1863 4141 1398 3698 
Q 934 3256 934 2222 
z
" id="ArialMT-4f" transform="scale(0.015625)"/>
     </defs>
     <use xlink:href="#ArialMT-5a"/>
     <use x="61.083984" xlink:href="#ArialMT-6c"/>
     <use x="83.300781" xlink:href="#ArialMT-65"/>
     <use x="138.916016" xlink:href="#ArialMT-63"/>
     <use x="188.916016" xlink:href="#ArialMT-65"/>
     <use x="244.53125" xlink:href="#ArialMT-6e"/>
     <use x="300.146484" xlink:href="#ArialMT-69"/>
     <use x="322.363281" xlink:href="#ArialMT-61"/>
     <use x="377.978516" xlink:href="#ArialMT-20"/>
     <use x="405.761719" xlink:href="#ArialMT-50"/>
     <use x="472.460938" xlink:href="#ArialMT-4f"/>
     <use x="550.244141" xlink:href="#ArialMT-5a"/>
     <use x="611.328125" xlink:href="#ArialMT-20"/>
     <use x="639.111328" xlink:href="#ArialMT-15b"/>
     <use x="689.111328" xlink:href="#ArialMT-72"/>
     <use x="722.412109" xlink:href="#ArialMT-65"/>
     <use x="778.027344" xlink:href="#ArialMT-64"/>
     <use x="833.642578" xlink:href="#ArialMT-6e"/>
     <use x="889.257812" xlink:href="#ArialMT-69"/>
     <use x="911.474609" xlink:href="#ArialMT-61"/>
     <use x="967.089844" xlink:href="#ArialMT-20"/>
     <use x="994.873047" xlink:href="#ArialMT-37"/>
     <use x="1050.488281" xlink:href="#ArialMT-2d"/>
     <use x="1083.789062" xlink:href="#ArialMT-64"/>
     <use x="1139.404297" xlink:href="#ArialMT-6e"/>
     <use x="1195.019531" xlink:href="#ArialMT-69"/>
     <use x="1217.236328" xlink:href="#ArialMT-6f"/>
     <use x="1272.851562" xlink:href="#ArialMT-77"/>
     <use x="1345.068359" xlink:href="#ArialMT-61"/>
    </g>
   </g>
   <g id="line2d_21">
    <path d="M 804.375156 559.934844 
L 826.375156 559.934844 
" style="fill:none;stroke:#c44e52;stroke-linecap:round;stroke-width:1.5;"/>
   </g>
   <g id="line2d_22"/>
   <g id="text_16">
    <!-- Zajęte łóżka -->
    <g style="fill:#262626;" transform="translate(835.175156 563.784844)scale(0.11 -0.11)">
     <defs>
      <path d="M 2694 1069 
L 3275 997 
Q 3138 488 2766 206 
Q 2394 -75 1816 -75 
Q 1088 -75 661 373 
Q 234 822 234 1631 
Q 234 2469 665 2931 
Q 1097 3394 1784 3394 
Q 2450 3394 2872 2941 
Q 3294 2488 3294 1666 
Q 3294 1616 3291 1516 
L 816 1516 
Q 847 969 1125 678 
Q 1403 388 1819 388 
Q 2128 388 2347 550 
Q 2566 713 2694 1069 
z
M 847 1978 
L 2700 1978 
Q 2663 2397 2488 2606 
Q 2219 2931 1791 2931 
Q 1403 2931 1139 2672 
Q 875 2413 847 1978 
z
M 2294 0 
Q 2116 -109 2017 -270 
Q 1919 -431 1919 -597 
Q 1919 -728 1991 -818 
Q 2063 -909 2225 -909 
Q 2297 -909 2372 -889 
Q 2447 -869 2510 -834 
L 2510 -1234 
Q 2282 -1344 2085 -1344 
Q 1925 -1344 1806 -1298 
Q 1688 -1253 1608 -1173 
Q 1529 -1094 1489 -991 
Q 1450 -888 1450 -769 
Q 1450 -569 1562 -367 
Q 1675 -166 1882 0 
L 2294 0 
z
" id="ArialMT-119" transform="scale(0.015625)"/>
      <path d="M 416 1794 
L 9 1450 
L 9 1944 
L 416 2288 
L 416 4581 
L 975 4581 
L 975 2763 
L 1397 3122 
L 1397 2631 
L 975 2272 
L 975 0 
L 416 0 
L 416 1794 
z
" id="ArialMT-142" transform="scale(0.015625)"/>
      <path d="M 213 1659 
Q 213 2581 725 3025 
Q 1153 3394 1769 3394 
Q 2453 3394 2887 2945 
Q 3322 2497 3322 1706 
Q 3322 1066 3130 698 
Q 2938 331 2570 128 
Q 2203 -75 1769 -75 
Q 1072 -75 642 372 
Q 213 819 213 1659 
z
M 791 1659 
Q 791 1022 1069 705 
Q 1347 388 1769 388 
Q 2188 388 2466 706 
Q 2744 1025 2744 1678 
Q 2744 2294 2464 2611 
Q 2184 2928 1769 2928 
Q 1347 2928 1069 2612 
Q 791 2297 791 1659 
z
M 1454 3731 
L 1869 4606 
L 2607 4606 
L 1919 3731 
L 1454 3731 
z
" id="ArialMT-f3" transform="scale(0.015625)"/>
     </defs>
     <use xlink:href="#ArialMT-5a"/>
     <use x="61.083984" xlink:href="#ArialMT-61"/>
     <use x="116.699219" xlink:href="#ArialMT-6a"/>
     <use x="138.916016" xlink:href="#ArialMT-119"/>
     <use x="194.53125" xlink:href="#ArialMT-74"/>
     <use x="222.314453" xlink:href="#ArialMT-65"/>
     <use x="277.929688" xlink:href="#ArialMT-20"/>
     <use x="305.712891" xlink:href="#ArialMT-142"/>
     <use x="327.929688" xlink:href="#ArialMT-f3"/>
     <use x="383.544922" xlink:href="#ArialMT-17c"/>
     <use x="433.544922" xlink:href="#ArialMT-6b"/>
     <use x="483.544922" xlink:href="#ArialMT-61"/>
    </g>
   </g>
   <g id="line2d_23">
    <path d="M 916.478906 559.934844 
L 938.478906 559.934844 
" style="fill:none;stroke:#55a868;stroke-linecap:round;stroke-width:1.5;"/>
   </g>
   <g id="line2d_24"/>
   <g id="text_17">
    <!-- Zajęte respiraotry -->
    <g style="fill:#262626;" transform="translate(947.278906 563.784844)scale(0.11 -0.11)">
     <use xlink:href="#ArialMT-5a"/>
     <use x="61.083984" xlink:href="#ArialMT-61"/>
     <use x="116.699219" xlink:href="#ArialMT-6a"/>
     <use x="138.916016" xlink:href="#ArialMT-119"/>
     <use x="194.53125" xlink:href="#ArialMT-74"/>
     <use x="222.314453" xlink:href="#ArialMT-65"/>
     <use x="277.929688" xlink:href="#ArialMT-20"/>
     <use x="305.712891" xlink:href="#ArialMT-72"/>
     <use x="339.013672" xlink:href="#ArialMT-65"/>
     <use x="394.628906" xlink:href="#ArialMT-73"/>
     <use x="444.628906" xlink:href="#ArialMT-70"/>
     <use x="500.244141" xlink:href="#ArialMT-69"/>
     <use x="522.460938" xlink:href="#ArialMT-72"/>
     <use x="555.761719" xlink:href="#ArialMT-61"/>
     <use x="611.376953" xlink:href="#ArialMT-6f"/>
     <use x="666.992188" xlink:href="#ArialMT-74"/>
     <use x="694.775391" xlink:href="#ArialMT-72"/>
     <use x="728.076172" xlink:href="#ArialMT-79"/>
    </g>
   </g>
  </g>
 </g>
 <defs>
  <clipPath id="p4665ec452e">
   <rect height="443.52" width="1116" x="180" y="69.12"/>
  </clipPath>
 </defs>
</svg>
