<?xml version="1.0" encoding="utf-8" standalone="no"?>
<!DOCTYPE svg PUBLIC "-//W3C//DTD SVG 1.1//EN"
  "http://www.w3.org/Graphics/SVG/1.1/DTD/svg11.dtd">
<svg height="576pt" version="1.1" viewBox="0 0 1440 576" width="1440pt" xmlns="http://www.w3.org/2000/svg" xmlns:xlink="http://www.w3.org/1999/xlink">
 <metadata>
  <rdf:RDF xmlns:cc="http://creativecommons.org/ns#" xmlns:dc="http://purl.org/dc/elements/1.1/" xmlns:rdf="http://www.w3.org/1999/02/22-rdf-syntax-ns#">
   <cc:Work>
    <dc:type rdf:resource="http://purl.org/dc/dcmitype/StillImage"/>
    <dc:date>2021-06-07T12:40:46.287056</dc:date>
    <dc:format>image/svg+xml</dc:format>
    <dc:creator>
     <cc:Agent>
      <dc:title>Matplotlib v3.4.1, https://matplotlib.org/</dc:title>
     </cc:Agent>
    </dc:creator>
   </cc:Work>
  </rdf:RDF>
 </metadata>
 <defs>
  <style type="text/css">*{stroke-linecap:butt;stroke-linejoin:round;}</style>
 </defs>
 <g id="figure_1">
  <g id="patch_1">
   <path d="M 0 576 
L 1440 576 
L 1440 0 
L 0 0 
z
" style="fill:#ffffff;"/>
  </g>
  <g id="axes_1">
   <g id="patch_2">
    <path d="M 180 512.64 
L 1296 512.64 
L 1296 69.12 
L 180 69.12 
z
" style="fill:#eaeaf2;"/>
   </g>
   <g id="matplotlib.axis_1">
    <g id="xtick_1">
     <g id="line2d_1">
      <path clip-path="url(#p07b14935ed)" d="M 271.673053 512.64 
L 271.673053 69.12 
" style="fill:none;stroke:#ffffff;stroke-linecap:round;"/>
     </g>
     <g id="text_1">
      <!-- 2020-11 -->
      <g style="fill:#262626;" transform="translate(251.896257 530.013594)scale(0.11 -0.11)">
       <defs>
        <path d="M 3222 541 
L 3222 0 
L 194 0 
Q 188 203 259 391 
Q 375 700 629 1000 
Q 884 1300 1366 1694 
Q 2113 2306 2375 2664 
Q 2638 3022 2638 3341 
Q 2638 3675 2398 3904 
Q 2159 4134 1775 4134 
Q 1369 4134 1125 3890 
Q 881 3647 878 3216 
L 300 3275 
Q 359 3922 746 4261 
Q 1134 4600 1788 4600 
Q 2447 4600 2831 4234 
Q 3216 3869 3216 3328 
Q 3216 3053 3103 2787 
Q 2991 2522 2730 2228 
Q 2469 1934 1863 1422 
Q 1356 997 1212 845 
Q 1069 694 975 541 
L 3222 541 
z
" id="ArialMT-32" transform="scale(0.015625)"/>
        <path d="M 266 2259 
Q 266 3072 433 3567 
Q 600 4063 929 4331 
Q 1259 4600 1759 4600 
Q 2128 4600 2406 4451 
Q 2684 4303 2865 4023 
Q 3047 3744 3150 3342 
Q 3253 2941 3253 2259 
Q 3253 1453 3087 958 
Q 2922 463 2592 192 
Q 2263 -78 1759 -78 
Q 1097 -78 719 397 
Q 266 969 266 2259 
z
M 844 2259 
Q 844 1131 1108 757 
Q 1372 384 1759 384 
Q 2147 384 2411 759 
Q 2675 1134 2675 2259 
Q 2675 3391 2411 3762 
Q 2147 4134 1753 4134 
Q 1366 4134 1134 3806 
Q 844 3388 844 2259 
z
" id="ArialMT-30" transform="scale(0.015625)"/>
        <path d="M 203 1375 
L 203 1941 
L 1931 1941 
L 1931 1375 
L 203 1375 
z
" id="ArialMT-2d" transform="scale(0.015625)"/>
        <path d="M 2384 0 
L 1822 0 
L 1822 3584 
Q 1619 3391 1289 3197 
Q 959 3003 697 2906 
L 697 3450 
Q 1169 3672 1522 3987 
Q 1875 4303 2022 4600 
L 2384 4600 
L 2384 0 
z
" id="ArialMT-31" transform="scale(0.015625)"/>
       </defs>
       <use xlink:href="#ArialMT-32"/>
       <use x="55.615234" xlink:href="#ArialMT-30"/>
       <use x="111.230469" xlink:href="#ArialMT-32"/>
       <use x="166.845703" xlink:href="#ArialMT-30"/>
       <use x="222.460938" xlink:href="#ArialMT-2d"/>
       <use x="255.761719" xlink:href="#ArialMT-31"/>
       <use x="304.001953" xlink:href="#ArialMT-31"/>
      </g>
     </g>
    </g>
    <g id="xtick_2">
     <g id="line2d_2">
      <path clip-path="url(#p07b14935ed)" d="M 408.158989 512.64 
L 408.158989 69.12 
" style="fill:none;stroke:#ffffff;stroke-linecap:round;"/>
     </g>
     <g id="text_2">
      <!-- 2020-12 -->
      <g style="fill:#262626;" transform="translate(387.976567 530.013594)scale(0.11 -0.11)">
       <use xlink:href="#ArialMT-32"/>
       <use x="55.615234" xlink:href="#ArialMT-30"/>
       <use x="111.230469" xlink:href="#ArialMT-32"/>
       <use x="166.845703" xlink:href="#ArialMT-30"/>
       <use x="222.460938" xlink:href="#ArialMT-2d"/>
       <use x="255.761719" xlink:href="#ArialMT-31"/>
       <use x="311.376953" xlink:href="#ArialMT-32"/>
      </g>
     </g>
    </g>
    <g id="xtick_3">
     <g id="line2d_3">
      <path clip-path="url(#p07b14935ed)" d="M 549.194456 512.64 
L 549.194456 69.12 
" style="fill:none;stroke:#ffffff;stroke-linecap:round;"/>
     </g>
     <g id="text_3">
      <!-- 2021-01 -->
      <g style="fill:#262626;" transform="translate(529.012034 530.013594)scale(0.11 -0.11)">
       <use xlink:href="#ArialMT-32"/>
       <use x="55.615234" xlink:href="#ArialMT-30"/>
       <use x="111.230469" xlink:href="#ArialMT-32"/>
       <use x="166.845703" xlink:href="#ArialMT-31"/>
       <use x="222.460938" xlink:href="#ArialMT-2d"/>
       <use x="255.761719" xlink:href="#ArialMT-30"/>
       <use x="311.376953" xlink:href="#ArialMT-31"/>
      </g>
     </g>
    </g>
    <g id="xtick_4">
     <g id="line2d_4">
      <path clip-path="url(#p07b14935ed)" d="M 690.229923 512.64 
L 690.229923 69.12 
" style="fill:none;stroke:#ffffff;stroke-linecap:round;"/>
     </g>
     <g id="text_4">
      <!-- 2021-02 -->
      <g style="fill:#262626;" transform="translate(670.047501 530.013594)scale(0.11 -0.11)">
       <use xlink:href="#ArialMT-32"/>
       <use x="55.615234" xlink:href="#ArialMT-30"/>
       <use x="111.230469" xlink:href="#ArialMT-32"/>
       <use x="166.845703" xlink:href="#ArialMT-31"/>
       <use x="222.460938" xlink:href="#ArialMT-2d"/>
       <use x="255.761719" xlink:href="#ArialMT-30"/>
       <use x="311.376953" xlink:href="#ArialMT-32"/>
      </g>
     </g>
    </g>
    <g id="xtick_5">
     <g id="line2d_5">
      <path clip-path="url(#p07b14935ed)" d="M 817.616796 512.64 
L 817.616796 69.12 
" style="fill:none;stroke:#ffffff;stroke-linecap:round;"/>
     </g>
     <g id="text_5">
      <!-- 2021-03 -->
      <g style="fill:#262626;" transform="translate(797.434374 530.013594)scale(0.11 -0.11)">
       <defs>
        <path d="M 269 1209 
L 831 1284 
Q 928 806 1161 595 
Q 1394 384 1728 384 
Q 2125 384 2398 659 
Q 2672 934 2672 1341 
Q 2672 1728 2419 1979 
Q 2166 2231 1775 2231 
Q 1616 2231 1378 2169 
L 1441 2663 
Q 1497 2656 1531 2656 
Q 1891 2656 2178 2843 
Q 2466 3031 2466 3422 
Q 2466 3731 2256 3934 
Q 2047 4138 1716 4138 
Q 1388 4138 1169 3931 
Q 950 3725 888 3313 
L 325 3413 
Q 428 3978 793 4289 
Q 1159 4600 1703 4600 
Q 2078 4600 2393 4439 
Q 2709 4278 2876 4000 
Q 3044 3722 3044 3409 
Q 3044 3113 2884 2869 
Q 2725 2625 2413 2481 
Q 2819 2388 3044 2092 
Q 3269 1797 3269 1353 
Q 3269 753 2831 336 
Q 2394 -81 1725 -81 
Q 1122 -81 723 278 
Q 325 638 269 1209 
z
" id="ArialMT-33" transform="scale(0.015625)"/>
       </defs>
       <use xlink:href="#ArialMT-32"/>
       <use x="55.615234" xlink:href="#ArialMT-30"/>
       <use x="111.230469" xlink:href="#ArialMT-32"/>
       <use x="166.845703" xlink:href="#ArialMT-31"/>
       <use x="222.460938" xlink:href="#ArialMT-2d"/>
       <use x="255.761719" xlink:href="#ArialMT-30"/>
       <use x="311.376953" xlink:href="#ArialMT-33"/>
      </g>
     </g>
    </g>
    <g id="xtick_6">
     <g id="line2d_6">
      <path clip-path="url(#p07b14935ed)" d="M 958.652263 512.64 
L 958.652263 69.12 
" style="fill:none;stroke:#ffffff;stroke-linecap:round;"/>
     </g>
     <g id="text_6">
      <!-- 2021-04 -->
      <g style="fill:#262626;" transform="translate(938.469841 530.013594)scale(0.11 -0.11)">
       <defs>
        <path d="M 2069 0 
L 2069 1097 
L 81 1097 
L 81 1613 
L 2172 4581 
L 2631 4581 
L 2631 1613 
L 3250 1613 
L 3250 1097 
L 2631 1097 
L 2631 0 
L 2069 0 
z
M 2069 1613 
L 2069 3678 
L 634 1613 
L 2069 1613 
z
" id="ArialMT-34" transform="scale(0.015625)"/>
       </defs>
       <use xlink:href="#ArialMT-32"/>
       <use x="55.615234" xlink:href="#ArialMT-30"/>
       <use x="111.230469" xlink:href="#ArialMT-32"/>
       <use x="166.845703" xlink:href="#ArialMT-31"/>
       <use x="222.460938" xlink:href="#ArialMT-2d"/>
       <use x="255.761719" xlink:href="#ArialMT-30"/>
       <use x="311.376953" xlink:href="#ArialMT-34"/>
      </g>
     </g>
    </g>
    <g id="xtick_7">
     <g id="line2d_7">
      <path clip-path="url(#p07b14935ed)" d="M 1095.138198 512.64 
L 1095.138198 69.12 
" style="fill:none;stroke:#ffffff;stroke-linecap:round;"/>
     </g>
     <g id="text_7">
      <!-- 2021-05 -->
      <g style="fill:#262626;" transform="translate(1074.955776 530.013594)scale(0.11 -0.11)">
       <defs>
        <path d="M 266 1200 
L 856 1250 
Q 922 819 1161 601 
Q 1400 384 1738 384 
Q 2144 384 2425 690 
Q 2706 997 2706 1503 
Q 2706 1984 2436 2262 
Q 2166 2541 1728 2541 
Q 1456 2541 1237 2417 
Q 1019 2294 894 2097 
L 366 2166 
L 809 4519 
L 3088 4519 
L 3088 3981 
L 1259 3981 
L 1013 2750 
Q 1425 3038 1878 3038 
Q 2478 3038 2890 2622 
Q 3303 2206 3303 1553 
Q 3303 931 2941 478 
Q 2500 -78 1738 -78 
Q 1113 -78 717 272 
Q 322 622 266 1200 
z
" id="ArialMT-35" transform="scale(0.015625)"/>
       </defs>
       <use xlink:href="#ArialMT-32"/>
       <use x="55.615234" xlink:href="#ArialMT-30"/>
       <use x="111.230469" xlink:href="#ArialMT-32"/>
       <use x="166.845703" xlink:href="#ArialMT-31"/>
       <use x="222.460938" xlink:href="#ArialMT-2d"/>
       <use x="255.761719" xlink:href="#ArialMT-30"/>
       <use x="311.376953" xlink:href="#ArialMT-35"/>
      </g>
     </g>
    </g>
    <g id="xtick_8">
     <g id="line2d_8">
      <path clip-path="url(#p07b14935ed)" d="M 1236.173665 512.64 
L 1236.173665 69.12 
" style="fill:none;stroke:#ffffff;stroke-linecap:round;"/>
     </g>
     <g id="text_8">
      <!-- 2021-06 -->
      <g style="fill:#262626;" transform="translate(1215.991243 530.013594)scale(0.11 -0.11)">
       <defs>
        <path d="M 3184 3459 
L 2625 3416 
Q 2550 3747 2413 3897 
Q 2184 4138 1850 4138 
Q 1581 4138 1378 3988 
Q 1113 3794 959 3422 
Q 806 3050 800 2363 
Q 1003 2672 1297 2822 
Q 1591 2972 1913 2972 
Q 2475 2972 2870 2558 
Q 3266 2144 3266 1488 
Q 3266 1056 3080 686 
Q 2894 316 2569 119 
Q 2244 -78 1831 -78 
Q 1128 -78 684 439 
Q 241 956 241 2144 
Q 241 3472 731 4075 
Q 1159 4600 1884 4600 
Q 2425 4600 2770 4297 
Q 3116 3994 3184 3459 
z
M 888 1484 
Q 888 1194 1011 928 
Q 1134 663 1356 523 
Q 1578 384 1822 384 
Q 2178 384 2434 671 
Q 2691 959 2691 1453 
Q 2691 1928 2437 2201 
Q 2184 2475 1800 2475 
Q 1419 2475 1153 2201 
Q 888 1928 888 1484 
z
" id="ArialMT-36" transform="scale(0.015625)"/>
       </defs>
       <use xlink:href="#ArialMT-32"/>
       <use x="55.615234" xlink:href="#ArialMT-30"/>
       <use x="111.230469" xlink:href="#ArialMT-32"/>
       <use x="166.845703" xlink:href="#ArialMT-31"/>
       <use x="222.460938" xlink:href="#ArialMT-2d"/>
       <use x="255.761719" xlink:href="#ArialMT-30"/>
       <use x="311.376953" xlink:href="#ArialMT-36"/>
      </g>
     </g>
    </g>
   </g>
   <g id="matplotlib.axis_2">
    <g id="ytick_1">
     <g id="line2d_9">
      <path clip-path="url(#p07b14935ed)" d="M 180 459.128823 
L 1296 459.128823 
" style="fill:none;stroke:#ffffff;stroke-linecap:round;"/>
     </g>
     <g id="text_9">
      <!-- 5 -->
      <g style="fill:#262626;" transform="translate(164.382969 463.065619)scale(0.11 -0.11)">
       <use xlink:href="#ArialMT-35"/>
      </g>
     </g>
    </g>
    <g id="ytick_2">
     <g id="line2d_10">
      <path clip-path="url(#p07b14935ed)" d="M 180 391.381141 
L 1296 391.381141 
" style="fill:none;stroke:#ffffff;stroke-linecap:round;"/>
     </g>
     <g id="text_10">
      <!-- 6 -->
      <g style="fill:#262626;" transform="translate(164.382969 395.317938)scale(0.11 -0.11)">
       <use xlink:href="#ArialMT-36"/>
      </g>
     </g>
    </g>
    <g id="ytick_3">
     <g id="line2d_11">
      <path clip-path="url(#p07b14935ed)" d="M 180 323.63346 
L 1296 323.63346 
" style="fill:none;stroke:#ffffff;stroke-linecap:round;"/>
     </g>
     <g id="text_11">
      <!-- 7 -->
      <g style="fill:#262626;" transform="translate(164.382969 327.570257)scale(0.11 -0.11)">
       <defs>
        <path d="M 303 3981 
L 303 4522 
L 3269 4522 
L 3269 4084 
Q 2831 3619 2401 2847 
Q 1972 2075 1738 1259 
Q 1569 684 1522 0 
L 944 0 
Q 953 541 1156 1306 
Q 1359 2072 1739 2783 
Q 2119 3494 2547 3981 
L 303 3981 
z
" id="ArialMT-37" transform="scale(0.015625)"/>
       </defs>
       <use xlink:href="#ArialMT-37"/>
      </g>
     </g>
    </g>
    <g id="ytick_4">
     <g id="line2d_12">
      <path clip-path="url(#p07b14935ed)" d="M 180 255.885779 
L 1296 255.885779 
" style="fill:none;stroke:#ffffff;stroke-linecap:round;"/>
     </g>
     <g id="text_12">
      <!-- 8 -->
      <g style="fill:#262626;" transform="translate(164.382969 259.822576)scale(0.11 -0.11)">
       <defs>
        <path d="M 1131 2484 
Q 781 2613 612 2850 
Q 444 3088 444 3419 
Q 444 3919 803 4259 
Q 1163 4600 1759 4600 
Q 2359 4600 2725 4251 
Q 3091 3903 3091 3403 
Q 3091 3084 2923 2848 
Q 2756 2613 2416 2484 
Q 2838 2347 3058 2040 
Q 3278 1734 3278 1309 
Q 3278 722 2862 322 
Q 2447 -78 1769 -78 
Q 1091 -78 675 323 
Q 259 725 259 1325 
Q 259 1772 486 2073 
Q 713 2375 1131 2484 
z
M 1019 3438 
Q 1019 3113 1228 2906 
Q 1438 2700 1772 2700 
Q 2097 2700 2305 2904 
Q 2513 3109 2513 3406 
Q 2513 3716 2298 3927 
Q 2084 4138 1766 4138 
Q 1444 4138 1231 3931 
Q 1019 3725 1019 3438 
z
M 838 1322 
Q 838 1081 952 856 
Q 1066 631 1291 507 
Q 1516 384 1775 384 
Q 2178 384 2440 643 
Q 2703 903 2703 1303 
Q 2703 1709 2433 1975 
Q 2163 2241 1756 2241 
Q 1359 2241 1098 1978 
Q 838 1716 838 1322 
z
" id="ArialMT-38" transform="scale(0.015625)"/>
       </defs>
       <use xlink:href="#ArialMT-38"/>
      </g>
     </g>
    </g>
    <g id="ytick_5">
     <g id="line2d_13">
      <path clip-path="url(#p07b14935ed)" d="M 180 188.138098 
L 1296 188.138098 
" style="fill:none;stroke:#ffffff;stroke-linecap:round;"/>
     </g>
     <g id="text_13">
      <!-- 9 -->
      <g style="fill:#262626;" transform="translate(164.382969 192.074895)scale(0.11 -0.11)">
       <defs>
        <path d="M 350 1059 
L 891 1109 
Q 959 728 1153 556 
Q 1347 384 1650 384 
Q 1909 384 2104 503 
Q 2300 622 2425 820 
Q 2550 1019 2634 1356 
Q 2719 1694 2719 2044 
Q 2719 2081 2716 2156 
Q 2547 1888 2255 1720 
Q 1963 1553 1622 1553 
Q 1053 1553 659 1965 
Q 266 2378 266 3053 
Q 266 3750 677 4175 
Q 1088 4600 1706 4600 
Q 2153 4600 2523 4359 
Q 2894 4119 3086 3673 
Q 3278 3228 3278 2384 
Q 3278 1506 3087 986 
Q 2897 466 2520 194 
Q 2144 -78 1638 -78 
Q 1100 -78 759 220 
Q 419 519 350 1059 
z
M 2653 3081 
Q 2653 3566 2395 3850 
Q 2138 4134 1775 4134 
Q 1400 4134 1122 3828 
Q 844 3522 844 3034 
Q 844 2597 1108 2323 
Q 1372 2050 1759 2050 
Q 2150 2050 2401 2323 
Q 2653 2597 2653 3081 
z
" id="ArialMT-39" transform="scale(0.015625)"/>
       </defs>
       <use xlink:href="#ArialMT-39"/>
      </g>
     </g>
    </g>
    <g id="ytick_6">
     <g id="line2d_14">
      <path clip-path="url(#p07b14935ed)" d="M 180 120.390417 
L 1296 120.390417 
" style="fill:none;stroke:#ffffff;stroke-linecap:round;"/>
     </g>
     <g id="text_14">
      <!-- 10 -->
      <g style="fill:#262626;" transform="translate(158.265938 124.327213)scale(0.11 -0.11)">
       <use xlink:href="#ArialMT-31"/>
       <use x="55.615234" xlink:href="#ArialMT-30"/>
      </g>
     </g>
    </g>
   </g>
   <g id="line2d_15">
    <path clip-path="url(#p07b14935ed)" d="M 230.727273 173.204332 
L 235.276804 169.470943 
L 239.826335 166.624587 
L 244.375866 164.267322 
L 248.925397 158.623617 
L 253.474929 152.158848 
L 258.02446 146.729766 
L 262.573991 141.734963 
L 267.123522 136.930523 
L 271.673053 133.951876 
L 276.222585 131.146056 
L 280.772116 129.586217 
L 285.321647 126.693655 
L 289.871178 123.40539 
L 294.420709 120.943782 
L 298.970241 118.346006 
L 303.519772 115.175297 
L 312.618834 110.364441 
L 317.168365 110.164273 
L 321.717896 111.87071 
L 326.267428 113.057002 
L 330.816959 113.971645 
L 335.36649 115.153331 
L 339.916021 115.519132 
L 344.465552 118.159105 
L 349.015084 120.467468 
L 353.564615 119.901499 
L 362.663677 121.198539 
L 367.213208 123.000048 
L 371.76274 125.708415 
L 376.312271 130.133463 
L 380.861802 132.466928 
L 385.411333 136.406436 
L 389.960864 139.482963 
L 394.510395 144.96083 
L 399.059927 149.109738 
L 403.609458 155.637177 
L 408.158989 156.405921 
L 412.70852 157.542182 
L 417.258051 158.962856 
L 421.807583 161.996634 
L 426.357114 164.265642 
L 430.906645 166.231012 
L 435.456176 167.372937 
L 440.005707 168.073664 
L 444.555238 169.588921 
L 449.10477 170.58537 
L 453.654301 170.704384 
L 458.203832 171.571436 
L 462.753363 171.757815 
L 467.302894 171.315651 
L 471.852426 172.637594 
L 476.401957 172.366402 
L 480.951488 174.087691 
L 485.501019 176.154414 
L 490.05055 176.384978 
L 494.600082 176.770667 
L 499.149613 177.036791 
L 503.699144 176.748453 
L 508.248675 176.842408 
L 512.798206 175.677737 
L 517.347737 177.629447 
L 521.897269 184.308798 
L 526.4468 190.098212 
L 530.996331 191.869445 
L 535.545862 190.964341 
L 540.095393 190.228659 
L 544.644925 189.882173 
L 558.293518 183.02412 
L 562.843049 181.685122 
L 567.392581 182.00076 
L 571.942112 180.708395 
L 576.491643 182.161319 
L 581.041174 184.631258 
L 585.590705 180.663456 
L 590.140236 176.846452 
L 594.689768 176.654629 
L 599.239299 178.758747 
L 603.78883 184.279456 
L 608.338361 187.299577 
L 612.887892 188.483664 
L 617.437424 192.357073 
L 621.986955 196.761872 
L 626.536486 198.619785 
L 631.086017 199.650967 
L 635.635548 202.741342 
L 640.185079 206.21299 
L 649.284142 209.808024 
L 653.833673 212.102847 
L 658.383204 213.568054 
L 662.932735 213.970832 
L 667.482267 214.198562 
L 672.031798 214.191543 
L 681.13086 215.88639 
L 690.229923 215.694172 
L 694.779454 216.194715 
L 699.328985 216.171226 
L 703.878516 217.37417 
L 708.428047 217.541719 
L 712.977578 217.355784 
L 717.52711 217.31535 
L 722.076641 217.447767 
L 726.626172 217.996738 
L 731.175703 217.759599 
L 735.725234 216.819256 
L 740.274766 216.227252 
L 749.373828 214.044323 
L 753.923359 213.848525 
L 758.47289 211.87187 
L 763.022422 208.945193 
L 767.571953 205.67241 
L 772.121484 202.060233 
L 776.671015 199.295165 
L 781.220546 196.93709 
L 785.770077 195.129448 
L 790.319609 193.646762 
L 794.86914 189.315897 
L 799.418671 185.685086 
L 803.968202 182.57594 
L 808.517733 178.736912 
L 813.067265 175.627076 
L 817.616796 174.743149 
L 822.166327 173.166976 
L 826.715858 169.848287 
L 831.265389 167.072079 
L 835.814921 163.417857 
L 840.364452 161.169384 
L 844.913983 158.437681 
L 849.463514 157.379663 
L 854.013045 155.866737 
L 858.562576 154.717883 
L 863.112108 150.61817 
L 867.661639 148.625408 
L 872.21117 144.618802 
L 876.760701 142.342201 
L 881.310232 139.530157 
L 885.859764 136.989442 
L 890.409295 132.750567 
L 894.958826 129.540938 
L 899.508357 126.002295 
L 904.057888 123.49273 
L 908.607419 121.413653 
L 913.156951 119.790787 
L 917.706482 118.777115 
L 922.256013 116.695904 
L 926.805544 113.894952 
L 931.355075 110.339056 
L 935.904607 108.341426 
L 940.454138 105.671541 
L 945.003669 104.832742 
L 949.5532 103.405877 
L 954.102731 102.422735 
L 958.652263 102.053011 
L 963.201794 103.611706 
L 967.751325 104.887245 
L 972.300856 107.127952 
L 976.850387 109.728903 
L 981.399918 114.642408 
L 985.94945 122.311736 
L 990.498981 125.725052 
L 995.048512 126.711018 
L 999.598043 128.280811 
L 1004.147574 128.897731 
L 1008.697106 127.854149 
L 1013.246637 125.4532 
L 1017.796168 122.500949 
L 1022.345699 125.635263 
L 1026.89523 130.884944 
L 1031.444762 135.718125 
L 1035.994293 141.195214 
L 1040.543824 144.081231 
L 1045.093355 146.609311 
L 1049.642886 151.545047 
L 1054.192417 157.634247 
L 1063.29148 168.555012 
L 1067.841011 173.119114 
L 1076.940073 180.565122 
L 1081.489605 186.163666 
L 1090.588667 196.680529 
L 1095.138198 200.924181 
L 1099.687729 204.793137 
L 1104.23726 206.222349 
L 1108.786792 211.766832 
L 1113.336323 220.806503 
L 1117.885854 224.782142 
L 1122.435385 226.336337 
L 1126.984916 230.010928 
L 1131.534448 231.716379 
L 1136.083979 232.846087 
L 1140.63351 231.017791 
L 1145.183041 230.215108 
L 1149.732572 236.501442 
L 1154.282104 243.588177 
L 1163.381166 253.967475 
L 1167.930697 256.944988 
L 1172.480228 261.599547 
L 1177.029759 268.710401 
L 1181.579291 275.488345 
L 1186.128822 282.851164 
L 1190.678353 289.873715 
L 1195.227884 295.997533 
L 1199.777415 299.305008 
L 1204.326947 303.986599 
L 1208.876478 311.500516 
L 1213.426009 318.130433 
L 1217.97554 324.373814 
L 1222.525071 331.330565 
L 1227.074603 336.421216 
L 1231.624134 338.873987 
L 1236.173665 343.587576 
L 1240.723196 351.137492 
L 1245.272727 360.46645 
L 1245.272727 360.46645 
" style="fill:none;stroke:#64b5cd;stroke-linecap:round;stroke-width:1.5;"/>
   </g>
   <g id="line2d_16">
    <path clip-path="url(#p07b14935ed)" d="M 230.727273 482.849293 
L 235.276804 474.664408 
L 239.826335 471.617253 
L 244.375866 471.30433 
L 248.925397 469.380643 
L 253.474929 461.917275 
L 258.02446 453.433765 
L 262.573991 450.557945 
L 267.123522 444.936621 
L 271.673053 441.583368 
L 276.222585 439.258101 
L 280.772116 434.788567 
L 285.321647 428.78002 
L 289.871178 426.084458 
L 294.420709 416.992986 
L 298.970241 414.619252 
L 303.519772 411.837432 
L 308.069303 409.258985 
L 312.618834 406.115881 
L 317.168365 404.437195 
L 321.717896 407.167651 
L 326.267428 407.959674 
L 330.816959 402.121054 
L 335.36649 400.263318 
L 339.916021 401.088848 
L 344.465552 400.345419 
L 349.015084 395.74072 
L 353.564615 387.059841 
L 358.114146 382.553999 
L 367.213208 381.446952 
L 371.76274 381.178153 
L 376.312271 377.503278 
L 380.861802 376.12951 
L 385.411333 377.23018 
L 389.960864 378.151398 
L 394.510395 377.65983 
L 399.059927 378.586949 
L 403.609458 379.285693 
L 408.158989 381.136894 
L 412.70852 382.490851 
L 417.258051 381.654449 
L 421.807583 382.659378 
L 426.357114 384.736836 
L 430.906645 385.943709 
L 435.456176 386.588824 
L 444.555238 388.37802 
L 449.10477 391.911025 
L 453.654301 391.597433 
L 458.203832 391.597433 
L 462.753363 392.567005 
L 467.302894 392.469421 
L 471.852426 393.998 
L 476.401957 393.08164 
L 480.951488 394.047888 
L 485.501019 397.058257 
L 490.05055 397.55573 
L 494.600082 398.748736 
L 499.149613 399.258825 
L 503.699144 400.345419 
L 508.248675 404.089027 
L 512.798206 402.20544 
L 517.347737 407.653953 
L 521.897269 421.629591 
L 526.4468 424.933137 
L 530.996331 426.849522 
L 535.545862 426.93056 
L 540.095393 423.26123 
L 544.644925 421.930191 
L 549.194456 416.157873 
L 553.743987 415.026146 
L 558.293518 414.890243 
L 562.843049 414.450432 
L 567.392581 413.313475 
L 571.942112 413.712578 
L 576.491643 426.365319 
L 581.041174 429.156049 
L 585.590705 416.365688 
L 590.140236 412.456732 
L 594.689768 411.384701 
L 599.239299 411.869886 
L 603.78883 414.248401 
L 608.338361 407.990322 
L 612.887892 406.35485 
L 617.437424 408.451716 
L 621.986955 409.54068 
L 626.536486 410.265936 
L 631.086017 411.384701 
L 635.635548 412.620651 
L 640.185079 411.384701 
L 644.734611 412.686329 
L 649.284142 413.446248 
L 653.833673 414.517909 
L 658.383204 414.992145 
L 662.932735 415.916225 
L 667.482267 417.80308 
L 672.031798 418.874494 
L 676.581329 419.235431 
L 681.13086 420.809752 
L 685.680391 421.255706 
L 690.229923 421.106728 
L 694.779454 421.517209 
L 699.328985 420.329924 
L 703.878516 418.336669 
L 708.428047 417.203383 
L 712.977578 417.909462 
L 717.52711 418.087137 
L 722.076641 417.980476 
L 726.626172 418.910501 
L 731.175703 421.143942 
L 735.725234 420.69872 
L 740.274766 425.327938 
L 744.824297 425.288354 
L 749.373828 425.090781 
L 753.923359 425.884553 
L 758.47289 427.13358 
L 763.022422 430.510201 
L 767.571953 438.821799 
L 772.121484 439.112355 
L 776.671015 440.584122 
L 781.220546 440.782795 
L 785.770077 441.181899 
L 790.319609 438.676988 
L 794.86914 434.334796 
L 799.418671 433.749402 
L 803.968202 432.947118 
L 808.517733 430.810065 
L 813.067265 429.956808 
L 817.616796 429.660689 
L 822.166327 430.982013 
L 826.715858 433.749402 
L 835.814921 433.436273 
L 840.364452 436.075536 
L 844.913983 435.520981 
L 849.463514 435.153784 
L 854.013045 432.19803 
L 858.562576 428.406067 
L 872.21117 417.980476 
L 876.760701 418.551287 
L 881.310232 418.694744 
L 885.859764 415.538225 
L 890.409295 413.67923 
L 894.958826 414.315677 
L 899.508357 412.064937 
L 904.057888 411.869886 
L 908.607419 410.902966 
L 913.156951 409.72913 
L 917.706482 408.978456 
L 922.256013 405.286065 
L 926.805544 400.619813 
L 931.355075 399.963126 
L 935.904607 397.31963 
L 940.454138 397.55573 
L 945.003669 398.003956 
L 949.5532 396.30593 
L 954.102731 394.322929 
L 958.652263 391.838528 
L 963.201794 390.54669 
L 967.751325 387.693002 
L 972.300856 386.054499 
L 976.850387 385.700609 
L 981.399918 395.180187 
L 985.94945 395.561865 
L 990.498981 387.556826 
L 995.048512 381.675234 
L 999.598043 378.072507 
L 1004.147574 377.269127 
L 1008.697106 377.327589 
L 1013.246637 366.803518 
L 1017.796168 364.10405 
L 1022.345699 368.613388 
L 1026.89523 371.645933 
L 1031.444762 374.073248 
L 1035.994293 374.783045 
L 1040.543824 374.036095 
L 1045.093355 374.8394 
L 1049.642886 376.033807 
L 1054.192417 375.804672 
L 1058.741949 376.880664 
L 1063.29148 378.905481 
L 1067.841011 379.185431 
L 1072.390542 380.787201 
L 1076.940073 383.743704 
L 1081.489605 386.010161 
L 1086.039136 389.488662 
L 1090.588667 392.104728 
L 1095.138198 396.875895 
L 1099.687729 398.162864 
L 1104.23726 397.766291 
L 1108.786792 410.234241 
L 1113.336323 419.999716 
L 1117.885854 421.143942 
L 1122.435385 420.256405 
L 1126.984916 416.748346 
L 1131.534448 416.64377 
L 1136.083979 417.168271 
L 1140.63351 407.653953 
L 1145.183041 407.83722 
L 1149.732572 413.180961 
L 1154.282104 418.838506 
L 1158.831635 423.415027 
L 1163.381166 427.052299 
L 1167.930697 427.500556 
L 1172.480228 430.595741 
L 1177.029759 431.197564 
L 1181.579291 435.29125 
L 1186.128822 439.942427 
L 1190.678353 445.41428 
L 1195.227884 445.895331 
L 1199.777415 445.574251 
L 1204.326947 450.788184 
L 1208.876478 458.086464 
L 1213.426009 465.905642 
L 1217.97554 471.460611 
L 1222.525071 476.831185 
L 1227.074603 475.989588 
L 1231.624134 476.831185 
L 1236.173665 480.306186 
L 1240.723196 487.941168 
L 1245.272727 492.48 
L 1245.272727 492.48 
" style="fill:none;stroke:#4c72b0;stroke-linecap:round;stroke-width:1.5;"/>
   </g>
   <g id="line2d_17">
    <path clip-path="url(#p07b14935ed)" d="M 230.727273 168.74941 
L 235.276804 165.03494 
L 239.826335 162.177143 
L 244.375866 159.962511 
L 248.925397 154.613673 
L 258.02446 148.106139 
L 262.573991 144.442479 
L 267.123522 141.439368 
L 271.673053 140.262058 
L 276.222585 137.05628 
L 280.772116 133.467301 
L 285.321647 131.649005 
L 289.871178 129.998641 
L 294.420709 128.717132 
L 298.970241 126.09066 
L 303.519772 126.207862 
L 308.069303 123.730035 
L 312.618834 121.589636 
L 317.168365 121.963214 
L 326.267428 119.560354 
L 330.816959 119.493545 
L 335.36649 120.508831 
L 339.916021 119.075964 
L 344.465552 117.36323 
L 349.015084 118.016403 
L 353.564615 118.841074 
L 358.114146 118.520172 
L 362.663677 119.015658 
L 367.213208 120.183017 
L 376.312271 119.236035 
L 380.861802 120.106402 
L 385.411333 121.60216 
L 389.960864 121.43016 
L 394.510395 122.105022 
L 399.059927 123.433419 
L 403.609458 122.016751 
L 408.158989 122.500496 
L 412.70852 124.092895 
L 421.807583 126.473151 
L 426.357114 127.285523 
L 430.906645 129.121785 
L 435.456176 127.210649 
L 440.005707 127.210649 
L 444.555238 128.786728 
L 449.10477 129.938413 
L 458.203832 131.200152 
L 462.753363 132.089885 
L 467.302894 131.073996 
L 471.852426 129.65923 
L 476.401957 130.765006 
L 490.05055 132.791712 
L 494.600082 133.39273 
L 499.149613 132.666246 
L 503.699144 132.133766 
L 508.248675 134.846647 
L 512.798206 136.993372 
L 517.347737 139.003576 
L 521.897269 140.138446 
L 526.4468 139.202232 
L 530.996331 137.62906 
L 535.545862 136.757987 
L 540.095393 137.036615 
L 544.644925 138.058852 
L 549.194456 138.914573 
L 553.743987 139.548227 
L 558.293518 138.797429 
L 562.843049 137.423092 
L 567.392581 137.182271 
L 571.942112 137.712418 
L 576.491643 139.04002 
L 581.041174 138.845878 
L 585.590705 139.785336 
L 590.140236 140.52238 
L 594.689768 139.222536 
L 599.239299 138.503442 
L 608.338361 140.995997 
L 612.887892 141.695837 
L 617.437424 142.526535 
L 621.986955 143.813726 
L 626.536486 143.259691 
L 631.086017 143.471247 
L 635.635548 144.970935 
L 640.185079 146.744676 
L 644.734611 148.184902 
L 649.284142 148.584759 
L 653.833673 149.292594 
L 658.383204 148.510188 
L 662.932735 148.268398 
L 667.482267 150.514592 
L 672.031798 151.68089 
L 676.581329 152.431877 
L 681.13086 152.788184 
L 685.680391 154.369445 
L 690.229923 153.521516 
L 694.779454 153.496442 
L 703.878516 156.400688 
L 712.977578 157.46619 
L 717.52711 158.618982 
L 722.076641 158.45155 
L 726.626172 157.817988 
L 731.175703 158.922492 
L 735.725234 160.266573 
L 740.274766 160.333096 
L 744.824297 160.622117 
L 749.373828 161.751037 
L 753.923359 161.389535 
L 758.47289 159.764225 
L 763.022422 160.277656 
L 767.571953 160.483011 
L 772.121484 159.091093 
L 781.220546 158.182368 
L 785.770077 156.804871 
L 790.319609 154.3136 
L 794.86914 153.672155 
L 799.418671 151.979306 
L 803.968202 150.812722 
L 808.517733 149.320874 
L 813.067265 148.538143 
L 817.616796 146.740138 
L 822.166327 144.635768 
L 826.715858 143.800689 
L 835.814921 140.278557 
L 840.364452 139.044071 
L 844.913983 138.495406 
L 849.463514 136.609332 
L 854.013045 133.672795 
L 863.112108 131.543765 
L 872.21117 128.50184 
L 876.760701 128.111203 
L 881.310232 126.09066 
L 885.859764 123.035675 
L 894.958826 120.910565 
L 904.057888 116.602768 
L 908.607419 115.764511 
L 913.156951 112.802361 
L 917.706482 108.959196 
L 922.256013 107.835754 
L 931.355075 104.670541 
L 935.904607 102.758914 
L 940.454138 101.590679 
L 945.003669 99.640492 
L 949.5532 97.083169 
L 954.102731 96.56188 
L 958.652263 95.488576 
L 963.201794 95.182592 
L 967.751325 94.539029 
L 972.300856 95.241981 
L 976.850387 93.712471 
L 981.399918 91.894842 
L 985.94945 89.61701 
L 990.498981 89.28 
L 995.048512 89.892929 
L 999.598043 90.648131 
L 1004.147574 92.064706 
L 1008.697106 91.000006 
L 1013.246637 89.757764 
L 1022.345699 92.485129 
L 1026.89523 93.453643 
L 1031.444762 94.932882 
L 1035.994293 96.65065 
L 1045.093355 95.218644 
L 1049.642886 97.883732 
L 1067.841011 105.759641 
L 1076.940073 106.785971 
L 1081.489605 110.228535 
L 1086.039136 112.719916 
L 1090.588667 116.092796 
L 1095.138198 119.205804 
L 1099.687729 122.952573 
L 1104.23726 123.707421 
L 1108.786792 123.684814 
L 1113.336323 125.554127 
L 1117.885854 128.877309 
L 1122.435385 133.631646 
L 1126.984916 137.324291 
L 1131.534448 141.389029 
L 1136.083979 142.364683 
L 1140.63351 143.752907 
L 1145.183041 149.377468 
L 1149.732572 153.571692 
L 1154.282104 156.196888 
L 1158.831635 159.200091 
L 1163.381166 163.193506 
L 1167.930697 163.809557 
L 1172.480228 166.543779 
L 1177.029759 171.66222 
L 1181.579291 175.860831 
L 1186.128822 179.536936 
L 1190.678353 184.137444 
L 1195.227884 189.489914 
L 1199.777415 189.30253 
L 1204.326947 192.900752 
L 1208.876478 205.243646 
L 1213.426009 204.366848 
L 1217.97554 209.530655 
L 1222.525071 215.070983 
L 1227.074603 219.174272 
L 1231.624134 219.891889 
L 1236.173665 225.082312 
L 1240.723196 236.236132 
L 1245.272727 240.626608 
L 1245.272727 240.626608 
" style="fill:none;stroke:#c44e52;stroke-linecap:round;stroke-width:1.5;"/>
   </g>
   <g id="line2d_18">
    <path clip-path="url(#p07b14935ed)" d="M 230.727273 340.81345 
L 235.276804 336.197749 
L 239.826335 333.572106 
L 244.375866 329.950608 
L 248.925397 324.794469 
L 253.474929 320.414279 
L 258.02446 317.361806 
L 267.123522 311.848187 
L 271.673053 308.505696 
L 276.222585 304.570234 
L 280.772116 300.192071 
L 285.321647 296.990797 
L 289.871178 297.408994 
L 294.420709 293.814543 
L 298.970241 289.574112 
L 303.519772 288.535813 
L 308.069303 289.911259 
L 312.618834 286.470065 
L 317.168365 283.775895 
L 321.717896 282.653262 
L 326.267428 281.35006 
L 330.816959 278.784661 
L 339.916021 279.521578 
L 344.465552 279.168139 
L 349.015084 279.072066 
L 353.564615 280.2666 
L 358.114146 278.49847 
L 362.663677 278.816534 
L 367.213208 278.784661 
L 371.76274 278.055673 
L 376.312271 279.779788 
L 380.861802 280.494981 
L 385.411333 279.328565 
L 399.059927 279.618291 
L 403.609458 279.040072 
L 408.158989 281.848329 
L 412.70852 282.149059 
L 417.258051 283.399613 
L 421.807583 284.257842 
L 426.357114 286.185111 
L 430.906645 286.398714 
L 435.456176 286.899755 
L 440.005707 288.75697 
L 444.555238 290.061643 
L 449.10477 291.009178 
L 453.654301 291.353561 
L 458.203832 291.391934 
L 462.753363 290.666537 
L 467.302894 289.79869 
L 471.852426 292.397341 
L 476.401957 292.670596 
L 480.951488 293.102236 
L 485.501019 292.944958 
L 490.05055 294.133544 
L 494.600082 293.536644 
L 499.149613 293.378355 
L 503.699144 295.018621 
L 508.248675 296.409625 
L 512.798206 297.619065 
L 517.347737 297.914262 
L 521.897269 297.914262 
L 526.4468 298.636571 
L 530.996331 298.083526 
L 535.545862 297.872012 
L 540.095393 298.893353 
L 544.644925 297.74542 
L 553.743987 298.551193 
L 558.293518 297.956538 
L 562.843049 296.285734 
L 567.392581 296.824239 
L 571.942112 297.787591 
L 576.491643 298.465922 
L 581.041174 297.367058 
L 585.590705 298.210751 
L 590.140236 297.956538 
L 594.689768 297.829789 
L 599.239299 296.492345 
L 603.78883 297.787591 
L 608.338361 296.782663 
L 612.887892 296.86584 
L 617.437424 297.703276 
L 621.986955 295.915415 
L 631.086017 298.807651 
L 635.635548 299.366664 
L 640.185079 298.168316 
L 644.734611 302.912152 
L 649.284142 303.460349 
L 653.833673 303.231395 
L 658.383204 303.920594 
L 662.932735 304.756995 
L 667.482267 306.4135 
L 676.581329 307.087612 
L 681.13086 306.653485 
L 685.680391 307.67081 
L 690.229923 307.817397 
L 694.779454 309.401052 
L 699.328985 308.604597 
L 703.878516 310.409972 
L 708.428047 310.15633 
L 712.977578 312.474036 
L 717.52711 310.257673 
L 722.076641 310.766673 
L 726.626172 310.920122 
L 731.175703 311.382566 
L 735.725234 313.850209 
L 740.274766 313.317598 
L 744.824297 313.689985 
L 749.373828 313.689985 
L 753.923359 313.211577 
L 758.47289 313.476942 
L 763.022422 312.841803 
L 772.121484 311.796293 
L 776.671015 311.900121 
L 781.220546 310.055138 
L 785.770077 310.257673 
L 790.319609 309.702154 
L 794.86914 311.022615 
L 799.418671 308.308324 
L 803.968202 303.920594 
L 808.517733 304.897405 
L 813.067265 302.278145 
L 817.616796 302.008234 
L 822.166327 300.630569 
L 826.715858 298.764841 
L 831.265389 295.956462 
L 835.814921 294.93768 
L 840.364452 293.299349 
L 844.913983 291.238572 
L 849.463514 288.646301 
L 854.013045 288.683171 
L 858.562576 286.327438 
L 863.112108 285.372482 
L 867.661639 283.536201 
L 872.21117 282.552121 
L 876.760701 280.364383 
L 881.310232 280.136441 
L 890.409295 276.682573 
L 894.958826 276.775314 
L 899.508357 275.094902 
L 904.057888 273.014766 
L 908.607419 271.710492 
L 913.156951 269.981635 
L 917.706482 267.481843 
L 922.256013 266.810935 
L 926.805544 264.63 
L 931.355075 261.843721 
L 935.904607 259.574272 
L 940.454138 257.891455 
L 945.003669 255.793979 
L 949.5532 254.245778 
L 954.102731 253.386108 
L 958.652263 252.299688 
L 963.201794 251.998587 
L 967.751325 250.891783 
L 972.300856 250.554834 
L 981.399918 248.690101 
L 985.94945 248.140545 
L 990.498981 247.736321 
L 995.048512 247.454793 
L 999.598043 247.515022 
L 1004.147574 245.809341 
L 1008.697106 245.340902 
L 1013.246637 244.759872 
L 1017.796168 245.848524 
L 1026.89523 246.478556 
L 1031.444762 247.53511 
L 1040.543824 248.059507 
L 1045.093355 249.264759 
L 1049.642886 249.719721 
L 1054.192417 250.470858 
L 1058.741949 250.596861 
L 1063.29148 251.187994 
L 1067.841011 251.40037 
L 1072.390542 253.211106 
L 1076.940073 254.534776 
L 1081.489605 256.707958 
L 1086.039136 257.86805 
L 1090.588667 259.382556 
L 1095.138198 262.017656 
L 1099.687729 263.807559 
L 1104.23726 265.331785 
L 1108.786792 264.915035 
L 1117.885854 272.461007 
L 1122.435385 273.573089 
L 1126.984916 277.803939 
L 1131.534448 278.403341 
L 1136.083979 280.168957 
L 1140.63351 284.326972 
L 1145.183041 287.876641 
L 1154.282104 294.333685 
L 1158.831635 296.907467 
L 1163.381166 298.508544 
L 1167.930697 299.237251 
L 1172.480228 306.222123 
L 1177.029759 308.209854 
L 1181.579291 311.640849 
L 1186.128822 315.364186 
L 1190.678353 318.497585 
L 1195.227884 321.124925 
L 1199.777415 323.920293 
L 1204.326947 330.563713 
L 1208.876478 335.16454 
L 1213.426009 339.084297 
L 1217.97554 344.578179 
L 1222.525071 350.833543 
L 1231.624134 355.911009 
L 1236.173665 358.033034 
L 1240.723196 370.755441 
L 1245.272727 373.278924 
L 1245.272727 373.278924 
" style="fill:none;stroke:#55a868;stroke-linecap:round;stroke-width:1.5;"/>
   </g>
   <g id="patch_3">
    <path d="M 180 512.64 
L 180 69.12 
" style="fill:none;stroke:#ffffff;stroke-linecap:square;stroke-linejoin:miter;stroke-width:1.25;"/>
   </g>
   <g id="patch_4">
    <path d="M 1296 512.64 
L 1296 69.12 
" style="fill:none;stroke:#ffffff;stroke-linecap:square;stroke-linejoin:miter;stroke-width:1.25;"/>
   </g>
   <g id="patch_5">
    <path d="M 180 512.64 
L 1296 512.64 
" style="fill:none;stroke:#ffffff;stroke-linecap:square;stroke-linejoin:miter;stroke-width:1.25;"/>
   </g>
   <g id="patch_6">
    <path d="M 180 69.12 
L 1296 69.12 
" style="fill:none;stroke:#ffffff;stroke-linecap:square;stroke-linejoin:miter;stroke-width:1.25;"/>
   </g>
   <g id="text_15">
    <!-- Zakażenia,zgony,hospitalizacja,respiratory (skala logarytmiczna) -->
    <g style="fill:#262626;" transform="translate(453.076562 63.12)scale(0.2 -0.2)">
     <defs>
      <path d="M 128 0 
L 128 563 
L 2475 3497 
Q 2725 3809 2950 4041 
L 394 4041 
L 394 4581 
L 3675 4581 
L 3675 4041 
L 1103 863 
L 825 541 
L 3750 541 
L 3750 0 
L 128 0 
z
" id="ArialMT-5a" transform="scale(0.015625)"/>
      <path d="M 2588 409 
Q 2275 144 1986 34 
Q 1697 -75 1366 -75 
Q 819 -75 525 192 
Q 231 459 231 875 
Q 231 1119 342 1320 
Q 453 1522 633 1644 
Q 813 1766 1038 1828 
Q 1203 1872 1538 1913 
Q 2219 1994 2541 2106 
Q 2544 2222 2544 2253 
Q 2544 2597 2384 2738 
Q 2169 2928 1744 2928 
Q 1347 2928 1158 2789 
Q 969 2650 878 2297 
L 328 2372 
Q 403 2725 575 2942 
Q 747 3159 1072 3276 
Q 1397 3394 1825 3394 
Q 2250 3394 2515 3294 
Q 2781 3194 2906 3042 
Q 3031 2891 3081 2659 
Q 3109 2516 3109 2141 
L 3109 1391 
Q 3109 606 3145 398 
Q 3181 191 3288 0 
L 2700 0 
Q 2613 175 2588 409 
z
M 2541 1666 
Q 2234 1541 1622 1453 
Q 1275 1403 1131 1340 
Q 988 1278 909 1158 
Q 831 1038 831 891 
Q 831 666 1001 516 
Q 1172 366 1500 366 
Q 1825 366 2078 508 
Q 2331 650 2450 897 
Q 2541 1088 2541 1459 
L 2541 1666 
z
" id="ArialMT-61" transform="scale(0.015625)"/>
      <path d="M 425 0 
L 425 4581 
L 988 4581 
L 988 1969 
L 2319 3319 
L 3047 3319 
L 1778 2088 
L 3175 0 
L 2481 0 
L 1384 1697 
L 988 1316 
L 988 0 
L 425 0 
z
" id="ArialMT-6b" transform="scale(0.015625)"/>
      <path d="M 125 0 
L 125 456 
L 2238 2881 
Q 1878 2863 1603 2863 
L 250 2863 
L 250 3319 
L 2963 3319 
L 2963 2947 
L 1166 841 
L 819 456 
Q 1197 484 1528 484 
L 3063 484 
L 3063 0 
L 125 0 
z
M 1244 3731 
L 1244 4431 
L 1941 4431 
L 1941 3731 
L 1244 3731 
z
" id="ArialMT-17c" transform="scale(0.015625)"/>
      <path d="M 2694 1069 
L 3275 997 
Q 3138 488 2766 206 
Q 2394 -75 1816 -75 
Q 1088 -75 661 373 
Q 234 822 234 1631 
Q 234 2469 665 2931 
Q 1097 3394 1784 3394 
Q 2450 3394 2872 2941 
Q 3294 2488 3294 1666 
Q 3294 1616 3291 1516 
L 816 1516 
Q 847 969 1125 678 
Q 1403 388 1819 388 
Q 2128 388 2347 550 
Q 2566 713 2694 1069 
z
M 847 1978 
L 2700 1978 
Q 2663 2397 2488 2606 
Q 2219 2931 1791 2931 
Q 1403 2931 1139 2672 
Q 875 2413 847 1978 
z
" id="ArialMT-65" transform="scale(0.015625)"/>
      <path d="M 422 0 
L 422 3319 
L 928 3319 
L 928 2847 
Q 1294 3394 1984 3394 
Q 2284 3394 2536 3286 
Q 2788 3178 2913 3003 
Q 3038 2828 3088 2588 
Q 3119 2431 3119 2041 
L 3119 0 
L 2556 0 
L 2556 2019 
Q 2556 2363 2490 2533 
Q 2425 2703 2258 2804 
Q 2091 2906 1866 2906 
Q 1506 2906 1245 2678 
Q 984 2450 984 1813 
L 984 0 
L 422 0 
z
" id="ArialMT-6e" transform="scale(0.015625)"/>
      <path d="M 425 3934 
L 425 4581 
L 988 4581 
L 988 3934 
L 425 3934 
z
M 425 0 
L 425 3319 
L 988 3319 
L 988 0 
L 425 0 
z
" id="ArialMT-69" transform="scale(0.015625)"/>
      <path d="M 569 0 
L 569 641 
L 1209 641 
L 1209 0 
Q 1209 -353 1084 -570 
Q 959 -788 688 -906 
L 531 -666 
Q 709 -588 793 -436 
Q 878 -284 888 0 
L 569 0 
z
" id="ArialMT-2c" transform="scale(0.015625)"/>
      <path d="M 125 0 
L 125 456 
L 2238 2881 
Q 1878 2863 1603 2863 
L 250 2863 
L 250 3319 
L 2963 3319 
L 2963 2947 
L 1166 841 
L 819 456 
Q 1197 484 1528 484 
L 3063 484 
L 3063 0 
L 125 0 
z
" id="ArialMT-7a" transform="scale(0.015625)"/>
      <path d="M 319 -275 
L 866 -356 
Q 900 -609 1056 -725 
Q 1266 -881 1628 -881 
Q 2019 -881 2231 -725 
Q 2444 -569 2519 -288 
Q 2563 -116 2559 434 
Q 2191 0 1641 0 
Q 956 0 581 494 
Q 206 988 206 1678 
Q 206 2153 378 2554 
Q 550 2956 876 3175 
Q 1203 3394 1644 3394 
Q 2231 3394 2613 2919 
L 2613 3319 
L 3131 3319 
L 3131 450 
Q 3131 -325 2973 -648 
Q 2816 -972 2473 -1159 
Q 2131 -1347 1631 -1347 
Q 1038 -1347 672 -1080 
Q 306 -813 319 -275 
z
M 784 1719 
Q 784 1066 1043 766 
Q 1303 466 1694 466 
Q 2081 466 2343 764 
Q 2606 1063 2606 1700 
Q 2606 2309 2336 2618 
Q 2066 2928 1684 2928 
Q 1309 2928 1046 2623 
Q 784 2319 784 1719 
z
" id="ArialMT-67" transform="scale(0.015625)"/>
      <path d="M 213 1659 
Q 213 2581 725 3025 
Q 1153 3394 1769 3394 
Q 2453 3394 2887 2945 
Q 3322 2497 3322 1706 
Q 3322 1066 3130 698 
Q 2938 331 2570 128 
Q 2203 -75 1769 -75 
Q 1072 -75 642 372 
Q 213 819 213 1659 
z
M 791 1659 
Q 791 1022 1069 705 
Q 1347 388 1769 388 
Q 2188 388 2466 706 
Q 2744 1025 2744 1678 
Q 2744 2294 2464 2611 
Q 2184 2928 1769 2928 
Q 1347 2928 1069 2612 
Q 791 2297 791 1659 
z
" id="ArialMT-6f" transform="scale(0.015625)"/>
      <path d="M 397 -1278 
L 334 -750 
Q 519 -800 656 -800 
Q 844 -800 956 -737 
Q 1069 -675 1141 -563 
Q 1194 -478 1313 -144 
Q 1328 -97 1363 -6 
L 103 3319 
L 709 3319 
L 1400 1397 
Q 1534 1031 1641 628 
Q 1738 1016 1872 1384 
L 2581 3319 
L 3144 3319 
L 1881 -56 
Q 1678 -603 1566 -809 
Q 1416 -1088 1222 -1217 
Q 1028 -1347 759 -1347 
Q 597 -1347 397 -1278 
z
" id="ArialMT-79" transform="scale(0.015625)"/>
      <path d="M 422 0 
L 422 4581 
L 984 4581 
L 984 2938 
Q 1378 3394 1978 3394 
Q 2347 3394 2619 3248 
Q 2891 3103 3008 2847 
Q 3125 2591 3125 2103 
L 3125 0 
L 2563 0 
L 2563 2103 
Q 2563 2525 2380 2717 
Q 2197 2909 1863 2909 
Q 1613 2909 1392 2779 
Q 1172 2650 1078 2428 
Q 984 2206 984 1816 
L 984 0 
L 422 0 
z
" id="ArialMT-68" transform="scale(0.015625)"/>
      <path d="M 197 991 
L 753 1078 
Q 800 744 1014 566 
Q 1228 388 1613 388 
Q 2000 388 2187 545 
Q 2375 703 2375 916 
Q 2375 1106 2209 1216 
Q 2094 1291 1634 1406 
Q 1016 1563 777 1677 
Q 538 1791 414 1992 
Q 291 2194 291 2438 
Q 291 2659 392 2848 
Q 494 3038 669 3163 
Q 800 3259 1026 3326 
Q 1253 3394 1513 3394 
Q 1903 3394 2198 3281 
Q 2494 3169 2634 2976 
Q 2775 2784 2828 2463 
L 2278 2388 
Q 2241 2644 2061 2787 
Q 1881 2931 1553 2931 
Q 1166 2931 1000 2803 
Q 834 2675 834 2503 
Q 834 2394 903 2306 
Q 972 2216 1119 2156 
Q 1203 2125 1616 2013 
Q 2213 1853 2448 1751 
Q 2684 1650 2818 1456 
Q 2953 1263 2953 975 
Q 2953 694 2789 445 
Q 2625 197 2315 61 
Q 2006 -75 1616 -75 
Q 969 -75 630 194 
Q 291 463 197 991 
z
" id="ArialMT-73" transform="scale(0.015625)"/>
      <path d="M 422 -1272 
L 422 3319 
L 934 3319 
L 934 2888 
Q 1116 3141 1344 3267 
Q 1572 3394 1897 3394 
Q 2322 3394 2647 3175 
Q 2972 2956 3137 2557 
Q 3303 2159 3303 1684 
Q 3303 1175 3120 767 
Q 2938 359 2589 142 
Q 2241 -75 1856 -75 
Q 1575 -75 1351 44 
Q 1128 163 984 344 
L 984 -1272 
L 422 -1272 
z
M 931 1641 
Q 931 1000 1190 694 
Q 1450 388 1819 388 
Q 2194 388 2461 705 
Q 2728 1022 2728 1688 
Q 2728 2322 2467 2637 
Q 2206 2953 1844 2953 
Q 1484 2953 1207 2617 
Q 931 2281 931 1641 
z
" id="ArialMT-70" transform="scale(0.015625)"/>
      <path d="M 1650 503 
L 1731 6 
Q 1494 -44 1306 -44 
Q 1000 -44 831 53 
Q 663 150 594 308 
Q 525 466 525 972 
L 525 2881 
L 113 2881 
L 113 3319 
L 525 3319 
L 525 4141 
L 1084 4478 
L 1084 3319 
L 1650 3319 
L 1650 2881 
L 1084 2881 
L 1084 941 
Q 1084 700 1114 631 
Q 1144 563 1211 522 
Q 1278 481 1403 481 
Q 1497 481 1650 503 
z
" id="ArialMT-74" transform="scale(0.015625)"/>
      <path d="M 409 0 
L 409 4581 
L 972 4581 
L 972 0 
L 409 0 
z
" id="ArialMT-6c" transform="scale(0.015625)"/>
      <path d="M 2588 1216 
L 3141 1144 
Q 3050 572 2676 248 
Q 2303 -75 1759 -75 
Q 1078 -75 664 370 
Q 250 816 250 1647 
Q 250 2184 428 2587 
Q 606 2991 970 3192 
Q 1334 3394 1763 3394 
Q 2303 3394 2647 3120 
Q 2991 2847 3088 2344 
L 2541 2259 
Q 2463 2594 2264 2762 
Q 2066 2931 1784 2931 
Q 1359 2931 1093 2626 
Q 828 2322 828 1663 
Q 828 994 1084 691 
Q 1341 388 1753 388 
Q 2084 388 2306 591 
Q 2528 794 2588 1216 
z
" id="ArialMT-63" transform="scale(0.015625)"/>
      <path d="M 419 3928 
L 419 4581 
L 981 4581 
L 981 3928 
L 419 3928 
z
M -294 -1288 
L -188 -809 
Q -19 -853 78 -853 
Q 250 -853 334 -739 
Q 419 -625 419 -169 
L 419 3319 
L 981 3319 
L 981 -181 
Q 981 -794 822 -1034 
Q 619 -1347 147 -1347 
Q -81 -1347 -294 -1288 
z
" id="ArialMT-6a" transform="scale(0.015625)"/>
      <path d="M 416 0 
L 416 3319 
L 922 3319 
L 922 2816 
Q 1116 3169 1280 3281 
Q 1444 3394 1641 3394 
Q 1925 3394 2219 3213 
L 2025 2691 
Q 1819 2813 1613 2813 
Q 1428 2813 1281 2702 
Q 1134 2591 1072 2394 
Q 978 2094 978 1738 
L 978 0 
L 416 0 
z
" id="ArialMT-72" transform="scale(0.015625)"/>
      <path id="ArialMT-20" transform="scale(0.015625)"/>
      <path d="M 1497 -1347 
Q 1031 -759 709 28 
Q 388 816 388 1659 
Q 388 2403 628 3084 
Q 909 3875 1497 4659 
L 1900 4659 
Q 1522 4009 1400 3731 
Q 1209 3300 1100 2831 
Q 966 2247 966 1656 
Q 966 153 1900 -1347 
L 1497 -1347 
z
" id="ArialMT-28" transform="scale(0.015625)"/>
      <path d="M 422 0 
L 422 3319 
L 925 3319 
L 925 2853 
Q 1081 3097 1340 3245 
Q 1600 3394 1931 3394 
Q 2300 3394 2536 3241 
Q 2772 3088 2869 2813 
Q 3263 3394 3894 3394 
Q 4388 3394 4653 3120 
Q 4919 2847 4919 2278 
L 4919 0 
L 4359 0 
L 4359 2091 
Q 4359 2428 4304 2576 
Q 4250 2725 4106 2815 
Q 3963 2906 3769 2906 
Q 3419 2906 3187 2673 
Q 2956 2441 2956 1928 
L 2956 0 
L 2394 0 
L 2394 2156 
Q 2394 2531 2256 2718 
Q 2119 2906 1806 2906 
Q 1569 2906 1367 2781 
Q 1166 2656 1075 2415 
Q 984 2175 984 1722 
L 984 0 
L 422 0 
z
" id="ArialMT-6d" transform="scale(0.015625)"/>
      <path d="M 791 -1347 
L 388 -1347 
Q 1322 153 1322 1656 
Q 1322 2244 1188 2822 
Q 1081 3291 891 3722 
Q 769 4003 388 4659 
L 791 4659 
Q 1378 3875 1659 3084 
Q 1900 2403 1900 1659 
Q 1900 816 1576 28 
Q 1253 -759 791 -1347 
z
" id="ArialMT-29" transform="scale(0.015625)"/>
     </defs>
     <use xlink:href="#ArialMT-5a"/>
     <use x="61.083984" xlink:href="#ArialMT-61"/>
     <use x="116.699219" xlink:href="#ArialMT-6b"/>
     <use x="166.699219" xlink:href="#ArialMT-61"/>
     <use x="222.314453" xlink:href="#ArialMT-17c"/>
     <use x="272.314453" xlink:href="#ArialMT-65"/>
     <use x="327.929688" xlink:href="#ArialMT-6e"/>
     <use x="383.544922" xlink:href="#ArialMT-69"/>
     <use x="405.761719" xlink:href="#ArialMT-61"/>
     <use x="461.376953" xlink:href="#ArialMT-2c"/>
     <use x="489.160156" xlink:href="#ArialMT-7a"/>
     <use x="539.160156" xlink:href="#ArialMT-67"/>
     <use x="594.775391" xlink:href="#ArialMT-6f"/>
     <use x="650.390625" xlink:href="#ArialMT-6e"/>
     <use x="706.005859" xlink:href="#ArialMT-79"/>
     <use x="748.630859" xlink:href="#ArialMT-2c"/>
     <use x="776.414062" xlink:href="#ArialMT-68"/>
     <use x="832.029297" xlink:href="#ArialMT-6f"/>
     <use x="887.644531" xlink:href="#ArialMT-73"/>
     <use x="937.644531" xlink:href="#ArialMT-70"/>
     <use x="993.259766" xlink:href="#ArialMT-69"/>
     <use x="1015.476562" xlink:href="#ArialMT-74"/>
     <use x="1043.259766" xlink:href="#ArialMT-61"/>
     <use x="1098.875" xlink:href="#ArialMT-6c"/>
     <use x="1121.091797" xlink:href="#ArialMT-69"/>
     <use x="1143.308594" xlink:href="#ArialMT-7a"/>
     <use x="1193.308594" xlink:href="#ArialMT-61"/>
     <use x="1248.923828" xlink:href="#ArialMT-63"/>
     <use x="1298.923828" xlink:href="#ArialMT-6a"/>
     <use x="1321.140625" xlink:href="#ArialMT-61"/>
     <use x="1376.755859" xlink:href="#ArialMT-2c"/>
     <use x="1404.539062" xlink:href="#ArialMT-72"/>
     <use x="1437.839844" xlink:href="#ArialMT-65"/>
     <use x="1493.455078" xlink:href="#ArialMT-73"/>
     <use x="1543.455078" xlink:href="#ArialMT-70"/>
     <use x="1599.070312" xlink:href="#ArialMT-69"/>
     <use x="1621.287109" xlink:href="#ArialMT-72"/>
     <use x="1654.587891" xlink:href="#ArialMT-61"/>
     <use x="1710.203125" xlink:href="#ArialMT-74"/>
     <use x="1737.986328" xlink:href="#ArialMT-6f"/>
     <use x="1793.601562" xlink:href="#ArialMT-72"/>
     <use x="1826.902344" xlink:href="#ArialMT-79"/>
     <use x="1876.902344" xlink:href="#ArialMT-20"/>
     <use x="1904.685547" xlink:href="#ArialMT-28"/>
     <use x="1937.986328" xlink:href="#ArialMT-73"/>
     <use x="1987.986328" xlink:href="#ArialMT-6b"/>
     <use x="2037.986328" xlink:href="#ArialMT-61"/>
     <use x="2093.601562" xlink:href="#ArialMT-6c"/>
     <use x="2115.818359" xlink:href="#ArialMT-61"/>
     <use x="2171.433594" xlink:href="#ArialMT-20"/>
     <use x="2199.216797" xlink:href="#ArialMT-6c"/>
     <use x="2221.433594" xlink:href="#ArialMT-6f"/>
     <use x="2277.048828" xlink:href="#ArialMT-67"/>
     <use x="2332.664062" xlink:href="#ArialMT-61"/>
     <use x="2388.279297" xlink:href="#ArialMT-72"/>
     <use x="2421.580078" xlink:href="#ArialMT-79"/>
     <use x="2471.580078" xlink:href="#ArialMT-74"/>
     <use x="2499.363281" xlink:href="#ArialMT-6d"/>
     <use x="2582.664062" xlink:href="#ArialMT-69"/>
     <use x="2604.880859" xlink:href="#ArialMT-63"/>
     <use x="2654.880859" xlink:href="#ArialMT-7a"/>
     <use x="2704.880859" xlink:href="#ArialMT-6e"/>
     <use x="2760.496094" xlink:href="#ArialMT-61"/>
     <use x="2816.111328" xlink:href="#ArialMT-29"/>
    </g>
   </g>
  </g>
  <g id="legend_1">
   <g id="patch_7">
    <path d="M 423.275859 570.5 
L 1016.724141 570.5 
Q 1018.924141 570.5 1018.924141 568.3 
L 1018.924141 553.668281 
Q 1018.924141 551.468281 1016.724141 551.468281 
L 423.275859 551.468281 
Q 421.075859 551.468281 421.075859 553.668281 
L 421.075859 568.3 
Q 421.075859 570.5 423.275859 570.5 
z
" style="fill:#eaeaf2;opacity:0.8;stroke:#cccccc;stroke-linejoin:miter;"/>
   </g>
   <g id="line2d_19">
    <path d="M 425.475859 559.934844 
L 447.475859 559.934844 
" style="fill:none;stroke:#64b5cd;stroke-linecap:round;stroke-width:1.5;"/>
   </g>
   <g id="line2d_20"/>
   <g id="text_16">
    <!-- Zakażenia średnia 7-dniowa -->
    <g style="fill:#262626;" transform="translate(456.275859 563.784844)scale(0.11 -0.11)">
     <defs>
      <path d="M 197 991 
L 753 1078 
Q 800 744 1014 566 
Q 1228 388 1613 388 
Q 2000 388 2187 545 
Q 2375 703 2375 916 
Q 2375 1106 2209 1216 
Q 2094 1291 1634 1406 
Q 1016 1563 777 1677 
Q 538 1791 414 1992 
Q 291 2194 291 2438 
Q 291 2659 392 2848 
Q 494 3038 669 3163 
Q 800 3259 1026 3326 
Q 1253 3394 1513 3394 
Q 1903 3394 2198 3281 
Q 2494 3169 2634 2976 
Q 2775 2784 2828 2463 
L 2278 2388 
Q 2241 2644 2061 2787 
Q 1881 2931 1553 2931 
Q 1166 2931 1000 2803 
Q 834 2675 834 2503 
Q 834 2394 903 2306 
Q 972 2216 1119 2156 
Q 1203 2125 1616 2013 
Q 2213 1853 2448 1751 
Q 2684 1650 2818 1456 
Q 2953 1263 2953 975 
Q 2953 694 2789 445 
Q 2625 197 2315 61 
Q 2006 -75 1616 -75 
Q 969 -75 630 194 
Q 291 463 197 991 
z
M 1230 3731 
L 1645 4606 
L 2383 4606 
L 1695 3731 
L 1230 3731 
z
" id="ArialMT-15b" transform="scale(0.015625)"/>
      <path d="M 2575 0 
L 2575 419 
Q 2259 -75 1647 -75 
Q 1250 -75 917 144 
Q 584 363 401 755 
Q 219 1147 219 1656 
Q 219 2153 384 2558 
Q 550 2963 881 3178 
Q 1213 3394 1622 3394 
Q 1922 3394 2156 3267 
Q 2391 3141 2538 2938 
L 2538 4581 
L 3097 4581 
L 3097 0 
L 2575 0 
z
M 797 1656 
Q 797 1019 1065 703 
Q 1334 388 1700 388 
Q 2069 388 2326 689 
Q 2584 991 2584 1609 
Q 2584 2291 2321 2609 
Q 2059 2928 1675 2928 
Q 1300 2928 1048 2622 
Q 797 2316 797 1656 
z
" id="ArialMT-64" transform="scale(0.015625)"/>
      <path d="M 1034 0 
L 19 3319 
L 600 3319 
L 1128 1403 
L 1325 691 
Q 1338 744 1497 1375 
L 2025 3319 
L 2603 3319 
L 3100 1394 
L 3266 759 
L 3456 1400 
L 4025 3319 
L 4572 3319 
L 3534 0 
L 2950 0 
L 2422 1988 
L 2294 2553 
L 1622 0 
L 1034 0 
z
" id="ArialMT-77" transform="scale(0.015625)"/>
     </defs>
     <use xlink:href="#ArialMT-5a"/>
     <use x="61.083984" xlink:href="#ArialMT-61"/>
     <use x="116.699219" xlink:href="#ArialMT-6b"/>
     <use x="166.699219" xlink:href="#ArialMT-61"/>
     <use x="222.314453" xlink:href="#ArialMT-17c"/>
     <use x="272.314453" xlink:href="#ArialMT-65"/>
     <use x="327.929688" xlink:href="#ArialMT-6e"/>
     <use x="383.544922" xlink:href="#ArialMT-69"/>
     <use x="405.761719" xlink:href="#ArialMT-61"/>
     <use x="461.376953" xlink:href="#ArialMT-20"/>
     <use x="489.160156" xlink:href="#ArialMT-15b"/>
     <use x="539.160156" xlink:href="#ArialMT-72"/>
     <use x="572.460938" xlink:href="#ArialMT-65"/>
     <use x="628.076172" xlink:href="#ArialMT-64"/>
     <use x="683.691406" xlink:href="#ArialMT-6e"/>
     <use x="739.306641" xlink:href="#ArialMT-69"/>
     <use x="761.523438" xlink:href="#ArialMT-61"/>
     <use x="817.138672" xlink:href="#ArialMT-20"/>
     <use x="844.921875" xlink:href="#ArialMT-37"/>
     <use x="900.537109" xlink:href="#ArialMT-2d"/>
     <use x="933.837891" xlink:href="#ArialMT-64"/>
     <use x="989.453125" xlink:href="#ArialMT-6e"/>
     <use x="1045.068359" xlink:href="#ArialMT-69"/>
     <use x="1067.285156" xlink:href="#ArialMT-6f"/>
     <use x="1122.900391" xlink:href="#ArialMT-77"/>
     <use x="1195.117188" xlink:href="#ArialMT-61"/>
    </g>
   </g>
   <g id="line2d_21">
    <path d="M 615.846328 559.934844 
L 637.846328 559.934844 
" style="fill:none;stroke:#4c72b0;stroke-linecap:round;stroke-width:1.5;"/>
   </g>
   <g id="line2d_22"/>
   <g id="text_17">
    <!-- Zgony średnia 7-dniowa -->
    <g style="fill:#262626;" transform="translate(646.646328 563.784844)scale(0.11 -0.11)">
     <use xlink:href="#ArialMT-5a"/>
     <use x="61.083984" xlink:href="#ArialMT-67"/>
     <use x="116.699219" xlink:href="#ArialMT-6f"/>
     <use x="172.314453" xlink:href="#ArialMT-6e"/>
     <use x="227.929688" xlink:href="#ArialMT-79"/>
     <use x="277.929688" xlink:href="#ArialMT-20"/>
     <use x="305.712891" xlink:href="#ArialMT-15b"/>
     <use x="355.712891" xlink:href="#ArialMT-72"/>
     <use x="389.013672" xlink:href="#ArialMT-65"/>
     <use x="444.628906" xlink:href="#ArialMT-64"/>
     <use x="500.244141" xlink:href="#ArialMT-6e"/>
     <use x="555.859375" xlink:href="#ArialMT-69"/>
     <use x="578.076172" xlink:href="#ArialMT-61"/>
     <use x="633.691406" xlink:href="#ArialMT-20"/>
     <use x="661.474609" xlink:href="#ArialMT-37"/>
     <use x="717.089844" xlink:href="#ArialMT-2d"/>
     <use x="750.390625" xlink:href="#ArialMT-64"/>
     <use x="806.005859" xlink:href="#ArialMT-6e"/>
     <use x="861.621094" xlink:href="#ArialMT-69"/>
     <use x="883.837891" xlink:href="#ArialMT-6f"/>
     <use x="939.453125" xlink:href="#ArialMT-77"/>
     <use x="1011.669922" xlink:href="#ArialMT-61"/>
    </g>
   </g>
   <g id="line2d_23">
    <path d="M 786.038672 559.934844 
L 808.038672 559.934844 
" style="fill:none;stroke:#c44e52;stroke-linecap:round;stroke-width:1.5;"/>
   </g>
   <g id="line2d_24"/>
   <g id="text_18">
    <!-- Zajęte łóżka -->
    <g style="fill:#262626;" transform="translate(816.838672 563.784844)scale(0.11 -0.11)">
     <defs>
      <path d="M 2694 1069 
L 3275 997 
Q 3138 488 2766 206 
Q 2394 -75 1816 -75 
Q 1088 -75 661 373 
Q 234 822 234 1631 
Q 234 2469 665 2931 
Q 1097 3394 1784 3394 
Q 2450 3394 2872 2941 
Q 3294 2488 3294 1666 
Q 3294 1616 3291 1516 
L 816 1516 
Q 847 969 1125 678 
Q 1403 388 1819 388 
Q 2128 388 2347 550 
Q 2566 713 2694 1069 
z
M 847 1978 
L 2700 1978 
Q 2663 2397 2488 2606 
Q 2219 2931 1791 2931 
Q 1403 2931 1139 2672 
Q 875 2413 847 1978 
z
M 2294 0 
Q 2116 -109 2017 -270 
Q 1919 -431 1919 -597 
Q 1919 -728 1991 -818 
Q 2063 -909 2225 -909 
Q 2297 -909 2372 -889 
Q 2447 -869 2510 -834 
L 2510 -1234 
Q 2282 -1344 2085 -1344 
Q 1925 -1344 1806 -1298 
Q 1688 -1253 1608 -1173 
Q 1529 -1094 1489 -991 
Q 1450 -888 1450 -769 
Q 1450 -569 1562 -367 
Q 1675 -166 1882 0 
L 2294 0 
z
" id="ArialMT-119" transform="scale(0.015625)"/>
      <path d="M 416 1794 
L 9 1450 
L 9 1944 
L 416 2288 
L 416 4581 
L 975 4581 
L 975 2763 
L 1397 3122 
L 1397 2631 
L 975 2272 
L 975 0 
L 416 0 
L 416 1794 
z
" id="ArialMT-142" transform="scale(0.015625)"/>
      <path d="M 213 1659 
Q 213 2581 725 3025 
Q 1153 3394 1769 3394 
Q 2453 3394 2887 2945 
Q 3322 2497 3322 1706 
Q 3322 1066 3130 698 
Q 2938 331 2570 128 
Q 2203 -75 1769 -75 
Q 1072 -75 642 372 
Q 213 819 213 1659 
z
M 791 1659 
Q 791 1022 1069 705 
Q 1347 388 1769 388 
Q 2188 388 2466 706 
Q 2744 1025 2744 1678 
Q 2744 2294 2464 2611 
Q 2184 2928 1769 2928 
Q 1347 2928 1069 2612 
Q 791 2297 791 1659 
z
M 1454 3731 
L 1869 4606 
L 2607 4606 
L 1919 3731 
L 1454 3731 
z
" id="ArialMT-f3" transform="scale(0.015625)"/>
     </defs>
     <use xlink:href="#ArialMT-5a"/>
     <use x="61.083984" xlink:href="#ArialMT-61"/>
     <use x="116.699219" xlink:href="#ArialMT-6a"/>
     <use x="138.916016" xlink:href="#ArialMT-119"/>
     <use x="194.53125" xlink:href="#ArialMT-74"/>
     <use x="222.314453" xlink:href="#ArialMT-65"/>
     <use x="277.929688" xlink:href="#ArialMT-20"/>
     <use x="305.712891" xlink:href="#ArialMT-142"/>
     <use x="327.929688" xlink:href="#ArialMT-f3"/>
     <use x="383.544922" xlink:href="#ArialMT-17c"/>
     <use x="433.544922" xlink:href="#ArialMT-6b"/>
     <use x="483.544922" xlink:href="#ArialMT-61"/>
    </g>
   </g>
   <g id="line2d_25">
    <path d="M 898.142422 559.934844 
L 920.142422 559.934844 
" style="fill:none;stroke:#55a868;stroke-linecap:round;stroke-width:1.5;"/>
   </g>
   <g id="line2d_26"/>
   <g id="text_19">
    <!-- Zajęte respiraotry -->
    <g style="fill:#262626;" transform="translate(928.942422 563.784844)scale(0.11 -0.11)">
     <use xlink:href="#ArialMT-5a"/>
     <use x="61.083984" xlink:href="#ArialMT-61"/>
     <use x="116.699219" xlink:href="#ArialMT-6a"/>
     <use x="138.916016" xlink:href="#ArialMT-119"/>
     <use x="194.53125" xlink:href="#ArialMT-74"/>
     <use x="222.314453" xlink:href="#ArialMT-65"/>
     <use x="277.929688" xlink:href="#ArialMT-20"/>
     <use x="305.712891" xlink:href="#ArialMT-72"/>
     <use x="339.013672" xlink:href="#ArialMT-65"/>
     <use x="394.628906" xlink:href="#ArialMT-73"/>
     <use x="444.628906" xlink:href="#ArialMT-70"/>
     <use x="500.244141" xlink:href="#ArialMT-69"/>
     <use x="522.460938" xlink:href="#ArialMT-72"/>
     <use x="555.761719" xlink:href="#ArialMT-61"/>
     <use x="611.376953" xlink:href="#ArialMT-6f"/>
     <use x="666.992188" xlink:href="#ArialMT-74"/>
     <use x="694.775391" xlink:href="#ArialMT-72"/>
     <use x="728.076172" xlink:href="#ArialMT-79"/>
    </g>
   </g>
  </g>
 </g>
 <defs>
  <clipPath id="p07b14935ed">
   <rect height="443.52" width="1116" x="180" y="69.12"/>
  </clipPath>
 </defs>
</svg>
