<?xml version="1.0" encoding="utf-8" standalone="no"?>
<!DOCTYPE svg PUBLIC "-//W3C//DTD SVG 1.1//EN"
  "http://www.w3.org/Graphics/SVG/1.1/DTD/svg11.dtd">
<svg height="576pt" version="1.1" viewBox="0 0 1440 576" width="1440pt" xmlns="http://www.w3.org/2000/svg" xmlns:xlink="http://www.w3.org/1999/xlink">
 <metadata>
  <rdf:RDF xmlns:cc="http://creativecommons.org/ns#" xmlns:dc="http://purl.org/dc/elements/1.1/" xmlns:rdf="http://www.w3.org/1999/02/22-rdf-syntax-ns#">
   <cc:Work>
    <dc:type rdf:resource="http://purl.org/dc/dcmitype/StillImage"/>
    <dc:date>2021-06-07T12:40:46.723962</dc:date>
    <dc:format>image/svg+xml</dc:format>
    <dc:creator>
     <cc:Agent>
      <dc:title>Matplotlib v3.4.1, https://matplotlib.org/</dc:title>
     </cc:Agent>
    </dc:creator>
   </cc:Work>
  </rdf:RDF>
 </metadata>
 <defs>
  <style type="text/css">*{stroke-linecap:butt;stroke-linejoin:round;}</style>
 </defs>
 <g id="figure_1">
  <g id="patch_1">
   <path d="M 0 576 
L 1440 576 
L 1440 0 
L 0 0 
z
" style="fill:#ffffff;"/>
  </g>
  <g id="axes_1">
   <g id="patch_2">
    <path d="M 180 512.64 
L 1296 512.64 
L 1296 69.12 
L 180 69.12 
z
" style="fill:#eaeaf2;"/>
   </g>
   <g id="matplotlib.axis_1">
    <g id="xtick_1">
     <g id="line2d_1">
      <path clip-path="url(#p4123043d13)" d="M 271.673053 512.64 
L 271.673053 69.12 
" style="fill:none;stroke:#ffffff;stroke-linecap:round;"/>
     </g>
     <g id="text_1">
      <!-- 2020-11 -->
      <g style="fill:#262626;" transform="translate(251.896257 530.013594)scale(0.11 -0.11)">
       <defs>
        <path d="M 3222 541 
L 3222 0 
L 194 0 
Q 188 203 259 391 
Q 375 700 629 1000 
Q 884 1300 1366 1694 
Q 2113 2306 2375 2664 
Q 2638 3022 2638 3341 
Q 2638 3675 2398 3904 
Q 2159 4134 1775 4134 
Q 1369 4134 1125 3890 
Q 881 3647 878 3216 
L 300 3275 
Q 359 3922 746 4261 
Q 1134 4600 1788 4600 
Q 2447 4600 2831 4234 
Q 3216 3869 3216 3328 
Q 3216 3053 3103 2787 
Q 2991 2522 2730 2228 
Q 2469 1934 1863 1422 
Q 1356 997 1212 845 
Q 1069 694 975 541 
L 3222 541 
z
" id="ArialMT-32" transform="scale(0.015625)"/>
        <path d="M 266 2259 
Q 266 3072 433 3567 
Q 600 4063 929 4331 
Q 1259 4600 1759 4600 
Q 2128 4600 2406 4451 
Q 2684 4303 2865 4023 
Q 3047 3744 3150 3342 
Q 3253 2941 3253 2259 
Q 3253 1453 3087 958 
Q 2922 463 2592 192 
Q 2263 -78 1759 -78 
Q 1097 -78 719 397 
Q 266 969 266 2259 
z
M 844 2259 
Q 844 1131 1108 757 
Q 1372 384 1759 384 
Q 2147 384 2411 759 
Q 2675 1134 2675 2259 
Q 2675 3391 2411 3762 
Q 2147 4134 1753 4134 
Q 1366 4134 1134 3806 
Q 844 3388 844 2259 
z
" id="ArialMT-30" transform="scale(0.015625)"/>
        <path d="M 203 1375 
L 203 1941 
L 1931 1941 
L 1931 1375 
L 203 1375 
z
" id="ArialMT-2d" transform="scale(0.015625)"/>
        <path d="M 2384 0 
L 1822 0 
L 1822 3584 
Q 1619 3391 1289 3197 
Q 959 3003 697 2906 
L 697 3450 
Q 1169 3672 1522 3987 
Q 1875 4303 2022 4600 
L 2384 4600 
L 2384 0 
z
" id="ArialMT-31" transform="scale(0.015625)"/>
       </defs>
       <use xlink:href="#ArialMT-32"/>
       <use x="55.615234" xlink:href="#ArialMT-30"/>
       <use x="111.230469" xlink:href="#ArialMT-32"/>
       <use x="166.845703" xlink:href="#ArialMT-30"/>
       <use x="222.460938" xlink:href="#ArialMT-2d"/>
       <use x="255.761719" xlink:href="#ArialMT-31"/>
       <use x="304.001953" xlink:href="#ArialMT-31"/>
      </g>
     </g>
    </g>
    <g id="xtick_2">
     <g id="line2d_2">
      <path clip-path="url(#p4123043d13)" d="M 408.158989 512.64 
L 408.158989 69.12 
" style="fill:none;stroke:#ffffff;stroke-linecap:round;"/>
     </g>
     <g id="text_2">
      <!-- 2020-12 -->
      <g style="fill:#262626;" transform="translate(387.976567 530.013594)scale(0.11 -0.11)">
       <use xlink:href="#ArialMT-32"/>
       <use x="55.615234" xlink:href="#ArialMT-30"/>
       <use x="111.230469" xlink:href="#ArialMT-32"/>
       <use x="166.845703" xlink:href="#ArialMT-30"/>
       <use x="222.460938" xlink:href="#ArialMT-2d"/>
       <use x="255.761719" xlink:href="#ArialMT-31"/>
       <use x="311.376953" xlink:href="#ArialMT-32"/>
      </g>
     </g>
    </g>
    <g id="xtick_3">
     <g id="line2d_3">
      <path clip-path="url(#p4123043d13)" d="M 549.194456 512.64 
L 549.194456 69.12 
" style="fill:none;stroke:#ffffff;stroke-linecap:round;"/>
     </g>
     <g id="text_3">
      <!-- 2021-01 -->
      <g style="fill:#262626;" transform="translate(529.012034 530.013594)scale(0.11 -0.11)">
       <use xlink:href="#ArialMT-32"/>
       <use x="55.615234" xlink:href="#ArialMT-30"/>
       <use x="111.230469" xlink:href="#ArialMT-32"/>
       <use x="166.845703" xlink:href="#ArialMT-31"/>
       <use x="222.460938" xlink:href="#ArialMT-2d"/>
       <use x="255.761719" xlink:href="#ArialMT-30"/>
       <use x="311.376953" xlink:href="#ArialMT-31"/>
      </g>
     </g>
    </g>
    <g id="xtick_4">
     <g id="line2d_4">
      <path clip-path="url(#p4123043d13)" d="M 690.229923 512.64 
L 690.229923 69.12 
" style="fill:none;stroke:#ffffff;stroke-linecap:round;"/>
     </g>
     <g id="text_4">
      <!-- 2021-02 -->
      <g style="fill:#262626;" transform="translate(670.047501 530.013594)scale(0.11 -0.11)">
       <use xlink:href="#ArialMT-32"/>
       <use x="55.615234" xlink:href="#ArialMT-30"/>
       <use x="111.230469" xlink:href="#ArialMT-32"/>
       <use x="166.845703" xlink:href="#ArialMT-31"/>
       <use x="222.460938" xlink:href="#ArialMT-2d"/>
       <use x="255.761719" xlink:href="#ArialMT-30"/>
       <use x="311.376953" xlink:href="#ArialMT-32"/>
      </g>
     </g>
    </g>
    <g id="xtick_5">
     <g id="line2d_5">
      <path clip-path="url(#p4123043d13)" d="M 817.616796 512.64 
L 817.616796 69.12 
" style="fill:none;stroke:#ffffff;stroke-linecap:round;"/>
     </g>
     <g id="text_5">
      <!-- 2021-03 -->
      <g style="fill:#262626;" transform="translate(797.434374 530.013594)scale(0.11 -0.11)">
       <defs>
        <path d="M 269 1209 
L 831 1284 
Q 928 806 1161 595 
Q 1394 384 1728 384 
Q 2125 384 2398 659 
Q 2672 934 2672 1341 
Q 2672 1728 2419 1979 
Q 2166 2231 1775 2231 
Q 1616 2231 1378 2169 
L 1441 2663 
Q 1497 2656 1531 2656 
Q 1891 2656 2178 2843 
Q 2466 3031 2466 3422 
Q 2466 3731 2256 3934 
Q 2047 4138 1716 4138 
Q 1388 4138 1169 3931 
Q 950 3725 888 3313 
L 325 3413 
Q 428 3978 793 4289 
Q 1159 4600 1703 4600 
Q 2078 4600 2393 4439 
Q 2709 4278 2876 4000 
Q 3044 3722 3044 3409 
Q 3044 3113 2884 2869 
Q 2725 2625 2413 2481 
Q 2819 2388 3044 2092 
Q 3269 1797 3269 1353 
Q 3269 753 2831 336 
Q 2394 -81 1725 -81 
Q 1122 -81 723 278 
Q 325 638 269 1209 
z
" id="ArialMT-33" transform="scale(0.015625)"/>
       </defs>
       <use xlink:href="#ArialMT-32"/>
       <use x="55.615234" xlink:href="#ArialMT-30"/>
       <use x="111.230469" xlink:href="#ArialMT-32"/>
       <use x="166.845703" xlink:href="#ArialMT-31"/>
       <use x="222.460938" xlink:href="#ArialMT-2d"/>
       <use x="255.761719" xlink:href="#ArialMT-30"/>
       <use x="311.376953" xlink:href="#ArialMT-33"/>
      </g>
     </g>
    </g>
    <g id="xtick_6">
     <g id="line2d_6">
      <path clip-path="url(#p4123043d13)" d="M 958.652263 512.64 
L 958.652263 69.12 
" style="fill:none;stroke:#ffffff;stroke-linecap:round;"/>
     </g>
     <g id="text_6">
      <!-- 2021-04 -->
      <g style="fill:#262626;" transform="translate(938.469841 530.013594)scale(0.11 -0.11)">
       <defs>
        <path d="M 2069 0 
L 2069 1097 
L 81 1097 
L 81 1613 
L 2172 4581 
L 2631 4581 
L 2631 1613 
L 3250 1613 
L 3250 1097 
L 2631 1097 
L 2631 0 
L 2069 0 
z
M 2069 1613 
L 2069 3678 
L 634 1613 
L 2069 1613 
z
" id="ArialMT-34" transform="scale(0.015625)"/>
       </defs>
       <use xlink:href="#ArialMT-32"/>
       <use x="55.615234" xlink:href="#ArialMT-30"/>
       <use x="111.230469" xlink:href="#ArialMT-32"/>
       <use x="166.845703" xlink:href="#ArialMT-31"/>
       <use x="222.460938" xlink:href="#ArialMT-2d"/>
       <use x="255.761719" xlink:href="#ArialMT-30"/>
       <use x="311.376953" xlink:href="#ArialMT-34"/>
      </g>
     </g>
    </g>
    <g id="xtick_7">
     <g id="line2d_7">
      <path clip-path="url(#p4123043d13)" d="M 1095.138198 512.64 
L 1095.138198 69.12 
" style="fill:none;stroke:#ffffff;stroke-linecap:round;"/>
     </g>
     <g id="text_7">
      <!-- 2021-05 -->
      <g style="fill:#262626;" transform="translate(1074.955776 530.013594)scale(0.11 -0.11)">
       <defs>
        <path d="M 266 1200 
L 856 1250 
Q 922 819 1161 601 
Q 1400 384 1738 384 
Q 2144 384 2425 690 
Q 2706 997 2706 1503 
Q 2706 1984 2436 2262 
Q 2166 2541 1728 2541 
Q 1456 2541 1237 2417 
Q 1019 2294 894 2097 
L 366 2166 
L 809 4519 
L 3088 4519 
L 3088 3981 
L 1259 3981 
L 1013 2750 
Q 1425 3038 1878 3038 
Q 2478 3038 2890 2622 
Q 3303 2206 3303 1553 
Q 3303 931 2941 478 
Q 2500 -78 1738 -78 
Q 1113 -78 717 272 
Q 322 622 266 1200 
z
" id="ArialMT-35" transform="scale(0.015625)"/>
       </defs>
       <use xlink:href="#ArialMT-32"/>
       <use x="55.615234" xlink:href="#ArialMT-30"/>
       <use x="111.230469" xlink:href="#ArialMT-32"/>
       <use x="166.845703" xlink:href="#ArialMT-31"/>
       <use x="222.460938" xlink:href="#ArialMT-2d"/>
       <use x="255.761719" xlink:href="#ArialMT-30"/>
       <use x="311.376953" xlink:href="#ArialMT-35"/>
      </g>
     </g>
    </g>
    <g id="xtick_8">
     <g id="line2d_8">
      <path clip-path="url(#p4123043d13)" d="M 1236.173665 512.64 
L 1236.173665 69.12 
" style="fill:none;stroke:#ffffff;stroke-linecap:round;"/>
     </g>
     <g id="text_8">
      <!-- 2021-06 -->
      <g style="fill:#262626;" transform="translate(1215.991243 530.013594)scale(0.11 -0.11)">
       <defs>
        <path d="M 3184 3459 
L 2625 3416 
Q 2550 3747 2413 3897 
Q 2184 4138 1850 4138 
Q 1581 4138 1378 3988 
Q 1113 3794 959 3422 
Q 806 3050 800 2363 
Q 1003 2672 1297 2822 
Q 1591 2972 1913 2972 
Q 2475 2972 2870 2558 
Q 3266 2144 3266 1488 
Q 3266 1056 3080 686 
Q 2894 316 2569 119 
Q 2244 -78 1831 -78 
Q 1128 -78 684 439 
Q 241 956 241 2144 
Q 241 3472 731 4075 
Q 1159 4600 1884 4600 
Q 2425 4600 2770 4297 
Q 3116 3994 3184 3459 
z
M 888 1484 
Q 888 1194 1011 928 
Q 1134 663 1356 523 
Q 1578 384 1822 384 
Q 2178 384 2434 671 
Q 2691 959 2691 1453 
Q 2691 1928 2437 2201 
Q 2184 2475 1800 2475 
Q 1419 2475 1153 2201 
Q 888 1928 888 1484 
z
" id="ArialMT-36" transform="scale(0.015625)"/>
       </defs>
       <use xlink:href="#ArialMT-32"/>
       <use x="55.615234" xlink:href="#ArialMT-30"/>
       <use x="111.230469" xlink:href="#ArialMT-32"/>
       <use x="166.845703" xlink:href="#ArialMT-31"/>
       <use x="222.460938" xlink:href="#ArialMT-2d"/>
       <use x="255.761719" xlink:href="#ArialMT-30"/>
       <use x="311.376953" xlink:href="#ArialMT-36"/>
      </g>
     </g>
    </g>
   </g>
   <g id="matplotlib.axis_2">
    <g id="ytick_1">
     <g id="line2d_9">
      <path clip-path="url(#p4123043d13)" d="M 180 496.616233 
L 1296 496.616233 
" style="fill:none;stroke:#ffffff;stroke-linecap:round;"/>
     </g>
     <g id="text_9">
      <!-- −100 -->
      <g style="fill:#262626;" transform="translate(145.724219 500.55303)scale(0.11 -0.11)">
       <defs>
        <path d="M 3381 1997 
L 356 1997 
L 356 2522 
L 3381 2522 
L 3381 1997 
z
" id="ArialMT-2212" transform="scale(0.015625)"/>
       </defs>
       <use xlink:href="#ArialMT-2212"/>
       <use x="58.398438" xlink:href="#ArialMT-31"/>
       <use x="114.013672" xlink:href="#ArialMT-30"/>
       <use x="169.628906" xlink:href="#ArialMT-30"/>
      </g>
     </g>
    </g>
    <g id="ytick_2">
     <g id="line2d_10">
      <path clip-path="url(#p4123043d13)" d="M 180 438.70897 
L 1296 438.70897 
" style="fill:none;stroke:#ffffff;stroke-linecap:round;"/>
     </g>
     <g id="text_10">
      <!-- 0 -->
      <g style="fill:#262626;" transform="translate(164.382969 442.645767)scale(0.11 -0.11)">
       <use xlink:href="#ArialMT-30"/>
      </g>
     </g>
    </g>
    <g id="ytick_3">
     <g id="line2d_11">
      <path clip-path="url(#p4123043d13)" d="M 180 380.801707 
L 1296 380.801707 
" style="fill:none;stroke:#ffffff;stroke-linecap:round;"/>
     </g>
     <g id="text_11">
      <!-- 100 -->
      <g style="fill:#262626;" transform="translate(152.148906 384.738504)scale(0.11 -0.11)">
       <use xlink:href="#ArialMT-31"/>
       <use x="55.615234" xlink:href="#ArialMT-30"/>
       <use x="111.230469" xlink:href="#ArialMT-30"/>
      </g>
     </g>
    </g>
    <g id="ytick_4">
     <g id="line2d_12">
      <path clip-path="url(#p4123043d13)" d="M 180 322.894444 
L 1296 322.894444 
" style="fill:none;stroke:#ffffff;stroke-linecap:round;"/>
     </g>
     <g id="text_12">
      <!-- 200 -->
      <g style="fill:#262626;" transform="translate(152.148906 326.831241)scale(0.11 -0.11)">
       <use xlink:href="#ArialMT-32"/>
       <use x="55.615234" xlink:href="#ArialMT-30"/>
       <use x="111.230469" xlink:href="#ArialMT-30"/>
      </g>
     </g>
    </g>
    <g id="ytick_5">
     <g id="line2d_13">
      <path clip-path="url(#p4123043d13)" d="M 180 264.987181 
L 1296 264.987181 
" style="fill:none;stroke:#ffffff;stroke-linecap:round;"/>
     </g>
     <g id="text_13">
      <!-- 300 -->
      <g style="fill:#262626;" transform="translate(152.148906 268.923978)scale(0.11 -0.11)">
       <use xlink:href="#ArialMT-33"/>
       <use x="55.615234" xlink:href="#ArialMT-30"/>
       <use x="111.230469" xlink:href="#ArialMT-30"/>
      </g>
     </g>
    </g>
    <g id="ytick_6">
     <g id="line2d_14">
      <path clip-path="url(#p4123043d13)" d="M 180 207.079918 
L 1296 207.079918 
" style="fill:none;stroke:#ffffff;stroke-linecap:round;"/>
     </g>
     <g id="text_14">
      <!-- 400 -->
      <g style="fill:#262626;" transform="translate(152.148906 211.016715)scale(0.11 -0.11)">
       <use xlink:href="#ArialMT-34"/>
       <use x="55.615234" xlink:href="#ArialMT-30"/>
       <use x="111.230469" xlink:href="#ArialMT-30"/>
      </g>
     </g>
    </g>
    <g id="ytick_7">
     <g id="line2d_15">
      <path clip-path="url(#p4123043d13)" d="M 180 149.172655 
L 1296 149.172655 
" style="fill:none;stroke:#ffffff;stroke-linecap:round;"/>
     </g>
     <g id="text_15">
      <!-- 500 -->
      <g style="fill:#262626;" transform="translate(152.148906 153.109452)scale(0.11 -0.11)">
       <use xlink:href="#ArialMT-35"/>
       <use x="55.615234" xlink:href="#ArialMT-30"/>
       <use x="111.230469" xlink:href="#ArialMT-30"/>
      </g>
     </g>
    </g>
    <g id="ytick_8">
     <g id="line2d_16">
      <path clip-path="url(#p4123043d13)" d="M 180 91.265392 
L 1296 91.265392 
" style="fill:none;stroke:#ffffff;stroke-linecap:round;"/>
     </g>
     <g id="text_16">
      <!-- 600 -->
      <g style="fill:#262626;" transform="translate(152.148906 95.202189)scale(0.11 -0.11)">
       <use xlink:href="#ArialMT-36"/>
       <use x="55.615234" xlink:href="#ArialMT-30"/>
       <use x="111.230469" xlink:href="#ArialMT-30"/>
      </g>
     </g>
    </g>
   </g>
   <g id="line2d_17">
    <path clip-path="url(#p4123043d13)" d="M 230.727273 378.154518 
L 235.276804 370.3784 
L 239.826335 367.234863 
L 244.375866 366.903964 
L 248.925397 364.835847 
L 253.474929 356.232483 
L 258.02446 345.230103 
L 262.573991 341.176594 
L 267.123522 332.738679 
L 271.673053 327.361576 
L 276.222585 323.473517 
L 280.772116 315.614674 
L 285.321647 304.19867 
L 289.871178 298.738843 
L 294.420709 278.63675 
L 298.970241 272.928748 
L 303.519772 265.979877 
L 308.069303 259.279179 
L 312.618834 250.758539 
L 317.168365 246.043233 
L 321.717896 253.653902 
L 326.267428 255.804744 
L 330.816959 239.342536 
L 335.36649 233.799984 
L 339.916021 236.281723 
L 344.465552 234.048158 
L 349.015084 219.654066 
L 353.564615 189.707739 
L 358.114146 172.583734 
L 367.213208 168.199327 
L 371.76274 167.123906 
L 376.312271 151.985293 
L 380.861802 146.111842 
L 385.411333 150.827148 
L 389.960864 154.715207 
L 394.510395 152.647091 
L 399.059927 156.53515 
L 403.609458 159.430513 
L 408.158989 166.958457 
L 412.70852 172.33556 
L 417.258051 169.026574 
L 421.807583 172.997357 
L 426.357114 181.02165 
L 430.906645 185.571506 
L 435.456176 187.970521 
L 440.005707 191.114058 
L 444.555238 194.505769 
L 449.10477 206.914469 
L 453.654301 205.839048 
L 458.203832 205.839048 
L 462.753363 209.148034 
L 467.302894 208.817136 
L 471.852426 213.946065 
L 476.401957 210.885252 
L 480.951488 214.111514 
L 485.501019 223.873024 
L 490.05055 225.444793 
L 494.600082 229.167403 
L 499.149613 230.739171 
L 503.699144 234.048158 
L 508.248675 245.050538 
L 512.798206 239.59071 
L 517.347737 254.977497 
L 521.897269 289.225507 
L 526.4468 296.339828 
L 530.996331 300.310611 
L 535.545862 300.476061 
L 540.095393 292.782667 
L 544.644925 289.887304 
L 549.194456 276.651358 
L 553.743987 273.921444 
L 558.293518 273.590546 
L 562.843049 272.515125 
L 567.392581 269.702487 
L 571.942112 270.695183 
L 576.491643 299.317915 
L 581.041174 304.943192 
L 585.590705 277.147706 
L 590.140236 267.551645 
L 594.689768 264.821732 
L 599.239299 266.062602 
L 603.78883 272.018777 
L 608.338361 255.887468 
L 612.887892 251.420336 
L 617.437424 257.128338 
L 621.986955 260.023701 
L 626.536486 261.926368 
L 631.086017 264.821732 
L 635.635548 267.965269 
L 640.185079 264.821732 
L 644.734611 268.130718 
L 649.284142 270.033385 
L 653.833673 272.680574 
L 658.383204 273.83872 
L 662.932735 276.072286 
L 667.482267 280.539417 
L 672.031798 283.021157 
L 676.581329 283.848404 
L 681.13086 287.405564 
L 685.680391 288.39826 
L 690.229923 288.067362 
L 694.779454 288.977333 
L 699.328985 286.330144 
L 703.878516 281.780287 
L 708.428047 279.133098 
L 712.977578 280.787591 
L 717.52711 281.201215 
L 722.076641 280.953041 
L 726.626172 283.103882 
L 731.175703 288.150086 
L 735.725234 287.15739 
L 740.274766 297.167074 
L 744.824297 297.08435 
L 749.373828 296.670726 
L 753.923359 298.32522 
L 758.47289 300.889684 
L 763.022422 307.590382 
L 767.571953 322.728995 
L 772.121484 323.225343 
L 776.671015 325.707082 
L 781.220546 326.037981 
L 785.770077 326.699778 
L 790.319609 322.480821 
L 794.86914 314.787427 
L 799.418671 313.712007 
L 803.968202 312.222963 
L 808.517733 308.169454 
L 813.067265 306.514961 
L 817.616796 305.935888 
L 822.166327 308.500353 
L 826.715858 313.712007 
L 835.814921 313.132934 
L 840.364452 317.930964 
L 844.913983 316.938268 
L 849.463514 316.276471 
L 854.013045 310.816643 
L 858.562576 303.454149 
L 867.661639 289.060057 
L 872.21117 280.953041 
L 876.760701 282.276635 
L 881.310232 282.607534 
L 885.859764 275.162314 
L 890.409295 270.612458 
L 894.958826 272.184227 
L 899.508357 266.55895 
L 904.057888 266.062602 
L 908.607419 263.580862 
L 913.156951 260.520049 
L 917.706482 258.534657 
L 922.256013 248.442249 
L 926.805544 234.875404 
L 931.355075 232.890012 
L 935.904607 224.700271 
L 940.454138 225.444793 
L 945.003669 226.851112 
L 949.5532 221.474009 
L 954.102731 215.021485 
L 958.652263 206.666295 
L 963.201794 202.199163 
L 967.751325 192.02403 
L 972.300856 185.985129 
L 976.850387 184.661535 
L 981.399918 217.834124 
L 985.94945 219.074994 
L 990.498981 191.527682 
L 995.048512 169.109298 
L 999.598043 154.384309 
L 1004.147574 150.992597 
L 1008.697106 151.240771 
L 1013.246637 102.929569 
L 1017.796168 89.28 
L 1022.345699 111.781108 
L 1026.89523 126.092474 
L 1031.444762 137.094854 
L 1035.994293 140.238391 
L 1040.543824 136.929405 
L 1045.093355 140.486565 
L 1049.642886 145.698219 
L 1054.192417 144.705523 
L 1058.741949 149.338104 
L 1063.29148 157.858744 
L 1067.841011 159.01689 
L 1072.390542 165.552138 
L 1076.940073 177.216315 
L 1081.489605 185.81968 
L 1086.039136 198.476553 
L 1090.588667 207.576266 
L 1095.138198 223.293952 
L 1099.687729 227.34746 
L 1104.23726 226.10659 
L 1108.786792 261.843644 
L 1113.336323 285.585622 
L 1117.885854 288.150086 
L 1122.435385 286.164694 
L 1126.984916 278.057677 
L 1131.534448 277.809503 
L 1136.083979 279.050373 
L 1140.63351 254.977497 
L 1145.183041 255.473845 
L 1154.282104 282.938432 
L 1158.831635 293.113566 
L 1163.381166 300.724235 
L 1167.930697 301.634206 
L 1172.480228 307.755831 
L 1177.029759 308.913976 
L 1181.579291 316.524645 
L 1186.128822 324.631662 
L 1190.678353 333.483201 
L 1195.227884 334.227723 
L 1199.777415 333.731375 
L 1204.326947 341.507493 
L 1208.876478 351.434452 
L 1213.426009 360.947788 
L 1217.97554 367.069413 
L 1222.525071 372.529241 
L 1227.074603 371.701994 
L 1231.624134 372.529241 
L 1236.173665 375.838227 
L 1240.723196 382.538925 
L 1245.272727 386.17881 
L 1245.272727 386.17881 
" style="fill:none;stroke:#4c72b0;stroke-linecap:round;stroke-width:1.5;"/>
   </g>
   <g id="line2d_18">
    <path clip-path="url(#p4123043d13)" d="M 258.02446 409.589889 
L 262.573991 405.370931 
L 267.123522 406.115453 
L 276.222585 401.151974 
L 280.772116 399.66293 
L 285.321647 399.414756 
L 289.871178 404.62641 
L 294.420709 401.565597 
L 298.970241 396.684842 
L 303.519772 399.828379 
L 308.069303 409.672614 
L 312.618834 409.920788 
L 317.168365 409.755339 
L 321.717896 406.198178 
L 326.267428 410.251686 
L 330.816959 412.816151 
L 335.36649 416.125137 
L 339.916021 413.974296 
L 344.465552 420.840443 
L 349.015084 426.962068 
L 353.564615 432.752794 
L 358.114146 431.4292 
L 362.663677 438.791695 
L 367.213208 437.716274 
L 371.76274 434.903636 
L 376.312271 440.280739 
L 380.861802 442.348855 
L 385.411333 436.309955 
L 389.960864 441.107985 
L 394.510395 440.777087 
L 399.059927 440.859811 
L 403.609458 441.273435 
L 408.158989 443.920624 
L 412.70852 442.845203 
L 417.258051 448.884103 
L 421.807583 450.704046 
L 426.357114 454.757554 
L 430.906645 455.253902 
L 435.456176 457.901092 
L 440.005707 455.005728 
L 444.555238 457.15657 
L 449.10477 456.163874 
L 453.654301 454.840279 
L 458.203832 450.373147 
L 462.753363 448.305031 
L 467.302894 445.244218 
L 471.852426 446.650538 
L 476.401957 444.334247 
L 485.501019 442.100681 
L 490.05055 444.499696 
L 494.600082 444.830595 
L 499.149613 446.402364 
L 503.699144 444.168798 
L 508.248675 446.402364 
L 512.798206 447.891407 
L 517.347737 448.801379 
L 521.897269 446.319639 
L 526.4468 448.966828 
L 530.996331 448.222306 
L 535.545862 444.416972 
L 540.095393 443.589725 
L 544.644925 438.957144 
L 549.194456 439.122593 
L 553.743987 439.94984 
L 558.293518 437.385375 
L 562.843049 435.15181 
L 567.392581 436.640854 
L 571.942112 436.558129 
L 576.491643 440.115289 
L 581.041174 437.219926 
L 585.590705 438.047173 
L 590.140236 438.70897 
L 594.689768 441.769783 
L 599.239299 438.047173 
L 603.78883 438.70897 
L 608.338361 435.399984 
L 612.887892 437.716274 
L 617.437424 437.716274 
L 621.986955 434.655462 
L 626.536486 437.798999 
L 631.086017 443.258826 
L 635.635548 441.769783 
L 640.185079 441.438884 
L 644.734611 450.207698 
L 649.284142 449.545901 
L 653.833673 452.689438 
L 658.383204 451.034945 
L 662.932735 449.71135 
L 667.482267 451.531293 
L 672.031798 454.50938 
L 676.581329 446.071465 
L 681.13086 444.334247 
L 685.680391 446.485088 
L 690.229923 445.492392 
L 694.779454 446.650538 
L 699.328985 442.43158 
L 703.878516 444.74787 
L 708.428047 443.837899 
L 712.977578 448.305031 
L 717.52711 443.010652 
L 722.076641 443.589725 
L 726.626172 441.19071 
L 731.175703 443.258826 
L 735.725234 444.168798 
L 740.274766 443.755174 
L 744.824297 440.611637 
L 749.373828 444.168798 
L 753.923359 442.597029 
L 758.47289 442.762478 
L 763.022422 441.025261 
L 767.571953 436.39268 
L 772.121484 436.309955 
L 776.671015 435.896332 
L 781.220546 432.918244 
L 785.770077 433.993664 
L 790.319609 432.67007 
L 794.86914 435.813607 
L 799.418671 432.090997 
L 803.968202 425.3903 
L 808.517733 426.962068 
L 813.067265 425.22485 
L 817.616796 424.397604 
L 822.166327 422.74311 
L 826.715858 417.035109 
L 831.265389 415.959688 
L 835.814921 421.50224 
L 840.364452 416.373311 
L 844.913983 416.70421 
L 849.463514 411.492556 
L 854.013045 414.139746 
L 858.562576 412.319803 
L 863.112108 415.628789 
L 867.661639 413.312499 
L 872.21117 414.305195 
L 876.760701 413.229774 
L 881.310232 418.358703 
L 885.859764 413.726122 
L 890.409295 414.636094 
L 894.958826 417.117833 
L 899.508357 416.952384 
L 904.057888 413.560673 
L 908.607419 415.297891 
L 913.156951 410.830759 
L 917.706482 407.852671 
L 922.256013 410.251686 
L 926.805544 403.137366 
L 931.355075 398.587509 
L 935.904607 396.684842 
L 940.454138 394.534001 
L 945.003669 392.052261 
L 949.5532 393.872204 
L 954.102731 392.714058 
L 958.652263 395.443972 
L 963.201794 403.38554 
L 967.751325 406.777251 
L 972.300856 411.327107 
L 976.850387 415.215166 
L 981.399918 417.117833 
L 985.94945 418.110529 
L 990.498981 420.592269 
L 995.048512 420.592269 
L 999.598043 425.142126 
L 1004.147574 419.351399 
L 1008.697106 421.005892 
L 1013.246637 422.329487 
L 1017.796168 429.195634 
L 1022.345699 432.008272 
L 1026.89523 434.655462 
L 1031.444762 438.791695 
L 1035.994293 446.981436 
L 1040.543824 450.042249 
L 1045.093355 457.404744 
L 1049.642886 454.592105 
L 1054.192417 456.412048 
L 1058.741949 455.419352 
L 1063.29148 453.351235 
L 1067.841011 453.103061 
L 1072.390542 458.976512 
L 1076.940073 459.059237 
L 1081.489605 465.180862 
L 1086.039136 466.339007 
L 1090.588667 471.137037 
L 1095.138198 477.75501 
L 1099.687729 482.801215 
L 1104.23726 480.733098 
L 1108.786792 474.446024 
L 1113.336323 478.085909 
L 1117.885854 485.117505 
L 1122.435385 482.966664 
L 1126.984916 485.531128 
L 1131.534448 481.229446 
L 1136.083979 480.898547 
L 1140.63351 492.48 
L 1145.183041 489.171014 
L 1149.732572 485.20023 
L 1154.282104 488.840115 
L 1158.831635 482.553041 
L 1163.381166 484.124809 
L 1167.930697 480.981272 
L 1172.480228 483.463012 
L 1177.029759 478.582257 
L 1181.579291 477.010488 
L 1186.128822 476.017792 
L 1190.678353 475.43872 
L 1195.227884 476.017792 
L 1199.777415 478.416808 
L 1204.326947 474.115125 
L 1208.876478 476.100517 
L 1213.426009 474.776922 
L 1217.97554 474.611473 
L 1222.525071 475.852343 
L 1227.074603 474.363299 
L 1231.624134 472.708806 
L 1236.173665 466.008108 
L 1240.723196 469.978892 
L 1245.272727 467.331703 
L 1245.272727 467.331703 
" style="fill:none;stroke:#55a868;stroke-linecap:round;stroke-width:1.5;"/>
   </g>
   <g id="patch_3">
    <path d="M 180 512.64 
L 180 69.12 
" style="fill:none;stroke:#ffffff;stroke-linecap:square;stroke-linejoin:miter;stroke-width:1.25;"/>
   </g>
   <g id="patch_4">
    <path d="M 1296 512.64 
L 1296 69.12 
" style="fill:none;stroke:#ffffff;stroke-linecap:square;stroke-linejoin:miter;stroke-width:1.25;"/>
   </g>
   <g id="patch_5">
    <path d="M 180 512.64 
L 1296 512.64 
" style="fill:none;stroke:#ffffff;stroke-linecap:square;stroke-linejoin:miter;stroke-width:1.25;"/>
   </g>
   <g id="patch_6">
    <path d="M 180 69.12 
L 1296 69.12 
" style="fill:none;stroke:#ffffff;stroke-linecap:square;stroke-linejoin:miter;stroke-width:1.25;"/>
   </g>
   <g id="text_17">
    <!-- Zgony i respiratory -->
    <g style="fill:#262626;" transform="translate(655.198437 63.12)scale(0.2 -0.2)">
     <defs>
      <path d="M 128 0 
L 128 563 
L 2475 3497 
Q 2725 3809 2950 4041 
L 394 4041 
L 394 4581 
L 3675 4581 
L 3675 4041 
L 1103 863 
L 825 541 
L 3750 541 
L 3750 0 
L 128 0 
z
" id="ArialMT-5a" transform="scale(0.015625)"/>
      <path d="M 319 -275 
L 866 -356 
Q 900 -609 1056 -725 
Q 1266 -881 1628 -881 
Q 2019 -881 2231 -725 
Q 2444 -569 2519 -288 
Q 2563 -116 2559 434 
Q 2191 0 1641 0 
Q 956 0 581 494 
Q 206 988 206 1678 
Q 206 2153 378 2554 
Q 550 2956 876 3175 
Q 1203 3394 1644 3394 
Q 2231 3394 2613 2919 
L 2613 3319 
L 3131 3319 
L 3131 450 
Q 3131 -325 2973 -648 
Q 2816 -972 2473 -1159 
Q 2131 -1347 1631 -1347 
Q 1038 -1347 672 -1080 
Q 306 -813 319 -275 
z
M 784 1719 
Q 784 1066 1043 766 
Q 1303 466 1694 466 
Q 2081 466 2343 764 
Q 2606 1063 2606 1700 
Q 2606 2309 2336 2618 
Q 2066 2928 1684 2928 
Q 1309 2928 1046 2623 
Q 784 2319 784 1719 
z
" id="ArialMT-67" transform="scale(0.015625)"/>
      <path d="M 213 1659 
Q 213 2581 725 3025 
Q 1153 3394 1769 3394 
Q 2453 3394 2887 2945 
Q 3322 2497 3322 1706 
Q 3322 1066 3130 698 
Q 2938 331 2570 128 
Q 2203 -75 1769 -75 
Q 1072 -75 642 372 
Q 213 819 213 1659 
z
M 791 1659 
Q 791 1022 1069 705 
Q 1347 388 1769 388 
Q 2188 388 2466 706 
Q 2744 1025 2744 1678 
Q 2744 2294 2464 2611 
Q 2184 2928 1769 2928 
Q 1347 2928 1069 2612 
Q 791 2297 791 1659 
z
" id="ArialMT-6f" transform="scale(0.015625)"/>
      <path d="M 422 0 
L 422 3319 
L 928 3319 
L 928 2847 
Q 1294 3394 1984 3394 
Q 2284 3394 2536 3286 
Q 2788 3178 2913 3003 
Q 3038 2828 3088 2588 
Q 3119 2431 3119 2041 
L 3119 0 
L 2556 0 
L 2556 2019 
Q 2556 2363 2490 2533 
Q 2425 2703 2258 2804 
Q 2091 2906 1866 2906 
Q 1506 2906 1245 2678 
Q 984 2450 984 1813 
L 984 0 
L 422 0 
z
" id="ArialMT-6e" transform="scale(0.015625)"/>
      <path d="M 397 -1278 
L 334 -750 
Q 519 -800 656 -800 
Q 844 -800 956 -737 
Q 1069 -675 1141 -563 
Q 1194 -478 1313 -144 
Q 1328 -97 1363 -6 
L 103 3319 
L 709 3319 
L 1400 1397 
Q 1534 1031 1641 628 
Q 1738 1016 1872 1384 
L 2581 3319 
L 3144 3319 
L 1881 -56 
Q 1678 -603 1566 -809 
Q 1416 -1088 1222 -1217 
Q 1028 -1347 759 -1347 
Q 597 -1347 397 -1278 
z
" id="ArialMT-79" transform="scale(0.015625)"/>
      <path id="ArialMT-20" transform="scale(0.015625)"/>
      <path d="M 425 3934 
L 425 4581 
L 988 4581 
L 988 3934 
L 425 3934 
z
M 425 0 
L 425 3319 
L 988 3319 
L 988 0 
L 425 0 
z
" id="ArialMT-69" transform="scale(0.015625)"/>
      <path d="M 416 0 
L 416 3319 
L 922 3319 
L 922 2816 
Q 1116 3169 1280 3281 
Q 1444 3394 1641 3394 
Q 1925 3394 2219 3213 
L 2025 2691 
Q 1819 2813 1613 2813 
Q 1428 2813 1281 2702 
Q 1134 2591 1072 2394 
Q 978 2094 978 1738 
L 978 0 
L 416 0 
z
" id="ArialMT-72" transform="scale(0.015625)"/>
      <path d="M 2694 1069 
L 3275 997 
Q 3138 488 2766 206 
Q 2394 -75 1816 -75 
Q 1088 -75 661 373 
Q 234 822 234 1631 
Q 234 2469 665 2931 
Q 1097 3394 1784 3394 
Q 2450 3394 2872 2941 
Q 3294 2488 3294 1666 
Q 3294 1616 3291 1516 
L 816 1516 
Q 847 969 1125 678 
Q 1403 388 1819 388 
Q 2128 388 2347 550 
Q 2566 713 2694 1069 
z
M 847 1978 
L 2700 1978 
Q 2663 2397 2488 2606 
Q 2219 2931 1791 2931 
Q 1403 2931 1139 2672 
Q 875 2413 847 1978 
z
" id="ArialMT-65" transform="scale(0.015625)"/>
      <path d="M 197 991 
L 753 1078 
Q 800 744 1014 566 
Q 1228 388 1613 388 
Q 2000 388 2187 545 
Q 2375 703 2375 916 
Q 2375 1106 2209 1216 
Q 2094 1291 1634 1406 
Q 1016 1563 777 1677 
Q 538 1791 414 1992 
Q 291 2194 291 2438 
Q 291 2659 392 2848 
Q 494 3038 669 3163 
Q 800 3259 1026 3326 
Q 1253 3394 1513 3394 
Q 1903 3394 2198 3281 
Q 2494 3169 2634 2976 
Q 2775 2784 2828 2463 
L 2278 2388 
Q 2241 2644 2061 2787 
Q 1881 2931 1553 2931 
Q 1166 2931 1000 2803 
Q 834 2675 834 2503 
Q 834 2394 903 2306 
Q 972 2216 1119 2156 
Q 1203 2125 1616 2013 
Q 2213 1853 2448 1751 
Q 2684 1650 2818 1456 
Q 2953 1263 2953 975 
Q 2953 694 2789 445 
Q 2625 197 2315 61 
Q 2006 -75 1616 -75 
Q 969 -75 630 194 
Q 291 463 197 991 
z
" id="ArialMT-73" transform="scale(0.015625)"/>
      <path d="M 422 -1272 
L 422 3319 
L 934 3319 
L 934 2888 
Q 1116 3141 1344 3267 
Q 1572 3394 1897 3394 
Q 2322 3394 2647 3175 
Q 2972 2956 3137 2557 
Q 3303 2159 3303 1684 
Q 3303 1175 3120 767 
Q 2938 359 2589 142 
Q 2241 -75 1856 -75 
Q 1575 -75 1351 44 
Q 1128 163 984 344 
L 984 -1272 
L 422 -1272 
z
M 931 1641 
Q 931 1000 1190 694 
Q 1450 388 1819 388 
Q 2194 388 2461 705 
Q 2728 1022 2728 1688 
Q 2728 2322 2467 2637 
Q 2206 2953 1844 2953 
Q 1484 2953 1207 2617 
Q 931 2281 931 1641 
z
" id="ArialMT-70" transform="scale(0.015625)"/>
      <path d="M 2588 409 
Q 2275 144 1986 34 
Q 1697 -75 1366 -75 
Q 819 -75 525 192 
Q 231 459 231 875 
Q 231 1119 342 1320 
Q 453 1522 633 1644 
Q 813 1766 1038 1828 
Q 1203 1872 1538 1913 
Q 2219 1994 2541 2106 
Q 2544 2222 2544 2253 
Q 2544 2597 2384 2738 
Q 2169 2928 1744 2928 
Q 1347 2928 1158 2789 
Q 969 2650 878 2297 
L 328 2372 
Q 403 2725 575 2942 
Q 747 3159 1072 3276 
Q 1397 3394 1825 3394 
Q 2250 3394 2515 3294 
Q 2781 3194 2906 3042 
Q 3031 2891 3081 2659 
Q 3109 2516 3109 2141 
L 3109 1391 
Q 3109 606 3145 398 
Q 3181 191 3288 0 
L 2700 0 
Q 2613 175 2588 409 
z
M 2541 1666 
Q 2234 1541 1622 1453 
Q 1275 1403 1131 1340 
Q 988 1278 909 1158 
Q 831 1038 831 891 
Q 831 666 1001 516 
Q 1172 366 1500 366 
Q 1825 366 2078 508 
Q 2331 650 2450 897 
Q 2541 1088 2541 1459 
L 2541 1666 
z
" id="ArialMT-61" transform="scale(0.015625)"/>
      <path d="M 1650 503 
L 1731 6 
Q 1494 -44 1306 -44 
Q 1000 -44 831 53 
Q 663 150 594 308 
Q 525 466 525 972 
L 525 2881 
L 113 2881 
L 113 3319 
L 525 3319 
L 525 4141 
L 1084 4478 
L 1084 3319 
L 1650 3319 
L 1650 2881 
L 1084 2881 
L 1084 941 
Q 1084 700 1114 631 
Q 1144 563 1211 522 
Q 1278 481 1403 481 
Q 1497 481 1650 503 
z
" id="ArialMT-74" transform="scale(0.015625)"/>
     </defs>
     <use xlink:href="#ArialMT-5a"/>
     <use x="61.083984" xlink:href="#ArialMT-67"/>
     <use x="116.699219" xlink:href="#ArialMT-6f"/>
     <use x="172.314453" xlink:href="#ArialMT-6e"/>
     <use x="227.929688" xlink:href="#ArialMT-79"/>
     <use x="277.929688" xlink:href="#ArialMT-20"/>
     <use x="305.712891" xlink:href="#ArialMT-69"/>
     <use x="327.929688" xlink:href="#ArialMT-20"/>
     <use x="355.712891" xlink:href="#ArialMT-72"/>
     <use x="389.013672" xlink:href="#ArialMT-65"/>
     <use x="444.628906" xlink:href="#ArialMT-73"/>
     <use x="494.628906" xlink:href="#ArialMT-70"/>
     <use x="550.244141" xlink:href="#ArialMT-69"/>
     <use x="572.460938" xlink:href="#ArialMT-72"/>
     <use x="605.761719" xlink:href="#ArialMT-61"/>
     <use x="661.376953" xlink:href="#ArialMT-74"/>
     <use x="689.160156" xlink:href="#ArialMT-6f"/>
     <use x="744.775391" xlink:href="#ArialMT-72"/>
     <use x="778.076172" xlink:href="#ArialMT-79"/>
    </g>
   </g>
  </g>
  <g id="legend_1">
   <g id="patch_7">
    <path d="M 584.300391 570.5 
L 855.699609 570.5 
Q 857.899609 570.5 857.899609 568.3 
L 857.899609 553.668281 
Q 857.899609 551.468281 855.699609 551.468281 
L 584.300391 551.468281 
Q 582.100391 551.468281 582.100391 553.668281 
L 582.100391 568.3 
Q 582.100391 570.5 584.300391 570.5 
z
" style="fill:#eaeaf2;opacity:0.8;stroke:#cccccc;stroke-linejoin:miter;"/>
   </g>
   <g id="line2d_19">
    <path d="M 586.500391 559.934844 
L 608.500391 559.934844 
" style="fill:none;stroke:#4c72b0;stroke-linecap:round;stroke-width:1.5;"/>
   </g>
   <g id="line2d_20"/>
   <g id="text_18">
    <!-- Zgony  -->
    <g style="fill:#262626;" transform="translate(617.300391 563.784844)scale(0.11 -0.11)">
     <use xlink:href="#ArialMT-5a"/>
     <use x="61.083984" xlink:href="#ArialMT-67"/>
     <use x="116.699219" xlink:href="#ArialMT-6f"/>
     <use x="172.314453" xlink:href="#ArialMT-6e"/>
     <use x="227.929688" xlink:href="#ArialMT-79"/>
     <use x="277.929688" xlink:href="#ArialMT-20"/>
    </g>
   </g>
   <g id="line2d_21">
    <path d="M 672.926016 559.934844 
L 694.926016 559.934844 
" style="fill:none;stroke:#55a868;stroke-linecap:round;stroke-width:1.5;"/>
   </g>
   <g id="line2d_22"/>
   <g id="text_19">
    <!-- Zmiana zajętych respiraotorów -->
    <g style="fill:#262626;" transform="translate(703.726016 563.784844)scale(0.11 -0.11)">
     <defs>
      <path d="M 422 0 
L 422 3319 
L 925 3319 
L 925 2853 
Q 1081 3097 1340 3245 
Q 1600 3394 1931 3394 
Q 2300 3394 2536 3241 
Q 2772 3088 2869 2813 
Q 3263 3394 3894 3394 
Q 4388 3394 4653 3120 
Q 4919 2847 4919 2278 
L 4919 0 
L 4359 0 
L 4359 2091 
Q 4359 2428 4304 2576 
Q 4250 2725 4106 2815 
Q 3963 2906 3769 2906 
Q 3419 2906 3187 2673 
Q 2956 2441 2956 1928 
L 2956 0 
L 2394 0 
L 2394 2156 
Q 2394 2531 2256 2718 
Q 2119 2906 1806 2906 
Q 1569 2906 1367 2781 
Q 1166 2656 1075 2415 
Q 984 2175 984 1722 
L 984 0 
L 422 0 
z
" id="ArialMT-6d" transform="scale(0.015625)"/>
      <path d="M 125 0 
L 125 456 
L 2238 2881 
Q 1878 2863 1603 2863 
L 250 2863 
L 250 3319 
L 2963 3319 
L 2963 2947 
L 1166 841 
L 819 456 
Q 1197 484 1528 484 
L 3063 484 
L 3063 0 
L 125 0 
z
" id="ArialMT-7a" transform="scale(0.015625)"/>
      <path d="M 419 3928 
L 419 4581 
L 981 4581 
L 981 3928 
L 419 3928 
z
M -294 -1288 
L -188 -809 
Q -19 -853 78 -853 
Q 250 -853 334 -739 
Q 419 -625 419 -169 
L 419 3319 
L 981 3319 
L 981 -181 
Q 981 -794 822 -1034 
Q 619 -1347 147 -1347 
Q -81 -1347 -294 -1288 
z
" id="ArialMT-6a" transform="scale(0.015625)"/>
      <path d="M 2694 1069 
L 3275 997 
Q 3138 488 2766 206 
Q 2394 -75 1816 -75 
Q 1088 -75 661 373 
Q 234 822 234 1631 
Q 234 2469 665 2931 
Q 1097 3394 1784 3394 
Q 2450 3394 2872 2941 
Q 3294 2488 3294 1666 
Q 3294 1616 3291 1516 
L 816 1516 
Q 847 969 1125 678 
Q 1403 388 1819 388 
Q 2128 388 2347 550 
Q 2566 713 2694 1069 
z
M 847 1978 
L 2700 1978 
Q 2663 2397 2488 2606 
Q 2219 2931 1791 2931 
Q 1403 2931 1139 2672 
Q 875 2413 847 1978 
z
M 2294 0 
Q 2116 -109 2017 -270 
Q 1919 -431 1919 -597 
Q 1919 -728 1991 -818 
Q 2063 -909 2225 -909 
Q 2297 -909 2372 -889 
Q 2447 -869 2510 -834 
L 2510 -1234 
Q 2282 -1344 2085 -1344 
Q 1925 -1344 1806 -1298 
Q 1688 -1253 1608 -1173 
Q 1529 -1094 1489 -991 
Q 1450 -888 1450 -769 
Q 1450 -569 1562 -367 
Q 1675 -166 1882 0 
L 2294 0 
z
" id="ArialMT-119" transform="scale(0.015625)"/>
      <path d="M 2588 1216 
L 3141 1144 
Q 3050 572 2676 248 
Q 2303 -75 1759 -75 
Q 1078 -75 664 370 
Q 250 816 250 1647 
Q 250 2184 428 2587 
Q 606 2991 970 3192 
Q 1334 3394 1763 3394 
Q 2303 3394 2647 3120 
Q 2991 2847 3088 2344 
L 2541 2259 
Q 2463 2594 2264 2762 
Q 2066 2931 1784 2931 
Q 1359 2931 1093 2626 
Q 828 2322 828 1663 
Q 828 994 1084 691 
Q 1341 388 1753 388 
Q 2084 388 2306 591 
Q 2528 794 2588 1216 
z
" id="ArialMT-63" transform="scale(0.015625)"/>
      <path d="M 422 0 
L 422 4581 
L 984 4581 
L 984 2938 
Q 1378 3394 1978 3394 
Q 2347 3394 2619 3248 
Q 2891 3103 3008 2847 
Q 3125 2591 3125 2103 
L 3125 0 
L 2563 0 
L 2563 2103 
Q 2563 2525 2380 2717 
Q 2197 2909 1863 2909 
Q 1613 2909 1392 2779 
Q 1172 2650 1078 2428 
Q 984 2206 984 1816 
L 984 0 
L 422 0 
z
" id="ArialMT-68" transform="scale(0.015625)"/>
      <path d="M 213 1659 
Q 213 2581 725 3025 
Q 1153 3394 1769 3394 
Q 2453 3394 2887 2945 
Q 3322 2497 3322 1706 
Q 3322 1066 3130 698 
Q 2938 331 2570 128 
Q 2203 -75 1769 -75 
Q 1072 -75 642 372 
Q 213 819 213 1659 
z
M 791 1659 
Q 791 1022 1069 705 
Q 1347 388 1769 388 
Q 2188 388 2466 706 
Q 2744 1025 2744 1678 
Q 2744 2294 2464 2611 
Q 2184 2928 1769 2928 
Q 1347 2928 1069 2612 
Q 791 2297 791 1659 
z
M 1454 3731 
L 1869 4606 
L 2607 4606 
L 1919 3731 
L 1454 3731 
z
" id="ArialMT-f3" transform="scale(0.015625)"/>
      <path d="M 1034 0 
L 19 3319 
L 600 3319 
L 1128 1403 
L 1325 691 
Q 1338 744 1497 1375 
L 2025 3319 
L 2603 3319 
L 3100 1394 
L 3266 759 
L 3456 1400 
L 4025 3319 
L 4572 3319 
L 3534 0 
L 2950 0 
L 2422 1988 
L 2294 2553 
L 1622 0 
L 1034 0 
z
" id="ArialMT-77" transform="scale(0.015625)"/>
     </defs>
     <use xlink:href="#ArialMT-5a"/>
     <use x="61.083984" xlink:href="#ArialMT-6d"/>
     <use x="144.384766" xlink:href="#ArialMT-69"/>
     <use x="166.601562" xlink:href="#ArialMT-61"/>
     <use x="222.216797" xlink:href="#ArialMT-6e"/>
     <use x="277.832031" xlink:href="#ArialMT-61"/>
     <use x="333.447266" xlink:href="#ArialMT-20"/>
     <use x="361.230469" xlink:href="#ArialMT-7a"/>
     <use x="411.230469" xlink:href="#ArialMT-61"/>
     <use x="466.845703" xlink:href="#ArialMT-6a"/>
     <use x="489.0625" xlink:href="#ArialMT-119"/>
     <use x="544.677734" xlink:href="#ArialMT-74"/>
     <use x="572.460938" xlink:href="#ArialMT-79"/>
     <use x="622.460938" xlink:href="#ArialMT-63"/>
     <use x="672.460938" xlink:href="#ArialMT-68"/>
     <use x="728.076172" xlink:href="#ArialMT-20"/>
     <use x="755.859375" xlink:href="#ArialMT-72"/>
     <use x="789.160156" xlink:href="#ArialMT-65"/>
     <use x="844.775391" xlink:href="#ArialMT-73"/>
     <use x="894.775391" xlink:href="#ArialMT-70"/>
     <use x="950.390625" xlink:href="#ArialMT-69"/>
     <use x="972.607422" xlink:href="#ArialMT-72"/>
     <use x="1005.908203" xlink:href="#ArialMT-61"/>
     <use x="1061.523438" xlink:href="#ArialMT-6f"/>
     <use x="1117.138672" xlink:href="#ArialMT-74"/>
     <use x="1144.921875" xlink:href="#ArialMT-6f"/>
     <use x="1200.537109" xlink:href="#ArialMT-72"/>
     <use x="1233.837891" xlink:href="#ArialMT-f3"/>
     <use x="1289.453125" xlink:href="#ArialMT-77"/>
    </g>
   </g>
  </g>
 </g>
 <defs>
  <clipPath id="p4123043d13">
   <rect height="443.52" width="1116" x="180" y="69.12"/>
  </clipPath>
 </defs>
</svg>
